<svg width="32" height="32" viewBox="0 0 32 32" fill="none" xmlns="http://www.w3.org/2000/svg">
<rect width="32" height="32" rx="16" fill="#313189"/>
<path d="M9.18648 18.8614L15.5498 12.1955C15.6089 12.1335 15.6791 12.0844 15.7563 12.0508C15.8336 12.0173 15.9164 12 16 12C16.0836 12 16.1664 12.0173 16.2437 12.0508C16.3209 12.0844 16.3911 12.1335 16.4502 12.1955L22.8135 18.8614C22.9329 18.9865 23 19.1561 23 19.333C23 19.5099 22.9329 19.6796 22.8135 19.8047C22.6941 19.9297 22.5322 20 22.3633 20C22.1945 20 22.0325 19.9297 21.9131 19.8047L16 13.6095L10.0869 19.8047C10.0278 19.8666 9.95758 19.9157 9.88033 19.9492C9.80309 19.9827 9.7203 20 9.63669 20C9.55307 20 9.47028 19.9827 9.39304 19.9492C9.31579 19.9157 9.2456 19.8666 9.18648 19.8047C9.12736 19.7427 9.08046 19.6692 9.04846 19.5883C9.01647 19.5074 9 19.4206 9 19.333C9 19.2455 9.01647 19.1587 9.04846 19.0778C9.08046 18.9969 9.12736 18.9234 9.18648 18.8614Z" fill="white"/>
</svg>
