<svg width="32" height="32" viewBox="0 0 32 32" fill="none" xmlns="http://www.w3.org/2000/svg">
<rect width="32" height="32" rx="16" fill="#F3F4F6"/>
<path d="M22.8135 13.1386L16.4502 19.8045C16.3911 19.8665 16.3209 19.9156 16.2437 19.9492C16.1664 19.9827 16.0836 20 16 20C15.9164 20 15.8336 19.9827 15.7563 19.9492C15.6791 19.9156 15.6089 19.8665 15.5498 19.8045L9.18648 13.1386C9.06708 13.0135 9 12.8439 9 12.667C9 12.4901 9.06708 12.3204 9.18648 12.1953C9.30588 12.0703 9.46783 12 9.63669 12C9.80554 12 9.96749 12.0703 10.0869 12.1953L16 18.3905L21.9131 12.1953C21.9722 12.1334 22.0424 12.0843 22.1197 12.0508C22.1969 12.0173 22.2797 12 22.3633 12C22.4469 12 22.5297 12.0173 22.607 12.0508C22.6842 12.0843 22.7544 12.1334 22.8135 12.1953C22.8726 12.2573 22.9195 12.3308 22.9515 12.4117C22.9835 12.4926 23 12.5794 23 12.667C23 12.7545 22.9835 12.8413 22.9515 12.9222C22.9195 13.0031 22.8726 13.0766 22.8135 13.1386Z" fill="#0D260F"/>
</svg>
