<svg width="17" height="17" viewBox="0 0 17 17" fill="none" xmlns="http://www.w3.org/2000/svg">
<path d="M4.505 15.997L0 17L1.003 12.495C0.334333 11.2597 0 9.928 0 8.5C0 7.344 0.221 6.239 0.663 5.185C1.09367 4.17633 1.70283 3.27817 2.4905 2.4905C3.27817 1.70283 4.17633 1.09367 5.185 0.663C6.239 0.221001 7.344 0 8.5 0C9.656 0 10.761 0.221001 11.815 0.663C12.8237 1.09367 13.7218 1.70283 14.5095 2.4905C15.2972 3.27817 15.9063 4.17633 16.337 5.185C16.779 6.239 17 7.344 17 8.5C17 9.656 16.779 10.761 16.337 11.815C15.9063 12.8237 15.2972 13.7218 14.5095 14.5095C13.7218 15.2972 12.8237 15.9063 11.815 16.337C10.761 16.779 9.656 17 8.5 17C7.072 17 5.74033 16.6657 4.505 15.997ZM4.743 14.212L5.304 14.501C6.30133 15.0337 7.36667 15.3 8.5 15.3C9.73533 15.3 10.88 14.9883 11.934 14.365C12.954 13.7643 13.7643 12.954 14.365 11.934C14.9883 10.88 15.3 9.73533 15.3 8.5C15.3 7.26467 14.9883 6.12 14.365 5.066C13.7643 4.046 12.954 3.23567 11.934 2.635C10.88 2.01167 9.73533 1.7 8.5 1.7C7.26467 1.7 6.12 2.01167 5.066 2.635C4.046 3.23567 3.23567 4.046 2.635 5.066C2.01167 6.12 1.7 7.26467 1.7 8.5C1.7 9.63333 1.96633 10.6987 2.499 11.696L2.788 12.257L2.244 14.756L4.743 14.212Z" fill="#0891B2"/>
</svg>
