<svg width="84" height="24" viewBox="0 0 84 24" fill="none" xmlns="http://www.w3.org/2000/svg">
<path d="M2 10.5C1.17157 10.5 0.5 11.1716 0.5 12C0.5 12.8284 1.17157 13.5 2 13.5V10.5ZM83.0607 13.0607C83.6464 12.4749 83.6464 11.5251 83.0607 10.9393L73.5147 1.3934C72.9289 0.807611 71.9792 0.807611 71.3934 1.3934C70.8076 1.97919 70.8076 2.92893 71.3934 3.51472L79.8787 12L71.3934 20.4853C70.8076 21.0711 70.8076 22.0208 71.3934 22.6066C71.9792 23.1924 72.9289 23.1924 73.5147 22.6066L83.0607 13.0607ZM2 12V13.5H82V12V10.5H2V12Z" fill="#D1D5DB"/>
</svg>
