<svg width="17" height="19" viewBox="0 0 17 19" fill="none" xmlns="http://www.w3.org/2000/svg">
<path d="M9.06183 11.5781V13.4118C8.48188 13.2022 7.87775 13.0974 7.24947 13.0974C6.27079 13.0974 5.35856 13.3361 4.51279 13.8134C3.69119 14.2791 3.03873 14.9078 2.55544 15.6994C2.06006 16.5144 1.81237 17.3934 1.81237 18.3364H0C0 17.079 0.332267 15.909 0.996802 14.8263C1.63717 13.7669 2.50711 12.9286 3.60661 12.3116C4.73028 11.6713 5.94456 11.3511 7.24947 11.3511C7.86567 11.3511 8.46979 11.4268 9.06183 11.5781ZM7.24947 10.4779C6.27079 10.4779 5.35856 10.2393 4.51279 9.76195C3.69119 9.3079 3.03873 8.68505 2.55544 7.89338C2.06006 7.07843 1.81237 6.19654 1.81237 5.2477C1.81237 4.29887 2.06006 3.41697 2.55544 2.60202C3.03873 1.81036 3.69119 1.18168 4.51279 0.715992C5.35856 0.238665 6.27381 0 7.25853 0C8.24325 0 9.15849 0.238665 10.0043 0.715992C10.8259 1.18168 11.4723 1.81036 11.9435 2.60202C12.4389 3.41697 12.6866 4.29887 12.6866 5.2477C12.6866 6.19654 12.4389 7.07843 11.9435 7.89338C11.4723 8.68505 10.8259 9.3079 10.0043 9.76195C9.15849 10.2393 8.24023 10.4779 7.24947 10.4779ZM7.24947 8.73162C7.914 8.73162 8.52417 8.57736 9.07996 8.26884C9.63575 7.96033 10.0737 7.5383 10.3939 7.00276C10.7141 6.46722 10.8742 5.8822 10.8742 5.2477C10.8742 4.6132 10.7141 4.02819 10.3939 3.49265C10.0737 2.95711 9.63575 2.53217 9.07996 2.21783C8.52417 1.90349 7.91702 1.74632 7.25853 1.74632C6.60004 1.74632 5.99289 1.90349 5.4371 2.21783C4.88131 2.53217 4.4403 2.95711 4.11407 3.49265C3.78785 4.02819 3.62473 4.6132 3.62473 5.2477C3.62473 5.8822 3.78785 6.46722 4.11407 7.00276C4.4403 7.5383 4.88131 7.96033 5.4371 8.26884C5.99289 8.57736 6.59701 8.73162 7.24947 8.73162ZM12.5053 16.5202L15.7132 13.4292L17 14.6691L12.5053 19L9.29744 15.909L10.5842 14.6691L12.5053 16.5202Z" fill="#4F46E5"/>
</svg>
