<svg width="25" height="25" viewBox="0 0 25 25" fill="none" xmlns="http://www.w3.org/2000/svg">
<path opacity="0.2" d="M20.2109 4.5V20.25H14.9609V4.5H20.2109Z" fill="#4F4FCB"/>
<path d="M21.7109 19.5H20.9609V4.5C20.9609 4.30109 20.8819 4.11032 20.7413 3.96967C20.6006 3.82902 20.4098 3.75 20.2109 3.75H14.9609C14.762 3.75 14.5713 3.82902 14.4306 3.96967C14.29 4.11032 14.2109 4.30109 14.2109 4.5V8.25H9.71094C9.51203 8.25 9.32126 8.32902 9.18061 8.46967C9.03996 8.61032 8.96094 8.80109 8.96094 9V12.75H5.21094C5.01203 12.75 4.82126 12.829 4.68061 12.9697C4.53996 13.1103 4.46094 13.3011 4.46094 13.5V19.5H3.71094C3.51203 19.5 3.32126 19.579 3.18061 19.7197C3.03996 19.8603 2.96094 20.0511 2.96094 20.25C2.96094 20.4489 3.03996 20.6397 3.18061 20.7803C3.32126 20.921 3.51203 21 3.71094 21H21.7109C21.9098 21 22.1006 20.921 22.2413 20.7803C22.3819 20.6397 22.4609 20.4489 22.4609 20.25C22.4609 20.0511 22.3819 19.8603 22.2413 19.7197C22.1006 19.579 21.9098 19.5 21.7109 19.5ZM15.7109 5.25H19.4609V19.5H15.7109V5.25ZM10.4609 9.75H14.2109V19.5H10.4609V9.75ZM5.96094 14.25H8.96094V19.5H5.96094V14.25Z" fill="#4F4FCB"/>
</svg>
