<svg width="25" height="25" viewBox="0 0 25 25" fill="none" xmlns="http://www.w3.org/2000/svg">
<path opacity="0.2" d="M21.2109 12.75C21.2109 14.53 20.6831 16.2701 19.6942 17.7501C18.7052 19.2302 17.2996 20.3837 15.6551 21.0649C14.0106 21.7461 12.201 21.9243 10.4551 21.5771C8.7093 21.2298 7.10565 20.3726 5.84698 19.114C4.58831 17.8553 3.73114 16.2516 3.38387 14.5058C3.03661 12.76 3.21484 10.9504 3.89603 9.30585C4.57721 7.66131 5.73077 6.25571 7.21081 5.26677C8.69085 4.27784 10.4309 3.75 12.2109 3.75C14.5979 3.75 16.8871 4.69821 18.5749 6.38604C20.2627 8.07387 21.2109 10.3631 21.2109 12.75Z" fill="#4F4FCB"/>
<path d="M16.4916 9.96937C16.5613 10.039 16.6166 10.1217 16.6544 10.2128C16.6921 10.3038 16.7115 10.4014 16.7115 10.5C16.7115 10.5986 16.6921 10.6962 16.6544 10.7872C16.6166 10.8783 16.5613 10.961 16.4916 11.0306L11.2416 16.2806C11.1719 16.3504 11.0892 16.4057 10.9981 16.4434C10.9071 16.4812 10.8095 16.5006 10.7109 16.5006C10.6124 16.5006 10.5148 16.4812 10.4237 16.4434C10.3327 16.4057 10.25 16.3504 10.1803 16.2806L7.93032 14.0306C7.78959 13.8899 7.71052 13.699 7.71052 13.5C7.71053 13.301 7.78959 13.1101 7.93032 12.9694C8.07105 12.8286 8.26192 12.7496 8.46094 12.7496C8.65996 12.7496 8.85084 12.8286 8.99157 12.9694L10.7109 14.6897L15.4303 9.96937C15.5 9.89964 15.5827 9.84432 15.6737 9.80658C15.7648 9.76884 15.8624 9.74941 15.9609 9.74941C16.0595 9.74941 16.1571 9.76884 16.2481 9.80658C16.3392 9.84432 16.4219 9.89964 16.4916 9.96937ZM21.9609 12.75C21.9609 14.6784 21.3891 16.5634 20.3178 18.1668C19.2464 19.7702 17.7237 21.0199 15.9421 21.7578C14.1605 22.4958 12.2001 22.6889 10.3088 22.3127C8.4175 21.9365 6.68021 21.0079 5.31665 19.6443C3.95309 18.2807 3.02449 16.5434 2.64829 14.6521C2.27208 12.7608 2.46516 10.8004 3.20312 9.01884C3.94107 7.23726 5.19075 5.71451 6.79413 4.64317C8.39751 3.57183 10.2826 3 12.2109 3C14.796 3.00273 17.2743 4.03084 19.1022 5.85872C20.9301 7.68661 21.9582 10.165 21.9609 12.75ZM20.4609 12.75C20.4609 11.1183 19.9771 9.52325 19.0706 8.16655C18.164 6.80984 16.8756 5.75242 15.3681 5.12799C13.8606 4.50357 12.2018 4.34019 10.6014 4.65852C9.0011 4.97685 7.53109 5.76259 6.37731 6.91637C5.22353 8.07015 4.43779 9.54016 4.11946 11.1405C3.80114 12.7408 3.96451 14.3996 4.58894 15.9071C5.21336 17.4146 6.27078 18.7031 7.62749 19.6096C8.98419 20.5161 10.5792 21 12.2109 21C14.3982 20.9975 16.4952 20.1275 18.0418 18.5809C19.5885 17.0343 20.4585 14.9373 20.4609 12.75Z" fill="#4F4FCB"/>
</svg>
