<svg width="24" height="24" viewBox="0 0 24 24" fill="none" xmlns="http://www.w3.org/2000/svg">
<path d="M15.6754 10.7375C16.0827 10.3644 16.1105 9.73188 15.7375 9.3246C15.3644 8.91732 14.7319 8.88954 14.3246 9.26255L10.6325 12.644L9.6754 11.7674C9.26812 11.3944 8.63557 11.4221 8.26255 11.8294C7.88954 12.2367 7.91732 12.8693 8.3246 13.2423L9.95712 14.7374C10.3393 15.0875 10.9257 15.0875 11.3079 14.7374L15.6754 10.7375Z" fill="url(#paint0_linear_878_7810)"/>
<path fill-rule="evenodd" clip-rule="evenodd" d="M12 2C6.47715 2 2 6.47715 2 12C2 17.5228 6.47715 22 12 22C17.5228 22 22 17.5228 22 12C22 6.47715 17.5228 2 12 2ZM4 12C4 7.58172 7.58172 4 12 4C16.4183 4 20 7.58172 20 12C20 16.4183 16.4183 20 12 20C7.58172 20 4 16.4183 4 12Z" fill="url(#paint1_linear_878_7810)"/>
<defs>
<linearGradient id="paint0_linear_878_7810" x1="-11.6866" y1="-26.75" x2="50.0848" y2="-21.771" gradientUnits="userSpaceOnUse">
<stop offset="0.17" stop-color="#8052FE"/>
<stop offset="0.34114" stop-color="#7A62FD"/>
<stop offset="1" stop-color="#4DD4F8"/>
</linearGradient>
<linearGradient id="paint1_linear_878_7810" x1="-11.6866" y1="-26.75" x2="50.0848" y2="-21.771" gradientUnits="userSpaceOnUse">
<stop offset="0.17" stop-color="#8052FE"/>
<stop offset="0.34114" stop-color="#7A62FD"/>
<stop offset="1" stop-color="#4DD4F8"/>
</linearGradient>
</defs>
</svg>
