<svg width="24" height="24" viewBox="0 0 24 24" fill="none" xmlns="http://www.w3.org/2000/svg">
<rect width="24" height="24" rx="8" fill="#FFA724"/>
<path d="M14.132 6.5C13.0422 6.50078 11.9742 6.78571 11.0473 7.32291C10.1204 7.86011 9.37119 8.62841 8.88351 9.54187C8.30335 9.46257 7.71198 9.49616 7.14629 9.64055C6.5806 9.78494 6.05271 10.037 5.59556 10.3811C5.13842 10.7252 4.76181 11.1538 4.48924 11.6404C4.21667 12.1269 4.05398 12.6609 4.01131 13.2089C3.96865 13.757 4.04693 14.3074 4.24127 14.8259C4.43562 15.3444 4.74185 15.8197 5.14087 16.2223C5.5399 16.625 6.02315 16.9462 6.5605 17.166C7.09784 17.3859 7.67774 17.4995 8.26404 17.5H14.132C15.6883 17.5 17.1808 16.9205 18.2813 15.8891C19.3818 14.8576 20 13.4587 20 12C20 10.5413 19.3818 9.14236 18.2813 8.11091C17.1808 7.07946 15.6883 6.5 14.132 6.5ZM14.132 16.5H8.26404C7.41516 16.5 6.60104 16.1839 6.00079 15.6213C5.40054 15.0587 5.06332 14.2956 5.06332 13.5C5.06332 12.7044 5.40054 11.9413 6.00079 11.3787C6.60104 10.8161 7.41516 10.5 8.26404 10.5C8.33739 10.5 8.41074 10.5 8.48342 10.5069C8.33754 10.9928 8.26372 11.4952 8.26404 12C8.26404 12.1326 8.32024 12.2598 8.42028 12.3536C8.52033 12.4473 8.65601 12.5 8.79749 12.5C8.93897 12.5 9.07466 12.4473 9.1747 12.3536C9.27474 12.2598 9.33094 12.1326 9.33094 12C9.33094 11.11 9.61252 10.24 10.1401 9.49993C10.6676 8.75991 11.4174 8.18314 12.2947 7.84254C13.172 7.50195 14.1373 7.41283 15.0687 7.58647C16 7.7601 16.8554 8.18868 17.5269 8.81802C18.1983 9.44736 18.6556 10.2492 18.8408 11.1221C19.0261 11.995 18.931 12.8998 18.5676 13.7221C18.2043 14.5443 17.5889 15.2471 16.7994 15.7416C16.0098 16.2361 15.0816 16.5 14.132 16.5Z" fill="black"/>
</svg>
