<svg width="20" height="21" viewBox="0 0 20 21" fill="none" xmlns="http://www.w3.org/2000/svg">
<path d="M3.57952 12.1523C3.81756 12.5462 3.69122 13.0585 3.29732 13.2965C2.90343 13.5346 2.39114 13.4082 2.1531 13.0143C1.81468 12.4544 1.58508 11.9718 1.45007 11.6603C1.25674 11.2143 1.2848 10.7121 1.52031 10.2915C1.8797 9.64973 2.78759 8.16611 4.18677 6.83307C5.58275 5.50308 7.54702 4.25 10.0004 4.25C12.4538 4.25 14.4181 5.50308 15.8141 6.83307C17.2133 8.16611 18.1212 9.64973 18.4806 10.2915C18.7161 10.7121 18.7441 11.2143 18.5508 11.6603C18.4158 11.9718 18.1862 12.4544 17.8478 13.0143C17.6097 13.4082 17.0974 13.5346 16.7035 13.2965C16.3096 13.0585 16.1833 12.5462 16.4213 12.1523C16.6935 11.7019 16.8824 11.3124 16.997 11.0537C16.6588 10.4578 15.858 9.17693 14.6644 8.03975C13.4315 6.86513 11.8587 5.91667 10.0004 5.91667C8.14214 5.91667 6.56932 6.86513 5.33642 8.03975C4.14282 9.17693 3.34202 10.4578 3.00389 11.0537C3.11846 11.3124 3.30733 11.7019 3.57952 12.1523Z" fill="#6B7280"/>
<path fill-rule="evenodd" clip-rule="evenodd" d="M10.0004 7.16667C7.69925 7.16667 5.83377 9.03215 5.83377 11.3333C5.83377 13.6345 7.69925 15.5 10.0004 15.5C12.3016 15.5 14.1671 13.6345 14.1671 11.3333C14.1671 9.03215 12.3016 7.16667 10.0004 7.16667ZM7.50043 11.3333C7.50043 9.95262 8.61972 8.83333 10.0004 8.83333C11.3811 8.83333 12.5004 9.95262 12.5004 11.3333C12.5004 12.714 11.3811 13.8333 10.0004 13.8333C8.61972 13.8333 7.50043 12.714 7.50043 11.3333Z" fill="#6B7280"/>
</svg>
