<svg width="40" height="36" viewBox="0 0 40 36" fill="none" xmlns="http://www.w3.org/2000/svg">
<rect width="40" height="36" rx="6" fill="#C0E0F7"/>
<path d="M14.75 15.2505V10.7504C14.75 10.5515 14.829 10.3608 14.9697 10.2201C15.1103 10.0795 15.3011 10.0004 15.5 10.0004C15.6989 10.0004 15.8897 10.0795 16.0303 10.2201C16.171 10.3608 16.25 10.5515 16.25 10.7504V15.2505C16.25 15.4494 16.171 15.6401 16.0303 15.7808C15.8897 15.9214 15.6989 16.0005 15.5 16.0005C15.3011 16.0005 15.1103 15.9214 14.9697 15.7808C14.829 15.6401 14.75 15.4494 14.75 15.2505ZM28.25 10.7504V28.0005C28.25 28.1994 28.171 28.3901 28.0303 28.5308C27.8897 28.6714 27.6989 28.7505 27.5 28.7505C27.3011 28.7505 27.1103 28.6714 26.9697 28.5308C26.829 28.3901 26.75 28.1994 26.75 28.0005V23.5005H22.25C22.0511 23.5005 21.8603 23.4214 21.7197 23.2808C21.579 23.1401 21.5 22.9494 21.5 22.7505C21.5348 20.9539 21.7618 19.1662 22.1769 17.418C23.0938 13.622 24.8319 11.0776 27.2047 10.0614C27.3187 10.0125 27.4431 9.99274 27.5667 10.0038C27.6903 10.0148 27.8092 10.0563 27.9128 10.1246C28.0164 10.1929 28.1014 10.2858 28.1603 10.395C28.2191 10.5043 28.2499 10.6264 28.25 10.7504ZM26.75 12.0536C23.7341 14.357 23.1434 19.9679 23.0281 22.0005H26.75V12.0536ZM19.2397 10.6276C19.225 10.5292 19.1909 10.4346 19.1392 10.3494C19.0876 10.2643 19.0196 10.1903 18.939 10.1317C18.8585 10.0732 18.7671 10.0312 18.6702 10.0083C18.5733 9.98547 18.4728 9.98212 18.3746 9.99849C18.2764 10.0149 18.1824 10.0506 18.0982 10.1037C18.0139 10.1568 17.9411 10.2261 17.8839 10.3076C17.8267 10.3891 17.7863 10.4812 17.7651 10.5785C17.7439 10.6757 17.7423 10.7763 17.7603 10.8742L18.5 15.3095C18.5 16.1052 18.1839 16.8682 17.6213 17.4308C17.0587 17.9934 16.2957 18.3095 15.5 18.3095C14.7044 18.3095 13.9413 17.9934 13.3787 17.4308C12.8161 16.8682 12.5 16.1052 12.5 15.3095L13.2388 10.8742C13.2568 10.7763 13.2552 10.6757 13.234 10.5785C13.2127 10.4812 13.1724 10.3891 13.1152 10.3076C13.058 10.2261 12.9852 10.1568 12.9009 10.1037C12.8167 10.0506 12.7227 10.0149 12.6245 9.99849C12.5263 9.98212 12.4258 9.98547 12.3289 10.0083C12.232 10.0312 12.1406 10.0732 12.0601 10.1317C11.9795 10.1903 11.9115 10.2643 11.8598 10.3494C11.8082 10.4346 11.7741 10.5292 11.7594 10.6276L11.0094 15.1276C11.003 15.1683 10.9998 15.2093 11 15.2505C11.0015 16.3134 11.3787 17.3416 12.0649 18.1534C12.7511 18.9652 13.7021 19.5083 14.75 19.6867V28.0005C14.75 28.1994 14.829 28.3901 14.9697 28.5308C15.1103 28.6714 15.3011 28.7505 15.5 28.7505C15.6989 28.7505 15.8897 28.6714 16.0303 28.5308C16.171 28.3901 16.25 28.1994 16.25 28.0005V19.6867C17.2979 19.5083 18.2489 18.9652 18.9351 18.1534C19.6213 17.3416 19.9985 16.3134 20 15.2505C19.9999 15.2093 19.9964 15.1682 19.9897 15.1276L19.2397 10.6276Z" fill="#1373B6"/>
</svg>
