<svg width="17" height="17" viewBox="0 0 17 17" fill="none" xmlns="http://www.w3.org/2000/svg">
<g clip-path="url(#clip0_878_3889)">
<path d="M16.3442 8.68417C16.3442 8.14035 16.3001 7.59359 16.206 7.05859H8.66016V10.1392H12.9813C12.802 11.1328 12.2258 12.0117 11.3822 12.5703V14.5692H13.9602C15.4741 13.1758 16.3442 11.1181 16.3442 8.68417Z" fill="#4285F4"/>
<path d="M8.66072 16.5002C10.8184 16.5002 12.6379 15.7918 13.9637 14.5689L11.3857 12.57C10.6684 13.058 9.74248 13.3343 8.66366 13.3343C6.57657 13.3343 4.80696 11.9263 4.17202 10.0332H1.51172V12.0938C2.86979 14.7953 5.63592 16.5002 8.66072 16.5002Z" fill="#34A853"/>
<path d="M4.16852 10.0338C3.83341 9.04023 3.83341 7.96435 4.16852 6.97078V4.91016H1.51116C0.376489 7.17067 0.376489 9.83391 1.51116 12.0944L4.16852 10.0338Z" fill="#FBBC04"/>
<path d="M8.66072 3.66644C9.80126 3.6488 10.9036 4.07798 11.7296 4.86578L14.0136 2.58174C12.5674 1.22367 10.6479 0.477023 8.66072 0.500539C5.63591 0.500539 2.86979 2.20548 1.51172 4.90987L4.16908 6.9705C4.80108 5.07449 6.57363 3.66644 8.66072 3.66644Z" fill="#EA4335"/>
</g>
<defs>
<clipPath id="clip0_878_3889">
<rect width="16" height="16" fill="white" transform="translate(0.5 0.5)"/>
</clipPath>
</defs>
</svg>
