
<!-- Generator: visioncortex VTracer 0.6.4 -->
<svg version="1.1" xmlns="http://www.w3.org/2000/svg" viewBox="0 0 512 512" preserveAspectRatio="xMidYMid meet">
<path d="M0 0 C0.669 -0.002 1.338 -0.005 2.028 -0.007 C4.292 -0.014 6.556 -0.013 8.82 -0.013 C10.451 -0.016 12.082 -0.02 13.713 -0.024 C18.212 -0.034 22.71 -0.038 27.209 -0.04 C32.055 -0.044 36.9 -0.054 41.746 -0.063 C53.456 -0.082 65.166 -0.093 76.876 -0.101 C82.386 -0.106 87.896 -0.111 93.406 -0.116 C111.716 -0.133 130.026 -0.148 148.336 -0.155 C153.089 -0.157 157.843 -0.159 162.597 -0.161 C164.369 -0.162 164.369 -0.162 166.177 -0.162 C185.327 -0.171 204.477 -0.196 223.626 -0.229 C243.273 -0.262 262.919 -0.28 282.566 -0.283 C293.602 -0.285 304.639 -0.294 315.675 -0.319 C325.073 -0.341 334.47 -0.349 343.867 -0.339 C348.664 -0.335 353.461 -0.337 358.257 -0.356 C362.647 -0.374 367.036 -0.373 371.426 -0.357 C373.015 -0.355 374.605 -0.359 376.194 -0.371 C378.353 -0.386 380.51 -0.376 382.669 -0.361 C383.869 -0.362 385.068 -0.363 386.304 -0.364 C390.278 0.239 392.465 1.649 395.586 4.134 C397.323 7.607 397.188 11.346 396.586 15.134 C394.405 17.89 392.714 19.57 389.586 21.134 C387.45 21.233 385.311 21.265 383.172 21.268 C382.503 21.271 381.834 21.273 381.145 21.276 C378.881 21.282 376.617 21.282 374.352 21.281 C372.721 21.285 371.091 21.288 369.46 21.293 C364.961 21.303 360.462 21.306 355.963 21.309 C351.118 21.313 346.272 21.322 341.427 21.331 C329.717 21.351 318.007 21.361 306.297 21.37 C300.786 21.374 295.276 21.38 289.766 21.385 C271.456 21.402 253.147 21.416 234.837 21.424 C230.083 21.426 225.329 21.427 220.575 21.429 C218.803 21.43 218.803 21.43 216.995 21.431 C197.845 21.439 178.696 21.464 159.546 21.497 C139.899 21.53 120.253 21.548 100.606 21.551 C89.57 21.553 78.534 21.562 67.497 21.588 C58.1 21.609 48.702 21.617 39.305 21.608 C34.508 21.603 29.712 21.605 24.915 21.625 C20.526 21.642 16.136 21.641 11.747 21.626 C10.157 21.623 8.568 21.628 6.978 21.639 C4.819 21.654 2.662 21.645 0.503 21.629 C-0.696 21.63 -1.896 21.631 -3.132 21.632 C-7.105 21.029 -9.292 19.619 -12.414 17.134 C-14.15 13.662 -14.016 9.922 -13.414 6.134 C-9.196 0.807 -6.571 0.01 0 0 Z " fill="#000000" transform="translate(64.41381454467773,355.86577892303467)"/>
<path d="M0 0 C0.669 -0.002 1.338 -0.005 2.028 -0.007 C4.292 -0.014 6.556 -0.013 8.82 -0.013 C10.451 -0.016 12.082 -0.02 13.713 -0.024 C18.212 -0.034 22.71 -0.038 27.209 -0.04 C32.055 -0.044 36.9 -0.054 41.746 -0.063 C53.456 -0.082 65.166 -0.093 76.876 -0.101 C82.386 -0.106 87.896 -0.111 93.406 -0.116 C111.716 -0.133 130.026 -0.148 148.336 -0.155 C153.089 -0.157 157.843 -0.159 162.597 -0.161 C164.369 -0.162 164.369 -0.162 166.177 -0.162 C185.327 -0.171 204.477 -0.196 223.626 -0.229 C243.273 -0.262 262.919 -0.28 282.566 -0.283 C293.602 -0.285 304.639 -0.294 315.675 -0.319 C325.073 -0.341 334.47 -0.349 343.867 -0.339 C348.664 -0.335 353.461 -0.337 358.257 -0.356 C362.647 -0.374 367.036 -0.373 371.426 -0.357 C373.015 -0.355 374.605 -0.359 376.194 -0.371 C378.353 -0.386 380.51 -0.376 382.669 -0.361 C383.869 -0.362 385.068 -0.363 386.304 -0.364 C390.278 0.239 392.465 1.649 395.586 4.134 C397.324 7.61 397.182 11.343 396.586 15.134 C394.057 18.416 392.509 19.827 388.586 21.134 C386.419 21.23 384.25 21.263 382.081 21.266 C381.414 21.268 380.747 21.27 380.06 21.272 C377.809 21.278 375.559 21.276 373.308 21.275 C371.685 21.277 370.061 21.28 368.438 21.284 C363.964 21.292 359.49 21.294 355.016 21.294 C350.196 21.296 345.376 21.304 340.556 21.31 C330.01 21.324 319.465 21.33 308.92 21.334 C302.338 21.337 295.757 21.341 289.175 21.346 C270.963 21.358 252.75 21.368 234.537 21.372 C232.788 21.372 232.788 21.372 231.003 21.372 C229.834 21.373 228.665 21.373 227.461 21.373 C225.092 21.374 222.723 21.374 220.354 21.374 C219.179 21.375 218.004 21.375 216.794 21.375 C197.748 21.379 178.702 21.397 159.655 21.42 C140.113 21.444 120.57 21.456 101.028 21.457 C90.05 21.458 79.073 21.464 68.096 21.482 C58.75 21.497 49.404 21.503 40.058 21.494 C35.287 21.49 30.517 21.491 25.747 21.505 C21.382 21.518 17.016 21.517 12.651 21.505 C11.07 21.503 9.489 21.506 7.909 21.515 C5.762 21.526 3.616 21.518 1.469 21.506 C-0.32 21.507 -0.32 21.507 -2.146 21.508 C-5.858 21.083 -8.245 20.091 -11.414 18.134 C-14.082 14.132 -14.248 10.841 -13.414 6.134 C-9.196 0.807 -6.571 0.01 0 0 Z " fill="#000000" transform="translate(64.41381454467773,134.86577892303467)"/>
<path d="M0 0 C0.673 -0.002 1.346 -0.005 2.039 -0.007 C4.315 -0.014 6.592 -0.013 8.869 -0.013 C10.508 -0.016 12.148 -0.02 13.788 -0.024 C18.312 -0.034 22.835 -0.038 27.359 -0.04 C32.231 -0.044 37.103 -0.054 41.975 -0.063 C53.749 -0.082 65.523 -0.093 77.297 -0.101 C82.836 -0.106 88.376 -0.111 93.916 -0.116 C112.322 -0.133 130.729 -0.148 149.136 -0.155 C153.915 -0.157 158.693 -0.159 163.472 -0.161 C165.254 -0.162 165.254 -0.162 167.072 -0.162 C186.326 -0.171 205.579 -0.196 224.833 -0.229 C244.585 -0.262 264.336 -0.28 284.088 -0.283 C295.184 -0.285 306.28 -0.294 317.377 -0.319 C326.824 -0.341 336.272 -0.349 345.719 -0.339 C350.542 -0.335 355.365 -0.337 360.188 -0.356 C364.6 -0.374 369.012 -0.373 373.424 -0.357 C375.023 -0.355 376.622 -0.359 378.221 -0.371 C380.39 -0.386 382.558 -0.377 384.727 -0.361 C385.933 -0.362 387.139 -0.363 388.381 -0.364 C392.181 0.233 393.833 1.468 396.552 4.134 C398.153 7.336 398.051 10.66 397.552 14.134 C395.759 16.944 394.533 18.644 391.552 20.134 C389.405 20.233 387.254 20.265 385.104 20.268 C384.432 20.271 383.759 20.273 383.066 20.276 C380.789 20.282 378.512 20.282 376.236 20.281 C374.596 20.285 372.956 20.288 371.316 20.293 C366.793 20.303 362.269 20.306 357.745 20.309 C352.873 20.313 348.001 20.322 343.129 20.331 C331.355 20.351 319.582 20.361 307.808 20.37 C302.268 20.374 296.728 20.38 291.189 20.385 C272.782 20.402 254.375 20.416 235.969 20.424 C231.19 20.426 226.411 20.427 221.632 20.429 C219.85 20.43 219.85 20.43 218.033 20.431 C198.779 20.439 179.525 20.465 160.271 20.497 C140.52 20.53 120.768 20.548 101.016 20.551 C89.92 20.553 78.824 20.562 67.728 20.588 C58.28 20.609 48.833 20.617 39.385 20.608 C34.562 20.603 29.74 20.605 24.917 20.625 C20.504 20.642 16.092 20.641 11.68 20.626 C10.081 20.623 8.482 20.628 6.883 20.639 C4.714 20.654 2.547 20.645 0.378 20.629 C-1.432 20.631 -1.432 20.631 -3.277 20.632 C-7.077 20.035 -8.728 18.801 -11.448 16.134 C-13.049 12.932 -12.947 9.608 -12.448 6.134 C-8.834 0.472 -6.482 0.01 0 0 Z " fill="#000000" transform="translate(63.447842597961426,245.86577892303467)"/>
</svg>