<svg width="48" height="49" viewBox="0 0 48 49" fill="none" xmlns="http://www.w3.org/2000/svg">
<path d="M7.5 31.8082C7.5 31.9282 7.515 31.9883 7.545 31.9883H11.955C11.985 31.9883 12 31.9282 12 31.8082V7.98828H7.5V31.8082Z" fill="url(#paint0_linear_878_6757)"/>
<path d="M7.5 31.8082C7.5 31.9282 7.515 31.9883 7.545 31.9883H11.955C11.985 31.9883 12 31.9282 12 31.8082V7.98828H7.5V31.8082Z" fill="url(#paint1_linear_878_6757)"/>
<path d="M7.5 31.8082C7.5 31.9282 7.515 31.9883 7.545 31.9883H11.955C11.985 31.9883 12 31.9282 12 31.8082V7.98828H7.5V31.8082Z" fill="url(#paint2_linear_878_6757)"/>
<path d="M18 31.8082C18 31.9282 18.015 31.9883 18.045 31.9883H22.455C22.485 31.9883 22.5 31.9282 22.5 31.8082V7.98828H18V31.8082Z" fill="url(#paint3_linear_878_6757)"/>
<path d="M18 31.8082C18 31.9282 18.015 31.9883 18.045 31.9883H22.455C22.485 31.9883 22.5 31.9282 22.5 31.8082V7.98828H18V31.8082Z" fill="url(#paint4_linear_878_6757)"/>
<path d="M12 21.4883H7.5V25.9883H12V21.4883Z" fill="url(#paint5_linear_878_6757)"/>
<path d="M12 12.4883H7.5V16.9883H12V12.4883Z" fill="url(#paint6_linear_878_6757)"/>
<path d="M12 4.25328C12 3.83328 11.655 3.48828 11.235 3.48828H8.26501C7.84501 3.48828 7.5 3.83328 7.5 4.25328V7.98828H12V4.25328Z" fill="url(#paint7_linear_878_6757)"/>
<path d="M3.31481 31.8534L14.183 26.4084C14.5578 26.2284 14.9925 26.4984 14.9925 26.9034V31.0884C14.9925 31.5084 15.4272 31.7784 15.802 31.5834L27 25.9884L27.7315 25.9883V45.4884H27H3V32.3334C3 32.1384 3.11994 31.9434 3.31481 31.8534Z" fill="url(#paint8_linear_878_6757)"/>
<path d="M3.31481 31.8534L14.183 26.4084C14.5578 26.2284 14.9925 26.4984 14.9925 26.9034V31.0884C14.9925 31.5084 15.4272 31.7784 15.802 31.5834L27 25.9884L27.7315 25.9883V45.4884H27H3V32.3334C3 32.1384 3.11994 31.9434 3.31481 31.8534Z" fill="url(#paint9_linear_878_6757)"/>
<path d="M3.31481 31.8534L14.183 26.4084C14.5578 26.2284 14.9925 26.4984 14.9925 26.9034V31.0884C14.9925 31.5084 15.4272 31.7784 15.802 31.5834L27 25.9884L27.7315 25.9883V45.4884H27H3V32.3334C3 32.1384 3.11994 31.9434 3.31481 31.8534Z" fill="url(#paint10_linear_878_6757)"/>
<path d="M3.31481 31.8534L14.183 26.4084C14.5578 26.2284 14.9925 26.4984 14.9925 26.9034V31.0884C14.9925 31.5084 15.4272 31.7784 15.802 31.5834L27 25.9884L27.7315 25.9883V45.4884H27H3V32.3334C3 32.1384 3.11994 31.9434 3.31481 31.8534Z" fill="url(#paint11_linear_878_6757)"/>
<path d="M3.31481 31.8534L14.183 26.4084C14.5578 26.2284 14.9925 26.4984 14.9925 26.9034V31.0884C14.9925 31.5084 15.4272 31.7784 15.802 31.5834L27 25.9884L27.7315 25.9883V45.4884H27H3V32.3334C3 32.1384 3.11994 31.9434 3.31481 31.8534Z" fill="url(#paint12_linear_878_6757)"/>
<path d="M3.31481 31.8534L14.183 26.4084C14.5578 26.2284 14.9925 26.4984 14.9925 26.9034V31.0884C14.9925 31.5084 15.4272 31.7784 15.802 31.5834L27 25.9884L27.7315 25.9883V45.4884H27H3V32.3334C3 32.1384 3.11994 31.9434 3.31481 31.8534Z" fill="url(#paint13_linear_878_6757)"/>
<path d="M3.31481 31.8534L14.183 26.4084C14.5578 26.2284 14.9925 26.4984 14.9925 26.9034V31.0884C14.9925 31.5084 15.4272 31.7784 15.802 31.5834L27 25.9884L27.7315 25.9883V45.4884H27H3V32.3334C3 32.1384 3.11994 31.9434 3.31481 31.8534Z" fill="url(#paint14_linear_878_6757)"/>
<path d="M3.31481 31.8534L14.183 26.4084C14.5578 26.2284 14.9925 26.4984 14.9925 26.9034V31.0884C14.9925 31.5084 15.4272 31.7784 15.802 31.5834L27 25.9884L27.7315 25.9883V45.4884H27H3V32.3334C3 32.1384 3.11994 31.9434 3.31481 31.8534Z" fill="url(#paint15_radial_878_6757)"/>
<path d="M3.31481 31.8534L14.183 26.4084C14.5578 26.2284 14.9925 26.4984 14.9925 26.9034V31.0884C14.9925 31.5084 15.4272 31.7784 15.802 31.5834L27 25.9884L27.7315 25.9883V45.4884H27H3V32.3334C3 32.1384 3.11994 31.9434 3.31481 31.8534Z" fill="url(#paint16_radial_878_6757)"/>
<path d="M3.31481 31.8534L14.183 26.4084C14.5578 26.2284 14.9925 26.4984 14.9925 26.9034V31.0884C14.9925 31.5084 15.4272 31.7784 15.802 31.5834L27 25.9884L27.7315 25.9883V45.4884H27H3V32.3334C3 32.1384 3.11994 31.9434 3.31481 31.8534Z" fill="url(#paint17_radial_878_6757)"/>
<path d="M22.5 21.4883H18V25.9883H22.5V21.4883Z" fill="url(#paint18_linear_878_6757)"/>
<path d="M22.5 12.4883H18V16.9883H22.5V12.4883Z" fill="url(#paint19_linear_878_6757)"/>
<path d="M22.5 4.25328C22.5 3.83328 22.155 3.48828 21.735 3.48828H18.765C18.345 3.48828 18 3.83328 18 4.25328V7.98828H22.5V4.25328Z" fill="url(#paint20_linear_878_6757)"/>
<path d="M45 45.4883H27V20.1833C27 19.2533 27.7519 18.4883 28.6992 18.4883H43.3008C44.2331 18.4883 45 19.2383 45 20.1833V45.4883Z" fill="url(#paint21_linear_878_6757)"/>
<path d="M45 45.4883H27V20.1833C27 19.2533 27.7519 18.4883 28.6992 18.4883H43.3008C44.2331 18.4883 45 19.2383 45 20.1833V45.4883Z" fill="url(#paint22_linear_878_6757)"/>
<path d="M45 45.4883H27V20.1833C27 19.2533 27.7519 18.4883 28.6992 18.4883H43.3008C44.2331 18.4883 45 19.2383 45 20.1833V45.4883Z" fill="url(#paint23_linear_878_6757)"/>
<path d="M45 45.4883H27V20.1833C27 19.2533 27.7519 18.4883 28.6992 18.4883H43.3008C44.2331 18.4883 45 19.2383 45 20.1833V45.4883Z" fill="url(#paint24_linear_878_6757)"/>
<path d="M45 45.4883H27V20.1833C27 19.2533 27.7519 18.4883 28.6992 18.4883H43.3008C44.2331 18.4883 45 19.2383 45 20.1833V45.4883Z" fill="url(#paint25_radial_878_6757)"/>
<path d="M45 45.4883H27V20.1833C27 19.2533 27.7519 18.4883 28.6992 18.4883H43.3008C44.2331 18.4883 45 19.2383 45 20.1833V45.4883Z" fill="url(#paint26_linear_878_6757)"/>
<path d="M13.5 45.4883H6V41.5583C6 41.2433 6.2555 40.9883 6.57113 40.9883H12.9289C13.2445 40.9883 13.5 41.2433 13.5 41.5583V45.4883Z" fill="url(#paint27_linear_878_6757)"/>
<path d="M13.5 45.4883H6V41.5583C6 41.2433 6.2555 40.9883 6.57113 40.9883H12.9289C13.2445 40.9883 13.5 41.2433 13.5 41.5583V45.4883Z" fill="url(#paint28_linear_878_6757)"/>
<path d="M13.5 45.4883H6V41.5583C6 41.2433 6.2555 40.9883 6.57113 40.9883H12.9289C13.2445 40.9883 13.5 41.2433 13.5 41.5583V45.4883Z" fill="url(#paint29_linear_878_6757)"/>
<path d="M24 45.4883H16.5V41.5583C16.5 41.2433 16.7555 40.9883 17.0711 40.9883H23.4289C23.7445 40.9883 24 41.2433 24 41.5583V45.4883Z" fill="url(#paint30_linear_878_6757)"/>
<path d="M24 45.4883H16.5V41.5583C16.5 41.2433 16.7555 40.9883 17.0711 40.9883H23.4289C23.7445 40.9883 24 41.2433 24 41.5583V45.4883Z" fill="url(#paint31_linear_878_6757)"/>
<path d="M24 45.4883H16.5V41.5583C16.5 41.2433 16.7555 40.9883 17.0711 40.9883H23.4289C23.7445 40.9883 24 41.2433 24 41.5583V45.4883Z" fill="url(#paint32_linear_878_6757)"/>
<path d="M40.5 45.4883H31.5V40.0324C31.5 39.7317 31.7559 39.4883 32.0719 39.4883H39.9281C40.2442 39.4883 40.5 39.7317 40.5 40.0324V45.4883Z" fill="url(#paint33_linear_878_6757)"/>
<path d="M40.5 45.4883H31.5V40.0324C31.5 39.7317 31.7559 39.4883 32.0719 39.4883H39.9281C40.2442 39.4883 40.5 39.7317 40.5 40.0324V45.4883Z" fill="url(#paint34_linear_878_6757)"/>
<path d="M40.5 45.4883H31.5V40.0324C31.5 39.7317 31.7559 39.4883 32.0719 39.4883H39.9281C40.2442 39.4883 40.5 39.7317 40.5 40.0324V45.4883Z" fill="url(#paint35_linear_878_6757)"/>
<rect x="30.0293" y="21.5117" width="2.98828" height="2.98828" rx="0.5" fill="url(#paint36_linear_878_6757)"/>
<rect x="30.0293" y="21.5117" width="2.98828" height="2.98828" rx="0.5" fill="url(#paint37_linear_878_6757)"/>
<rect x="30.0293" y="21.5117" width="2.98828" height="2.98828" rx="0.5" fill="url(#paint38_linear_878_6757)"/>
<rect x="30.0293" y="21.5117" width="2.98828" height="2.98828" rx="0.5" fill="url(#paint39_linear_878_6757)"/>
<rect x="30.0293" y="21.5117" width="2.98828" height="2.98828" rx="0.5" fill="url(#paint40_linear_878_6757)"/>
<rect x="30.0293" y="21.5117" width="2.98828" height="2.98828" rx="0.5" fill="url(#paint41_radial_878_6757)"/>
<rect x="34.5059" y="21.5117" width="2.98828" height="2.98828" rx="0.5" fill="url(#paint42_linear_878_6757)"/>
<rect x="34.5059" y="21.5117" width="2.98828" height="2.98828" rx="0.5" fill="url(#paint43_linear_878_6757)"/>
<rect x="34.5059" y="21.5117" width="2.98828" height="2.98828" rx="0.5" fill="url(#paint44_linear_878_6757)"/>
<rect x="34.5059" y="21.5117" width="2.98828" height="2.98828" rx="0.5" fill="url(#paint45_linear_878_6757)"/>
<rect x="34.5059" y="21.5117" width="2.98828" height="2.98828" rx="0.5" fill="url(#paint46_linear_878_6757)"/>
<rect x="34.5059" y="21.5117" width="2.98828" height="2.98828" rx="0.5" fill="url(#paint47_radial_878_6757)"/>
<rect x="38.9824" y="21.5117" width="2.98828" height="2.98828" rx="0.5" fill="url(#paint48_linear_878_6757)"/>
<rect x="38.9824" y="21.5117" width="2.98828" height="2.98828" rx="0.5" fill="url(#paint49_linear_878_6757)"/>
<rect x="38.9824" y="21.5117" width="2.98828" height="2.98828" rx="0.5" fill="url(#paint50_linear_878_6757)"/>
<rect x="38.9824" y="21.5117" width="2.98828" height="2.98828" rx="0.5" fill="url(#paint51_linear_878_6757)"/>
<rect x="38.9824" y="21.5117" width="2.98828" height="2.98828" rx="0.5" fill="url(#paint52_linear_878_6757)"/>
<rect x="38.9824" y="21.5117" width="2.98828" height="2.98828" rx="0.5" fill="url(#paint53_radial_878_6757)"/>
<rect x="30.0293" y="26.0117" width="2.98828" height="2.98828" rx="0.5" fill="url(#paint54_linear_878_6757)"/>
<rect x="30.0293" y="26.0117" width="2.98828" height="2.98828" rx="0.5" fill="url(#paint55_linear_878_6757)"/>
<rect x="30.0293" y="26.0117" width="2.98828" height="2.98828" rx="0.5" fill="url(#paint56_linear_878_6757)"/>
<rect x="30.0293" y="26.0117" width="2.98828" height="2.98828" rx="0.5" fill="url(#paint57_linear_878_6757)"/>
<rect x="30.0293" y="26.0117" width="2.98828" height="2.98828" rx="0.5" fill="url(#paint58_linear_878_6757)"/>
<rect x="30.0293" y="26.0117" width="2.98828" height="2.98828" rx="0.5" fill="url(#paint59_radial_878_6757)"/>
<rect x="34.5059" y="26.0117" width="2.98828" height="2.98828" rx="0.5" fill="url(#paint60_linear_878_6757)"/>
<rect x="34.5059" y="26.0117" width="2.98828" height="2.98828" rx="0.5" fill="url(#paint61_linear_878_6757)"/>
<rect x="34.5059" y="26.0117" width="2.98828" height="2.98828" rx="0.5" fill="url(#paint62_linear_878_6757)"/>
<rect x="34.5059" y="26.0117" width="2.98828" height="2.98828" rx="0.5" fill="url(#paint63_linear_878_6757)"/>
<rect x="34.5059" y="26.0117" width="2.98828" height="2.98828" rx="0.5" fill="url(#paint64_linear_878_6757)"/>
<rect x="34.5059" y="26.0117" width="2.98828" height="2.98828" rx="0.5" fill="url(#paint65_radial_878_6757)"/>
<rect x="38.9824" y="26.0117" width="2.98828" height="2.98828" rx="0.5" fill="url(#paint66_linear_878_6757)"/>
<rect x="38.9824" y="26.0117" width="2.98828" height="2.98828" rx="0.5" fill="url(#paint67_linear_878_6757)"/>
<rect x="38.9824" y="26.0117" width="2.98828" height="2.98828" rx="0.5" fill="url(#paint68_linear_878_6757)"/>
<rect x="38.9824" y="26.0117" width="2.98828" height="2.98828" rx="0.5" fill="url(#paint69_linear_878_6757)"/>
<rect x="38.9824" y="26.0117" width="2.98828" height="2.98828" rx="0.5" fill="url(#paint70_linear_878_6757)"/>
<rect x="38.9824" y="26.0117" width="2.98828" height="2.98828" rx="0.5" fill="url(#paint71_radial_878_6757)"/>
<rect x="30.0293" y="30.5117" width="2.98828" height="2.98828" rx="0.5" fill="url(#paint72_linear_878_6757)"/>
<rect x="30.0293" y="30.5117" width="2.98828" height="2.98828" rx="0.5" fill="url(#paint73_linear_878_6757)"/>
<rect x="30.0293" y="30.5117" width="2.98828" height="2.98828" rx="0.5" fill="url(#paint74_linear_878_6757)"/>
<rect x="30.0293" y="30.5117" width="2.98828" height="2.98828" rx="0.5" fill="url(#paint75_linear_878_6757)"/>
<rect x="30.0293" y="30.5117" width="2.98828" height="2.98828" rx="0.5" fill="url(#paint76_linear_878_6757)"/>
<rect x="30.0293" y="30.5117" width="2.98828" height="2.98828" rx="0.5" fill="url(#paint77_radial_878_6757)"/>
<rect x="34.5059" y="30.5117" width="2.98828" height="2.98828" rx="0.5" fill="url(#paint78_linear_878_6757)"/>
<rect x="34.5059" y="30.5117" width="2.98828" height="2.98828" rx="0.5" fill="url(#paint79_linear_878_6757)"/>
<rect x="34.5059" y="30.5117" width="2.98828" height="2.98828" rx="0.5" fill="url(#paint80_linear_878_6757)"/>
<rect x="34.5059" y="30.5117" width="2.98828" height="2.98828" rx="0.5" fill="url(#paint81_linear_878_6757)"/>
<rect x="34.5059" y="30.5117" width="2.98828" height="2.98828" rx="0.5" fill="url(#paint82_linear_878_6757)"/>
<rect x="34.5059" y="30.5117" width="2.98828" height="2.98828" rx="0.5" fill="url(#paint83_radial_878_6757)"/>
<rect x="38.9824" y="30.5117" width="2.98828" height="2.98828" rx="0.5" fill="url(#paint84_linear_878_6757)"/>
<rect x="38.9824" y="30.5117" width="2.98828" height="2.98828" rx="0.5" fill="url(#paint85_linear_878_6757)"/>
<rect x="38.9824" y="30.5117" width="2.98828" height="2.98828" rx="0.5" fill="url(#paint86_linear_878_6757)"/>
<rect x="38.9824" y="30.5117" width="2.98828" height="2.98828" rx="0.5" fill="url(#paint87_linear_878_6757)"/>
<rect x="38.9824" y="30.5117" width="2.98828" height="2.98828" rx="0.5" fill="url(#paint88_linear_878_6757)"/>
<rect x="38.9824" y="30.5117" width="2.98828" height="2.98828" rx="0.5" fill="url(#paint89_radial_878_6757)"/>
<defs>
<linearGradient id="paint0_linear_878_6757" x1="10.125" y1="20.0063" x2="7.4976" y2="20.0063" gradientUnits="userSpaceOnUse">
<stop stop-color="#BEB7C0"/>
<stop offset="1" stop-color="#79727D"/>
</linearGradient>
<linearGradient id="paint1_linear_878_6757" x1="12" y1="17.242" x2="11.3906" y2="17.242" gradientUnits="userSpaceOnUse">
<stop stop-color="#B1ABB1"/>
<stop offset="1" stop-color="#B1ABB1" stop-opacity="0"/>
</linearGradient>
<linearGradient id="paint2_linear_878_6757" x1="8.66947" y1="29.9343" x2="8.01653" y2="28.6568" gradientUnits="userSpaceOnUse">
<stop stop-color="#6C6A6E"/>
<stop offset="1" stop-color="#6C6A6E" stop-opacity="0"/>
</linearGradient>
<linearGradient id="paint3_linear_878_6757" x1="18" y1="16.9039" x2="22.5" y2="16.9039" gradientUnits="userSpaceOnUse">
<stop stop-color="#84747F"/>
<stop offset="1" stop-color="#DBD7DF"/>
</linearGradient>
<linearGradient id="paint4_linear_878_6757" x1="20.6778" y1="33.9938" x2="20.6778" y2="22.9223" gradientUnits="userSpaceOnUse">
<stop stop-color="#746E74"/>
<stop offset="1" stop-color="#746E74" stop-opacity="0"/>
</linearGradient>
<linearGradient id="paint5_linear_878_6757" x1="7.5" y1="25.9883" x2="10.6995" y2="25.9883" gradientUnits="userSpaceOnUse">
<stop offset="0.0652525" stop-color="#A43953"/>
<stop offset="1" stop-color="#FF549C"/>
</linearGradient>
<linearGradient id="paint6_linear_878_6757" x1="7.5" y1="16.9883" x2="10.6995" y2="16.9883" gradientUnits="userSpaceOnUse">
<stop offset="0.0652525" stop-color="#A43953"/>
<stop offset="1" stop-color="#FF549C"/>
</linearGradient>
<linearGradient id="paint7_linear_878_6757" x1="7.5" y1="7.98828" x2="10.6995" y2="7.98828" gradientUnits="userSpaceOnUse">
<stop offset="0.0652525" stop-color="#A43953"/>
<stop offset="1" stop-color="#FF549C"/>
</linearGradient>
<linearGradient id="paint8_linear_878_6757" x1="5.10727" y1="40.4475" x2="27.777" y2="40.4475" gradientUnits="userSpaceOnUse">
<stop stop-color="#A19BA6"/>
<stop offset="1" stop-color="#B3A8BA"/>
</linearGradient>
<linearGradient id="paint9_linear_878_6757" x1="27.5974" y1="38.5688" x2="25.5986" y2="38.5688" gradientUnits="userSpaceOnUse">
<stop stop-color="#6F6574"/>
<stop offset="1" stop-color="#6F6574" stop-opacity="0"/>
</linearGradient>
<linearGradient id="paint10_linear_878_6757" x1="9.28667" y1="32.2445" x2="11.2736" y2="36.0708" gradientUnits="userSpaceOnUse">
<stop offset="0.15779" stop-color="#AAA2B0" stop-opacity="0"/>
<stop offset="0.377282" stop-color="#6A696A"/>
<stop offset="0.571058" stop-color="#847F88"/>
<stop offset="0.750476" stop-color="#B1A7B7" stop-opacity="0"/>
</linearGradient>
<linearGradient id="paint11_linear_878_6757" x1="2.51427" y1="40.6214" x2="19.6411" y2="40.6264" gradientUnits="userSpaceOnUse">
<stop stop-color="#A19BA6"/>
<stop offset="0.746559" stop-color="#AFA5B6"/>
<stop offset="0.780145" stop-color="#B3A8BA" stop-opacity="0.57"/>
<stop offset="1" stop-color="#B3A8BA" stop-opacity="0"/>
</linearGradient>
<linearGradient id="paint12_linear_878_6757" x1="3" y1="40.3864" x2="4.34458" y2="40.3864" gradientUnits="userSpaceOnUse">
<stop stop-color="#726D76"/>
<stop offset="1" stop-color="#726D76" stop-opacity="0"/>
</linearGradient>
<linearGradient id="paint13_linear_878_6757" x1="6.9163" y1="28.0708" x2="8.42816" y2="30.9756" gradientUnits="userSpaceOnUse">
<stop offset="0.170096" stop-color="#6A696A"/>
<stop offset="0.44878" stop-color="#847F88"/>
<stop offset="0.808227" stop-color="#918A96" stop-opacity="0"/>
</linearGradient>
<linearGradient id="paint14_linear_878_6757" x1="27.5974" y1="38.5688" x2="25.5986" y2="38.5688" gradientUnits="userSpaceOnUse">
<stop stop-color="#6F6574"/>
<stop offset="1" stop-color="#6F6574" stop-opacity="0"/>
</linearGradient>
<radialGradient id="paint15_radial_878_6757" cx="0" cy="0" r="1" gradientUnits="userSpaceOnUse" gradientTransform="translate(15.4061 30.6604) rotate(-165.203) scale(0.966542 1.60107)">
<stop offset="0.225823" stop-color="#CECBD0"/>
<stop offset="1" stop-color="#CECBD0" stop-opacity="0"/>
</radialGradient>
<radialGradient id="paint16_radial_878_6757" cx="0" cy="0" r="1" gradientUnits="userSpaceOnUse" gradientTransform="translate(15.1429 27.9952) rotate(-86.6158) scale(4.41027 0.818669)">
<stop offset="0.225821" stop-color="#CECBD0"/>
<stop offset="1" stop-color="#CECBD0" stop-opacity="0"/>
</radialGradient>
<radialGradient id="paint17_radial_878_6757" cx="0" cy="0" r="1" gradientUnits="userSpaceOnUse" gradientTransform="translate(15.5591 25.0674) rotate(131.011) scale(2.43883 1.90243)">
<stop offset="0.548142" stop-color="#CECBD0"/>
<stop offset="0.946784" stop-color="#CECBD0" stop-opacity="0"/>
</radialGradient>
<linearGradient id="paint18_linear_878_6757" x1="18.0075" y1="41.7426" x2="22.5075" y2="41.7426" gradientUnits="userSpaceOnUse">
<stop stop-color="#A93751"/>
<stop offset="1" stop-color="#FF5399"/>
</linearGradient>
<linearGradient id="paint19_linear_878_6757" x1="18.0075" y1="32.7426" x2="22.5075" y2="32.7426" gradientUnits="userSpaceOnUse">
<stop stop-color="#A93751"/>
<stop offset="1" stop-color="#FF5399"/>
</linearGradient>
<linearGradient id="paint20_linear_878_6757" x1="18.0075" y1="23.7426" x2="22.5075" y2="23.7426" gradientUnits="userSpaceOnUse">
<stop stop-color="#A93751"/>
<stop offset="1" stop-color="#FF5399"/>
</linearGradient>
<linearGradient id="paint21_linear_878_6757" x1="36" y1="36.8872" x2="44.3882" y2="44.3489" gradientUnits="userSpaceOnUse">
<stop stop-color="#BCB9C6"/>
<stop offset="1" stop-color="#BCB3C3"/>
</linearGradient>
<linearGradient id="paint22_linear_878_6757" x1="36" y1="18.4883" x2="36" y2="19.6306" gradientUnits="userSpaceOnUse">
<stop stop-color="#B1B0B1"/>
<stop stop-color="#B1B0B1" stop-opacity="0.940201"/>
<stop offset="1" stop-color="#B1B0B1" stop-opacity="0"/>
</linearGradient>
<linearGradient id="paint23_linear_878_6757" x1="27" y1="35.9384" x2="28.2146" y2="35.9384" gradientUnits="userSpaceOnUse">
<stop stop-color="#6D6573"/>
<stop offset="1" stop-color="#6E6575" stop-opacity="0"/>
</linearGradient>
<linearGradient id="paint24_linear_878_6757" x1="45" y1="34.4131" x2="43.5195" y2="34.4131" gradientUnits="userSpaceOnUse">
<stop stop-color="#D9D5DB"/>
<stop offset="1" stop-color="#D9D5DB" stop-opacity="0"/>
</linearGradient>
<radialGradient id="paint25_radial_878_6757" cx="0" cy="0" r="1" gradientUnits="userSpaceOnUse" gradientTransform="translate(45 19.0182) rotate(135.743) scale(1.40011 2.32361)">
<stop stop-color="#D9D5DB"/>
<stop offset="1" stop-color="#D9D5DB" stop-opacity="0"/>
</radialGradient>
<linearGradient id="paint26_linear_878_6757" x1="45" y1="30.6864" x2="44.6115" y2="30.6864" gradientUnits="userSpaceOnUse">
<stop stop-color="#CAC6CD"/>
<stop offset="1" stop-color="#CAC6CD" stop-opacity="0"/>
</linearGradient>
<linearGradient id="paint27_linear_878_6757" x1="6" y1="43.8289" x2="12.7638" y2="43.8289" gradientUnits="userSpaceOnUse">
<stop stop-color="#544266"/>
<stop offset="1" stop-color="#42394B"/>
</linearGradient>
<linearGradient id="paint28_linear_878_6757" x1="9.75" y1="46.0225" x2="9.75" y2="40.2764" gradientUnits="userSpaceOnUse">
<stop stop-color="#35253E" stop-opacity="0.87"/>
<stop offset="0.130366" stop-color="#35253E" stop-opacity="0"/>
<stop offset="0.751575" stop-color="#35253E" stop-opacity="0"/>
<stop offset="0.897048" stop-color="#0F0C12" stop-opacity="0.88"/>
</linearGradient>
<linearGradient id="paint29_linear_878_6757" x1="5.65793" y1="43.4589" x2="13.9435" y2="43.4914" gradientUnits="userSpaceOnUse">
<stop offset="0.0581411" stop-color="#5F4878" stop-opacity="0.65"/>
<stop offset="0.160758" stop-color="#35253E" stop-opacity="0"/>
<stop offset="0.862421" stop-color="#35253E" stop-opacity="0"/>
<stop offset="0.987748" stop-color="#0F0C12" stop-opacity="0.88"/>
</linearGradient>
<linearGradient id="paint30_linear_878_6757" x1="16.5" y1="43.8289" x2="23.2638" y2="43.8289" gradientUnits="userSpaceOnUse">
<stop stop-color="#544266"/>
<stop offset="1" stop-color="#42394B"/>
</linearGradient>
<linearGradient id="paint31_linear_878_6757" x1="20.25" y1="46.0225" x2="20.25" y2="40.2764" gradientUnits="userSpaceOnUse">
<stop stop-color="#35253E" stop-opacity="0.87"/>
<stop offset="0.130366" stop-color="#35253E" stop-opacity="0"/>
<stop offset="0.751575" stop-color="#35253E" stop-opacity="0"/>
<stop offset="0.897048" stop-color="#0F0C12" stop-opacity="0.88"/>
</linearGradient>
<linearGradient id="paint32_linear_878_6757" x1="16.1579" y1="43.4589" x2="24.4435" y2="43.4914" gradientUnits="userSpaceOnUse">
<stop offset="0.0581411" stop-color="#5F4878" stop-opacity="0.65"/>
<stop offset="0.160758" stop-color="#35253E" stop-opacity="0"/>
<stop offset="0.862421" stop-color="#35253E" stop-opacity="0"/>
<stop offset="0.987748" stop-color="#0F0C12" stop-opacity="0.88"/>
</linearGradient>
<linearGradient id="paint33_linear_878_6757" x1="31.5" y1="43.2758" x2="39.6166" y2="43.2758" gradientUnits="userSpaceOnUse">
<stop stop-color="#544266"/>
<stop offset="1" stop-color="#42394B"/>
</linearGradient>
<linearGradient id="paint34_linear_878_6757" x1="36" y1="46.2006" x2="36" y2="38.5392" gradientUnits="userSpaceOnUse">
<stop stop-color="#35253E" stop-opacity="0.87"/>
<stop offset="0.130366" stop-color="#35253E" stop-opacity="0"/>
<stop offset="0.751575" stop-color="#35253E" stop-opacity="0"/>
<stop offset="0.897048" stop-color="#0F0C12" stop-opacity="0.88"/>
</linearGradient>
<linearGradient id="paint35_linear_878_6757" x1="31.0895" y1="42.7825" x2="41.0322" y2="42.8175" gradientUnits="userSpaceOnUse">
<stop offset="0.0581411" stop-color="#5F4878" stop-opacity="0.65"/>
<stop offset="0.160758" stop-color="#35253E" stop-opacity="0"/>
<stop offset="0.862421" stop-color="#35253E" stop-opacity="0"/>
<stop offset="0.987748" stop-color="#0F0C12" stop-opacity="0.88"/>
</linearGradient>
<linearGradient id="paint36_linear_878_6757" x1="30.1862" y1="24.5" x2="31.9505" y2="20.4645" gradientUnits="userSpaceOnUse">
<stop stop-color="#54E6FF"/>
<stop offset="1" stop-color="#42A9FF"/>
</linearGradient>
<linearGradient id="paint37_linear_878_6757" x1="31.69" y1="23.9001" x2="31.6894" y2="25.8627" gradientUnits="userSpaceOnUse">
<stop stop-color="#FAFAFA" stop-opacity="0"/>
<stop offset="0.161013" stop-color="#80FFFF" stop-opacity="0.2"/>
<stop offset="0.485489" stop-color="#80FFFF"/>
</linearGradient>
<linearGradient id="paint38_linear_878_6757" x1="31.052" y1="23.1483" x2="29.0623" y2="23.1465" gradientUnits="userSpaceOnUse">
<stop offset="0.139675" stop-color="#51D3F8" stop-opacity="0"/>
<stop offset="0.391108" stop-color="#5CF2FE" stop-opacity="0.91"/>
</linearGradient>
<linearGradient id="paint39_linear_878_6757" x1="33.8854" y1="22.5388" x2="31.5234" y2="22.5122" gradientUnits="userSpaceOnUse">
<stop offset="0.41576" stop-color="#1E8DDC" stop-opacity="0.87"/>
<stop offset="0.731107" stop-color="#32A2EE" stop-opacity="0"/>
</linearGradient>
<linearGradient id="paint40_linear_878_6757" x1="31.5234" y1="20.9652" x2="31.5234" y2="23.0059" gradientUnits="userSpaceOnUse">
<stop offset="0.300997" stop-color="#168AEA"/>
<stop offset="0.729313" stop-color="#40ADF0" stop-opacity="0"/>
</linearGradient>
<radialGradient id="paint41_radial_878_6757" cx="0" cy="0" r="1" gradientUnits="userSpaceOnUse" gradientTransform="translate(32.9487 21.5117) rotate(123.329) scale(1.58589 4.03869)">
<stop offset="0.189537" stop-color="#1787EE"/>
<stop offset="0.481945" stop-color="#37A2ED" stop-opacity="0"/>
</radialGradient>
<linearGradient id="paint42_linear_878_6757" x1="34.6628" y1="24.5" x2="36.427" y2="20.4645" gradientUnits="userSpaceOnUse">
<stop stop-color="#54E6FF"/>
<stop offset="1" stop-color="#42A9FF"/>
</linearGradient>
<linearGradient id="paint43_linear_878_6757" x1="36.1666" y1="23.9001" x2="36.166" y2="25.8627" gradientUnits="userSpaceOnUse">
<stop stop-color="#FAFAFA" stop-opacity="0"/>
<stop offset="0.161013" stop-color="#80FFFF" stop-opacity="0.2"/>
<stop offset="0.485489" stop-color="#80FFFF"/>
</linearGradient>
<linearGradient id="paint44_linear_878_6757" x1="35.5286" y1="23.1483" x2="33.5389" y2="23.1465" gradientUnits="userSpaceOnUse">
<stop offset="0.139675" stop-color="#51D3F8" stop-opacity="0"/>
<stop offset="0.391108" stop-color="#5CF2FE" stop-opacity="0.91"/>
</linearGradient>
<linearGradient id="paint45_linear_878_6757" x1="38.362" y1="22.5388" x2="36" y2="22.5122" gradientUnits="userSpaceOnUse">
<stop offset="0.41576" stop-color="#1E8DDC" stop-opacity="0.87"/>
<stop offset="0.731107" stop-color="#32A2EE" stop-opacity="0"/>
</linearGradient>
<linearGradient id="paint46_linear_878_6757" x1="36" y1="20.9652" x2="36" y2="23.0059" gradientUnits="userSpaceOnUse">
<stop offset="0.300997" stop-color="#168AEA"/>
<stop offset="0.729313" stop-color="#40ADF0" stop-opacity="0"/>
</linearGradient>
<radialGradient id="paint47_radial_878_6757" cx="0" cy="0" r="1" gradientUnits="userSpaceOnUse" gradientTransform="translate(37.4252 21.5117) rotate(123.329) scale(1.58589 4.03869)">
<stop offset="0.189537" stop-color="#1787EE"/>
<stop offset="0.481945" stop-color="#37A2ED" stop-opacity="0"/>
</radialGradient>
<linearGradient id="paint48_linear_878_6757" x1="39.1393" y1="24.5" x2="40.9036" y2="20.4645" gradientUnits="userSpaceOnUse">
<stop stop-color="#54E6FF"/>
<stop offset="1" stop-color="#42A9FF"/>
</linearGradient>
<linearGradient id="paint49_linear_878_6757" x1="40.6431" y1="23.9001" x2="40.6426" y2="25.8627" gradientUnits="userSpaceOnUse">
<stop stop-color="#FAFAFA" stop-opacity="0"/>
<stop offset="0.161013" stop-color="#80FFFF" stop-opacity="0.2"/>
<stop offset="0.485489" stop-color="#80FFFF"/>
</linearGradient>
<linearGradient id="paint50_linear_878_6757" x1="40.0051" y1="23.1483" x2="38.0155" y2="23.1465" gradientUnits="userSpaceOnUse">
<stop offset="0.139675" stop-color="#51D3F8" stop-opacity="0"/>
<stop offset="0.391108" stop-color="#5CF2FE" stop-opacity="0.91"/>
</linearGradient>
<linearGradient id="paint51_linear_878_6757" x1="42.8385" y1="22.5388" x2="40.4766" y2="22.5122" gradientUnits="userSpaceOnUse">
<stop offset="0.41576" stop-color="#1E8DDC" stop-opacity="0.87"/>
<stop offset="0.731107" stop-color="#32A2EE" stop-opacity="0"/>
</linearGradient>
<linearGradient id="paint52_linear_878_6757" x1="40.4766" y1="20.9652" x2="40.4766" y2="23.0059" gradientUnits="userSpaceOnUse">
<stop offset="0.300997" stop-color="#168AEA"/>
<stop offset="0.729313" stop-color="#40ADF0" stop-opacity="0"/>
</linearGradient>
<radialGradient id="paint53_radial_878_6757" cx="0" cy="0" r="1" gradientUnits="userSpaceOnUse" gradientTransform="translate(41.9018 21.5117) rotate(123.329) scale(1.58589 4.03869)">
<stop offset="0.189537" stop-color="#1787EE"/>
<stop offset="0.481945" stop-color="#37A2ED" stop-opacity="0"/>
</radialGradient>
<linearGradient id="paint54_linear_878_6757" x1="30.1862" y1="29" x2="31.9505" y2="24.9645" gradientUnits="userSpaceOnUse">
<stop stop-color="#54E6FF"/>
<stop offset="1" stop-color="#42A9FF"/>
</linearGradient>
<linearGradient id="paint55_linear_878_6757" x1="31.69" y1="28.4001" x2="31.6894" y2="30.3627" gradientUnits="userSpaceOnUse">
<stop stop-color="#FAFAFA" stop-opacity="0"/>
<stop offset="0.161013" stop-color="#80FFFF" stop-opacity="0.2"/>
<stop offset="0.485489" stop-color="#80FFFF"/>
</linearGradient>
<linearGradient id="paint56_linear_878_6757" x1="31.052" y1="27.6483" x2="29.0623" y2="27.6465" gradientUnits="userSpaceOnUse">
<stop offset="0.139675" stop-color="#51D3F8" stop-opacity="0"/>
<stop offset="0.391108" stop-color="#5CF2FE" stop-opacity="0.91"/>
</linearGradient>
<linearGradient id="paint57_linear_878_6757" x1="33.8854" y1="27.0388" x2="31.5234" y2="27.0122" gradientUnits="userSpaceOnUse">
<stop offset="0.41576" stop-color="#1E8DDC" stop-opacity="0.87"/>
<stop offset="0.731107" stop-color="#32A2EE" stop-opacity="0"/>
</linearGradient>
<linearGradient id="paint58_linear_878_6757" x1="31.5234" y1="25.4652" x2="31.5234" y2="27.5059" gradientUnits="userSpaceOnUse">
<stop offset="0.300997" stop-color="#168AEA"/>
<stop offset="0.729313" stop-color="#40ADF0" stop-opacity="0"/>
</linearGradient>
<radialGradient id="paint59_radial_878_6757" cx="0" cy="0" r="1" gradientUnits="userSpaceOnUse" gradientTransform="translate(32.9487 26.0117) rotate(123.329) scale(1.58589 4.03869)">
<stop offset="0.189537" stop-color="#1787EE"/>
<stop offset="0.481945" stop-color="#37A2ED" stop-opacity="0"/>
</radialGradient>
<linearGradient id="paint60_linear_878_6757" x1="34.6628" y1="29" x2="36.427" y2="24.9645" gradientUnits="userSpaceOnUse">
<stop stop-color="#54E6FF"/>
<stop offset="1" stop-color="#42A9FF"/>
</linearGradient>
<linearGradient id="paint61_linear_878_6757" x1="36.1666" y1="28.4001" x2="36.166" y2="30.3627" gradientUnits="userSpaceOnUse">
<stop stop-color="#FAFAFA" stop-opacity="0"/>
<stop offset="0.161013" stop-color="#80FFFF" stop-opacity="0.2"/>
<stop offset="0.485489" stop-color="#80FFFF"/>
</linearGradient>
<linearGradient id="paint62_linear_878_6757" x1="35.5286" y1="27.6483" x2="33.5389" y2="27.6465" gradientUnits="userSpaceOnUse">
<stop offset="0.139675" stop-color="#51D3F8" stop-opacity="0"/>
<stop offset="0.391108" stop-color="#5CF2FE" stop-opacity="0.91"/>
</linearGradient>
<linearGradient id="paint63_linear_878_6757" x1="38.362" y1="27.0388" x2="36" y2="27.0122" gradientUnits="userSpaceOnUse">
<stop offset="0.41576" stop-color="#1E8DDC" stop-opacity="0.87"/>
<stop offset="0.731107" stop-color="#32A2EE" stop-opacity="0"/>
</linearGradient>
<linearGradient id="paint64_linear_878_6757" x1="36" y1="25.4652" x2="36" y2="27.5059" gradientUnits="userSpaceOnUse">
<stop offset="0.300997" stop-color="#168AEA"/>
<stop offset="0.729313" stop-color="#40ADF0" stop-opacity="0"/>
</linearGradient>
<radialGradient id="paint65_radial_878_6757" cx="0" cy="0" r="1" gradientUnits="userSpaceOnUse" gradientTransform="translate(37.4252 26.0117) rotate(123.329) scale(1.58589 4.03869)">
<stop offset="0.189537" stop-color="#1787EE"/>
<stop offset="0.481945" stop-color="#37A2ED" stop-opacity="0"/>
</radialGradient>
<linearGradient id="paint66_linear_878_6757" x1="39.1393" y1="29" x2="40.9036" y2="24.9645" gradientUnits="userSpaceOnUse">
<stop stop-color="#54E6FF"/>
<stop offset="1" stop-color="#42A9FF"/>
</linearGradient>
<linearGradient id="paint67_linear_878_6757" x1="40.6431" y1="28.4001" x2="40.6426" y2="30.3627" gradientUnits="userSpaceOnUse">
<stop stop-color="#FAFAFA" stop-opacity="0"/>
<stop offset="0.161013" stop-color="#80FFFF" stop-opacity="0.2"/>
<stop offset="0.485489" stop-color="#80FFFF"/>
</linearGradient>
<linearGradient id="paint68_linear_878_6757" x1="40.0051" y1="27.6483" x2="38.0155" y2="27.6465" gradientUnits="userSpaceOnUse">
<stop offset="0.139675" stop-color="#51D3F8" stop-opacity="0"/>
<stop offset="0.391108" stop-color="#5CF2FE" stop-opacity="0.91"/>
</linearGradient>
<linearGradient id="paint69_linear_878_6757" x1="42.8385" y1="27.0388" x2="40.4766" y2="27.0122" gradientUnits="userSpaceOnUse">
<stop offset="0.41576" stop-color="#1E8DDC" stop-opacity="0.87"/>
<stop offset="0.731107" stop-color="#32A2EE" stop-opacity="0"/>
</linearGradient>
<linearGradient id="paint70_linear_878_6757" x1="40.4766" y1="25.4652" x2="40.4766" y2="27.5059" gradientUnits="userSpaceOnUse">
<stop offset="0.300997" stop-color="#168AEA"/>
<stop offset="0.729313" stop-color="#40ADF0" stop-opacity="0"/>
</linearGradient>
<radialGradient id="paint71_radial_878_6757" cx="0" cy="0" r="1" gradientUnits="userSpaceOnUse" gradientTransform="translate(41.9018 26.0117) rotate(123.329) scale(1.58589 4.03869)">
<stop offset="0.189537" stop-color="#1787EE"/>
<stop offset="0.481945" stop-color="#37A2ED" stop-opacity="0"/>
</radialGradient>
<linearGradient id="paint72_linear_878_6757" x1="30.1862" y1="33.5" x2="31.9505" y2="29.4645" gradientUnits="userSpaceOnUse">
<stop stop-color="#54E6FF"/>
<stop offset="1" stop-color="#42A9FF"/>
</linearGradient>
<linearGradient id="paint73_linear_878_6757" x1="31.69" y1="32.9001" x2="31.6894" y2="34.8627" gradientUnits="userSpaceOnUse">
<stop stop-color="#FAFAFA" stop-opacity="0"/>
<stop offset="0.161013" stop-color="#80FFFF" stop-opacity="0.2"/>
<stop offset="0.485489" stop-color="#80FFFF"/>
</linearGradient>
<linearGradient id="paint74_linear_878_6757" x1="31.052" y1="32.1483" x2="29.0623" y2="32.1465" gradientUnits="userSpaceOnUse">
<stop offset="0.139675" stop-color="#51D3F8" stop-opacity="0"/>
<stop offset="0.391108" stop-color="#5CF2FE" stop-opacity="0.91"/>
</linearGradient>
<linearGradient id="paint75_linear_878_6757" x1="33.8854" y1="31.5388" x2="31.5234" y2="31.5122" gradientUnits="userSpaceOnUse">
<stop offset="0.41576" stop-color="#1E8DDC" stop-opacity="0.87"/>
<stop offset="0.731107" stop-color="#32A2EE" stop-opacity="0"/>
</linearGradient>
<linearGradient id="paint76_linear_878_6757" x1="31.5234" y1="29.9652" x2="31.5234" y2="32.0059" gradientUnits="userSpaceOnUse">
<stop offset="0.300997" stop-color="#168AEA"/>
<stop offset="0.729313" stop-color="#40ADF0" stop-opacity="0"/>
</linearGradient>
<radialGradient id="paint77_radial_878_6757" cx="0" cy="0" r="1" gradientUnits="userSpaceOnUse" gradientTransform="translate(32.9487 30.5117) rotate(123.329) scale(1.58589 4.03869)">
<stop offset="0.189537" stop-color="#1787EE"/>
<stop offset="0.481945" stop-color="#37A2ED" stop-opacity="0"/>
</radialGradient>
<linearGradient id="paint78_linear_878_6757" x1="34.6628" y1="33.5" x2="36.427" y2="29.4645" gradientUnits="userSpaceOnUse">
<stop stop-color="#54E6FF"/>
<stop offset="1" stop-color="#42A9FF"/>
</linearGradient>
<linearGradient id="paint79_linear_878_6757" x1="36.1666" y1="32.9001" x2="36.166" y2="34.8627" gradientUnits="userSpaceOnUse">
<stop stop-color="#FAFAFA" stop-opacity="0"/>
<stop offset="0.161013" stop-color="#80FFFF" stop-opacity="0.2"/>
<stop offset="0.485489" stop-color="#80FFFF"/>
</linearGradient>
<linearGradient id="paint80_linear_878_6757" x1="35.5286" y1="32.1483" x2="33.5389" y2="32.1465" gradientUnits="userSpaceOnUse">
<stop offset="0.139675" stop-color="#51D3F8" stop-opacity="0"/>
<stop offset="0.391108" stop-color="#5CF2FE" stop-opacity="0.91"/>
</linearGradient>
<linearGradient id="paint81_linear_878_6757" x1="38.362" y1="31.5388" x2="36" y2="31.5122" gradientUnits="userSpaceOnUse">
<stop offset="0.41576" stop-color="#1E8DDC" stop-opacity="0.87"/>
<stop offset="0.731107" stop-color="#32A2EE" stop-opacity="0"/>
</linearGradient>
<linearGradient id="paint82_linear_878_6757" x1="36" y1="29.9652" x2="36" y2="32.0059" gradientUnits="userSpaceOnUse">
<stop offset="0.300997" stop-color="#168AEA"/>
<stop offset="0.729313" stop-color="#40ADF0" stop-opacity="0"/>
</linearGradient>
<radialGradient id="paint83_radial_878_6757" cx="0" cy="0" r="1" gradientUnits="userSpaceOnUse" gradientTransform="translate(37.4252 30.5117) rotate(123.329) scale(1.58589 4.03869)">
<stop offset="0.189537" stop-color="#1787EE"/>
<stop offset="0.481945" stop-color="#37A2ED" stop-opacity="0"/>
</radialGradient>
<linearGradient id="paint84_linear_878_6757" x1="39.1393" y1="33.5" x2="40.9036" y2="29.4645" gradientUnits="userSpaceOnUse">
<stop stop-color="#54E6FF"/>
<stop offset="1" stop-color="#42A9FF"/>
</linearGradient>
<linearGradient id="paint85_linear_878_6757" x1="40.6431" y1="32.9001" x2="40.6426" y2="34.8627" gradientUnits="userSpaceOnUse">
<stop stop-color="#FAFAFA" stop-opacity="0"/>
<stop offset="0.161013" stop-color="#80FFFF" stop-opacity="0.2"/>
<stop offset="0.485489" stop-color="#80FFFF"/>
</linearGradient>
<linearGradient id="paint86_linear_878_6757" x1="40.0051" y1="32.1483" x2="38.0155" y2="32.1465" gradientUnits="userSpaceOnUse">
<stop offset="0.139675" stop-color="#51D3F8" stop-opacity="0"/>
<stop offset="0.391108" stop-color="#5CF2FE" stop-opacity="0.91"/>
</linearGradient>
<linearGradient id="paint87_linear_878_6757" x1="42.8385" y1="31.5388" x2="40.4766" y2="31.5122" gradientUnits="userSpaceOnUse">
<stop offset="0.41576" stop-color="#1E8DDC" stop-opacity="0.87"/>
<stop offset="0.731107" stop-color="#32A2EE" stop-opacity="0"/>
</linearGradient>
<linearGradient id="paint88_linear_878_6757" x1="40.4766" y1="29.9652" x2="40.4766" y2="32.0059" gradientUnits="userSpaceOnUse">
<stop offset="0.300997" stop-color="#168AEA"/>
<stop offset="0.729313" stop-color="#40ADF0" stop-opacity="0"/>
</linearGradient>
<radialGradient id="paint89_radial_878_6757" cx="0" cy="0" r="1" gradientUnits="userSpaceOnUse" gradientTransform="translate(41.9018 30.5117) rotate(123.329) scale(1.58589 4.03869)">
<stop offset="0.189537" stop-color="#1787EE"/>
<stop offset="0.481945" stop-color="#37A2ED" stop-opacity="0"/>
</radialGradient>
</defs>
</svg>
