<svg width="40" height="40" viewBox="0 0 40 40" fill="none" xmlns="http://www.w3.org/2000/svg">
<rect width="40" height="40" rx="8" fill="#F9F9FF"/>
<path d="M20 10C23.9946 10 25.9921 10.0003 27.4307 10.9521C28.0729 11.3771 28.6229 11.9271 29.0479 12.5693C29.9997 14.0079 30 16.0054 30 20C30 23.9946 29.9997 25.9921 29.0479 27.4307C28.6229 28.0729 28.0729 28.6229 27.4307 29.0479C25.9921 29.9997 23.9946 30 20 30C16.0054 30 14.0079 29.9997 12.5693 29.0479C11.9271 28.6229 11.3771 28.0729 10.9521 27.4307C10.0003 25.9921 10 23.9946 10 20C10 16.0054 10.0003 14.0079 10.9521 12.5693C11.3771 11.9271 11.9271 11.3771 12.5693 10.9521C14.0079 10.0003 16.0054 10 20 10ZM20 14.8223C17.1409 14.8223 14.8225 17.14 14.8223 19.999C14.8223 22.8583 17.1408 25.1768 20 25.1768C22.8592 25.1767 25.1768 22.8582 25.1768 19.999C25.1766 17.14 22.859 14.8223 20 14.8223ZM20 16.5742C21.8917 16.5743 23.4256 18.1074 23.4258 19.999C23.4258 21.8909 21.8918 23.4247 20 23.4248C18.1081 23.4248 16.5742 21.8909 16.5742 19.999C16.5744 18.1073 18.1082 16.5742 20 16.5742ZM25.3818 13.3457C24.71 13.3457 24.165 13.8907 24.165 14.5625C24.1652 15.2342 24.7101 15.7783 25.3818 15.7783C26.0534 15.7781 26.5975 15.2341 26.5977 14.5625C26.5977 13.8908 26.0535 13.3459 25.3818 13.3457Z" fill="#313189"/>
</svg>
