<svg width="24" height="24" viewBox="0 0 24 24" fill="none" xmlns="http://www.w3.org/2000/svg">
<path d="M20.2051 19.998L15.4229 6.84863L16.2751 4.50488H17.2501C17.449 4.50488 17.6398 4.42587 17.7804 4.28521C17.9211 4.14456 18.0001 3.9538 18.0001 3.75488C18.0001 3.55597 17.9211 3.36521 17.7804 3.22455C17.6398 3.0839 17.449 3.00488 17.2501 3.00488H8.25008C8.05117 3.00488 7.8604 3.0839 7.71975 3.22455C7.5791 3.36521 7.50008 3.55597 7.50008 3.75488C7.50008 3.9538 7.5791 4.14456 7.71975 4.28521C7.8604 4.42587 8.05117 4.50488 8.25008 4.50488H8.67946L3.04508 19.998C3.01133 20.0906 2.99617 20.189 3.00047 20.2875C3.00478 20.386 3.02846 20.4827 3.07017 20.5721C3.11188 20.6614 3.17079 20.7416 3.24354 20.8082C3.31629 20.8747 3.40145 20.9263 3.49414 20.9599C3.57626 20.9894 3.66282 21.0046 3.75008 21.0049C3.90411 21.0049 4.05439 20.9575 4.18053 20.8691C4.30666 20.7807 4.40252 20.6556 4.45508 20.5108L5.36633 18.0049H9.77258L9.04696 19.998C9.0132 20.0906 8.99804 20.189 9.00235 20.2875C9.00665 20.386 9.03034 20.4827 9.07204 20.5721C9.11375 20.6614 9.17267 20.7416 9.24542 20.8082C9.31817 20.8747 9.40333 20.9263 9.49602 20.9599C9.57754 20.9892 9.66345 21.0044 9.75008 21.0049C9.90411 21.0049 10.0544 20.9575 10.1805 20.8691C10.3067 20.7807 10.4025 20.6556 10.4551 20.5108L12.1876 15.7549H17.0626L18.7923 20.5108C18.845 20.656 18.9413 20.7815 19.068 20.8699C19.1947 20.9583 19.3456 21.0055 19.5001 21.0049C19.5873 21.0046 19.6739 20.9894 19.756 20.9599C19.8487 20.9263 19.9339 20.8747 20.0066 20.8082C20.0794 20.7416 20.1383 20.6614 20.18 20.5721C20.2217 20.4827 20.2454 20.386 20.2497 20.2875C20.254 20.189 20.2388 20.0906 20.2051 19.998ZM11.9551 12.0049H7.54883L8.63914 9.00488H13.0454L11.9551 12.0049ZM14.6823 4.50488L13.5882 7.50488H9.18758L10.2751 4.50488H14.6823ZM5.91196 16.5049L7.00321 13.5049H11.4095L10.3126 16.5049H5.91196ZM12.7295 14.2549L14.6251 9.04332L16.5198 14.2549H12.7295Z" fill="black"/>
</svg>
