<svg width="20" height="18" viewBox="0 0 20 18" fill="none" xmlns="http://www.w3.org/2000/svg">
<path d="M3.33333 8.406L0 6.3L10 0L20 6.3V13.95H18.3333V7.344L16.6667 8.406V14.418L16.4833 14.652C15.7056 15.696 14.7611 16.512 13.65 17.1C12.5056 17.7 11.2889 18 10 18C8.71111 18 7.49444 17.7 6.35 17.1C5.23889 16.512 4.29444 15.696 3.51667 14.652L3.33333 14.418V8.406ZM5 9.45V13.77C5.62222 14.526 6.36111 15.114 7.21667 15.534C8.09445 15.978 9.02222 16.2 10 16.2C10.9778 16.2 11.9056 15.978 12.7833 15.534C13.6389 15.114 14.3778 14.526 15 13.77V9.45L10 12.6L5 9.45ZM3.3 6.3L10 10.512L16.7 6.3L10 2.088L3.3 6.3Z" fill="#0066FF"/>
</svg>
