<svg width="16" height="17" viewBox="0 0 16 17" fill="none" xmlns="http://www.w3.org/2000/svg">
<g clip-path="url(#clip0_878_3893)">
<rect x="1" y="1.5" width="14" height="14" fill="white"/>
<path d="M14.8189 0.5H1.18111C0.867861 0.5 0.567441 0.624438 0.34594 0.84594C0.124438 1.06744 0 1.36786 0 1.68111V15.3189C0 15.6321 0.124438 15.9326 0.34594 16.1541C0.567441 16.3756 0.867861 16.5 1.18111 16.5H14.8189C15.1321 16.5 15.4326 16.3756 15.6541 16.1541C15.8756 15.9326 16 15.6321 16 15.3189V1.68111C16 1.36786 15.8756 1.06744 15.6541 0.84594C15.4326 0.624438 15.1321 0.5 14.8189 0.5ZM4.76889 14.13H2.36333V6.48889H4.76889V14.13ZM3.56445 5.43C3.29158 5.42846 3.02528 5.34613 2.79916 5.19339C2.57304 5.04065 2.39723 4.82435 2.29392 4.57179C2.19061 4.31923 2.16443 4.04173 2.21869 3.7743C2.27294 3.50688 2.4052 3.26152 2.59877 3.06919C2.79234 2.87686 3.03854 2.74618 3.30631 2.69364C3.57408 2.6411 3.85141 2.66906 4.1033 2.77399C4.35519 2.87892 4.57036 3.05611 4.72164 3.28321C4.87293 3.51031 4.95355 3.77713 4.95333 4.05C4.95591 4.23269 4.92167 4.41403 4.85267 4.5832C4.78368 4.75238 4.68132 4.90593 4.55171 5.03471C4.42211 5.16349 4.2679 5.26486 4.09828 5.33277C3.92867 5.40068 3.74711 5.43375 3.56445 5.43ZM13.6356 14.1367H11.2311V9.96222C11.2311 8.73111 10.7078 8.35111 10.0322 8.35111C9.31889 8.35111 8.61889 8.88889 8.61889 9.99333V14.1367H6.21333V6.49445H8.52667V7.55333H8.55778C8.79 7.08333 9.60333 6.28 10.8444 6.28C12.1867 6.28 13.6367 7.07667 13.6367 9.41L13.6356 14.1367Z" fill="#0A66C2"/>
</g>
<defs>
<clipPath id="clip0_878_3893">
<rect width="16" height="16" fill="white" transform="translate(0 0.5)"/>
</clipPath>
</defs>
</svg>
