<svg width="40" height="40" viewBox="0 0 40 40" fill="none" xmlns="http://www.w3.org/2000/svg">
<rect width="40" height="40" rx="8" fill="#F9F9FF"/>
<path d="M10 12.6892C10 12.0478 10.2252 11.5187 10.6757 11.1019C11.1261 10.685 11.7117 10.4766 12.4324 10.4766C13.1403 10.4766 13.713 10.6818 14.1506 11.0922C14.601 11.5155 14.8263 12.0671 14.8263 12.7469C14.8263 13.3626 14.6075 13.8756 14.1699 14.2861C13.7194 14.7094 13.1274 14.921 12.3938 14.921H12.3745C11.6667 14.921 11.094 14.7094 10.6564 14.2861C10.2188 13.8628 10 13.3305 10 12.6892ZM10.251 29.5242V16.6718H14.5367V29.5242H10.251ZM16.9112 29.5242H21.1969V22.3476C21.1969 21.8987 21.2484 21.5524 21.3514 21.3087C21.5315 20.8726 21.805 20.5038 22.1718 20.2024C22.5386 19.901 22.9987 19.7502 23.5521 19.7502C24.9936 19.7502 25.7143 20.7187 25.7143 22.6555V29.5242H30V22.1552C30 20.2569 29.5496 18.8171 28.6486 17.8359C27.7477 16.8546 26.5573 16.364 25.0772 16.364C23.417 16.364 22.1236 17.0759 21.1969 18.4996V18.5381H21.1776L21.1969 18.4996V16.6718H16.9112C16.9369 17.0823 16.9498 18.3585 16.9498 20.5006C16.9498 22.6427 16.9369 25.6505 16.9112 29.5242Z" fill="#313189"/>
</svg>
