<svg width="24" height="24" viewBox="0 0 24 24" fill="none" xmlns="http://www.w3.org/2000/svg">
<path fill-rule="evenodd" clip-rule="evenodd" d="M4.35987 2.27778C3.03266 1.64577 1.5 2.61349 1.5 4.0835V15.7131C1.5 16.8702 2.16548 17.9242 3.2102 18.4217L7.77007 20.5931C7.9406 20.6743 8.13065 20.7055 8.31821 20.6832L15.6311 19.8126L19.6401 21.7217C20.9673 22.3537 22.5 21.3859 22.5 19.9159V8.28633C22.5 7.1292 21.8345 6.07523 20.7898 5.57774L16.2299 3.40638C16.0634 3.32708 15.8782 3.29538 15.6948 3.31479L11.4198 3.76717C11.4099 3.76822 11.4 3.76941 11.3902 3.77075L8.36068 4.18293L4.35987 2.27778ZM20.5 19.9159L16.8 18.154V5.89302L19.9299 7.38347C20.2782 7.54929 20.5 7.90062 20.5 8.28633V19.9159ZM14.8 17.8974V5.42064L11.645 5.7545L9.2 6.08716V18.5641L14.8 17.8974ZM3.5 4.0835L7.2 5.8454V18.1064L4.07007 16.616C3.72183 16.4501 3.5 16.0988 3.5 15.7131V4.0835Z" fill="#161640"/>
</svg>
