<svg width="48" height="49" viewBox="0 0 48 49" fill="none" xmlns="http://www.w3.org/2000/svg">
<path d="M13.6222 16.6623V13.9912L5.82324 13.9912C5.61613 13.9912 5.44824 14.1591 5.44824 14.3662L5.44824 14.4123C5.44824 15.6549 6.4556 16.6623 7.69824 16.6623H13.6222Z" fill="#CBC8C7"/>
<path d="M13.6222 16.6623V13.9912L5.82324 13.9912C5.61613 13.9912 5.44824 14.1591 5.44824 14.3662L5.44824 14.4123C5.44824 15.6549 6.4556 16.6623 7.69824 16.6623H13.6222Z" fill="url(#paint0_linear_878_6816)"/>
<path d="M13.6222 16.6623V13.9912L5.82324 13.9912C5.61613 13.9912 5.44824 14.1591 5.44824 14.3662L5.44824 14.4123C5.44824 15.6549 6.4556 16.6623 7.69824 16.6623H13.6222Z" fill="url(#paint1_radial_878_6816)"/>
<path d="M13.622 19.303V16.6621L7.8916 16.6621C7.68449 16.6621 7.5166 16.8281 7.5166 17.0329L7.5166 17.0784C7.5166 18.307 8.52396 19.303 9.7666 19.303H13.622Z" fill="#CBC8C7"/>
<path d="M13.622 19.303V16.6621L7.8916 16.6621C7.68449 16.6621 7.5166 16.8281 7.5166 17.0329L7.5166 17.0784C7.5166 18.307 8.52396 19.303 9.7666 19.303H13.622Z" fill="url(#paint2_linear_878_6816)"/>
<path d="M13.622 19.303V16.6621L7.8916 16.6621C7.68449 16.6621 7.5166 16.8281 7.5166 17.0329L7.5166 17.0784C7.5166 18.307 8.52396 19.303 9.7666 19.303H13.622Z" fill="url(#paint3_radial_878_6816)"/>
<path d="M3.875 11.3506C3.66791 11.3506 3.5 11.5185 3.5 11.7256V11.7717C3.5 13.0143 4.50735 14.0217 5.75 14.0217H12.3986C12.6196 14.0217 12.7986 14.2008 12.7986 14.4217V18.5536C12.7986 18.9679 13.1345 19.3036 13.5486 19.3036H16.6748C18.8709 19.3036 20.6513 17.5233 20.6513 15.3271C20.6513 13.131 18.871 11.3506 16.6748 11.3506L3.875 11.3506Z" fill="#D6D2D1"/>
<path d="M3.875 11.3506C3.66791 11.3506 3.5 11.5185 3.5 11.7256V11.7717C3.5 13.0143 4.50735 14.0217 5.75 14.0217H12.3986C12.6196 14.0217 12.7986 14.2008 12.7986 14.4217V18.5536C12.7986 18.9679 13.1345 19.3036 13.5486 19.3036H16.6748C18.8709 19.3036 20.6513 17.5233 20.6513 15.3271C20.6513 13.131 18.871 11.3506 16.6748 11.3506L3.875 11.3506Z" fill="url(#paint4_radial_878_6816)"/>
<path d="M3.875 11.3506C3.66791 11.3506 3.5 11.5185 3.5 11.7256V11.7717C3.5 13.0143 4.50735 14.0217 5.75 14.0217H12.3986C12.6196 14.0217 12.7986 14.2008 12.7986 14.4217V18.5536C12.7986 18.9679 13.1345 19.3036 13.5486 19.3036H16.6748C18.8709 19.3036 20.6513 17.5233 20.6513 15.3271C20.6513 13.131 18.871 11.3506 16.6748 11.3506L3.875 11.3506Z" fill="url(#paint5_radial_878_6816)"/>
<path d="M3.875 11.3506C3.66791 11.3506 3.5 11.5185 3.5 11.7256V11.7717C3.5 13.0143 4.50735 14.0217 5.75 14.0217H12.3986C12.6196 14.0217 12.7986 14.2008 12.7986 14.4217V18.5536C12.7986 18.9679 13.1345 19.3036 13.5486 19.3036H16.6748C18.8709 19.3036 20.6513 17.5233 20.6513 15.3271C20.6513 13.131 18.871 11.3506 16.6748 11.3506L3.875 11.3506Z" fill="url(#paint6_radial_878_6816)" fill-opacity="0.3"/>
<path d="M3.875 11.3506C3.66791 11.3506 3.5 11.5185 3.5 11.7256V11.7717C3.5 13.0143 4.50735 14.0217 5.75 14.0217H12.3986C12.6196 14.0217 12.7986 14.2008 12.7986 14.4217V18.5536C12.7986 18.9679 13.1345 19.3036 13.5486 19.3036H16.6748C18.8709 19.3036 20.6513 17.5233 20.6513 15.3271C20.6513 13.131 18.871 11.3506 16.6748 11.3506L3.875 11.3506Z" fill="url(#paint7_radial_878_6816)"/>
<path d="M3.875 11.3506C3.66791 11.3506 3.5 11.5185 3.5 11.7256V11.7717C3.5 13.0143 4.50735 14.0217 5.75 14.0217H12.3986C12.6196 14.0217 12.7986 14.2008 12.7986 14.4217V18.5536C12.7986 18.9679 13.1345 19.3036 13.5486 19.3036H16.6748C18.8709 19.3036 20.6513 17.5233 20.6513 15.3271C20.6513 13.131 18.871 11.3506 16.6748 11.3506L3.875 11.3506Z" fill="url(#paint8_radial_878_6816)"/>
<path d="M3.875 11.3506C3.66791 11.3506 3.5 11.5185 3.5 11.7256V11.7717C3.5 13.0143 4.50735 14.0217 5.75 14.0217H12.3986C12.6196 14.0217 12.7986 14.2008 12.7986 14.4217V18.5536C12.7986 18.9679 13.1345 19.3036 13.5486 19.3036H16.6748C18.8709 19.3036 20.6513 17.5233 20.6513 15.3271C20.6513 13.131 18.871 11.3506 16.6748 11.3506L3.875 11.3506Z" fill="url(#paint9_radial_878_6816)"/>
<rect x="7.10059" y="28.4102" width="32.2053" height="21.1449" rx="2.2" transform="rotate(-45 7.10059 28.4102)" fill="url(#paint10_linear_878_6816)"/>
<rect x="7.10059" y="28.4102" width="32.2053" height="21.1449" rx="2.2" transform="rotate(-45 7.10059 28.4102)" fill="url(#paint11_linear_878_6816)"/>
<rect x="7.10059" y="28.4102" width="32.2053" height="21.1449" rx="2.2" transform="rotate(-45 7.10059 28.4102)" fill="url(#paint12_linear_878_6816)"/>
<rect x="7.10059" y="28.4102" width="32.2053" height="21.1449" rx="2.2" transform="rotate(-45 7.10059 28.4102)" fill="url(#paint13_radial_878_6816)"/>
<rect x="7.10059" y="28.4102" width="32.2053" height="21.1449" rx="2.2" transform="rotate(-45 7.10059 28.4102)" fill="url(#paint14_radial_878_6816)"/>
<rect x="4.16113" y="25.4717" width="32.2053" height="21.1449" rx="2.2" transform="rotate(-45 4.16113 25.4717)" fill="url(#paint15_radial_878_6816)"/>
<rect x="4.16113" y="25.4717" width="32.2053" height="21.1449" rx="2.2" transform="rotate(-45 4.16113 25.4717)" fill="url(#paint16_linear_878_6816)"/>
<path fill-rule="evenodd" clip-rule="evenodd" d="M26.333 6.7756L8.23767 24.871C7.8989 25.2097 7.8989 25.759 8.23767 26.0978L18.4866 36.3467C18.8254 36.6855 19.3746 36.6855 19.7134 36.3467L37.8088 18.2513C38.1475 17.9126 38.1475 17.3633 37.8088 17.0245L27.5598 6.7756C27.2211 6.43682 26.6718 6.43682 26.333 6.7756ZM7.62427 24.2576C6.94672 24.9351 6.94672 26.0336 7.62427 26.7112L17.8732 36.9601C18.5507 37.6377 19.6493 37.6377 20.3268 36.9601L38.4222 18.8647C39.0997 18.1872 39.0997 17.0887 38.4222 16.4111L28.1733 6.16219C27.4957 5.48465 26.3972 5.48465 25.7196 6.16219L7.62427 24.2576Z" fill="url(#paint17_linear_878_6816)"/>
<path fill-rule="evenodd" clip-rule="evenodd" d="M26.333 6.7756L8.23767 24.871C7.8989 25.2097 7.8989 25.759 8.23767 26.0978L18.4866 36.3467C18.8254 36.6855 19.3746 36.6855 19.7134 36.3467L37.8088 18.2513C38.1475 17.9126 38.1475 17.3633 37.8088 17.0245L27.5598 6.7756C27.2211 6.43682 26.6718 6.43682 26.333 6.7756ZM7.62427 24.2576C6.94672 24.9351 6.94672 26.0336 7.62427 26.7112L17.8732 36.9601C18.5507 37.6377 19.6493 37.6377 20.3268 36.9601L38.4222 18.8647C39.0997 18.1872 39.0997 17.0887 38.4222 16.4111L28.1733 6.16219C27.4957 5.48465 26.3972 5.48465 25.7196 6.16219L7.62427 24.2576Z" fill="url(#paint18_linear_878_6816)"/>
<path fill-rule="evenodd" clip-rule="evenodd" d="M26.333 6.7756L8.23767 24.871C7.8989 25.2097 7.8989 25.759 8.23767 26.0978L18.4866 36.3467C18.8254 36.6855 19.3746 36.6855 19.7134 36.3467L37.8088 18.2513C38.1475 17.9126 38.1475 17.3633 37.8088 17.0245L27.5598 6.7756C27.2211 6.43682 26.6718 6.43682 26.333 6.7756ZM7.62427 24.2576C6.94672 24.9351 6.94672 26.0336 7.62427 26.7112L17.8732 36.9601C18.5507 37.6377 19.6493 37.6377 20.3268 36.9601L38.4222 18.8647C39.0997 18.1872 39.0997 17.0887 38.4222 16.4111L28.1733 6.16219C27.4957 5.48465 26.3972 5.48465 25.7196 6.16219L7.62427 24.2576Z" fill="url(#paint19_linear_878_6816)"/>
<path fill-rule="evenodd" clip-rule="evenodd" d="M26.333 6.7756L8.23767 24.871C7.8989 25.2097 7.8989 25.759 8.23767 26.0978L18.4866 36.3467C18.8254 36.6855 19.3746 36.6855 19.7134 36.3467L37.8088 18.2513C38.1475 17.9126 38.1475 17.3633 37.8088 17.0245L27.5598 6.7756C27.2211 6.43682 26.6718 6.43682 26.333 6.7756ZM7.62427 24.2576C6.94672 24.9351 6.94672 26.0336 7.62427 26.7112L17.8732 36.9601C18.5507 37.6377 19.6493 37.6377 20.3268 36.9601L38.4222 18.8647C39.0997 18.1872 39.0997 17.0887 38.4222 16.4111L28.1733 6.16219C27.4957 5.48465 26.3972 5.48465 25.7196 6.16219L7.62427 24.2576Z" fill="url(#paint20_linear_878_6816)"/>
<path fill-rule="evenodd" clip-rule="evenodd" d="M26.333 6.7756L8.23767 24.871C7.8989 25.2097 7.8989 25.759 8.23767 26.0978L18.4866 36.3467C18.8254 36.6855 19.3746 36.6855 19.7134 36.3467L37.8088 18.2513C38.1475 17.9126 38.1475 17.3633 37.8088 17.0245L27.5598 6.7756C27.2211 6.43682 26.6718 6.43682 26.333 6.7756ZM7.62427 24.2576C6.94672 24.9351 6.94672 26.0336 7.62427 26.7112L17.8732 36.9601C18.5507 37.6377 19.6493 37.6377 20.3268 36.9601L38.4222 18.8647C39.0997 18.1872 39.0997 17.0887 38.4222 16.4111L28.1733 6.16219C27.4957 5.48465 26.3972 5.48465 25.7196 6.16219L7.62427 24.2576Z" fill="url(#paint21_linear_878_6816)"/>
<path fill-rule="evenodd" clip-rule="evenodd" d="M26.333 6.7756L8.23767 24.871C7.8989 25.2097 7.8989 25.759 8.23767 26.0978L18.4866 36.3467C18.8254 36.6855 19.3746 36.6855 19.7134 36.3467L37.8088 18.2513C38.1475 17.9126 38.1475 17.3633 37.8088 17.0245L27.5598 6.7756C27.2211 6.43682 26.6718 6.43682 26.333 6.7756ZM7.62427 24.2576C6.94672 24.9351 6.94672 26.0336 7.62427 26.7112L17.8732 36.9601C18.5507 37.6377 19.6493 37.6377 20.3268 36.9601L38.4222 18.8647C39.0997 18.1872 39.0997 17.0887 38.4222 16.4111L28.1733 6.16219C27.4957 5.48465 26.3972 5.48465 25.7196 6.16219L7.62427 24.2576Z" fill="url(#paint22_linear_878_6816)"/>
<ellipse cx="26.9848" cy="17.5996" rx="5.34947" ry="4.9338" transform="rotate(-45 26.9848 17.5996)" fill="#289D5B"/>
<ellipse cx="26.9848" cy="17.5996" rx="5.34947" ry="4.9338" transform="rotate(-45 26.9848 17.5996)" fill="url(#paint23_linear_878_6816)"/>
<ellipse cx="26.9848" cy="17.5996" rx="5.34947" ry="4.9338" transform="rotate(-45 26.9848 17.5996)" fill="url(#paint24_radial_878_6816)"/>
<rect x="14.7812" y="14.8516" width="5.06031" height="25.3016" transform="rotate(-45 14.7812 14.8516)" fill="url(#paint25_linear_878_6816)"/>
<rect x="14.7812" y="14.8516" width="5.06031" height="25.3016" transform="rotate(-45 14.7812 14.8516)" fill="url(#paint26_linear_878_6816)"/>
<path d="M14.3622 24.5726C14.0852 24.2956 14.0852 23.8464 14.3622 23.5694C14.6392 23.2924 15.0884 23.2924 15.3654 23.5694L15.9177 24.1217C16.9368 23.5027 17.9755 23.7545 18.573 24.2403C18.9134 24.5171 18.9539 24.8951 18.7121 25.1925C18.4703 25.4899 18.0332 25.5349 17.7358 25.2931C17.5412 25.1349 16.934 24.7164 16.1801 25.4703C15.1002 26.5502 16.4995 28.0006 17.7519 26.7482C18.2886 26.2115 19.1671 25.9549 19.7806 26.055C20.4192 26.1592 20.9148 26.4799 21.2667 26.9475C21.7984 27.793 21.7273 28.6806 21.2457 29.4497L21.7774 29.9814C22.0544 30.2584 22.0544 30.7075 21.7774 30.9846C21.5003 31.2616 21.0512 31.2616 20.7742 30.9846L20.2543 30.4647C19.4045 31.0146 18.4048 31.0108 17.5506 30.336C17.2499 30.0984 17.1742 29.6858 17.4118 29.3851C17.6494 29.0843 18.0858 29.0331 18.3866 29.2707C18.5359 29.3886 18.7789 29.524 19.0404 29.5525C19.2639 29.5768 19.5439 29.5184 19.886 29.1763C20.3125 28.7499 20.3824 28.3682 20.3142 28.0837C20.1672 27.2722 19.1843 27.0666 18.6049 27.646C17.797 28.39 17.2195 28.5741 16.5734 28.5466C16.0484 28.5242 15.5179 28.3032 15.1386 27.9239C14.8955 27.6808 14.5726 27.2157 14.5147 26.6245C14.4681 26.1483 14.5676 25.622 14.8991 25.1094L14.3622 24.5726Z" fill="#18873A"/>
<path d="M14.3622 24.2865C14.0852 24.0094 14.0852 23.5603 14.3622 23.2833C14.6392 23.0063 15.0884 23.0063 15.3654 23.2833L15.9177 23.8356C16.9368 23.2165 17.9755 23.4684 18.573 23.9542C18.9134 24.231 18.9539 24.609 18.7121 24.9064C18.4703 25.2037 18.0332 25.2488 17.7358 25.007C17.5412 24.8487 16.934 24.4302 16.1801 25.1842C15.1002 26.264 16.4995 27.7145 17.7519 26.4621C18.2886 25.9254 19.1671 25.6688 19.7806 25.7688C20.4192 25.873 20.9148 26.1938 21.2667 26.6614C21.7984 27.5068 21.7273 28.3944 21.2457 29.1636L21.7774 29.6953C22.0544 29.9723 22.0544 30.4214 21.7774 30.6984C21.5003 30.9754 21.0512 30.9754 20.7742 30.6984L20.2543 30.1785C19.4045 30.7284 18.4048 30.7246 17.5506 30.0499C17.2499 29.8123 17.1742 29.3997 17.4118 29.0989C17.6494 28.7982 18.0858 28.747 18.3866 28.9846C18.5359 29.1025 18.7789 29.2379 19.0404 29.2664C19.2639 29.2907 19.5439 29.2323 19.886 28.8902C20.3125 28.4637 20.3824 28.0821 20.3142 27.7975C20.1672 26.986 19.1843 26.7805 18.6049 27.3598C17.797 28.1039 17.2195 28.288 16.5734 28.2605C16.0484 28.2381 15.5179 28.0171 15.1386 27.6378C14.8955 27.3947 14.5726 26.9296 14.5147 26.3384C14.4681 25.8621 14.5676 25.3358 14.8991 24.8233L14.3622 24.2865Z" fill="url(#paint27_linear_878_6816)"/>
<path d="M31.7344 35.334H34.4055V43.2579C34.4055 43.396 34.2935 43.5079 34.1555 43.5079H33.2344C32.4059 43.5079 31.7344 42.8364 31.7344 42.0079V35.334Z" fill="#BCB6B6"/>
<path d="M31.7344 35.334H34.4055V43.2579C34.4055 43.396 34.2935 43.5079 34.1555 43.5079H33.2344C32.4059 43.5079 31.7344 42.8364 31.7344 42.0079V35.334Z" fill="url(#paint28_radial_878_6816)"/>
<path d="M31.7344 35.334H34.4055V43.2579C34.4055 43.396 34.2935 43.5079 34.1555 43.5079H33.2344C32.4059 43.5079 31.7344 42.8364 31.7344 42.0079V35.334Z" fill="url(#paint29_radial_878_6816)" fill-opacity="0.2"/>
<path d="M29.0635 35.334H31.7346V41.1894C31.7346 41.3274 31.6226 41.4394 31.4846 41.4394H30.5635C29.735 41.4394 29.0635 40.7678 29.0635 39.9394V35.334Z" fill="#BCB6B6"/>
<path d="M29.0635 35.334H31.7346V41.1894C31.7346 41.3274 31.6226 41.4394 31.4846 41.4394H30.5635C29.735 41.4394 29.0635 40.7678 29.0635 39.9394V35.334Z" fill="url(#paint30_radial_878_6816)"/>
<path d="M29.0635 35.334H31.7346V41.1894C31.7346 41.3274 31.6226 41.4394 31.4846 41.4394H30.5635C29.735 41.4394 29.0635 40.7678 29.0635 39.9394V35.334Z" fill="url(#paint31_radial_878_6816)" fill-opacity="0.2"/>
<path d="M29.0635 35.334H31.7346V41.1894C31.7346 41.3274 31.6226 41.4394 31.4846 41.4394H30.5635C29.735 41.4394 29.0635 40.7678 29.0635 39.9394V35.334Z" fill="url(#paint32_radial_878_6816)"/>
<path d="M33.0551 28.3047C30.8506 28.3047 29.0635 30.085 29.0635 32.2812V35.4073C29.0635 35.8215 29.4006 36.1573 29.8163 36.1573H33.7632C34.0958 36.1573 34.3655 36.4259 34.3655 36.7573V43.2059C34.3655 44.4486 35.3767 45.4559 36.624 45.4559H36.6704C36.8782 45.4559 37.0468 45.288 37.0468 45.0809L37.0467 32.2812C37.0467 30.085 35.2596 28.3047 33.0551 28.3047Z" fill="#DBD7D7"/>
<path d="M33.0551 28.3047C30.8506 28.3047 29.0635 30.085 29.0635 32.2812V35.4073C29.0635 35.8215 29.4006 36.1573 29.8163 36.1573H33.7632C34.0958 36.1573 34.3655 36.4259 34.3655 36.7573V43.2059C34.3655 44.4486 35.3767 45.4559 36.624 45.4559H36.6704C36.8782 45.4559 37.0468 45.288 37.0468 45.0809L37.0467 32.2812C37.0467 30.085 35.2596 28.3047 33.0551 28.3047Z" fill="url(#paint33_radial_878_6816)"/>
<path d="M33.0551 28.3047C30.8506 28.3047 29.0635 30.085 29.0635 32.2812V35.4073C29.0635 35.8215 29.4006 36.1573 29.8163 36.1573H33.7632C34.0958 36.1573 34.3655 36.4259 34.3655 36.7573V43.2059C34.3655 44.4486 35.3767 45.4559 36.624 45.4559H36.6704C36.8782 45.4559 37.0468 45.288 37.0468 45.0809L37.0467 32.2812C37.0467 30.085 35.2596 28.3047 33.0551 28.3047Z" fill="url(#paint34_radial_878_6816)"/>
<path d="M33.0551 28.3047C30.8506 28.3047 29.0635 30.085 29.0635 32.2812V35.4073C29.0635 35.8215 29.4006 36.1573 29.8163 36.1573H33.7632C34.0958 36.1573 34.3655 36.4259 34.3655 36.7573V43.2059C34.3655 44.4486 35.3767 45.4559 36.624 45.4559H36.6704C36.8782 45.4559 37.0468 45.288 37.0468 45.0809L37.0467 32.2812C37.0467 30.085 35.2596 28.3047 33.0551 28.3047Z" fill="url(#paint35_linear_878_6816)"/>
<path d="M33.0551 28.3047C30.8506 28.3047 29.0635 30.085 29.0635 32.2812V35.4073C29.0635 35.8215 29.4006 36.1573 29.8163 36.1573H33.7632C34.0958 36.1573 34.3655 36.4259 34.3655 36.7573V43.2059C34.3655 44.4486 35.3767 45.4559 36.624 45.4559H36.6704C36.8782 45.4559 37.0468 45.288 37.0468 45.0809L37.0467 32.2812C37.0467 30.085 35.2596 28.3047 33.0551 28.3047Z" fill="url(#paint36_radial_878_6816)"/>
<defs>
<linearGradient id="paint0_linear_878_6816" x1="9.53522" y1="13.9912" x2="9.53522" y2="16.8374" gradientUnits="userSpaceOnUse">
<stop stop-color="#A7A5A3"/>
<stop offset="0.318592" stop-color="#C9C8C7"/>
<stop offset="0.639618" stop-color="#CFCFCF"/>
<stop offset="1" stop-color="#9EA39E"/>
</linearGradient>
<radialGradient id="paint1_radial_878_6816" cx="0" cy="0" r="1" gradientUnits="userSpaceOnUse" gradientTransform="translate(9.53522 15.3268) rotate(90) scale(0.852821)">
<stop stop-color="#D3D3D3"/>
<stop offset="1" stop-color="#CCCAC9" stop-opacity="0"/>
</radialGradient>
<linearGradient id="paint2_linear_878_6816" x1="10.5693" y1="16.6621" x2="10.5693" y2="19.4761" gradientUnits="userSpaceOnUse">
<stop stop-color="#A7A5A3"/>
<stop offset="0.318592" stop-color="#C9C8C7"/>
<stop offset="0.639618" stop-color="#CFCFCF"/>
<stop offset="1" stop-color="#9EA39E"/>
</linearGradient>
<radialGradient id="paint3_radial_878_6816" cx="0" cy="0" r="1" gradientUnits="userSpaceOnUse" gradientTransform="translate(10.5693 17.9826) rotate(90) scale(0.843174 1.78845)">
<stop stop-color="#D3D3D3"/>
<stop offset="1" stop-color="#CCCAC9" stop-opacity="0"/>
</radialGradient>
<radialGradient id="paint4_radial_878_6816" cx="0" cy="0" r="1" gradientUnits="userSpaceOnUse" gradientTransform="translate(5.9494 11.6561) scale(11.6886 2.06798)">
<stop stop-color="#E3E1E1"/>
<stop offset="1" stop-color="#E3E1E1" stop-opacity="0"/>
</radialGradient>
<radialGradient id="paint5_radial_878_6816" cx="0" cy="0" r="1" gradientUnits="userSpaceOnUse" gradientTransform="translate(11.1563 12.055) rotate(90) scale(1.85156 24.0703)">
<stop stop-color="#EEEEEE"/>
<stop offset="1" stop-color="#C4C4C4"/>
</radialGradient>
<radialGradient id="paint6_radial_878_6816" cx="0" cy="0" r="1" gradientUnits="userSpaceOnUse" gradientTransform="translate(15.3282 13.3909) rotate(104.913) scale(2.00364 6.44365)">
<stop stop-color="white"/>
<stop offset="1" stop-color="white" stop-opacity="0"/>
</radialGradient>
<radialGradient id="paint7_radial_878_6816" cx="0" cy="0" r="1" gradientUnits="userSpaceOnUse" gradientTransform="translate(18.375 11.3506) rotate(115.087) scale(5.30659 1.74189)">
<stop stop-color="#C0C1BD"/>
<stop offset="1" stop-color="#C0C1BD" stop-opacity="0"/>
</radialGradient>
<radialGradient id="paint8_radial_878_6816" cx="0" cy="0" r="1" gradientUnits="userSpaceOnUse" gradientTransform="translate(12.4387 14.4899) rotate(63.2834) scale(1.30797 1.69902)">
<stop offset="0.301397" stop-color="#B4B3B1"/>
<stop offset="1" stop-color="#CBCAC9" stop-opacity="0"/>
</radialGradient>
<radialGradient id="paint9_radial_878_6816" cx="0" cy="0" r="1" gradientUnits="userSpaceOnUse" gradientTransform="translate(12.6012 16.4706) rotate(36.2539) scale(1.00745 1.30866)">
<stop offset="0.218314" stop-color="#B4B3B1"/>
<stop offset="1" stop-color="#CBCAC9" stop-opacity="0"/>
</radialGradient>
<linearGradient id="paint10_linear_878_6816" x1="37.2094" y1="48.1454" x2="8.22108" y2="48.1454" gradientUnits="userSpaceOnUse">
<stop stop-color="#12724A"/>
<stop offset="1" stop-color="#116245"/>
</linearGradient>
<linearGradient id="paint11_linear_878_6816" x1="39.3059" y1="47.1333" x2="36.2335" y2="47.1333" gradientUnits="userSpaceOnUse">
<stop stop-color="#1C8F60"/>
<stop offset="1" stop-color="#1C8F60" stop-opacity="0"/>
</linearGradient>
<linearGradient id="paint12_linear_878_6816" x1="7.10059" y1="46.9887" x2="10.2814" y2="46.9887" gradientUnits="userSpaceOnUse">
<stop offset="0.556818" stop-color="#195840"/>
<stop offset="1" stop-color="#195840" stop-opacity="0"/>
</linearGradient>
<radialGradient id="paint13_radial_878_6816" cx="0" cy="0" r="1" gradientUnits="userSpaceOnUse" gradientTransform="translate(22.0636 46.8516) rotate(159.806) scale(6.1451 5.83059)">
<stop offset="0.306788" stop-color="#0E593C"/>
<stop offset="1" stop-color="#0E593C" stop-opacity="0"/>
</radialGradient>
<radialGradient id="paint14_radial_878_6816" cx="0" cy="0" r="1" gradientUnits="userSpaceOnUse" gradientTransform="translate(20.6715 48.1111) rotate(-176.751) scale(7.60257 1.61213)">
<stop offset="0.396008" stop-color="#0F4F35"/>
<stop offset="1" stop-color="#0F4F35" stop-opacity="0"/>
</radialGradient>
<radialGradient id="paint15_radial_878_6816" cx="0" cy="0" r="1" gradientUnits="userSpaceOnUse" gradientTransform="translate(4.86596 26.303) rotate(48.2593) scale(22.4767 29.475)">
<stop stop-color="#31DE74"/>
<stop offset="1" stop-color="#20CF5E"/>
</radialGradient>
<linearGradient id="paint16_linear_878_6816" x1="23.6422" y1="36.3975" x2="16.6952" y2="36.1971" gradientUnits="userSpaceOnUse">
<stop offset="0.411098" stop-color="#199140" stop-opacity="0"/>
<stop offset="0.550735" stop-color="#116131"/>
<stop offset="0.768889" stop-color="#177A3E" stop-opacity="0"/>
</linearGradient>
<linearGradient id="paint17_linear_878_6816" x1="24.8251" y1="7.61903" x2="22.3204" y2="34.1487" gradientUnits="userSpaceOnUse">
<stop stop-color="#24A35B"/>
<stop offset="1" stop-color="#27A05A"/>
</linearGradient>
<linearGradient id="paint18_linear_878_6816" x1="12.7487" y1="31.8356" x2="13.0315" y2="31.5529" gradientUnits="userSpaceOnUse">
<stop stop-color="#188241"/>
<stop offset="1" stop-color="#188241" stop-opacity="0"/>
</linearGradient>
<linearGradient id="paint19_linear_878_6816" x1="22.3094" y1="35.1053" x2="21.8434" y2="34.6392" gradientUnits="userSpaceOnUse">
<stop stop-color="#188241"/>
<stop offset="1" stop-color="#188241" stop-opacity="0"/>
</linearGradient>
<linearGradient id="paint20_linear_878_6816" x1="39.2468" y1="17.2358" x2="38.9606" y2="17.522" gradientUnits="userSpaceOnUse">
<stop stop-color="#188241"/>
<stop offset="1" stop-color="#188241" stop-opacity="0"/>
</linearGradient>
<linearGradient id="paint21_linear_878_6816" x1="26.6602" y1="5.22163" x2="27.0521" y2="5.61351" gradientUnits="userSpaceOnUse">
<stop stop-color="#188241"/>
<stop offset="1" stop-color="#2CB566" stop-opacity="0"/>
</linearGradient>
<linearGradient id="paint22_linear_878_6816" x1="25.3912" y1="19.6178" x2="20.5077" y2="24.2046" gradientUnits="userSpaceOnUse">
<stop offset="0.411098" stop-color="#199140" stop-opacity="0"/>
<stop offset="0.599958" stop-color="#116131"/>
<stop offset="0.768889" stop-color="#177A3E" stop-opacity="0"/>
</linearGradient>
<linearGradient id="paint23_linear_878_6816" x1="25.2136" y1="18.196" x2="27.2739" y2="18.196" gradientUnits="userSpaceOnUse">
<stop offset="0.22807" stop-color="#269553"/>
<stop offset="1" stop-color="#269553" stop-opacity="0"/>
</linearGradient>
<radialGradient id="paint24_radial_878_6816" cx="0" cy="0" r="1" gradientUnits="userSpaceOnUse" gradientTransform="translate(26.9848 18.3768) rotate(-40.8023) scale(5.58673 5.49123)">
<stop offset="0.587108" stop-color="#249755" stop-opacity="0"/>
<stop offset="0.986856" stop-color="#16793D"/>
</radialGradient>
<linearGradient id="paint25_linear_878_6816" x1="17.3114" y1="16.7673" x2="17.3114" y2="36.7916" gradientUnits="userSpaceOnUse">
<stop stop-color="#FFD425"/>
<stop offset="1" stop-color="#FFAD24"/>
</linearGradient>
<linearGradient id="paint26_linear_878_6816" x1="18.5403" y1="40.1531" x2="18.5403" y2="35.7073" gradientUnits="userSpaceOnUse">
<stop offset="0.893939" stop-color="#CC8139"/>
<stop offset="1" stop-color="#CC8139" stop-opacity="0"/>
</linearGradient>
<linearGradient id="paint27_linear_878_6816" x1="14.3559" y1="23.2896" x2="21.771" y2="30.7048" gradientUnits="userSpaceOnUse">
<stop stop-color="#EFEAEA"/>
<stop offset="1" stop-color="#EAE3E3"/>
</linearGradient>
<radialGradient id="paint28_radial_878_6816" cx="0" cy="0" r="1" gradientUnits="userSpaceOnUse" gradientTransform="translate(33.0699 38.0351) rotate(90) scale(6.21828 2.26105)">
<stop offset="0.365482" stop-color="#9E9A9A" stop-opacity="0"/>
<stop offset="1" stop-color="#9E9A9A"/>
</radialGradient>
<radialGradient id="paint29_radial_878_6816" cx="0" cy="0" r="1" gradientUnits="userSpaceOnUse" gradientTransform="translate(33.0699 38.0617) rotate(90) scale(4.19 1.00353)">
<stop stop-color="white"/>
<stop offset="1" stop-color="white" stop-opacity="0"/>
</radialGradient>
<radialGradient id="paint30_radial_878_6816" cx="0" cy="0" r="1" gradientUnits="userSpaceOnUse" gradientTransform="translate(30.399 37.3515) rotate(90) scale(4.64461 2.26105)">
<stop offset="0.365482" stop-color="#9E9A9A" stop-opacity="0"/>
<stop offset="1" stop-color="#9E9A9A"/>
</radialGradient>
<radialGradient id="paint31_radial_878_6816" cx="0" cy="0" r="1" gradientUnits="userSpaceOnUse" gradientTransform="translate(30.399 37.3714) rotate(90) scale(3.12963 1.00353)">
<stop stop-color="white"/>
<stop offset="1" stop-color="white" stop-opacity="0"/>
</radialGradient>
<radialGradient id="paint32_radial_878_6816" cx="0" cy="0" r="1" gradientUnits="userSpaceOnUse" gradientTransform="translate(30.399 37.9187) rotate(90) scale(4.80926 1.43303)">
<stop stop-color="#D6D2D3"/>
<stop offset="1" stop-color="#D6D2D3" stop-opacity="0"/>
</radialGradient>
<radialGradient id="paint33_radial_878_6816" cx="0" cy="0" r="1" gradientUnits="userSpaceOnUse" gradientTransform="translate(35.4071 30.9633) rotate(91.8952) scale(10.417 4.84875)">
<stop stop-color="white" stop-opacity="0.97"/>
<stop offset="1" stop-color="#C0B8B7"/>
</radialGradient>
<radialGradient id="paint34_radial_878_6816" cx="0" cy="0" r="1" gradientUnits="userSpaceOnUse" gradientTransform="translate(35.9258 37.4983) rotate(90) scale(10.3301 1.08271)">
<stop stop-color="#F7F7F4"/>
<stop offset="1" stop-color="#F7F7F4" stop-opacity="0"/>
</radialGradient>
<linearGradient id="paint35_linear_878_6816" x1="37.0468" y1="39.181" x2="34.5001" y2="39.181" gradientUnits="userSpaceOnUse">
<stop offset="0.35579" stop-color="#F7F7F4" stop-opacity="0.9"/>
<stop offset="1" stop-color="#EEEFEE" stop-opacity="0"/>
</linearGradient>
<radialGradient id="paint36_radial_878_6816" cx="0" cy="0" r="1" gradientUnits="userSpaceOnUse" gradientTransform="translate(32.0626 37.9059) rotate(-72.1598) scale(8.56826 9.86791)">
<stop stop-color="#CAC3C2"/>
<stop offset="0.452046" stop-color="#CAC3C2" stop-opacity="0"/>
</radialGradient>
</defs>
</svg>
