<svg width="24" height="24" viewBox="0 0 24 24" fill="none" xmlns="http://www.w3.org/2000/svg">
<rect width="24" height="24" rx="8" fill="#206EFF"/>
<path d="M18.8401 13.3862C18.7697 13.3156 18.6814 13.2655 18.5846 13.2414C18.4879 13.2172 18.3864 13.2198 18.291 13.2489C17.244 13.5655 16.1307 13.5921 15.0698 13.3257C14.0088 13.0594 13.04 12.5102 12.2666 11.7365C11.4931 10.9629 10.944 9.99391 10.6777 8.93277C10.4114 7.87162 10.438 6.7581 10.7545 5.71085C10.7839 5.61542 10.7867 5.51379 10.7626 5.41689C10.7386 5.31998 10.6886 5.23147 10.618 5.16086C10.5474 5.09026 10.4589 5.04024 10.362 5.01618C10.2651 4.99212 10.1635 4.99494 10.0681 5.02432C8.62056 5.46785 7.34972 6.35673 6.43646 7.56447C5.63779 8.62506 5.15062 9.88739 5.02969 11.2096C4.90875 12.5319 5.15884 13.8617 5.75186 15.0496C6.34488 16.2375 7.25734 17.2365 8.38671 17.9344C9.51608 18.6322 10.8176 19.0012 12.1451 19C13.6939 19.0047 15.2014 18.5012 16.4364 17.5665C17.6439 16.653 18.5326 15.3819 18.976 13.9341C19.0051 13.839 19.0078 13.7378 18.9838 13.6414C18.9599 13.5449 18.9102 13.4567 18.8401 13.3862ZM15.7761 16.6891C14.6131 17.5653 13.1727 17.9918 11.7202 17.8901C10.2677 17.7883 8.90086 17.1652 7.87124 16.1355C6.84161 15.1057 6.21854 13.7386 6.11672 12.2859C6.0149 10.8331 6.44118 9.39239 7.31709 8.22903C7.88776 7.47527 8.62553 6.86425 9.47234 6.44406C9.4241 6.78267 9.39979 7.12427 9.39959 7.4663C9.40158 9.3593 10.1543 11.1742 11.4926 12.5128C12.8309 13.8513 14.6454 14.6042 16.538 14.6062C16.8806 14.6061 17.2229 14.5818 17.5621 14.5334C17.1416 15.3806 16.5302 16.1185 15.7761 16.6891Z" fill="black"/>
</svg>
