<svg width="25" height="25" viewBox="0 0 25 25" fill="none" xmlns="http://www.w3.org/2000/svg">
<path opacity="0.2" d="M22.6812 12.8435L14.9609 14.9998L12.8046 22.7201C12.7583 22.8714 12.6652 23.0042 12.5388 23.0994C12.4124 23.1946 12.2591 23.2474 12.1009 23.2503C11.9426 23.2531 11.7875 23.2057 11.6578 23.1151C11.5281 23.0244 11.4304 22.895 11.3787 22.7454L5.25869 6.2454C5.21368 6.11304 5.20655 5.97073 5.23812 5.83453C5.2697 5.69834 5.33871 5.57368 5.43738 5.47462C5.53604 5.37557 5.66043 5.30606 5.7965 5.27395C5.93257 5.24185 6.07491 5.24841 6.20744 5.2929L22.7074 11.4129C22.8588 11.4636 22.99 11.5612 23.082 11.6916C23.174 11.822 23.2221 11.9783 23.2192 12.1378C23.2162 12.2974 23.1625 12.4519 23.0657 12.5788C22.969 12.7057 22.8343 12.7984 22.6812 12.8435Z" fill="#4F4FCB"/>
<path d="M22.9607 10.7077L6.46817 4.59421L6.45317 4.58953C6.1877 4.49812 5.90191 4.48306 5.6283 4.54605C5.3547 4.60904 5.10426 4.74756 4.90549 4.94585C4.70672 5.14413 4.56758 5.39423 4.50392 5.66768C4.44025 5.94113 4.45461 6.22696 4.54536 6.49265C4.5465 6.49777 4.54807 6.50279 4.55005 6.50765L10.6682 23.0002C10.7687 23.2942 10.9592 23.5491 11.2129 23.7287C11.4665 23.9083 11.7702 24.0034 12.081 24.0005H12.1091C12.426 23.998 12.7337 23.8939 12.9869 23.7033C13.2401 23.5127 13.4253 23.2459 13.5154 22.942L13.521 22.9233L15.5685 15.6108L22.881 13.5633L22.8997 13.5577C23.2013 13.4648 23.466 13.2793 23.656 13.0274C23.8461 12.7755 23.9518 12.4701 23.9583 12.1546C23.9647 11.8391 23.8715 11.5296 23.6919 11.2702C23.5123 11.0108 23.2554 10.8146 22.9579 10.7095L22.9607 10.7077ZM14.7585 14.2786C14.6346 14.3134 14.5218 14.3794 14.4309 14.4703C14.3399 14.5613 14.2739 14.6741 14.2391 14.798L12.0829 22.5005L12.0772 22.4845L5.96099 6.00046L22.4441 12.1148L22.4591 12.1205L14.7585 14.2786Z" fill="#4F4FCB"/>
</svg>
