<svg width="48" height="48" viewBox="0 0 48 48" fill="none" xmlns="http://www.w3.org/2000/svg">
<path d="M24 23.2568C14.88 23.2568 7.5 30.6368 7.5 39.7568V45.0068H40.5V39.7568C40.5 30.6518 33.105 23.2568 24 23.2568Z" fill="url(#paint0_linear_878_4039)"/>
<path d="M24 23.2568C14.88 23.2568 7.5 30.6368 7.5 39.7568V45.0068H40.5V39.7568C40.5 30.6518 33.105 23.2568 24 23.2568Z" fill="url(#paint1_radial_878_4039)"/>
<g filter="url(#filter0_f_878_4039)">
<path d="M20.1286 25.2797C19.36 25.2797 18.1853 25.2358 17.4737 25.5289L15.4036 29.6147C15.2686 29.8997 15.4936 30.2297 15.8086 30.2297H18.1336C18.4936 30.2297 18.6586 30.6647 18.4186 30.9047L15.7486 32.9189C15.3586 33.3089 15.2086 33.8939 15.4036 34.4189L19.7727 44.1696L22.1521 42.4953L20.1436 25.2797H20.1286Z" fill="#41355C"/>
</g>
<g filter="url(#filter1_f_878_4039)">
<path d="M31.3562 31.7791L29.5726 30.5371C29.3497 30.3142 29.5071 29.947 29.8218 29.947H31.1989C31.4743 29.947 31.6579 29.6585 31.5398 29.4093L29.9267 25.9732C29.612 25.8421 29.2841 25.7241 28.9563 25.6191H28.0645V43.4118L31.671 33.1037C31.8284 32.6316 31.7103 32.1201 31.3562 31.7791Z" fill="#463D68"/>
</g>
<path d="M28.0655 24.1865H19.9355V45.0215H28.0655V24.1865Z" fill="url(#paint2_radial_878_4039)"/>
<path d="M28.0655 24.1865H19.9355V45.0215H28.0655V24.1865Z" fill="url(#paint3_linear_878_4039)"/>
<path d="M28.0655 24.1865H19.9355V45.0215H28.0655V24.1865Z" fill="url(#paint4_linear_878_4039)"/>
<path d="M34.5 27.0332V45.0066H40.5V39.7566C40.5 34.6386 38.1634 30.0609 34.5 27.0332Z" fill="url(#paint5_radial_878_4039)"/>
<path d="M34.5 27.0332V45.0066H40.5V39.7566C40.5 34.6386 38.1634 30.0609 34.5 27.0332Z" fill="url(#paint6_linear_878_4039)"/>
<g filter="url(#filter2_i_878_4039)">
<path d="M19.9351 24.1416H18.6601C18.3901 24.2316 18.1201 24.3366 17.8651 24.4416L15.9601 28.4766C15.8251 28.7616 16.0501 29.0916 16.3651 29.0916H17.9401C18.3001 29.0916 18.4651 29.5266 18.2251 29.7666L16.1851 31.7616C15.7951 32.1516 15.6451 32.7366 15.8401 33.2616L19.9351 44.9916H19.9501V24.1416H19.9351Z" fill="url(#paint7_linear_878_4039)"/>
<path d="M19.9351 24.1416H18.6601C18.3901 24.2316 18.1201 24.3366 17.8651 24.4416L15.9601 28.4766C15.8251 28.7616 16.0501 29.0916 16.3651 29.0916H17.9401C18.3001 29.0916 18.4651 29.5266 18.2251 29.7666L16.1851 31.7616C15.7951 32.1516 15.6451 32.7366 15.8401 33.2616L19.9351 44.9916H19.9501V24.1416H19.9351Z" fill="url(#paint8_linear_878_4039)"/>
<path d="M19.9351 24.1416H18.6601C18.3901 24.2316 18.1201 24.3366 17.8651 24.4416L15.9601 28.4766C15.8251 28.7616 16.0501 29.0916 16.3651 29.0916H17.9401C18.3001 29.0916 18.4651 29.5266 18.2251 29.7666L16.1851 31.7616C15.7951 32.1516 15.6451 32.7366 15.8401 33.2616L19.9351 44.9916H19.9501V24.1416H19.9351Z" fill="url(#paint9_radial_878_4039)"/>
</g>
<path d="M19.9351 24.1416H18.6601C18.3901 24.2316 18.1201 24.3366 17.8651 24.4416L15.9601 28.4766C15.8251 28.7616 16.0501 29.0916 16.3651 29.0916H17.9401C18.3001 29.0916 18.4651 29.5266 18.2251 29.7666L16.1851 31.7616C15.7951 32.1516 15.6451 32.7366 15.8401 33.2616L19.9351 44.9916H19.9501V24.1416H19.9351Z" fill="url(#paint10_linear_878_4039)"/>
<path d="M19.9351 24.1416H18.6601C18.3901 24.2316 18.1201 24.3366 17.8651 24.4416L15.9601 28.4766C15.8251 28.7616 16.0501 29.0916 16.3651 29.0916H17.9401C18.3001 29.0916 18.4651 29.5266 18.2251 29.7666L16.1851 31.7616C15.7951 32.1516 15.6451 32.7366 15.8401 33.2616L19.9351 44.9916H19.9501V24.1416H19.9351Z" fill="url(#paint11_radial_878_4039)"/>
<g filter="url(#filter3_ii_878_4039)">
<path d="M24.0155 27.4971L22.1174 29.3396C22.0726 29.383 22.0594 29.4497 22.0843 29.5069L22.9589 31.5208C22.9986 31.6122 23.0887 31.6712 23.1882 31.6712H24.7807C24.8806 31.6712 24.9709 31.6118 25.0104 31.52L25.8886 29.4767C25.913 29.4199 25.9001 29.354 25.8561 29.3106L24.0155 27.4971Z" fill="url(#paint12_linear_878_4039)"/>
</g>
<g filter="url(#filter4_i_878_4039)">
<path d="M31.8295 31.6864L29.7895 29.6914C29.5345 29.4364 29.7145 29.0164 30.0745 29.0164H31.6495C31.9645 29.0164 32.1745 28.6864 32.0395 28.4014L30.1945 24.4714C29.8345 24.3214 29.4595 24.1864 29.0845 24.0664H28.0645V44.9914L32.1895 33.2014C32.3695 32.6614 32.2345 32.0764 31.8295 31.6864Z" fill="#605890"/>
<path d="M31.8295 31.6864L29.7895 29.6914C29.5345 29.4364 29.7145 29.0164 30.0745 29.0164H31.6495C31.9645 29.0164 32.1745 28.6864 32.0395 28.4014L30.1945 24.4714C29.8345 24.3214 29.4595 24.1864 29.0845 24.0664H28.0645V44.9914L32.1895 33.2014C32.3695 32.6614 32.2345 32.0764 31.8295 31.6864Z" fill="url(#paint13_linear_878_4039)"/>
</g>
<path d="M24.0005 22.5918H19.9355V29.7018C19.9355 30.1668 20.4755 30.4368 20.8505 30.1368L24.0005 28.048L27.1505 30.1368C27.5255 30.4368 28.0655 30.1668 28.0655 29.7018V22.5918H24.0005Z" fill="url(#paint14_radial_878_4039)"/>
<path d="M24.0005 22.5918H19.9355V29.7018C19.9355 30.1668 20.4755 30.4368 20.8505 30.1368L24.0005 28.048L27.1505 30.1368C27.5255 30.4368 28.0655 30.1668 28.0655 29.7018V22.5918H24.0005Z" fill="url(#paint15_radial_878_4039)"/>
<path d="M10.5478 45.0068H13.4552V27.0605C10.7811 29.2832 8.8219 32.3356 7.9705 35.8245C7.66531 37.0904 7.50697 38.4126 7.51493 39.7718L7.54487 45.0068H10.5478Z" fill="url(#paint16_linear_878_4039)"/>
<path d="M23.1501 31.6719C23.0267 31.6719 22.9217 31.762 22.903 31.884L20.8955 44.9919H27.0605L25.0678 31.8843C25.0492 31.7621 24.9442 31.6719 24.8206 31.6719H23.1501Z" fill="url(#paint17_radial_878_4039)"/>
<path d="M23.1501 31.6719C23.0267 31.6719 22.9217 31.762 22.903 31.884L20.8955 44.9919H27.0605L25.0678 31.8843C25.0492 31.7621 24.9442 31.6719 24.8206 31.6719H23.1501Z" fill="url(#paint18_linear_878_4039)"/>
<path d="M23.1501 31.6719C23.0267 31.6719 22.9217 31.762 22.903 31.884L20.8955 44.9919H27.0605L25.0678 31.8843C25.0492 31.7621 24.9442 31.6719 24.8206 31.6719H23.1501Z" fill="url(#paint19_linear_878_4039)"/>
<path d="M21.0674 25.3408C21.0986 25.6611 21.3749 26.3773 22.1865 26.9229C22.5067 27.138 24.0062 27.8658 23.9755 27.8511C24.2099 27.734 25.1865 27.4033 25.9014 26.9229C26.713 26.3773 26.9893 25.6611 27.0205 25.3408L24.0439 23.9111L21.0674 25.3408Z" fill="url(#paint20_radial_878_4039)"/>
<path d="M31.3629 18.1239C31.8657 18.1077 32.3366 17.9372 32.7197 17.6611V19.0576C32.7197 20.3973 31.9216 21.5908 30.7084 22.0861C30.9638 21.5421 31.1394 20.9494 31.2272 20.3161L31.3629 18.1239Z" fill="url(#paint21_radial_878_4039)"/>
<path d="M16.7787 18.1239C16.2759 18.1077 15.805 17.9372 15.4219 17.6611V19.0576C15.4219 20.3973 16.22 21.5908 17.4332 22.0861C17.1778 21.5421 17.0022 20.9494 16.9144 20.3161L16.7787 18.1239Z" fill="url(#paint22_radial_878_4039)"/>
<g filter="url(#filter5_ii_878_4039)">
<path d="M16.833 20.3968C17.2189 23.3254 19.7111 25.5057 22.6615 25.5057H25.4914C28.4418 25.5057 30.9341 23.3254 31.3199 20.3968C31.4969 17.5713 31.6749 14.7571 31.8062 11.9331C31.7902 10.7825 30.8833 9.8332 29.7377 9.78493H27.6374C26.2054 9.78493 24.9086 8.94015 24.3199 7.62071C24.1687 7.24257 23.8028 6.99316 23.397 6.99316H21.4877C18.7191 6.99316 16.4756 9.26197 16.4756 12.0618C16.4756 14.8528 16.6499 17.5987 16.833 20.3968Z" fill="url(#paint23_radial_878_4039)"/>
</g>
<path d="M16.833 20.3968C17.2189 23.3254 19.7111 25.5057 22.6615 25.5057H25.4914C28.4418 25.5057 30.9341 23.3254 31.3199 20.3968C31.4969 17.5713 31.6749 14.7571 31.8062 11.9331C31.7902 10.7825 30.8833 9.8332 29.7377 9.78493H27.6374C26.2054 9.78493 24.9086 8.94015 24.3199 7.62071C24.1687 7.24257 23.8028 6.99316 23.397 6.99316H21.4877C18.7191 6.99316 16.4756 9.26197 16.4756 12.0618C16.4756 14.8528 16.6499 17.5987 16.833 20.3968Z" fill="url(#paint24_linear_878_4039)"/>
<path d="M16.833 20.3968C17.2189 23.3254 19.7111 25.5057 22.6615 25.5057H25.4914C28.4418 25.5057 30.9341 23.3254 31.3199 20.3968C31.4969 17.5713 31.6749 14.7571 31.8062 11.9331C31.7902 10.7825 30.8833 9.8332 29.7377 9.78493H27.6374C26.2054 9.78493 24.9086 8.94015 24.3199 7.62071C24.1687 7.24257 23.8028 6.99316 23.397 6.99316H21.4877C18.7191 6.99316 16.4756 9.26197 16.4756 12.0618C16.4756 14.8528 16.6499 17.5987 16.833 20.3968Z" fill="url(#paint25_radial_878_4039)"/>
<path d="M16.833 20.3968C17.2189 23.3254 19.7111 25.5057 22.6615 25.5057H25.4914C28.4418 25.5057 30.9341 23.3254 31.3199 20.3968C31.4969 17.5713 31.6749 14.7571 31.8062 11.9331C31.7902 10.7825 30.8833 9.8332 29.7377 9.78493H27.6374C26.2054 9.78493 24.9086 8.94015 24.3199 7.62071C24.1687 7.24257 23.8028 6.99316 23.397 6.99316H21.4877C18.7191 6.99316 16.4756 9.26197 16.4756 12.0618C16.4756 14.8528 16.6499 17.5987 16.833 20.3968Z" fill="url(#paint26_radial_878_4039)"/>
<path d="M16.833 20.3968C17.2189 23.3254 19.7111 25.5057 22.6615 25.5057H25.4914C28.4418 25.5057 30.9341 23.3254 31.3199 20.3968C31.4969 17.5713 31.6749 14.7571 31.8062 11.9331C31.7902 10.7825 30.8833 9.8332 29.7377 9.78493H27.6374C26.2054 9.78493 24.9086 8.94015 24.3199 7.62071C24.1687 7.24257 23.8028 6.99316 23.397 6.99316H21.4877C18.7191 6.99316 16.4756 9.26197 16.4756 12.0618C16.4756 14.8528 16.6499 17.5987 16.833 20.3968Z" fill="url(#paint27_radial_878_4039)"/>
<path d="M16.833 20.3968C17.2189 23.3254 19.7111 25.5057 22.6615 25.5057H25.4914C28.4418 25.5057 30.9341 23.3254 31.3199 20.3968C31.4969 17.5713 31.6749 14.7571 31.8062 11.9331C31.7902 10.7825 30.8833 9.8332 29.7377 9.78493H27.6374C26.2054 9.78493 24.9086 8.94015 24.3199 7.62071C24.1687 7.24257 23.8028 6.99316 23.397 6.99316H21.4877C18.7191 6.99316 16.4756 9.26197 16.4756 12.0618C16.4756 14.8528 16.6499 17.5987 16.833 20.3968Z" fill="url(#paint28_radial_878_4039)"/>
<path d="M16.833 20.3968C17.2189 23.3254 19.7111 25.5057 22.6615 25.5057H25.4914C28.4418 25.5057 30.9341 23.3254 31.3199 20.3968C31.4969 17.5713 31.6749 14.7571 31.8062 11.9331C31.7902 10.7825 30.8833 9.8332 29.7377 9.78493H27.6374C26.2054 9.78493 24.9086 8.94015 24.3199 7.62071C24.1687 7.24257 23.8028 6.99316 23.397 6.99316H21.4877C18.7191 6.99316 16.4756 9.26197 16.4756 12.0618C16.4756 14.8528 16.6499 17.5987 16.833 20.3968Z" fill="url(#paint29_radial_878_4039)"/>
<path d="M16.833 20.3968C17.2189 23.3254 19.7111 25.5057 22.6615 25.5057H25.4914C28.4418 25.5057 30.9341 23.3254 31.3199 20.3968C31.4969 17.5713 31.6749 14.7571 31.8062 11.9331C31.7902 10.7825 30.8833 9.8332 29.7377 9.78493H27.6374C26.2054 9.78493 24.9086 8.94015 24.3199 7.62071C24.1687 7.24257 23.8028 6.99316 23.397 6.99316H21.4877C18.7191 6.99316 16.4756 9.26197 16.4756 12.0618C16.4756 14.8528 16.6499 17.5987 16.833 20.3968Z" fill="url(#paint30_linear_878_4039)"/>
<g filter="url(#filter6_f_878_4039)">
<path d="M23.4687 15.464L22.5825 18.2215C22.4311 18.7887 22.7944 19.3559 23.3091 19.3559H24.4067C24.9214 19.3559 25.2847 18.78 25.1333 18.2215L24.3915 15.464C24.2326 14.8531 23.6352 14.8531 23.4687 15.464Z" fill="#D69790"/>
</g>
<g filter="url(#filter7_f_878_4039)">
<path d="M23.4966 15.1779L22.6993 17.9354C22.5367 18.5026 22.9271 19.0698 23.4803 19.0698H24.6598C25.213 19.0698 25.6035 18.4939 25.4408 17.9354L24.6436 15.1779C24.4727 14.567 23.6755 14.567 23.4966 15.1779Z" fill="#F6BFAB"/>
<path d="M23.4966 15.1779L22.6993 17.9354C22.5367 18.5026 22.9271 19.0698 23.4803 19.0698H24.6598C25.213 19.0698 25.6035 18.4939 25.4408 17.9354L24.6436 15.1779C24.4727 14.567 23.6755 14.567 23.4966 15.1779Z" fill="url(#paint31_linear_878_4039)"/>
<path d="M23.4966 15.1779L22.6993 17.9354C22.5367 18.5026 22.9271 19.0698 23.4803 19.0698H24.6598C25.213 19.0698 25.6035 18.4939 25.4408 17.9354L24.6436 15.1779C24.4727 14.567 23.6755 14.567 23.4966 15.1779Z" fill="url(#paint32_radial_878_4039)"/>
<path d="M23.4966 15.1779L22.6993 17.9354C22.5367 18.5026 22.9271 19.0698 23.4803 19.0698H24.6598C25.213 19.0698 25.6035 18.4939 25.4408 17.9354L24.6436 15.1779C24.4727 14.567 23.6755 14.567 23.4966 15.1779Z" fill="url(#paint33_linear_878_4039)"/>
<path d="M23.4966 15.1779L22.6993 17.9354C22.5367 18.5026 22.9271 19.0698 23.4803 19.0698H24.6598C25.213 19.0698 25.6035 18.4939 25.4408 17.9354L24.6436 15.1779C24.4727 14.567 23.6755 14.567 23.4966 15.1779Z" fill="url(#paint34_radial_878_4039)"/>
<path d="M23.4966 15.1779L22.6993 17.9354C22.5367 18.5026 22.9271 19.0698 23.4803 19.0698H24.6598C25.213 19.0698 25.6035 18.4939 25.4408 17.9354L24.6436 15.1779C24.4727 14.567 23.6755 14.567 23.4966 15.1779Z" fill="url(#paint35_linear_878_4039)"/>
</g>
<g filter="url(#filter8_f_878_4039)">
<path d="M26.1152 20.0352C26.2503 19.9665 26.3923 20.0062 26.4775 20.0947C26.5634 20.1841 26.5939 20.3266 26.5078 20.4561C25.992 21.2377 25.0942 21.7596 24.0713 21.7598C23.0482 21.7598 22.1487 21.2388 21.6328 20.457L21.6338 20.4561C21.5469 20.3292 21.5795 20.1868 21.6641 20.0977C21.7485 20.0088 21.8903 19.9661 22.0264 20.0352H22.0273C22.6176 20.3429 23.3217 20.5195 24.0713 20.5195C24.8283 20.5195 25.524 20.3429 26.1143 20.0352H26.1152Z" stroke="url(#paint36_linear_878_4039)" stroke-width="0.15"/>
</g>
<path d="M24.0709 20.5945C23.3096 20.5945 22.5941 20.4153 21.9927 20.1018C21.7872 19.9973 21.5664 20.2287 21.6958 20.4153C22.1982 21.1767 23.0736 21.6843 24.0709 21.6843C25.0681 21.6843 25.9435 21.1767 26.4459 20.4153C26.5753 20.2212 26.3545 19.9973 26.149 20.1018C25.5476 20.4153 24.8397 20.5945 24.0709 20.5945Z" fill="url(#paint37_radial_878_4039)"/>
<g filter="url(#filter9_ii_878_4039)">
<path d="M31.3528 6.28518C32.1245 6.55068 32.8166 7.08972 33.2542 7.86208C33.9543 9.09303 33.8509 10.5653 33.0951 11.6515C32.8325 12.0377 32.6893 12.4962 32.6893 12.9629V14.7449C32.4088 14.5495 32.0386 14.4046 31.6885 14.3427L31.8063 11.9331C31.7904 10.7826 30.8834 9.83321 29.7378 9.78494H27.6375C26.2055 9.78494 24.9087 8.94017 24.32 7.62072C24.1688 7.24259 23.8029 6.99318 23.3971 6.99318H21.4878C18.7192 6.99318 16.4757 9.26199 16.4757 12.0618L16.5217 14.3678C16.1407 14.4238 15.7427 14.5511 15.4415 14.7633V12.9629C15.4415 12.4962 15.2983 12.0377 15.0357 11.6515C14.3197 10.5975 14.1924 9.18153 14.8209 7.98276C15.2585 7.15409 15.9665 6.57482 16.7701 6.29323C17.6293 5.9875 18.3612 5.40823 18.8465 4.62783C19.467 3.63824 20.557 2.97852 21.806 2.97852C22.2913 2.97852 22.7527 3.08311 23.1823 3.26011C23.7551 3.50951 24.3995 3.50951 24.9724 3.26011C25.394 3.08311 25.8554 2.97852 26.3407 2.97852C27.6057 2.97852 28.7115 3.66238 29.3241 4.6761C29.7855 5.44041 30.5095 5.99555 31.3528 6.28518Z" fill="url(#paint38_linear_878_4039)"/>
<path d="M31.3528 6.28518C32.1245 6.55068 32.8166 7.08972 33.2542 7.86208C33.9543 9.09303 33.8509 10.5653 33.0951 11.6515C32.8325 12.0377 32.6893 12.4962 32.6893 12.9629V14.7449C32.4088 14.5495 32.0386 14.4046 31.6885 14.3427L31.8063 11.9331C31.7904 10.7826 30.8834 9.83321 29.7378 9.78494H27.6375C26.2055 9.78494 24.9087 8.94017 24.32 7.62072C24.1688 7.24259 23.8029 6.99318 23.3971 6.99318H21.4878C18.7192 6.99318 16.4757 9.26199 16.4757 12.0618L16.5217 14.3678C16.1407 14.4238 15.7427 14.5511 15.4415 14.7633V12.9629C15.4415 12.4962 15.2983 12.0377 15.0357 11.6515C14.3197 10.5975 14.1924 9.18153 14.8209 7.98276C15.2585 7.15409 15.9665 6.57482 16.7701 6.29323C17.6293 5.9875 18.3612 5.40823 18.8465 4.62783C19.467 3.63824 20.557 2.97852 21.806 2.97852C22.2913 2.97852 22.7527 3.08311 23.1823 3.26011C23.7551 3.50951 24.3995 3.50951 24.9724 3.26011C25.394 3.08311 25.8554 2.97852 26.3407 2.97852C27.6057 2.97852 28.7115 3.66238 29.3241 4.6761C29.7855 5.44041 30.5095 5.99555 31.3528 6.28518Z" fill="url(#paint39_radial_878_4039)"/>
<path d="M31.3528 6.28518C32.1245 6.55068 32.8166 7.08972 33.2542 7.86208C33.9543 9.09303 33.8509 10.5653 33.0951 11.6515C32.8325 12.0377 32.6893 12.4962 32.6893 12.9629V14.7449C32.4088 14.5495 32.0386 14.4046 31.6885 14.3427L31.8063 11.9331C31.7904 10.7826 30.8834 9.83321 29.7378 9.78494H27.6375C26.2055 9.78494 24.9087 8.94017 24.32 7.62072C24.1688 7.24259 23.8029 6.99318 23.3971 6.99318H21.4878C18.7192 6.99318 16.4757 9.26199 16.4757 12.0618L16.5217 14.3678C16.1407 14.4238 15.7427 14.5511 15.4415 14.7633V12.9629C15.4415 12.4962 15.2983 12.0377 15.0357 11.6515C14.3197 10.5975 14.1924 9.18153 14.8209 7.98276C15.2585 7.15409 15.9665 6.57482 16.7701 6.29323C17.6293 5.9875 18.3612 5.40823 18.8465 4.62783C19.467 3.63824 20.557 2.97852 21.806 2.97852C22.2913 2.97852 22.7527 3.08311 23.1823 3.26011C23.7551 3.50951 24.3995 3.50951 24.9724 3.26011C25.394 3.08311 25.8554 2.97852 26.3407 2.97852C27.6057 2.97852 28.7115 3.66238 29.3241 4.6761C29.7855 5.44041 30.5095 5.99555 31.3528 6.28518Z" fill="url(#paint40_radial_878_4039)"/>
<path d="M31.3528 6.28518C32.1245 6.55068 32.8166 7.08972 33.2542 7.86208C33.9543 9.09303 33.8509 10.5653 33.0951 11.6515C32.8325 12.0377 32.6893 12.4962 32.6893 12.9629V14.7449C32.4088 14.5495 32.0386 14.4046 31.6885 14.3427L31.8063 11.9331C31.7904 10.7826 30.8834 9.83321 29.7378 9.78494H27.6375C26.2055 9.78494 24.9087 8.94017 24.32 7.62072C24.1688 7.24259 23.8029 6.99318 23.3971 6.99318H21.4878C18.7192 6.99318 16.4757 9.26199 16.4757 12.0618L16.5217 14.3678C16.1407 14.4238 15.7427 14.5511 15.4415 14.7633V12.9629C15.4415 12.4962 15.2983 12.0377 15.0357 11.6515C14.3197 10.5975 14.1924 9.18153 14.8209 7.98276C15.2585 7.15409 15.9665 6.57482 16.7701 6.29323C17.6293 5.9875 18.3612 5.40823 18.8465 4.62783C19.467 3.63824 20.557 2.97852 21.806 2.97852C22.2913 2.97852 22.7527 3.08311 23.1823 3.26011C23.7551 3.50951 24.3995 3.50951 24.9724 3.26011C25.394 3.08311 25.8554 2.97852 26.3407 2.97852C27.6057 2.97852 28.7115 3.66238 29.3241 4.6761C29.7855 5.44041 30.5095 5.99555 31.3528 6.28518Z" fill="url(#paint41_radial_878_4039)"/>
<path d="M31.3528 6.28518C32.1245 6.55068 32.8166 7.08972 33.2542 7.86208C33.9543 9.09303 33.8509 10.5653 33.0951 11.6515C32.8325 12.0377 32.6893 12.4962 32.6893 12.9629V14.7449C32.4088 14.5495 32.0386 14.4046 31.6885 14.3427L31.8063 11.9331C31.7904 10.7826 30.8834 9.83321 29.7378 9.78494H27.6375C26.2055 9.78494 24.9087 8.94017 24.32 7.62072C24.1688 7.24259 23.8029 6.99318 23.3971 6.99318H21.4878C18.7192 6.99318 16.4757 9.26199 16.4757 12.0618L16.5217 14.3678C16.1407 14.4238 15.7427 14.5511 15.4415 14.7633V12.9629C15.4415 12.4962 15.2983 12.0377 15.0357 11.6515C14.3197 10.5975 14.1924 9.18153 14.8209 7.98276C15.2585 7.15409 15.9665 6.57482 16.7701 6.29323C17.6293 5.9875 18.3612 5.40823 18.8465 4.62783C19.467 3.63824 20.557 2.97852 21.806 2.97852C22.2913 2.97852 22.7527 3.08311 23.1823 3.26011C23.7551 3.50951 24.3995 3.50951 24.9724 3.26011C25.394 3.08311 25.8554 2.97852 26.3407 2.97852C27.6057 2.97852 28.7115 3.66238 29.3241 4.6761C29.7855 5.44041 30.5095 5.99555 31.3528 6.28518Z" fill="url(#paint42_radial_878_4039)"/>
</g>
<g filter="url(#filter10_i_878_4039)">
<path d="M29.6696 11.7804C29.4068 11.5515 29.1012 11.309 28.6383 11.1633C28.182 11.0196 27.6104 10.981 26.8196 11.0778C26.5916 11.1057 26.4293 11.3131 26.4572 11.5412C26.4851 11.7692 26.6926 11.9315 26.9206 11.9036C27.6424 11.8153 28.0845 11.8612 28.3885 11.9568C28.6859 12.0505 28.8872 12.2022 29.1232 12.4078C29.2964 12.5586 29.5592 12.5405 29.7101 12.3673C29.861 12.194 29.8429 11.9313 29.6696 11.7804Z" fill="#202020"/>
</g>
<g filter="url(#filter11_i_878_4039)">
<path d="M18.9547 11.6162C19.0899 11.5353 19.2844 11.4318 19.53 11.3352C20.0212 11.1421 20.7232 10.9744 21.5631 11.0771C21.7911 11.105 21.9534 11.3125 21.9255 11.5405C21.8976 11.7686 21.6901 11.9308 21.4621 11.9029C20.7895 11.8207 20.2283 11.9546 19.8345 12.1095C19.6376 12.1869 19.4841 12.2689 19.382 12.3301C19.331 12.3606 19.2931 12.3857 19.2693 12.4021C19.2575 12.4104 19.2491 12.4164 19.2445 12.4198L19.2403 12.4229C19.059 12.5626 18.7986 12.5297 18.658 12.3488C18.5169 12.1675 18.5496 11.9061 18.7309 11.7651L18.9547 11.6162Z" fill="#202020"/>
</g>
<g filter="url(#filter12_if_878_4039)">
<path d="M24.4192 7.8264C24.3842 7.75936 24.3511 7.69094 24.3199 7.62119C24.1688 7.24305 23.8028 6.99364 23.3971 6.99364H21.4877C18.7192 6.99364 16.4757 9.26245 16.4757 12.0623V12.475C15.9657 12.0869 15.3242 11.2682 15.3242 9.9433C15.3242 8.33555 16.4968 7.52288 17.2448 7.0045C17.456 6.85816 17.6333 6.73527 17.7408 6.62456C17.7865 6.57753 17.8362 6.52478 17.8903 6.46741C18.4146 5.91133 19.3488 4.92052 20.9801 4.4875C21.9506 4.22988 22.9367 4.20915 23.647 4.25894C24.1187 4.292 24.4507 4.70025 24.4507 5.1731V7.80623L24.4192 7.8264Z" fill="#23181C"/>
<path d="M24.4192 7.8264C24.3842 7.75936 24.3511 7.69094 24.3199 7.62119C24.1688 7.24305 23.8028 6.99364 23.3971 6.99364H21.4877C18.7192 6.99364 16.4757 9.26245 16.4757 12.0623V12.475C15.9657 12.0869 15.3242 11.2682 15.3242 9.9433C15.3242 8.33555 16.4968 7.52288 17.2448 7.0045C17.456 6.85816 17.6333 6.73527 17.7408 6.62456C17.7865 6.57753 17.8362 6.52478 17.8903 6.46741C18.4146 5.91133 19.3488 4.92052 20.9801 4.4875C21.9506 4.22988 22.9367 4.20915 23.647 4.25894C24.1187 4.292 24.4507 4.70025 24.4507 5.1731V7.80623L24.4192 7.8264Z" fill="url(#paint43_radial_878_4039)"/>
<path d="M24.4192 7.8264C24.3842 7.75936 24.3511 7.69094 24.3199 7.62119C24.1688 7.24305 23.8028 6.99364 23.3971 6.99364H21.4877C18.7192 6.99364 16.4757 9.26245 16.4757 12.0623V12.475C15.9657 12.0869 15.3242 11.2682 15.3242 9.9433C15.3242 8.33555 16.4968 7.52288 17.2448 7.0045C17.456 6.85816 17.6333 6.73527 17.7408 6.62456C17.7865 6.57753 17.8362 6.52478 17.8903 6.46741C18.4146 5.91133 19.3488 4.92052 20.9801 4.4875C21.9506 4.22988 22.9367 4.20915 23.647 4.25894C24.1187 4.292 24.4507 4.70025 24.4507 5.1731V7.80623L24.4192 7.8264Z" fill="url(#paint44_radial_878_4039)"/>
</g>
<g filter="url(#filter13_f_878_4039)">
<path d="M31.8894 12.726L31.8457 11.7792C31.8297 10.634 30.8834 9.68905 29.7378 9.641H27.6375C26.3042 9.641 25.0881 8.91206 24.4516 7.75152C24.4516 7.75152 24.21 7.19188 24.108 6.33904C23.9889 5.34306 24.8992 4.6207 25.8912 4.76908C27.5176 5.01236 29.6272 5.52883 31.1082 6.49474C33.725 8.20153 33.2668 11.2775 31.8894 12.726Z" fill="#1F151B"/>
<path d="M31.8894 12.726L31.8457 11.7792C31.8297 10.634 30.8834 9.68905 29.7378 9.641H27.6375C26.3042 9.641 25.0881 8.91206 24.4516 7.75152C24.4516 7.75152 24.21 7.19188 24.108 6.33904C23.9889 5.34306 24.8992 4.6207 25.8912 4.76908C27.5176 5.01236 29.6272 5.52883 31.1082 6.49474C33.725 8.20153 33.2668 11.2775 31.8894 12.726Z" fill="url(#paint45_radial_878_4039)"/>
<path d="M31.8894 12.726L31.8457 11.7792C31.8297 10.634 30.8834 9.68905 29.7378 9.641H27.6375C26.3042 9.641 25.0881 8.91206 24.4516 7.75152C24.4516 7.75152 24.21 7.19188 24.108 6.33904C23.9889 5.34306 24.8992 4.6207 25.8912 4.76908C27.5176 5.01236 29.6272 5.52883 31.1082 6.49474C33.725 8.20153 33.2668 11.2775 31.8894 12.726Z" fill="url(#paint46_radial_878_4039)"/>
<path d="M31.8894 12.726L31.8457 11.7792C31.8297 10.634 30.8834 9.68905 29.7378 9.641H27.6375C26.3042 9.641 25.0881 8.91206 24.4516 7.75152C24.4516 7.75152 24.21 7.19188 24.108 6.33904C23.9889 5.34306 24.8992 4.6207 25.8912 4.76908C27.5176 5.01236 29.6272 5.52883 31.1082 6.49474C33.725 8.20153 33.2668 11.2775 31.8894 12.726Z" fill="url(#paint47_radial_878_4039)"/>
</g>
<path d="M27.657 13.752C28.6367 13.752 29.4642 14.4274 29.6894 15.3401C29.7563 15.6018 29.5555 15.8512 29.2878 15.8512H25.9411C25.7281 15.8512 25.5577 15.6565 25.6003 15.4436C25.789 14.4821 26.6348 13.752 27.657 13.752Z" fill="white"/>
<path d="M27.3467 14.1592C28.0891 14.1592 28.6854 14.7616 28.6854 15.4979C28.6854 15.6196 28.6671 15.7413 28.6367 15.8508H26.0506C26.0202 15.7352 26.002 15.6196 26.002 15.4979C26.002 14.7616 26.6044 14.1592 27.3467 14.1592Z" fill="url(#paint48_radial_878_4039)"/>
<path d="M26.5801 15.4981C26.5801 15.0722 26.9208 14.7314 27.3468 14.7314C27.7727 14.7314 28.1135 15.0722 28.1135 15.4981C28.1135 15.6259 28.083 15.7476 28.0283 15.8511H26.6714C26.6105 15.7476 26.5801 15.6259 26.5801 15.4981Z" fill="black"/>
<g filter="url(#filter14_f_878_4039)">
<path d="M27.2484 14.4424C27.3438 14.57 27.1444 14.7255 26.9178 14.895C26.6911 15.0645 26.5229 15.1837 26.4276 15.0562C26.3322 14.9286 26.4386 14.6878 26.6653 14.5183C26.892 14.3489 27.153 14.3149 27.2484 14.4424Z" fill="#C7A7A3"/>
<path d="M27.2484 14.4424C27.3438 14.57 27.1444 14.7255 26.9178 14.895C26.6911 15.0645 26.5229 15.1837 26.4276 15.0562C26.3322 14.9286 26.4386 14.6878 26.6653 14.5183C26.892 14.3489 27.153 14.3149 27.2484 14.4424Z" fill="url(#paint49_radial_878_4039)"/>
</g>
<g filter="url(#filter15_f_878_4039)">
<path d="M28.5396 15.322C28.4901 14.9759 28.2876 14.7151 28.1925 14.6279L27.8027 15.0558L27.9786 15.398L28.5396 15.322Z" fill="url(#paint50_linear_878_4039)"/>
</g>
<path d="M20.4839 13.752C19.5042 13.752 18.6766 14.4274 18.4514 15.3402C18.3845 15.6019 18.5853 15.8513 18.8531 15.8513H22.1999C22.4129 15.8513 22.5833 15.6566 22.5407 15.4436C22.3521 14.4822 21.5001 13.752 20.4839 13.752Z" fill="white"/>
<path d="M20.7948 14.1592C20.0524 14.1592 19.4561 14.7616 19.4561 15.4979C19.4561 15.6196 19.4743 15.7413 19.5047 15.8509H22.0909C22.1214 15.7352 22.1396 15.6196 22.1396 15.4979C22.1335 14.7616 21.5372 14.1592 20.7948 14.1592Z" fill="url(#paint51_radial_878_4039)"/>
<path d="M21.5608 15.4982C21.5608 15.0722 21.22 14.7314 20.7941 14.7314C20.3681 14.7314 20.0273 15.0722 20.0273 15.4982C20.0273 15.626 20.0578 15.7477 20.1125 15.8511H21.4695C21.5243 15.7477 21.5608 15.626 21.5608 15.4982Z" fill="black"/>
<g filter="url(#filter16_f_878_4039)">
<path d="M22.0172 15.3414C22.0172 14.9088 21.6654 14.6204 21.5703 14.5332L21.1377 14.9516L21.4039 15.4935L22.0172 15.3414Z" fill="url(#paint52_linear_878_4039)"/>
</g>
<g filter="url(#filter17_f_878_4039)">
<ellipse cx="20.3912" cy="14.7319" rx="0.584433" ry="0.295777" transform="rotate(-27.914 20.3912 14.7319)" fill="#C7A7A3" fill-opacity="0.9"/>
<ellipse cx="20.3912" cy="14.7319" rx="0.584433" ry="0.295777" transform="rotate(-27.914 20.3912 14.7319)" fill="url(#paint53_radial_878_4039)"/>
</g>
<path d="M31.4531 18.2606C31.5518 16.6643 31.647 15.0699 31.73 13.4736C32.8634 13.6719 33.7248 14.6609 33.7248 15.851C33.7248 17.1364 32.72 18.1871 31.4531 18.2606Z" fill="url(#paint54_linear_878_4039)"/>
<path d="M31.4531 18.2606C31.5518 16.6643 31.647 15.0699 31.73 13.4736C32.8634 13.6719 33.7248 14.6609 33.7248 15.851C33.7248 17.1364 32.72 18.1871 31.4531 18.2606Z" fill="url(#paint55_radial_878_4039)"/>
<path d="M31.4531 18.2606C31.5518 16.6643 31.647 15.0699 31.73 13.4736C32.8634 13.6719 33.7248 14.6609 33.7248 15.851C33.7248 17.1364 32.72 18.1871 31.4531 18.2606Z" fill="url(#paint56_radial_878_4039)"/>
<path d="M31.4531 18.2606C31.5518 16.6643 31.647 15.0699 31.73 13.4736C32.8634 13.6719 33.7248 14.6609 33.7248 15.851C33.7248 17.1364 32.72 18.1871 31.4531 18.2606Z" fill="url(#paint57_radial_878_4039)"/>
<path d="M16.5041 13.4609C15.3321 13.6262 14.416 14.6341 14.416 15.8516C14.416 17.1402 15.4258 18.193 16.6973 18.2617C16.6005 16.6589 16.5351 15.0643 16.5041 13.4609Z" fill="url(#paint58_linear_878_4039)"/>
<path d="M16.5041 13.4609C15.3321 13.6262 14.416 14.6341 14.416 15.8516C14.416 17.1402 15.4258 18.193 16.6973 18.2617C16.6005 16.6589 16.5351 15.0643 16.5041 13.4609Z" fill="url(#paint59_radial_878_4039)"/>
<g filter="url(#filter18_f_878_4039)">
<path d="M16.4424 14.4521C15.8024 14.5956 15.3242 15.1672 15.3242 15.8505C15.3242 16.5777 15.8658 17.1783 16.5676 17.2712C16.5156 16.331 16.4717 15.3925 16.4424 14.4521Z" fill="url(#paint60_radial_878_4039)"/>
</g>
<g filter="url(#filter19_f_878_4039)">
<path d="M31.5791 17.2945C31.6369 16.3427 31.6928 15.3913 31.745 14.4395C32.4519 14.5276 32.9989 15.1307 32.9989 15.8614C32.9989 16.6485 32.3644 17.2873 31.5791 17.2945Z" fill="url(#paint61_linear_878_4039)"/>
</g>
<g filter="url(#filter20_f_878_4039)">
<path d="M19.0107 12.0362C19.3963 11.7596 20.3571 11.2731 21.4935 11.4642" stroke="#353535" stroke-width="0.25" stroke-linecap="round"/>
</g>
<g filter="url(#filter21_f_878_4039)">
<path d="M29.4121 11.9669C29.0266 11.6903 28.0658 11.2038 26.9293 11.3949" stroke="#353535" stroke-width="0.25" stroke-linecap="round"/>
</g>
<defs>
<filter id="filter0_f_878_4039" x="14.3184" y="24.2773" width="8.83398" height="20.8926" filterUnits="userSpaceOnUse" color-interpolation-filters="sRGB">
<feFlood flood-opacity="0" result="BackgroundImageFix"/>
<feBlend mode="normal" in="SourceGraphic" in2="BackgroundImageFix" result="shape"/>
<feGaussianBlur stdDeviation="0.5" result="effect1_foregroundBlur_878_4039"/>
</filter>
<filter id="filter1_f_878_4039" x="27.3145" y="24.8691" width="5.1748" height="19.293" filterUnits="userSpaceOnUse" color-interpolation-filters="sRGB">
<feFlood flood-opacity="0" result="BackgroundImageFix"/>
<feBlend mode="normal" in="SourceGraphic" in2="BackgroundImageFix" result="shape"/>
<feGaussianBlur stdDeviation="0.375" result="effect1_foregroundBlur_878_4039"/>
</filter>
<filter id="filter2_i_878_4039" x="15.7549" y="24.1416" width="4.29531" height="20.9496" filterUnits="userSpaceOnUse" color-interpolation-filters="sRGB">
<feFlood flood-opacity="0" result="BackgroundImageFix"/>
<feBlend mode="normal" in="SourceGraphic" in2="BackgroundImageFix" result="shape"/>
<feColorMatrix in="SourceAlpha" type="matrix" values="0 0 0 0 0 0 0 0 0 0 0 0 0 0 0 0 0 0 127 0" result="hardAlpha"/>
<feOffset dx="0.1" dy="0.1"/>
<feGaussianBlur stdDeviation="0.1"/>
<feComposite in2="hardAlpha" operator="arithmetic" k2="-1" k3="1"/>
<feColorMatrix type="matrix" values="0 0 0 0 0.403922 0 0 0 0 0.368627 0 0 0 0 0.494118 0 0 0 1 0"/>
<feBlend mode="normal" in2="shape" result="effect1_innerShadow_878_4039"/>
</filter>
<filter id="filter3_ii_878_4039" x="21.9723" y="27.3971" width="4.02813" height="4.27383" filterUnits="userSpaceOnUse" color-interpolation-filters="sRGB">
<feFlood flood-opacity="0" result="BackgroundImageFix"/>
<feBlend mode="normal" in="SourceGraphic" in2="BackgroundImageFix" result="shape"/>
<feColorMatrix in="SourceAlpha" type="matrix" values="0 0 0 0 0 0 0 0 0 0 0 0 0 0 0 0 0 0 127 0" result="hardAlpha"/>
<feOffset dx="0.1" dy="-0.1"/>
<feGaussianBlur stdDeviation="0.25"/>
<feComposite in2="hardAlpha" operator="arithmetic" k2="-1" k3="1"/>
<feColorMatrix type="matrix" values="0 0 0 0 0.156863 0 0 0 0 0.0980392 0 0 0 0 0.215686 0 0 0 1 0"/>
<feBlend mode="normal" in2="shape" result="effect1_innerShadow_878_4039"/>
<feColorMatrix in="SourceAlpha" type="matrix" values="0 0 0 0 0 0 0 0 0 0 0 0 0 0 0 0 0 0 127 0" result="hardAlpha"/>
<feOffset dx="-0.1" dy="-0.1"/>
<feGaussianBlur stdDeviation="0.25"/>
<feComposite in2="hardAlpha" operator="arithmetic" k2="-1" k3="1"/>
<feColorMatrix type="matrix" values="0 0 0 0 0.156863 0 0 0 0 0.0980392 0 0 0 0 0.215686 0 0 0 1 0"/>
<feBlend mode="normal" in2="effect1_innerShadow_878_4039" result="effect2_innerShadow_878_4039"/>
</filter>
<filter id="filter4_i_878_4039" x="27.9645" y="24.0664" width="4.30313" height="21.0248" filterUnits="userSpaceOnUse" color-interpolation-filters="sRGB">
<feFlood flood-opacity="0" result="BackgroundImageFix"/>
<feBlend mode="normal" in="SourceGraphic" in2="BackgroundImageFix" result="shape"/>
<feColorMatrix in="SourceAlpha" type="matrix" values="0 0 0 0 0 0 0 0 0 0 0 0 0 0 0 0 0 0 127 0" result="hardAlpha"/>
<feOffset dx="-0.1" dy="0.1"/>
<feGaussianBlur stdDeviation="0.1"/>
<feComposite in2="hardAlpha" operator="arithmetic" k2="-1" k3="1"/>
<feColorMatrix type="matrix" values="0 0 0 0 0.439216 0 0 0 0 0.415686 0 0 0 0 0.584314 0 0 0 1 0"/>
<feBlend mode="normal" in2="shape" result="effect1_innerShadow_878_4039"/>
</filter>
<filter id="filter5_ii_878_4039" x="16.4756" y="6.99316" width="16.3311" height="18.7127" filterUnits="userSpaceOnUse" color-interpolation-filters="sRGB">
<feFlood flood-opacity="0" result="BackgroundImageFix"/>
<feBlend mode="normal" in="SourceGraphic" in2="BackgroundImageFix" result="shape"/>
<feColorMatrix in="SourceAlpha" type="matrix" values="0 0 0 0 0 0 0 0 0 0 0 0 0 0 0 0 0 0 127 0" result="hardAlpha"/>
<feOffset dx="1"/>
<feGaussianBlur stdDeviation="0.7"/>
<feComposite in2="hardAlpha" operator="arithmetic" k2="-1" k3="1"/>
<feColorMatrix type="matrix" values="0 0 0 0 0.913725 0 0 0 0 0.686275 0 0 0 0 0.592157 0 0 0 1 0"/>
<feBlend mode="normal" in2="shape" result="effect1_innerShadow_878_4039"/>
<feColorMatrix in="SourceAlpha" type="matrix" values="0 0 0 0 0 0 0 0 0 0 0 0 0 0 0 0 0 0 127 0" result="hardAlpha"/>
<feOffset dy="0.2"/>
<feGaussianBlur stdDeviation="0.375"/>
<feComposite in2="hardAlpha" operator="arithmetic" k2="-1" k3="1"/>
<feColorMatrix type="matrix" values="0 0 0 0 0.780392 0 0 0 0 0.568627 0 0 0 0 0.486275 0 0 0 1 0"/>
<feBlend mode="normal" in2="effect1_innerShadow_878_4039" result="effect2_innerShadow_878_4039"/>
</filter>
<filter id="filter6_f_878_4039" x="21.5479" y="14.0059" width="4.62012" height="6.34961" filterUnits="userSpaceOnUse" color-interpolation-filters="sRGB">
<feFlood flood-opacity="0" result="BackgroundImageFix"/>
<feBlend mode="normal" in="SourceGraphic" in2="BackgroundImageFix" result="shape"/>
<feGaussianBlur stdDeviation="0.5" result="effect1_foregroundBlur_878_4039"/>
</filter>
<filter id="filter7_f_878_4039" x="22.4621" y="14.5197" width="3.21543" height="4.74961" filterUnits="userSpaceOnUse" color-interpolation-filters="sRGB">
<feFlood flood-opacity="0" result="BackgroundImageFix"/>
<feBlend mode="normal" in="SourceGraphic" in2="BackgroundImageFix" result="shape"/>
<feGaussianBlur stdDeviation="0.1" result="effect1_foregroundBlur_878_4039"/>
</filter>
<filter id="filter8_f_878_4039" x="21.4068" y="19.8248" width="5.32793" height="2.10918" filterUnits="userSpaceOnUse" color-interpolation-filters="sRGB">
<feFlood flood-opacity="0" result="BackgroundImageFix"/>
<feBlend mode="normal" in="SourceGraphic" in2="BackgroundImageFix" result="shape"/>
<feGaussianBlur stdDeviation="0.05" result="effect1_foregroundBlur_878_4039"/>
</filter>
<filter id="filter9_ii_878_4039" x="14.416" y="2.47852" width="19.3086" height="12.2852" filterUnits="userSpaceOnUse" color-interpolation-filters="sRGB">
<feFlood flood-opacity="0" result="BackgroundImageFix"/>
<feBlend mode="normal" in="SourceGraphic" in2="BackgroundImageFix" result="shape"/>
<feColorMatrix in="SourceAlpha" type="matrix" values="0 0 0 0 0 0 0 0 0 0 0 0 0 0 0 0 0 0 127 0" result="hardAlpha"/>
<feOffset dy="-0.5"/>
<feGaussianBlur stdDeviation="0.625"/>
<feComposite in2="hardAlpha" operator="arithmetic" k2="-1" k3="1"/>
<feColorMatrix type="matrix" values="0 0 0 0 0.137255 0 0 0 0 0.0901961 0 0 0 0 0.145098 0 0 0 1 0"/>
<feBlend mode="normal" in2="shape" result="effect1_innerShadow_878_4039"/>
<feColorMatrix in="SourceAlpha" type="matrix" values="0 0 0 0 0 0 0 0 0 0 0 0 0 0 0 0 0 0 127 0" result="hardAlpha"/>
<feOffset dy="-0.2"/>
<feGaussianBlur stdDeviation="0.2"/>
<feComposite in2="hardAlpha" operator="arithmetic" k2="-1" k3="1"/>
<feColorMatrix type="matrix" values="0 0 0 0 0.0784314 0 0 0 0 0.0352941 0 0 0 0 0.0470588 0 0 0 1 0"/>
<feBlend mode="normal" in2="effect1_innerShadow_878_4039" result="effect2_innerShadow_878_4039"/>
</filter>
<filter id="filter10_i_878_4039" x="26.4541" y="10.8244" width="3.4584" height="1.68535" filterUnits="userSpaceOnUse" color-interpolation-filters="sRGB">
<feFlood flood-opacity="0" result="BackgroundImageFix"/>
<feBlend mode="normal" in="SourceGraphic" in2="BackgroundImageFix" result="shape"/>
<feColorMatrix in="SourceAlpha" type="matrix" values="0 0 0 0 0 0 0 0 0 0 0 0 0 0 0 0 0 0 127 0" result="hardAlpha"/>
<feOffset dx="0.1" dy="-0.2"/>
<feGaussianBlur stdDeviation="0.125"/>
<feComposite in2="hardAlpha" operator="arithmetic" k2="-1" k3="1"/>
<feColorMatrix type="matrix" values="0 0 0 0 0.0588235 0 0 0 0 0.054902 0 0 0 0 0.0588235 0 0 0 1 0"/>
<feBlend mode="normal" in2="shape" result="effect1_innerShadow_878_4039"/>
</filter>
<filter id="filter11_i_878_4039" x="18.5703" y="10.8459" width="3.4584" height="1.66387" filterUnits="userSpaceOnUse" color-interpolation-filters="sRGB">
<feFlood flood-opacity="0" result="BackgroundImageFix"/>
<feBlend mode="normal" in="SourceGraphic" in2="BackgroundImageFix" result="shape"/>
<feColorMatrix in="SourceAlpha" type="matrix" values="0 0 0 0 0 0 0 0 0 0 0 0 0 0 0 0 0 0 127 0" result="hardAlpha"/>
<feOffset dx="0.1" dy="-0.2"/>
<feGaussianBlur stdDeviation="0.125"/>
<feComposite in2="hardAlpha" operator="arithmetic" k2="-1" k3="1"/>
<feColorMatrix type="matrix" values="0 0 0 0 0.0588235 0 0 0 0 0.054902 0 0 0 0 0.0588235 0 0 0 1 0"/>
<feBlend mode="normal" in2="shape" result="effect1_innerShadow_878_4039"/>
</filter>
<filter id="filter12_if_878_4039" x="15.0742" y="3.9873" width="9.77695" height="8.7373" filterUnits="userSpaceOnUse" color-interpolation-filters="sRGB">
<feFlood flood-opacity="0" result="BackgroundImageFix"/>
<feBlend mode="normal" in="SourceGraphic" in2="BackgroundImageFix" result="shape"/>
<feColorMatrix in="SourceAlpha" type="matrix" values="0 0 0 0 0 0 0 0 0 0 0 0 0 0 0 0 0 0 127 0" result="hardAlpha"/>
<feOffset dx="0.4" dy="0.2"/>
<feGaussianBlur stdDeviation="0.2"/>
<feComposite in2="hardAlpha" operator="arithmetic" k2="-1" k3="1"/>
<feColorMatrix type="matrix" values="0 0 0 0 0.286275 0 0 0 0 0.243137 0 0 0 0 0.227451 0 0 0 1 0"/>
<feBlend mode="normal" in2="shape" result="effect1_innerShadow_878_4039"/>
<feGaussianBlur stdDeviation="0.125" result="effect2_foregroundBlur_878_4039"/>
</filter>
<filter id="filter13_f_878_4039" x="23.8477" y="4.5" width="9.40137" height="8.47559" filterUnits="userSpaceOnUse" color-interpolation-filters="sRGB">
<feFlood flood-opacity="0" result="BackgroundImageFix"/>
<feBlend mode="normal" in="SourceGraphic" in2="BackgroundImageFix" result="shape"/>
<feGaussianBlur stdDeviation="0.125" result="effect1_foregroundBlur_878_4039"/>
</filter>
<filter id="filter14_f_878_4039" x="26.2926" y="14.2652" width="1.07988" height="0.944141" filterUnits="userSpaceOnUse" color-interpolation-filters="sRGB">
<feFlood flood-opacity="0" result="BackgroundImageFix"/>
<feBlend mode="normal" in="SourceGraphic" in2="BackgroundImageFix" result="shape"/>
<feGaussianBlur stdDeviation="0.05" result="effect1_foregroundBlur_878_4039"/>
</filter>
<filter id="filter15_f_878_4039" x="27.6027" y="14.4279" width="1.1373" height="1.17051" filterUnits="userSpaceOnUse" color-interpolation-filters="sRGB">
<feFlood flood-opacity="0" result="BackgroundImageFix"/>
<feBlend mode="normal" in="SourceGraphic" in2="BackgroundImageFix" result="shape"/>
<feGaussianBlur stdDeviation="0.1" result="effect1_foregroundBlur_878_4039"/>
</filter>
<filter id="filter16_f_878_4039" x="20.9377" y="14.3332" width="1.27988" height="1.35996" filterUnits="userSpaceOnUse" color-interpolation-filters="sRGB">
<feFlood flood-opacity="0" result="BackgroundImageFix"/>
<feBlend mode="normal" in="SourceGraphic" in2="BackgroundImageFix" result="shape"/>
<feGaussianBlur stdDeviation="0.1" result="effect1_foregroundBlur_878_4039"/>
</filter>
<filter id="filter17_f_878_4039" x="19.7564" y="14.2535" width="1.26934" height="0.956836" filterUnits="userSpaceOnUse" color-interpolation-filters="sRGB">
<feFlood flood-opacity="0" result="BackgroundImageFix"/>
<feBlend mode="normal" in="SourceGraphic" in2="BackgroundImageFix" result="shape"/>
<feGaussianBlur stdDeviation="0.05" result="effect1_foregroundBlur_878_4039"/>
</filter>
<filter id="filter18_f_878_4039" x="15.0742" y="14.2021" width="1.74316" height="3.31934" filterUnits="userSpaceOnUse" color-interpolation-filters="sRGB">
<feFlood flood-opacity="0" result="BackgroundImageFix"/>
<feBlend mode="normal" in="SourceGraphic" in2="BackgroundImageFix" result="shape"/>
<feGaussianBlur stdDeviation="0.125" result="effect1_foregroundBlur_878_4039"/>
</filter>
<filter id="filter19_f_878_4039" x="31.0791" y="13.9395" width="2.41992" height="3.85547" filterUnits="userSpaceOnUse" color-interpolation-filters="sRGB">
<feFlood flood-opacity="0" result="BackgroundImageFix"/>
<feBlend mode="normal" in="SourceGraphic" in2="BackgroundImageFix" result="shape"/>
<feGaussianBlur stdDeviation="0.25" result="effect1_foregroundBlur_878_4039"/>
</filter>
<filter id="filter20_f_878_4039" x="18.6357" y="11.0459" width="3.23242" height="1.36523" filterUnits="userSpaceOnUse" color-interpolation-filters="sRGB">
<feFlood flood-opacity="0" result="BackgroundImageFix"/>
<feBlend mode="normal" in="SourceGraphic" in2="BackgroundImageFix" result="shape"/>
<feGaussianBlur stdDeviation="0.125" result="effect1_foregroundBlur_878_4039"/>
</filter>
<filter id="filter21_f_878_4039" x="26.5547" y="10.9766" width="3.23242" height="1.36523" filterUnits="userSpaceOnUse" color-interpolation-filters="sRGB">
<feFlood flood-opacity="0" result="BackgroundImageFix"/>
<feBlend mode="normal" in="SourceGraphic" in2="BackgroundImageFix" result="shape"/>
<feGaussianBlur stdDeviation="0.125" result="effect1_foregroundBlur_878_4039"/>
</filter>
<linearGradient id="paint0_linear_878_4039" x1="23.9998" y1="24.4741" x2="23.9998" y2="46.8804" gradientUnits="userSpaceOnUse">
<stop stop-color="#534973"/>
<stop offset="1" stop-color="#584982"/>
</linearGradient>
<radialGradient id="paint1_radial_878_4039" cx="0" cy="0" r="1" gradientUnits="userSpaceOnUse" gradientTransform="translate(34.4923 38.246) rotate(-90) scale(24.6469 9.55514)">
<stop offset="0.155797" stop-color="#7B74A6"/>
<stop offset="1" stop-color="#5F5490" stop-opacity="0"/>
</radialGradient>
<radialGradient id="paint2_radial_878_4039" cx="0" cy="0" r="1" gradientUnits="userSpaceOnUse" gradientTransform="translate(24.0005 34.604) rotate(90) scale(15.1823 6.89545)">
<stop offset="0.397031" stop-color="#C6BBD1"/>
<stop offset="1" stop-color="#A89CB3"/>
</radialGradient>
<linearGradient id="paint3_linear_878_4039" x1="28.3551" y1="37.9738" x2="25.5895" y2="37.9738" gradientUnits="userSpaceOnUse">
<stop stop-color="#7A6C85"/>
<stop offset="1" stop-color="#C7BCD2" stop-opacity="0"/>
</linearGradient>
<linearGradient id="paint4_linear_878_4039" x1="23.3864" y1="26.7941" x2="23.5035" y2="32.6301" gradientUnits="userSpaceOnUse">
<stop stop-color="#877F93"/>
<stop offset="1" stop-color="#877F93" stop-opacity="0"/>
</linearGradient>
<radialGradient id="paint5_radial_878_4039" cx="0" cy="0" r="1" gradientUnits="userSpaceOnUse" gradientTransform="translate(37.5 45.0066) rotate(-90) scale(15.4702 2.52649)">
<stop stop-color="#776D9F"/>
<stop offset="1" stop-color="#6D6193"/>
</radialGradient>
<linearGradient id="paint6_linear_878_4039" x1="34.5" y1="44.2371" x2="35.6157" y2="44.2014" gradientUnits="userSpaceOnUse">
<stop offset="0.275571" stop-color="#504176"/>
<stop offset="1" stop-color="#504176" stop-opacity="0"/>
</linearGradient>
<linearGradient id="paint7_linear_878_4039" x1="17.8525" y1="24.1416" x2="17.8525" y2="44.9916" gradientUnits="userSpaceOnUse">
<stop stop-color="#544A76"/>
<stop offset="0.524033" stop-color="#5F5289"/>
</linearGradient>
<linearGradient id="paint8_linear_878_4039" x1="20.5065" y1="33.8306" x2="19.5752" y2="33.8306" gradientUnits="userSpaceOnUse">
<stop stop-color="#3E305B"/>
<stop offset="1" stop-color="#553A63" stop-opacity="0"/>
</linearGradient>
<radialGradient id="paint9_radial_878_4039" cx="0" cy="0" r="1" gradientUnits="userSpaceOnUse" gradientTransform="translate(20.5735 24.5677) rotate(126.18) scale(3.89091 5.39193)">
<stop stop-color="#3C2E57"/>
<stop offset="1" stop-color="#3C2E57" stop-opacity="0"/>
</radialGradient>
<linearGradient id="paint10_linear_878_4039" x1="17.8525" y1="38.9556" x2="19.2583" y2="38.3534" gradientUnits="userSpaceOnUse">
<stop offset="0.195813" stop-color="#55477C"/>
<stop offset="1" stop-color="#594C7D" stop-opacity="0"/>
</linearGradient>
<radialGradient id="paint11_radial_878_4039" cx="0" cy="0" r="1" gradientUnits="userSpaceOnUse" gradientTransform="translate(17.093 29.6419) rotate(-15.9454) scale(1.70628 0.838538)">
<stop offset="0.241347" stop-color="#4B3B6D"/>
<stop offset="1" stop-color="#4B3B6D" stop-opacity="0"/>
</radialGradient>
<linearGradient id="paint12_linear_878_4039" x1="23.9822" y1="28.4814" x2="23.9822" y2="31.458" gradientUnits="userSpaceOnUse">
<stop offset="0.00558659" stop-color="#4B375E"/>
<stop offset="1" stop-color="#483B55"/>
</linearGradient>
<linearGradient id="paint13_linear_878_4039" x1="28.0645" y1="32.4017" x2="30.1661" y2="32.4017" gradientUnits="userSpaceOnUse">
<stop offset="0.0932249" stop-color="#453D68"/>
<stop offset="1" stop-color="#625A91" stop-opacity="0"/>
</linearGradient>
<radialGradient id="paint14_radial_878_4039" cx="0" cy="0" r="1" gradientUnits="userSpaceOnUse" gradientTransform="translate(24.0006 27.7785) rotate(90) scale(5.625 6.56535)">
<stop offset="0.3625" stop-color="#CAC3D3"/>
<stop offset="1" stop-color="#A093A3"/>
</radialGradient>
<radialGradient id="paint15_radial_878_4039" cx="0" cy="0" r="1" gradientUnits="userSpaceOnUse" gradientTransform="translate(24.0006 31.5241) rotate(-90) scale(7.78125 10.2232)">
<stop offset="0.532569" stop-color="#837A8D" stop-opacity="0"/>
<stop offset="0.875943" stop-color="#544A5F"/>
</radialGradient>
<linearGradient id="paint16_linear_878_4039" x1="14.1778" y1="36.0177" x2="10.5298" y2="36.0177" gradientUnits="userSpaceOnUse">
<stop stop-color="#41375C"/>
<stop offset="1" stop-color="#584A7E" stop-opacity="0"/>
</linearGradient>
<radialGradient id="paint17_radial_878_4039" cx="0" cy="0" r="1" gradientUnits="userSpaceOnUse" gradientTransform="translate(23.9747 32.1148) rotate(90) scale(13.2188 5.18217)">
<stop offset="0.00558659" stop-color="#56406D"/>
<stop offset="0.939716" stop-color="#3D3247"/>
</radialGradient>
<linearGradient id="paint18_linear_878_4039" x1="21.9097" y1="37.3121" x2="22.3492" y2="37.3707" gradientUnits="userSpaceOnUse">
<stop stop-color="#2B1B3A"/>
<stop offset="1" stop-color="#2B1B3A" stop-opacity="0"/>
</linearGradient>
<linearGradient id="paint19_linear_878_4039" x1="26.1168" y1="37.0367" x2="25.5191" y2="37.107" gradientUnits="userSpaceOnUse">
<stop stop-color="#2B1B3A"/>
<stop offset="1" stop-color="#2B1B3A" stop-opacity="0"/>
</linearGradient>
<radialGradient id="paint20_radial_878_4039" cx="0" cy="0" r="1" gradientUnits="userSpaceOnUse" gradientTransform="translate(26.1755 26.8087) rotate(-138.664) scale(2.83885 5.445)">
<stop stop-color="#C49391"/>
<stop offset="1" stop-color="#BC818D"/>
</radialGradient>
<radialGradient id="paint21_radial_878_4039" cx="0" cy="0" r="1" gradientUnits="userSpaceOnUse" gradientTransform="translate(31.2009 17.6611) rotate(69.6569) scale(3.23081 3.83795)">
<stop offset="0.214643" stop-color="#313131"/>
<stop offset="1" stop-color="#1A161E"/>
</radialGradient>
<radialGradient id="paint22_radial_878_4039" cx="0" cy="0" r="1" gradientUnits="userSpaceOnUse" gradientTransform="translate(14.986 18.3966) rotate(17.4472) scale(2.32149 7.16196)">
<stop stop-color="#564943"/>
<stop offset="0.745836" stop-color="#1E191C"/>
</radialGradient>
<radialGradient id="paint23_radial_878_4039" cx="0" cy="0" r="1" gradientUnits="userSpaceOnUse" gradientTransform="translate(28.2819 16.2494) rotate(180) scale(7.84176 13.872)">
<stop stop-color="#FFDCC0"/>
<stop offset="1" stop-color="#D6A195"/>
</radialGradient>
<linearGradient id="paint24_linear_878_4039" x1="31.8062" y1="18.7776" x2="25.2772" y2="18.7776" gradientUnits="userSpaceOnUse">
<stop stop-color="#FFD6BA"/>
<stop offset="1" stop-color="#FFD6BA" stop-opacity="0"/>
</linearGradient>
<radialGradient id="paint25_radial_878_4039" cx="0" cy="0" r="1" gradientUnits="userSpaceOnUse" gradientTransform="translate(27.7411 14.2801) rotate(-90) scale(1.72252 2.13162)">
<stop offset="0.325" stop-color="#F6B8A8"/>
<stop offset="1" stop-color="#F6B8A8" stop-opacity="0"/>
</radialGradient>
<radialGradient id="paint26_radial_878_4039" cx="0" cy="0" r="1" gradientUnits="userSpaceOnUse" gradientTransform="translate(20.6201 14.3498) rotate(-89.7942) scale(1.64143 1.78626)">
<stop offset="0.377617" stop-color="#D39991"/>
<stop offset="1" stop-color="#D39991" stop-opacity="0"/>
</radialGradient>
<radialGradient id="paint27_radial_878_4039" cx="0" cy="0" r="1" gradientUnits="userSpaceOnUse" gradientTransform="translate(29.2195 17.7315) rotate(176.388) scale(12.7693 32.6192)">
<stop offset="0.835902" stop-color="#E6AD97" stop-opacity="0"/>
<stop offset="1" stop-color="#E6AD97"/>
</radialGradient>
<radialGradient id="paint28_radial_878_4039" cx="0" cy="0" r="1" gradientUnits="userSpaceOnUse" gradientTransform="translate(15.8692 9.76147) rotate(-46.6112) scale(6.76562 2.47669)">
<stop offset="0.427646" stop-color="#9F6D5C"/>
<stop offset="1" stop-color="#9F6D5C" stop-opacity="0"/>
</radialGradient>
<radialGradient id="paint29_radial_878_4039" cx="0" cy="0" r="1" gradientUnits="userSpaceOnUse" gradientTransform="translate(27.711 8.78094) rotate(121.159) scale(5.05347 4.17205)">
<stop offset="0.0780198" stop-color="#F6C3B0"/>
<stop offset="1" stop-color="#F6C3B0" stop-opacity="0"/>
</radialGradient>
<linearGradient id="paint30_linear_878_4039" x1="24.1409" y1="25.8325" x2="24.1409" y2="22.4531" gradientUnits="userSpaceOnUse">
<stop stop-color="#AE6D91"/>
<stop offset="1" stop-color="#CF959D" stop-opacity="0"/>
</linearGradient>
<linearGradient id="paint31_linear_878_4039" x1="25.3274" y1="17.2621" x2="24.0701" y2="17.3144" gradientUnits="userSpaceOnUse">
<stop offset="0.360477" stop-color="#FFDFC7"/>
<stop offset="1" stop-color="#FFDFC7" stop-opacity="0"/>
</linearGradient>
<radialGradient id="paint32_radial_878_4039" cx="0" cy="0" r="1" gradientUnits="userSpaceOnUse" gradientTransform="translate(24.7695 18.2908) rotate(90) scale(0.366154 1.15077)">
<stop stop-color="#FFDDC7"/>
<stop offset="1" stop-color="#FFDDC7" stop-opacity="0"/>
</radialGradient>
<linearGradient id="paint33_linear_878_4039" x1="24.0701" y1="18.9708" x2="24.0701" y2="18.2734" gradientUnits="userSpaceOnUse">
<stop stop-color="#D89793"/>
<stop offset="1" stop-color="#D89793" stop-opacity="0"/>
</linearGradient>
<radialGradient id="paint34_radial_878_4039" cx="0" cy="0" r="1" gradientUnits="userSpaceOnUse" gradientTransform="translate(24.9438 17.4365) rotate(155.369) scale(2.51011 4.03394)">
<stop offset="0.714105" stop-color="#D3968C" stop-opacity="0"/>
<stop offset="1" stop-color="#D3968C"/>
</radialGradient>
<linearGradient id="paint35_linear_878_4039" x1="24.0701" y1="14.7197" x2="24.0701" y2="15.7331" gradientUnits="userSpaceOnUse">
<stop stop-color="#E8BBA8"/>
<stop offset="1" stop-color="#E8BBA8" stop-opacity="0"/>
</linearGradient>
<linearGradient id="paint36_linear_878_4039" x1="22.2682" y1="21.3269" x2="22.7459" y2="20.0752" gradientUnits="userSpaceOnUse">
<stop stop-color="#E1ACA6"/>
<stop offset="1" stop-color="#E1ACA6" stop-opacity="0"/>
</linearGradient>
<radialGradient id="paint37_radial_878_4039" cx="0" cy="0" r="1" gradientUnits="userSpaceOnUse" gradientTransform="translate(24.0709 21.5586) rotate(-90) scale(1.0811 4.34955)">
<stop stop-color="#88014E"/>
<stop offset="1" stop-color="#86004D"/>
</radialGradient>
<linearGradient id="paint38_linear_878_4039" x1="34.3486" y1="7.75548" x2="16.9302" y2="7.75548" gradientUnits="userSpaceOnUse">
<stop stop-color="#443D40"/>
<stop offset="1" stop-color="#272127"/>
</linearGradient>
<radialGradient id="paint39_radial_878_4039" cx="0" cy="0" r="1" gradientUnits="userSpaceOnUse" gradientTransform="translate(16.2262 11.911) rotate(-90) scale(5.25198 13.2816)">
<stop offset="0.535851" stop-color="#3E3433"/>
<stop offset="1" stop-color="#3E3433" stop-opacity="0"/>
</radialGradient>
<radialGradient id="paint40_radial_878_4039" cx="0" cy="0" r="1" gradientUnits="userSpaceOnUse" gradientTransform="translate(31.3617 13.8765) rotate(-87.4012) scale(3.77269 6.68446)">
<stop stop-color="#4F4D4D"/>
<stop offset="1" stop-color="#4F4D4D" stop-opacity="0"/>
</radialGradient>
<radialGradient id="paint41_radial_878_4039" cx="0" cy="0" r="1" gradientUnits="userSpaceOnUse" gradientTransform="translate(30.2303 4.46189) rotate(-146.667) scale(4.23492 3.10865)">
<stop stop-color="#5E5A5B"/>
<stop offset="1" stop-color="#5E5A5B" stop-opacity="0"/>
</radialGradient>
<radialGradient id="paint42_radial_878_4039" cx="0" cy="0" r="1" gradientUnits="userSpaceOnUse" gradientTransform="translate(22.7129 2.07341) rotate(58.4652) scale(2.59584 6.01074)">
<stop offset="0.286771" stop-color="#484646"/>
<stop offset="1" stop-color="#484646" stop-opacity="0"/>
</radialGradient>
<radialGradient id="paint43_radial_878_4039" cx="0" cy="0" r="1" gradientUnits="userSpaceOnUse" gradientTransform="translate(24.4507 5.46269) rotate(180) scale(3.30168 1.22538)">
<stop stop-color="#423C3F"/>
<stop offset="1" stop-color="#423C3F" stop-opacity="0"/>
</radialGradient>
<radialGradient id="paint44_radial_878_4039" cx="0" cy="0" r="1" gradientUnits="userSpaceOnUse" gradientTransform="translate(15.9245 11.3764) rotate(-57.7244) scale(9.03991 10.0153)">
<stop offset="0.0926981" stop-color="#0B0306"/>
<stop offset="0.311222" stop-color="#1C0C20"/>
<stop offset="1" stop-color="#1C0C20" stop-opacity="0"/>
</radialGradient>
<radialGradient id="paint45_radial_878_4039" cx="0" cy="0" r="1" gradientUnits="userSpaceOnUse" gradientTransform="translate(29.1915 6.62737) scale(4.58757 1.79366)">
<stop stop-color="#4E494B"/>
<stop offset="1" stop-color="#4E494B" stop-opacity="0"/>
</radialGradient>
<radialGradient id="paint46_radial_878_4039" cx="0" cy="0" r="1" gradientUnits="userSpaceOnUse" gradientTransform="translate(28.0209 11.1833) rotate(-43.6141) scale(5.54982 10.1603)">
<stop offset="0.856906" stop-color="#545051" stop-opacity="0"/>
<stop offset="1" stop-color="#545051"/>
</radialGradient>
<radialGradient id="paint47_radial_878_4039" cx="0" cy="0" r="1" gradientUnits="userSpaceOnUse" gradientTransform="translate(26.6921 8.96861) rotate(6.66666) scale(4.90549 2.05383)">
<stop stop-color="#200E25"/>
<stop offset="1" stop-color="#200E25" stop-opacity="0"/>
</radialGradient>
<radialGradient id="paint48_radial_878_4039" cx="0" cy="0" r="1" gradientUnits="userSpaceOnUse" gradientTransform="translate(27.3437 14.8747) rotate(90) scale(1.21698 1.93574)">
<stop offset="0.80198" stop-color="#7D574A"/>
<stop offset="1" stop-color="#694B43"/>
<stop offset="1" stop-color="#804D49"/>
<stop offset="1" stop-color="#664842"/>
</radialGradient>
<radialGradient id="paint49_radial_878_4039" cx="0" cy="0" r="1" gradientUnits="userSpaceOnUse" gradientTransform="translate(27.0015 15.0012) rotate(-127.812) scale(0.56743 0.781216)">
<stop offset="0.765532" stop-color="#FFE6E2" stop-opacity="0"/>
<stop offset="0.966159" stop-color="#FFE6E2"/>
</radialGradient>
<linearGradient id="paint50_linear_878_4039" x1="28.5111" y1="14.9559" x2="28.0404" y2="15.2459" gradientUnits="userSpaceOnUse">
<stop stop-color="#B4948D"/>
<stop offset="1" stop-color="#B4948D" stop-opacity="0"/>
</linearGradient>
<radialGradient id="paint51_radial_878_4039" cx="0" cy="0" r="1" gradientUnits="userSpaceOnUse" gradientTransform="translate(20.7978 14.8748) rotate(90) scale(1.21704 1.93584)">
<stop offset="0.80198" stop-color="#7D574A"/>
<stop offset="1" stop-color="#694B43"/>
<stop offset="1" stop-color="#804D49"/>
<stop offset="1" stop-color="#664842"/>
</radialGradient>
<linearGradient id="paint52_linear_878_4039" x1="21.913" y1="14.9563" x2="21.4423" y2="15.2463" gradientUnits="userSpaceOnUse">
<stop stop-color="#B4948D"/>
<stop offset="1" stop-color="#B4948D" stop-opacity="0"/>
</linearGradient>
<radialGradient id="paint53_radial_878_4039" cx="0" cy="0" r="1" gradientUnits="userSpaceOnUse" gradientTransform="translate(20.3686 15.2043) rotate(-90.897) scale(0.741215 0.890971)">
<stop offset="0.765532" stop-color="#FFE6E2" stop-opacity="0"/>
<stop offset="0.966159" stop-color="#FFE6E2"/>
</radialGradient>
<linearGradient id="paint54_linear_878_4039" x1="33.7248" y1="14.9962" x2="31.9145" y2="18.2606" gradientUnits="userSpaceOnUse">
<stop stop-color="#FFD6BD"/>
<stop offset="1" stop-color="#F0B8A6"/>
</linearGradient>
<radialGradient id="paint55_radial_878_4039" cx="0" cy="0" r="1" gradientUnits="userSpaceOnUse" gradientTransform="translate(30.9969 14.8956) rotate(74.3475) scale(3.4945 3.33402)">
<stop offset="0.856273" stop-color="#CE978E" stop-opacity="0"/>
<stop offset="1" stop-color="#CE978E"/>
</radialGradient>
<radialGradient id="paint56_radial_878_4039" cx="0" cy="0" r="1" gradientUnits="userSpaceOnUse" gradientTransform="translate(31.5374 15.7128) rotate(-53.9199) scale(2.00652 1.68186)">
<stop offset="0.663731" stop-color="#F7B99C"/>
<stop offset="1" stop-color="#F7B99C" stop-opacity="0"/>
</radialGradient>
<radialGradient id="paint57_radial_878_4039" cx="0" cy="0" r="1" gradientUnits="userSpaceOnUse" gradientTransform="translate(31.7084 15.9714) rotate(-69.2631) scale(2.48673 3.32261)">
<stop offset="0.803247" stop-color="#EBBB9D" stop-opacity="0"/>
<stop offset="1" stop-color="#EBBB9D"/>
</radialGradient>
<linearGradient id="paint58_linear_878_4039" x1="15.296" y1="16.0528" x2="17.4833" y2="15.8617" gradientUnits="userSpaceOnUse">
<stop stop-color="#D19787"/>
<stop offset="1" stop-color="#C9887D"/>
</linearGradient>
<radialGradient id="paint59_radial_878_4039" cx="0" cy="0" r="1" gradientUnits="userSpaceOnUse" gradientTransform="translate(16.6973 15.8617) rotate(-173.034) scale(2.43774 2.6168)">
<stop offset="0.77507" stop-color="#E8AF99" stop-opacity="0"/>
<stop offset="1" stop-color="#E8AF99"/>
</radialGradient>
<radialGradient id="paint60_radial_878_4039" cx="0" cy="0" r="1" gradientUnits="userSpaceOnUse" gradientTransform="translate(16.6989 15.8617) rotate(170.26) scale(1.39482 1.71152)">
<stop stop-color="#C18472"/>
<stop offset="1" stop-color="#CA8B7A"/>
</radialGradient>
<linearGradient id="paint61_linear_878_4039" x1="32.289" y1="14.4395" x2="32.289" y2="17.2945" gradientUnits="userSpaceOnUse">
<stop stop-color="#F9BB9E"/>
<stop offset="1" stop-color="#F6BBA0"/>
</linearGradient>
</defs>
</svg>
