<svg width="48" height="48" viewBox="0 0 48 48" fill="none" xmlns="http://www.w3.org/2000/svg">
<path d="M30.6222 3.50379C30.3409 3.22249 29.9593 3.06445 29.5615 3.06445H9.65858C8.49879 3.06445 7.55859 4.00465 7.55859 5.16444V42.8355C7.55859 43.9953 8.49879 44.9355 9.65858 44.9355H38.3414C39.5012 44.9355 40.4414 43.9953 40.4414 42.8355V13.9443C40.4414 13.5465 40.2834 13.165 40.0021 12.8837L30.6222 3.50379Z" fill="url(#paint0_linear_878_6642)"/>
<path d="M30.6222 3.50379C30.3409 3.22249 29.9593 3.06445 29.5615 3.06445H9.65858C8.49879 3.06445 7.55859 4.00465 7.55859 5.16444V42.8355C7.55859 43.9953 8.49879 44.9355 9.65858 44.9355H38.3414C39.5012 44.9355 40.4414 43.9953 40.4414 42.8355V13.9443C40.4414 13.5465 40.2834 13.165 40.0021 12.8837L30.6222 3.50379Z" fill="url(#paint1_linear_878_6642)"/>
<path d="M30.6222 3.50379C30.3409 3.22249 29.9593 3.06445 29.5615 3.06445H9.65858C8.49879 3.06445 7.55859 4.00465 7.55859 5.16444V42.8355C7.55859 43.9953 8.49879 44.9355 9.65858 44.9355H38.3414C39.5012 44.9355 40.4414 43.9953 40.4414 42.8355V13.9443C40.4414 13.5465 40.2834 13.165 40.0021 12.8837L30.6222 3.50379Z" fill="url(#paint2_linear_878_6642)"/>
<path d="M30.6222 3.50379C30.3409 3.22249 29.9593 3.06445 29.5615 3.06445H9.65858C8.49879 3.06445 7.55859 4.00465 7.55859 5.16444V42.8355C7.55859 43.9953 8.49879 44.9355 9.65858 44.9355H38.3414C39.5012 44.9355 40.4414 43.9953 40.4414 42.8355V13.9443C40.4414 13.5465 40.2834 13.165 40.0021 12.8837L30.6222 3.50379Z" fill="url(#paint3_linear_878_6642)" fill-opacity="0.13"/>
<path d="M30.6222 3.50379C30.3409 3.22249 29.9593 3.06445 29.5615 3.06445H9.65858C8.49879 3.06445 7.55859 4.00465 7.55859 5.16444V42.8355C7.55859 43.9953 8.49879 44.9355 9.65858 44.9355H38.3414C39.5012 44.9355 40.4414 43.9953 40.4414 42.8355V13.9443C40.4414 13.5465 40.2834 13.165 40.0021 12.8837L30.6222 3.50379Z" fill="url(#paint4_linear_878_6642)"/>
<path d="M30.6222 3.50379C30.3409 3.22249 29.9593 3.06445 29.5615 3.06445H9.65858C8.49879 3.06445 7.55859 4.00465 7.55859 5.16444V42.8355C7.55859 43.9953 8.49879 44.9355 9.65858 44.9355H38.3414C39.5012 44.9355 40.4414 43.9953 40.4414 42.8355V13.9443C40.4414 13.5465 40.2834 13.165 40.0021 12.8837L30.6222 3.50379Z" fill="url(#paint5_linear_878_6642)"/>
<path d="M30.6222 3.50379C30.3409 3.22249 29.9593 3.06445 29.5615 3.06445H9.65858C8.49879 3.06445 7.55859 4.00465 7.55859 5.16444V42.8355C7.55859 43.9953 8.49879 44.9355 9.65858 44.9355H38.3414C39.5012 44.9355 40.4414 43.9953 40.4414 42.8355V13.9443C40.4414 13.5465 40.2834 13.165 40.0021 12.8837L30.6222 3.50379Z" fill="url(#paint6_radial_878_6642)"/>
<path d="M30.6222 3.50379C30.3409 3.22249 29.9593 3.06445 29.5615 3.06445H9.65858C8.49879 3.06445 7.55859 4.00465 7.55859 5.16444V42.8355C7.55859 43.9953 8.49879 44.9355 9.65858 44.9355H38.3414C39.5012 44.9355 40.4414 43.9953 40.4414 42.8355V13.9443C40.4414 13.5465 40.2834 13.165 40.0021 12.8837L30.6222 3.50379Z" fill="url(#paint7_radial_878_6642)"/>
<path d="M30.6222 3.50379C30.3409 3.22249 29.9593 3.06445 29.5615 3.06445H9.65858C8.49879 3.06445 7.55859 4.00465 7.55859 5.16444V42.8355C7.55859 43.9953 8.49879 44.9355 9.65858 44.9355H38.3414C39.5012 44.9355 40.4414 43.9953 40.4414 42.8355V13.9443C40.4414 13.5465 40.2834 13.165 40.0021 12.8837L30.6222 3.50379Z" fill="url(#paint8_radial_878_6642)"/>
<path d="M30.6222 3.50379C30.3409 3.22249 29.9593 3.06445 29.5615 3.06445H9.65858C8.49879 3.06445 7.55859 4.00465 7.55859 5.16444V42.8355C7.55859 43.9953 8.49879 44.9355 9.65858 44.9355H38.3414C39.5012 44.9355 40.4414 43.9953 40.4414 42.8355V13.9443C40.4414 13.5465 40.2834 13.165 40.0021 12.8837L30.6222 3.50379Z" fill="url(#paint9_linear_878_6642)"/>
<path d="M30.6222 3.50379C30.3409 3.22249 29.9593 3.06445 29.5615 3.06445H9.65858C8.49879 3.06445 7.55859 4.00465 7.55859 5.16444V42.8355C7.55859 43.9953 8.49879 44.9355 9.65858 44.9355H38.3414C39.5012 44.9355 40.4414 43.9953 40.4414 42.8355V13.9443C40.4414 13.5465 40.2834 13.165 40.0021 12.8837L30.6222 3.50379Z" fill="url(#paint10_linear_878_6642)"/>
<path d="M30.6222 3.50379C30.3409 3.22249 29.9593 3.06445 29.5615 3.06445H9.65858C8.49879 3.06445 7.55859 4.00465 7.55859 5.16444V42.8355C7.55859 43.9953 8.49879 44.9355 9.65858 44.9355H38.3414C39.5012 44.9355 40.4414 43.9953 40.4414 42.8355V13.9443C40.4414 13.5465 40.2834 13.165 40.0021 12.8837L30.6222 3.50379Z" fill="url(#paint11_linear_878_6642)" fill-opacity="0.55"/>
<path d="M30.6222 3.50379C30.3409 3.22249 29.9593 3.06445 29.5615 3.06445H9.65858C8.49879 3.06445 7.55859 4.00465 7.55859 5.16444V42.8355C7.55859 43.9953 8.49879 44.9355 9.65858 44.9355H38.3414C39.5012 44.9355 40.4414 43.9953 40.4414 42.8355V13.9443C40.4414 13.5465 40.2834 13.165 40.0021 12.8837L30.6222 3.50379Z" fill="url(#paint12_linear_878_6642)" fill-opacity="0.55"/>
<path d="M30.6222 3.50379C30.3409 3.22249 29.9593 3.06445 29.5615 3.06445H9.65858C8.49879 3.06445 7.55859 4.00465 7.55859 5.16444V42.8355C7.55859 43.9953 8.49879 44.9355 9.65858 44.9355H38.3414C39.5012 44.9355 40.4414 43.9953 40.4414 42.8355V13.9443C40.4414 13.5465 40.2834 13.165 40.0021 12.8837L30.6222 3.50379Z" fill="url(#paint13_linear_878_6642)"/>
<path d="M28.4333 3.68546C28.4333 3.38336 28.52 3.12801 28.3556 3.09572C28.5119 3.10568 29.8187 2.98236 29.9593 3.14639C30.1442 3.21897 30.0331 3.514 30.1778 3.65532C30.182 3.65944 30.1863 3.66358 30.1904 3.66777L39.5703 13.0477C39.5989 13.0763 39.6262 13.1059 39.6522 13.1365C39.7802 13.287 39.8462 13.2541 39.9064 13.4401C39.9543 13.5879 40.2979 13.2817 40.2979 13.4401L40.4132 13.6704V13.9921C40.4132 13.9921 40.4853 14.3683 40.2979 14.3683L30.5892 15.4502C29.0476 15.4502 27.5957 13.6781 27.5957 12.684L28.4333 3.68546Z" fill="url(#paint14_linear_878_6642)"/>
<path d="M28.4333 3.68546C28.4333 3.38336 28.52 3.12801 28.3556 3.09572C28.5119 3.10568 29.8187 2.98236 29.9593 3.14639C30.1442 3.21897 30.0331 3.514 30.1778 3.65532C30.182 3.65944 30.1863 3.66358 30.1904 3.66777L39.5703 13.0477C39.5989 13.0763 39.6262 13.1059 39.6522 13.1365C39.7802 13.287 39.8462 13.2541 39.9064 13.4401C39.9543 13.5879 40.2979 13.2817 40.2979 13.4401L40.4132 13.6704V13.9921C40.4132 13.9921 40.4853 14.3683 40.2979 14.3683L30.5892 15.4502C29.0476 15.4502 27.5957 13.6781 27.5957 12.684L28.4333 3.68546Z" fill="url(#paint15_linear_878_6642)"/>
<path d="M28.4333 3.68546C28.4333 3.38336 28.52 3.12801 28.3556 3.09572C28.5119 3.10568 29.8187 2.98236 29.9593 3.14639C30.1442 3.21897 30.0331 3.514 30.1778 3.65532C30.182 3.65944 30.1863 3.66358 30.1904 3.66777L39.5703 13.0477C39.5989 13.0763 39.6262 13.1059 39.6522 13.1365C39.7802 13.287 39.8462 13.2541 39.9064 13.4401C39.9543 13.5879 40.2979 13.2817 40.2979 13.4401L40.4132 13.6704V13.9921C40.4132 13.9921 40.4853 14.3683 40.2979 14.3683L30.5892 15.4502C29.0476 15.4502 27.5957 13.6781 27.5957 12.684L28.4333 3.68546Z" fill="url(#paint16_linear_878_6642)"/>
<path d="M30.0587 3.52137C30.0587 3.21927 29.8216 3.09968 29.6572 3.06738C29.8135 3.07734 29.9661 3.11163 30.1099 3.16809C30.2947 3.24067 30.465 3.34991 30.6097 3.49123C30.6139 3.49535 30.6181 3.49949 30.6223 3.50368L40.0021 12.8836C40.0307 12.9122 40.0581 12.9418 40.0841 12.9724C40.2121 13.1229 40.3084 13.2964 40.3686 13.4823C40.4165 13.6302 40.4415 13.7859 40.4415 13.9442V14.0389C40.4415 13.6906 40.1895 13.4823 40.0021 13.4823H31.8587C30.8646 13.4823 30.0587 12.6764 30.0587 11.6823V3.52137Z" fill="url(#paint17_linear_878_6642)"/>
<path d="M30.0587 3.52137C30.0587 3.21927 29.8216 3.09968 29.6572 3.06738C29.8135 3.07734 29.9661 3.11163 30.1099 3.16809C30.2947 3.24067 30.465 3.34991 30.6097 3.49123C30.6139 3.49535 30.6181 3.49949 30.6223 3.50368L40.0021 12.8836C40.0307 12.9122 40.0581 12.9418 40.0841 12.9724C40.2121 13.1229 40.3084 13.2964 40.3686 13.4823C40.4165 13.6302 40.4415 13.7859 40.4415 13.9442V14.0389C40.4415 13.6906 40.1895 13.4823 40.0021 13.4823H31.8587C30.8646 13.4823 30.0587 12.6764 30.0587 11.6823V3.52137Z" fill="url(#paint18_linear_878_6642)"/>
<path d="M30.0587 3.52137C30.0587 3.21927 29.8216 3.09968 29.6572 3.06738C29.8135 3.07734 29.9661 3.11163 30.1099 3.16809C30.2947 3.24067 30.465 3.34991 30.6097 3.49123C30.6139 3.49535 30.6181 3.49949 30.6223 3.50368L40.0021 12.8836C40.0307 12.9122 40.0581 12.9418 40.0841 12.9724C40.2121 13.1229 40.3084 13.2964 40.3686 13.4823C40.4165 13.6302 40.4415 13.7859 40.4415 13.9442V14.0389C40.4415 13.6906 40.1895 13.4823 40.0021 13.4823H31.8587C30.8646 13.4823 30.0587 12.6764 30.0587 11.6823V3.52137Z" fill="url(#paint19_linear_878_6642)"/>
<path d="M30.0587 3.52137C30.0587 3.21927 29.8216 3.09968 29.6572 3.06738C29.8135 3.07734 29.9661 3.11163 30.1099 3.16809C30.2947 3.24067 30.465 3.34991 30.6097 3.49123C30.6139 3.49535 30.6181 3.49949 30.6223 3.50368L40.0021 12.8836C40.0307 12.9122 40.0581 12.9418 40.0841 12.9724C40.2121 13.1229 40.3084 13.2964 40.3686 13.4823C40.4165 13.6302 40.4415 13.7859 40.4415 13.9442V14.0389C40.4415 13.6906 40.1895 13.4823 40.0021 13.4823H31.8587C30.8646 13.4823 30.0587 12.6764 30.0587 11.6823V3.52137Z" fill="url(#paint20_linear_878_6642)"/>
<path d="M30.0587 3.52137C30.0587 3.21927 29.8216 3.09968 29.6572 3.06738C29.8135 3.07734 29.9661 3.11163 30.1099 3.16809C30.2947 3.24067 30.465 3.34991 30.6097 3.49123C30.6139 3.49535 30.6181 3.49949 30.6223 3.50368L40.0021 12.8836C40.0307 12.9122 40.0581 12.9418 40.0841 12.9724C40.2121 13.1229 40.3084 13.2964 40.3686 13.4823C40.4165 13.6302 40.4415 13.7859 40.4415 13.9442V14.0389C40.4415 13.6906 40.1895 13.4823 40.0021 13.4823H31.8587C30.8646 13.4823 30.0587 12.6764 30.0587 11.6823V3.52137Z" fill="url(#paint21_radial_878_6642)"/>
<path d="M30.0587 3.52137C30.0587 3.21927 29.8216 3.09968 29.6572 3.06738C29.8135 3.07734 29.9661 3.11163 30.1099 3.16809C30.2947 3.24067 30.465 3.34991 30.6097 3.49123C30.6139 3.49535 30.6181 3.49949 30.6223 3.50368L40.0021 12.8836C40.0307 12.9122 40.0581 12.9418 40.0841 12.9724C40.2121 13.1229 40.3084 13.2964 40.3686 13.4823C40.4165 13.6302 40.4415 13.7859 40.4415 13.9442V14.0389C40.4415 13.6906 40.1895 13.4823 40.0021 13.4823H31.8587C30.8646 13.4823 30.0587 12.6764 30.0587 11.6823V3.52137Z" fill="url(#paint22_radial_878_6642)"/>
<path d="M30.0587 3.52137C30.0587 3.21927 29.8216 3.09968 29.6572 3.06738C29.8135 3.07734 29.9661 3.11163 30.1099 3.16809C30.2947 3.24067 30.465 3.34991 30.6097 3.49123C30.6139 3.49535 30.6181 3.49949 30.6223 3.50368L40.0021 12.8836C40.0307 12.9122 40.0581 12.9418 40.0841 12.9724C40.2121 13.1229 40.3084 13.2964 40.3686 13.4823C40.4165 13.6302 40.4415 13.7859 40.4415 13.9442V14.0389C40.4415 13.6906 40.1895 13.4823 40.0021 13.4823H31.8587C30.8646 13.4823 30.0587 12.6764 30.0587 11.6823V3.52137Z" fill="url(#paint23_radial_878_6642)"/>
<path d="M30.0587 3.52137C30.0587 3.21927 29.8216 3.09968 29.6572 3.06738C29.8135 3.07734 29.9661 3.11163 30.1099 3.16809C30.2947 3.24067 30.465 3.34991 30.6097 3.49123C30.6139 3.49535 30.6181 3.49949 30.6223 3.50368L40.0021 12.8836C40.0307 12.9122 40.0581 12.9418 40.0841 12.9724C40.2121 13.1229 40.3084 13.2964 40.3686 13.4823C40.4165 13.6302 40.4415 13.7859 40.4415 13.9442V14.0389C40.4415 13.6906 40.1895 13.4823 40.0021 13.4823H31.8587C30.8646 13.4823 30.0587 12.6764 30.0587 11.6823V3.52137Z" fill="url(#paint24_radial_878_6642)"/>
<path d="M30.0587 3.52137C30.0587 3.21927 29.8216 3.09968 29.6572 3.06738C29.8135 3.07734 29.9661 3.11163 30.1099 3.16809C30.2947 3.24067 30.465 3.34991 30.6097 3.49123C30.6139 3.49535 30.6181 3.49949 30.6223 3.50368L40.0021 12.8836C40.0307 12.9122 40.0581 12.9418 40.0841 12.9724C40.2121 13.1229 40.3084 13.2964 40.3686 13.4823C40.4165 13.6302 40.4415 13.7859 40.4415 13.9442V14.0389C40.4415 13.6906 40.1895 13.4823 40.0021 13.4823H31.8587C30.8646 13.4823 30.0587 12.6764 30.0587 11.6823V3.52137Z" fill="url(#paint25_radial_878_6642)"/>
<path d="M26.5391 31.4941C26.813 31.4941 27.0352 31.7162 27.0352 31.9902V32.4863C27.0352 32.7603 26.813 32.9824 26.5391 32.9824H14.0547C13.7807 32.9824 13.5586 32.7603 13.5586 32.4863V31.9902C13.5586 31.7162 13.7807 31.4941 14.0547 31.4941H26.5391ZM33.9336 26.9941C34.2076 26.9941 34.4297 27.2162 34.4297 27.4902V27.9863C34.4297 28.2603 34.2076 28.4824 33.9336 28.4824H14.0547C13.7807 28.4824 13.5586 28.2603 13.5586 27.9863V27.4902C13.5586 27.2162 13.7807 26.9941 14.0547 26.9941H33.9336ZM33.9336 22.4941C34.2076 22.4941 34.4297 22.7162 34.4297 22.9902V23.4863C34.4297 23.7603 34.2076 23.9824 33.9336 23.9824H14.0547C13.7807 23.9824 13.5586 23.7603 13.5586 23.4863V22.9902C13.5586 22.7162 13.7807 22.4941 14.0547 22.4941H33.9336ZM33.9336 17.9941C34.2076 17.9941 34.4297 18.2162 34.4297 18.4902V18.9863C34.4297 19.2603 34.2076 19.4824 33.9336 19.4824H14.0547C13.7807 19.4824 13.5586 19.2603 13.5586 18.9863V18.4902C13.5586 18.2162 13.7807 17.9941 14.0547 17.9941H33.9336Z" fill="url(#paint26_linear_878_6642)"/>
<defs>
<linearGradient id="paint0_linear_878_6642" x1="24" y1="3.06445" x2="24" y2="44.9355" gradientUnits="userSpaceOnUse">
<stop stop-color="#EBE4F3"/>
<stop offset="1" stop-color="#E4DAF0"/>
</linearGradient>
<linearGradient id="paint1_linear_878_6642" x1="24" y1="3.2547" x2="24" y2="3.60505" gradientUnits="userSpaceOnUse">
<stop stop-color="#F3F0F6"/>
<stop offset="1" stop-color="#F3F0F6" stop-opacity="0"/>
</linearGradient>
<linearGradient id="paint2_linear_878_6642" x1="40.4414" y1="22.962" x2="39.928" y2="22.962" gradientUnits="userSpaceOnUse">
<stop stop-color="#F3F0F6"/>
<stop offset="1" stop-color="#F3F0F6" stop-opacity="0"/>
</linearGradient>
<linearGradient id="paint3_linear_878_6642" x1="40.7845" y1="22.962" x2="40.1808" y2="22.962" gradientUnits="userSpaceOnUse">
<stop stop-color="#B9A6CC"/>
<stop offset="1" stop-color="#B9A6CC" stop-opacity="0"/>
</linearGradient>
<linearGradient id="paint4_linear_878_6642" x1="6.33006" y1="22.962" x2="7.83083" y2="22.9648" gradientUnits="userSpaceOnUse">
<stop stop-color="#B5B0BB"/>
<stop offset="1" stop-color="#B5B0BB" stop-opacity="0"/>
</linearGradient>
<linearGradient id="paint5_linear_878_6642" x1="26.2786" y1="45.7333" x2="26.2786" y2="44.655" gradientUnits="userSpaceOnUse">
<stop stop-color="#B5B0BB"/>
<stop offset="1" stop-color="#B5B0BB" stop-opacity="0"/>
</linearGradient>
<radialGradient id="paint6_radial_878_6642" cx="0" cy="0" r="1" gradientUnits="userSpaceOnUse" gradientTransform="translate(8.43067 45.2123) rotate(-72.992) scale(0.778723 2.52766)">
<stop stop-color="#B5B0BB"/>
<stop offset="1" stop-color="#B5B0BB" stop-opacity="0"/>
</radialGradient>
<radialGradient id="paint7_radial_878_6642" cx="0" cy="0" r="1" gradientUnits="userSpaceOnUse" gradientTransform="translate(7.76486 44.6341) rotate(-60.2552) scale(0.706315 2.29263)">
<stop stop-color="#B5B0BB"/>
<stop offset="1" stop-color="#B5B0BB" stop-opacity="0"/>
</radialGradient>
<radialGradient id="paint8_radial_878_6642" cx="0" cy="0" r="1" gradientUnits="userSpaceOnUse" gradientTransform="translate(7.50203 43.8719) rotate(-38.6597) scale(0.504866 1.63874)">
<stop stop-color="#B5B0BB"/>
<stop offset="1" stop-color="#B5B0BB" stop-opacity="0"/>
</radialGradient>
<linearGradient id="paint9_linear_878_6642" x1="6.88214" y1="42.862" x2="7.9302" y2="42.862" gradientUnits="userSpaceOnUse">
<stop stop-color="#B5B0BB"/>
<stop offset="1" stop-color="#B5B0BB" stop-opacity="0"/>
</linearGradient>
<linearGradient id="paint10_linear_878_6642" x1="6.40788" y1="3.46775" x2="8.3657" y2="4.31827" gradientUnits="userSpaceOnUse">
<stop stop-color="#B5B0BB"/>
<stop offset="1" stop-color="#B5B0BB" stop-opacity="0"/>
</linearGradient>
<linearGradient id="paint11_linear_878_6642" x1="6.75382" y1="22.3876" x2="8.26842" y2="22.3876" gradientUnits="userSpaceOnUse">
<stop stop-color="#B9A6CC"/>
<stop offset="1" stop-color="#B9A6CC" stop-opacity="0"/>
</linearGradient>
<linearGradient id="paint12_linear_878_6642" x1="24" y1="44.9355" x2="24" y2="44.5792" gradientUnits="userSpaceOnUse">
<stop stop-color="#B9A6CC"/>
<stop offset="1" stop-color="#B9A6CC" stop-opacity="0"/>
</linearGradient>
<linearGradient id="paint13_linear_878_6642" x1="39.6154" y1="44.6773" x2="39.3984" y2="44.2734" gradientUnits="userSpaceOnUse">
<stop stop-color="#B9A6CC"/>
<stop offset="1" stop-color="#B9A6CC" stop-opacity="0"/>
</linearGradient>
<linearGradient id="paint14_linear_878_6642" x1="31.9574" y1="7.40113" x2="29.3826" y2="7.40113" gradientUnits="userSpaceOnUse">
<stop offset="0.72" stop-color="#D2C5DE"/>
<stop offset="1" stop-color="#D2C5DF" stop-opacity="0"/>
</linearGradient>
<linearGradient id="paint15_linear_878_6642" x1="35.5873" y1="16.8404" x2="35.5688" y2="13.4427" gradientUnits="userSpaceOnUse">
<stop offset="0.72" stop-color="#E9E1F3"/>
<stop offset="1" stop-color="#E9E1F3" stop-opacity="0"/>
</linearGradient>
<linearGradient id="paint16_linear_878_6642" x1="30.7264" y1="12.3929" x2="28.1823" y2="16.3793" gradientUnits="userSpaceOnUse">
<stop stop-color="#E9E1F3" stop-opacity="0"/>
<stop offset="0.682292" stop-color="#E9E1F3"/>
</linearGradient>
<linearGradient id="paint17_linear_878_6642" x1="30.8087" y1="13.0604" x2="34.7696" y2="9.0995" gradientUnits="userSpaceOnUse">
<stop stop-color="#D9D3E1"/>
<stop offset="1" stop-color="#CCC7D1"/>
</linearGradient>
<linearGradient id="paint18_linear_878_6642" x1="35.6602" y1="8.32606" x2="34.6993" y2="9.26356" gradientUnits="userSpaceOnUse">
<stop offset="0.119171" stop-color="#DBDADC"/>
<stop offset="0.577307" stop-color="#CBC7D0" stop-opacity="0"/>
</linearGradient>
<linearGradient id="paint19_linear_878_6642" x1="30.0235" y1="7.12243" x2="30.2451" y2="7.12243" gradientUnits="userSpaceOnUse">
<stop stop-color="#A19CA7"/>
<stop offset="1" stop-color="#9D9CA7" stop-opacity="0"/>
</linearGradient>
<linearGradient id="paint20_linear_878_6642" x1="35.0494" y1="13.5526" x2="35.0494" y2="13.248" gradientUnits="userSpaceOnUse">
<stop stop-color="#C0ACD5"/>
<stop offset="1" stop-color="#C0ACD5" stop-opacity="0"/>
</linearGradient>
<radialGradient id="paint21_radial_878_6642" cx="0" cy="0" r="1" gradientUnits="userSpaceOnUse" gradientTransform="translate(31.3271 13.6472) rotate(-81.1582) scale(0.554736 3.21235)">
<stop stop-color="#C0ACD5"/>
<stop offset="1" stop-color="#C0ACD5" stop-opacity="0"/>
</radialGradient>
<radialGradient id="paint22_radial_878_6642" cx="0" cy="0" r="1" gradientUnits="userSpaceOnUse" gradientTransform="translate(30.4866 13.233) rotate(-40.8602) scale(0.512627 2.96851)">
<stop stop-color="#A19CA7"/>
<stop offset="1" stop-color="#A19CA7" stop-opacity="0"/>
</radialGradient>
<radialGradient id="paint23_radial_878_6642" cx="0" cy="0" r="1" gradientUnits="userSpaceOnUse" gradientTransform="translate(30.051 12.7565) rotate(-24.7752) scale(0.505174 2.92535)">
<stop stop-color="#A19CA7"/>
<stop offset="1" stop-color="#A19CA7" stop-opacity="0"/>
</radialGradient>
<radialGradient id="paint24_radial_878_6642" cx="0" cy="0" r="1" gradientUnits="userSpaceOnUse" gradientTransform="translate(29.7568 12.2356) rotate(-6.45541) scale(0.633263 3.66708)">
<stop stop-color="#A19CA7"/>
<stop offset="1" stop-color="#A19CA7" stop-opacity="0"/>
</radialGradient>
<radialGradient id="paint25_radial_878_6642" cx="0" cy="0" r="1" gradientUnits="userSpaceOnUse" gradientTransform="translate(30.6999 13.3288) rotate(-59.8587) scale(0.413225 2.39289)">
<stop stop-color="#A19CA7"/>
<stop offset="1" stop-color="#A19CA7" stop-opacity="0"/>
</radialGradient>
<linearGradient id="paint26_linear_878_6642" x1="13.5586" y1="32.2383" x2="27.0352" y2="32.2383" gradientUnits="userSpaceOnUse">
<stop stop-color="#9C96A2"/>
<stop offset="1" stop-color="#9A95A1"/>
</linearGradient>
</defs>
</svg>
