<svg width="40" height="36" viewBox="0 0 40 36" fill="none" xmlns="http://www.w3.org/2000/svg">
<rect width="40" height="36" rx="6" fill="#F7C0EF"/>
<path d="M29.75 17.5005C29.75 16.9038 29.5129 16.3315 29.091 15.9095C28.669 15.4875 28.0967 15.2505 27.5 15.2505H20.75V14.4067C21.3937 14.2395 21.9638 13.8635 22.371 13.3376C22.7782 12.8117 22.9994 12.1656 23 11.5005C23 8.87549 20.5212 7.19642 20.4163 7.12611C20.293 7.04388 20.1482 7 20 7C19.8518 7 19.707 7.04388 19.5837 7.12611C19.4788 7.19642 17 8.87549 17 11.5005C17.0006 12.1656 17.2218 12.8117 17.629 13.3376C18.0362 13.8635 18.6063 14.2395 19.25 14.4067V15.2505H12.5C11.9033 15.2505 11.331 15.4875 10.909 15.9095C10.4871 16.3315 10.25 16.9038 10.25 17.5005V19.6877C10.2508 20.5059 10.5136 21.3023 11 21.9602V25.7505C11 26.3472 11.2371 26.9195 11.659 27.3415C12.081 27.7634 12.6533 28.0005 13.25 28.0005H26.75C27.3467 28.0005 27.919 27.7634 28.341 27.3415C28.7629 26.9195 29 26.3472 29 25.7505V21.9602C29.4864 21.3023 29.7492 20.5059 29.75 19.6877V17.5005ZM18.5 11.5005C18.5 10.2283 19.4375 9.20736 20 8.70767C20.5625 9.20736 21.5 10.2283 21.5 11.5005C21.5 11.8983 21.342 12.2798 21.0607 12.5611C20.7794 12.8425 20.3978 13.0005 20 13.0005C19.6022 13.0005 19.2206 12.8425 18.9393 12.5611C18.658 12.2798 18.5 11.8983 18.5 11.5005ZM11.75 17.5005C11.75 17.3016 11.829 17.1108 11.9697 16.9702C12.1103 16.8295 12.3011 16.7505 12.5 16.7505H27.5C27.6989 16.7505 27.8897 16.8295 28.0303 16.9702C28.171 17.1108 28.25 17.3016 28.25 17.5005V19.6877C28.25 20.9299 27.2694 21.9667 26.0637 21.9996C25.763 22.0081 25.4637 21.9562 25.1833 21.847C24.903 21.7378 24.6474 21.5735 24.4317 21.3638C24.216 21.1542 24.0445 20.9033 23.9274 20.6262C23.8103 20.3491 23.75 20.0513 23.75 19.7505C23.75 19.5516 23.671 19.3608 23.5303 19.2202C23.3897 19.0795 23.1989 19.0005 23 19.0005C22.8011 19.0005 22.6103 19.0795 22.4697 19.2202C22.329 19.3608 22.25 19.5516 22.25 19.7505C22.25 20.3472 22.0129 20.9195 21.591 21.3415C21.169 21.7634 20.5967 22.0005 20 22.0005C19.4033 22.0005 18.831 21.7634 18.409 21.3415C17.9871 20.9195 17.75 20.3472 17.75 19.7505C17.75 19.5516 17.671 19.3608 17.5303 19.2202C17.3897 19.0795 17.1989 19.0005 17 19.0005C16.8011 19.0005 16.6103 19.0795 16.4697 19.2202C16.329 19.3608 16.25 19.5516 16.25 19.7505C16.2501 20.0514 16.1899 20.3493 16.0728 20.6265C15.9558 20.9037 15.7843 21.1547 15.5686 21.3644C15.3529 21.5742 15.0973 21.7386 14.8169 21.8479C14.5365 21.9571 14.237 22.009 13.9362 22.0005C12.7306 21.9667 11.75 20.9299 11.75 19.6877V17.5005ZM26.75 26.5005H13.25C13.0511 26.5005 12.8603 26.4215 12.7197 26.2808C12.579 26.1402 12.5 25.9494 12.5 25.7505V23.178C12.939 23.3769 13.4132 23.4865 13.895 23.5005C14.3962 23.5161 14.8955 23.4302 15.3627 23.248C15.8299 23.0658 16.2554 22.791 16.6137 22.4402C16.7537 22.3038 16.8828 22.1568 17 22.0005C17.3493 22.4662 17.8022 22.8442 18.3229 23.1046C18.8437 23.3649 19.4178 23.5005 20 23.5005C20.5822 23.5005 21.1563 23.3649 21.6771 23.1046C22.1978 22.8442 22.6507 22.4662 23 22.0005C23.1176 22.1562 23.247 22.3026 23.3872 22.4383C24.0849 23.1217 25.0234 23.5032 26 23.5005C26.0356 23.5005 26.0712 23.5005 26.1069 23.5005C26.588 23.4863 27.0616 23.3767 27.5 23.178V25.7505C27.5 25.9494 27.421 26.1402 27.2803 26.2808C27.1397 26.4215 26.9489 26.5005 26.75 26.5005Z" fill="#D00076"/>
</svg>
