<svg width="40" height="40" viewBox="0 0 40 40" fill="none" xmlns="http://www.w3.org/2000/svg">
<path opacity="0.2" d="M28.7499 18.75V28.3828C28.7498 28.7139 28.6183 29.0314 28.3843 29.2656L23.0171 34.6328C22.8529 34.7967 22.6463 34.9116 22.4204 34.9647C22.1946 35.0179 21.9584 35.0071 21.7384 34.9336C21.5183 34.8602 21.323 34.7269 21.1744 34.5488C21.0258 34.3706 20.9296 34.1547 20.8968 33.925L19.9999 27.5L28.7499 18.75ZM21.2499 11.25H11.6171C11.286 11.2502 10.9685 11.3816 10.7343 11.6156L5.3671 16.9828C5.20323 17.147 5.0883 17.3536 5.03517 17.5795C4.98204 17.8053 4.99281 18.0415 5.06627 18.2615C5.13974 18.4816 5.27299 18.6769 5.45113 18.8255C5.62926 18.9741 5.84525 19.0703 6.07491 19.1031L12.4999 20L21.2499 11.25ZM6.24991 33.75C12.1327 33.75 14.1702 30.6734 14.7749 29.3469L10.653 25.225C9.32648 25.8297 6.24991 27.8672 6.24991 33.75Z" fill="#2E7D32"/>
<path d="M34.977 7.36288C34.9399 6.75339 34.6811 6.17853 34.2493 5.74676C33.8176 5.31499 33.2427 5.05617 32.6332 5.01913C30.6676 4.90194 25.6442 5.08163 21.4754 9.24882L20.7332 10.0004H11.6192C11.2896 9.99853 10.963 10.0622 10.6582 10.1878C10.3535 10.3133 10.0768 10.4982 9.84416 10.7316L4.48479 16.0941C4.15611 16.4226 3.92548 16.8361 3.81877 17.2884C3.71206 17.7406 3.7335 18.2136 3.88068 18.6544C4.02786 19.0951 4.29496 19.4861 4.652 19.7835C5.00904 20.0809 5.44189 20.2728 5.90198 20.3379L11.9129 21.1769L18.8207 28.0848L19.6598 34.0988C19.7243 34.5589 19.9162 34.9918 20.2139 35.3486C20.5116 35.7053 20.9031 35.9717 21.3442 36.1176C21.6011 36.2034 21.8702 36.2472 22.141 36.2473C22.469 36.2479 22.7939 36.1836 23.0969 36.0581C23.4 35.9326 23.6752 35.7483 23.9067 35.516L29.2692 30.1566C29.5026 29.924 29.6875 29.6473 29.813 29.3426C29.9386 29.0378 30.0023 28.7112 30.0004 28.3816V19.2676L30.7457 18.5223C34.9145 14.3535 35.0942 9.33007 34.977 7.36288ZM11.6192 12.5004H18.2332L12.0567 18.6754L6.25041 17.866L11.6192 12.5004ZM23.2457 11.0238C24.4469 9.81528 25.892 8.87695 27.4848 8.2715C29.0775 7.66605 30.781 7.40742 32.4817 7.51288C32.5912 9.21441 32.3353 10.9197 31.731 12.5141C31.1268 14.1085 30.1883 15.5551 28.9785 16.7566L20.0004 25.7316L14.2692 20.0004L23.2457 11.0238ZM27.5004 28.3816L22.1364 33.7504L21.3254 27.9426L27.5004 21.7676V28.3816ZM15.9129 29.866C15.2098 31.4066 12.8582 35.0004 6.25041 35.0004C5.91889 35.0004 5.60095 34.8687 5.36653 34.6343C5.13211 34.3998 5.00041 34.0819 5.00041 33.7504C5.00041 27.1426 8.59416 24.791 10.1348 24.0863C10.2842 24.0182 10.4455 23.9802 10.6096 23.9744C10.7737 23.9686 10.9373 23.9952 11.0911 24.0527C11.2449 24.1101 11.3858 24.1973 11.5059 24.3093C11.626 24.4212 11.7229 24.5557 11.791 24.7051C11.8592 24.8544 11.8972 25.0158 11.903 25.1799C11.9087 25.3439 11.8821 25.5075 11.8247 25.6613C11.7672 25.8151 11.68 25.9561 11.5681 26.0762C11.4562 26.1963 11.3217 26.2932 11.1723 26.3613C10.1676 26.8191 7.95041 28.2926 7.55979 32.441C11.7082 32.0504 13.1848 29.8332 13.6395 28.8285C13.7076 28.6791 13.8045 28.5446 13.9246 28.4327C14.0447 28.3208 14.1857 28.2336 14.3395 28.1761C14.4933 28.1187 14.6569 28.0921 14.8209 28.0978C14.985 28.1036 15.1463 28.1416 15.2957 28.2098C15.4451 28.2779 15.5796 28.3748 15.6915 28.4949C15.8035 28.615 15.8907 28.7559 15.9481 28.9097C16.0056 29.0635 16.0322 29.2271 16.0264 29.3912C16.0206 29.5553 15.9826 29.7166 15.9145 29.866H15.9129Z" fill="#2E7D32"/>
</svg>
