<svg width="36" height="36" viewBox="0 0 36 36" fill="none" xmlns="http://www.w3.org/2000/svg">
<rect width="36" height="36" rx="6" fill="#C0E0F7"/>
<path d="M24.875 13.375H21.75V12.75C21.75 12.2527 21.5525 11.7758 21.2008 11.4242C20.8492 11.0725 20.3723 10.875 19.875 10.875H16.125C15.6277 10.875 15.1508 11.0725 14.7992 11.4242C14.4475 11.7758 14.25 12.2527 14.25 12.75V13.375H11.125C10.7935 13.375 10.4755 13.5067 10.2411 13.7411C10.0067 13.9755 9.875 14.2935 9.875 14.625V24.625C9.875 24.9565 10.0067 25.2745 10.2411 25.5089C10.4755 25.7433 10.7935 25.875 11.125 25.875H24.875C25.2065 25.875 25.5245 25.7433 25.7589 25.5089C25.9933 25.2745 26.125 24.9565 26.125 24.625V14.625C26.125 14.2935 25.9933 13.9755 25.7589 13.7411C25.5245 13.5067 25.2065 13.375 24.875 13.375ZM15.5 12.75C15.5 12.5842 15.5658 12.4253 15.6831 12.3081C15.8003 12.1908 15.9592 12.125 16.125 12.125H19.875C20.0408 12.125 20.1997 12.1908 20.3169 12.3081C20.4342 12.4253 20.5 12.5842 20.5 12.75V13.375H15.5V12.75ZM24.875 14.625V20.25H11.125V14.625H24.875ZM24.875 24.625H11.125V21.5H24.875V24.625Z" fill="#1373B6"/>
</svg>
