<svg width="17" height="17" viewBox="0 0 17 17" fill="none" xmlns="http://www.w3.org/2000/svg">
<path d="M0.944444 0H16.0556C16.32 0 16.5435 0.0912952 16.7261 0.273888C16.9087 0.456482 17 0.68 17 0.944445V16.0556C17 16.32 16.9087 16.5435 16.7261 16.7261C16.5435 16.9087 16.32 17 16.0556 17H0.944444C0.68 17 0.456481 16.9087 0.273889 16.7261C0.0912963 16.5435 0 16.32 0 16.0556V0.944445C0 0.68 0.0912963 0.456482 0.273889 0.273888C0.456481 0.0912952 0.68 0 0.944444 0ZM1.88889 1.88889V15.1111H15.1111V1.88889H1.88889ZM4.25 5.66667C3.85963 5.66667 3.52593 5.52815 3.24889 5.25111C2.97185 4.97407 2.83333 4.64037 2.83333 4.25C2.83333 3.85963 2.97185 3.52593 3.24889 3.24889C3.52593 2.97185 3.85963 2.83333 4.25 2.83333C4.64037 2.83333 4.97407 2.97185 5.25111 3.24889C5.52815 3.52593 5.66667 3.85963 5.66667 4.25C5.66667 4.64037 5.52815 4.97407 5.25111 5.25111C4.97407 5.52815 4.64037 5.66667 4.25 5.66667ZM3.30556 6.61111H5.19444V13.6944H3.30556V6.61111ZM8.5 7.00778C9.10444 6.42852 9.73093 6.13889 10.3794 6.13889C11.028 6.13889 11.6009 6.2963 12.0983 6.61111C12.5957 6.92593 12.9861 7.35407 13.2694 7.89556C13.5528 8.43704 13.6944 9.03518 13.6944 9.69V13.6944H11.8056V9.67111C11.8056 9.21778 11.645 8.83056 11.3239 8.50944C11.0028 8.18833 10.6124 8.02778 10.1528 8.02778C9.69315 8.02778 9.30278 8.18833 8.98167 8.50944C8.66056 8.83056 8.5 9.21778 8.5 9.67111V13.6944H6.61111V6.61111H8.5V7.00778Z" fill="#9333EA"/>
</svg>
