<svg width="37" height="36" viewBox="0 0 37 36" fill="none" xmlns="http://www.w3.org/2000/svg">
<path d="M18.4987 33.7475C29 33.7475 34.2475 26.6965 34.2475 17.9987C34.2475 9.30095 29 2.25 18.4987 2.25C7.99749 2.25 2.75 9.30095 2.75 17.9987C2.75 26.6965 7.99749 33.7475 18.4987 33.7475Z" fill="url(#paint0_radial_878_6440)"/>
<path d="M18.4987 33.7475C29 33.7475 34.2475 26.6965 34.2475 17.9987C34.2475 9.30095 29 2.25 18.4987 2.25C7.99749 2.25 2.75 9.30095 2.75 17.9987C2.75 26.6965 7.99749 33.7475 18.4987 33.7475Z" fill="url(#paint1_radial_878_6440)"/>
<path d="M18.4987 33.7475C29 33.7475 34.2475 26.6965 34.2475 17.9987C34.2475 9.30095 29 2.25 18.4987 2.25C7.99749 2.25 2.75 9.30095 2.75 17.9987C2.75 26.6965 7.99749 33.7475 18.4987 33.7475Z" fill="url(#paint2_radial_878_6440)"/>
<path d="M18.4987 33.7475C29 33.7475 34.2475 26.6965 34.2475 17.9987C34.2475 9.30095 29 2.25 18.4987 2.25C7.99749 2.25 2.75 9.30095 2.75 17.9987C2.75 26.6965 7.99749 33.7475 18.4987 33.7475Z" fill="url(#paint3_radial_878_6440)" fill-opacity="0.6"/>
<path d="M18.4987 33.7475C29 33.7475 34.2475 26.6965 34.2475 17.9987C34.2475 9.30095 29 2.25 18.4987 2.25C7.99749 2.25 2.75 9.30095 2.75 17.9987C2.75 26.6965 7.99749 33.7475 18.4987 33.7475Z" fill="url(#paint4_radial_878_6440)"/>
<path d="M18.4987 33.7475C29 33.7475 34.2475 26.6965 34.2475 17.9987C34.2475 9.30095 29 2.25 18.4987 2.25C7.99749 2.25 2.75 9.30095 2.75 17.9987C2.75 26.6965 7.99749 33.7475 18.4987 33.7475Z" fill="url(#paint5_radial_878_6440)"/>
<path d="M18.4987 33.7475C29 33.7475 34.2475 26.6965 34.2475 17.9987C34.2475 9.30095 29 2.25 18.4987 2.25C7.99749 2.25 2.75 9.30095 2.75 17.9987C2.75 26.6965 7.99749 33.7475 18.4987 33.7475Z" fill="url(#paint6_radial_878_6440)"/>
<path d="M18.4987 33.7475C29 33.7475 34.2475 26.6965 34.2475 17.9987C34.2475 9.30095 29 2.25 18.4987 2.25C7.99749 2.25 2.75 9.30095 2.75 17.9987C2.75 26.6965 7.99749 33.7475 18.4987 33.7475Z" fill="url(#paint7_radial_878_6440)"/>
<path d="M18.4987 33.7475C29 33.7475 34.2475 26.6965 34.2475 17.9987C34.2475 9.30095 29 2.25 18.4987 2.25C7.99749 2.25 2.75 9.30095 2.75 17.9987C2.75 26.6965 7.99749 33.7475 18.4987 33.7475Z" fill="url(#paint8_radial_878_6440)"/>
<path d="M18.4987 33.7475C29 33.7475 34.2475 26.6965 34.2475 17.9987C34.2475 9.30095 29 2.25 18.4987 2.25C7.99749 2.25 2.75 9.30095 2.75 17.9987C2.75 26.6965 7.99749 33.7475 18.4987 33.7475Z" fill="url(#paint9_radial_878_6440)"/>
<path d="M18.4987 33.7475C29 33.7475 34.2475 26.6965 34.2475 17.9987C34.2475 9.30095 29 2.25 18.4987 2.25C7.99749 2.25 2.75 9.30095 2.75 17.9987C2.75 26.6965 7.99749 33.7475 18.4987 33.7475Z" fill="url(#paint10_radial_878_6440)"/>
<path d="M18.4987 33.7475C29 33.7475 34.2475 26.6965 34.2475 17.9987C34.2475 9.30095 29 2.25 18.4987 2.25C7.99749 2.25 2.75 9.30095 2.75 17.9987C2.75 26.6965 7.99749 33.7475 18.4987 33.7475Z" fill="url(#paint11_radial_878_6440)"/>
<path d="M18.4987 33.7475C29 33.7475 34.2475 26.6965 34.2475 17.9987C34.2475 9.30095 29 2.25 18.4987 2.25C7.99749 2.25 2.75 9.30095 2.75 17.9987C2.75 26.6965 7.99749 33.7475 18.4987 33.7475Z" fill="url(#paint12_radial_878_6440)"/>
<path d="M18.4987 33.7475C29 33.7475 34.2475 26.6965 34.2475 17.9987C34.2475 9.30095 29 2.25 18.4987 2.25C7.99749 2.25 2.75 9.30095 2.75 17.9987C2.75 26.6965 7.99749 33.7475 18.4987 33.7475Z" fill="url(#paint13_radial_878_6440)"/>
<path d="M10.465 14.6245L6.85236 17.4343C6.57616 17.6491 6.17675 17.4308 6.20843 17.0823L6.5696 13.1094C6.64127 12.321 6.24114 11.5645 5.5491 11.1801L3.00399 9.7661C2.45167 9.45926 2.50304 8.64878 3.08968 8.41413L6.24409 7.15236C6.87162 6.90135 7.32992 6.35039 7.46247 5.68764L8.05919 2.70407C8.18124 2.09379 8.96779 1.91538 9.3412 2.41327L11.0804 4.73217C11.4966 5.28711 12.1706 5.58676 12.8615 5.52396L17.0414 5.14396C17.3866 5.11259 17.6056 5.50507 17.3976 5.78232L15.2369 8.66331C14.8181 9.2217 14.7207 9.95803 14.9799 10.6061L16.6411 14.759C16.7148 14.9433 16.5546 15.1359 16.36 15.097L12.0851 14.242C11.5151 14.128 10.9238 14.2676 10.465 14.6245Z" fill="url(#paint14_linear_878_6440)"/>
<path d="M10.465 14.6245L6.85236 17.4343C6.57616 17.6491 6.17675 17.4308 6.20843 17.0823L6.5696 13.1094C6.64127 12.321 6.24114 11.5645 5.5491 11.1801L3.00399 9.7661C2.45167 9.45926 2.50304 8.64878 3.08968 8.41413L6.24409 7.15236C6.87162 6.90135 7.32992 6.35039 7.46247 5.68764L8.05919 2.70407C8.18124 2.09379 8.96779 1.91538 9.3412 2.41327L11.0804 4.73217C11.4966 5.28711 12.1706 5.58676 12.8615 5.52396L17.0414 5.14396C17.3866 5.11259 17.6056 5.50507 17.3976 5.78232L15.2369 8.66331C14.8181 9.2217 14.7207 9.95803 14.9799 10.6061L16.6411 14.759C16.7148 14.9433 16.5546 15.1359 16.36 15.097L12.0851 14.242C11.5151 14.128 10.9238 14.2676 10.465 14.6245Z" fill="url(#paint15_radial_878_6440)"/>
<path d="M10.465 14.6245L6.85236 17.4343C6.57616 17.6491 6.17675 17.4308 6.20843 17.0823L6.5696 13.1094C6.64127 12.321 6.24114 11.5645 5.5491 11.1801L3.00399 9.7661C2.45167 9.45926 2.50304 8.64878 3.08968 8.41413L6.24409 7.15236C6.87162 6.90135 7.32992 6.35039 7.46247 5.68764L8.05919 2.70407C8.18124 2.09379 8.96779 1.91538 9.3412 2.41327L11.0804 4.73217C11.4966 5.28711 12.1706 5.58676 12.8615 5.52396L17.0414 5.14396C17.3866 5.11259 17.6056 5.50507 17.3976 5.78232L15.2369 8.66331C14.8181 9.2217 14.7207 9.95803 14.9799 10.6061L16.6411 14.759C16.7148 14.9433 16.5546 15.1359 16.36 15.097L12.0851 14.242C11.5151 14.128 10.9238 14.2676 10.465 14.6245Z" fill="url(#paint16_radial_878_6440)"/>
<path d="M26.535 14.6245L30.1476 17.4343C30.4238 17.6491 30.8233 17.4308 30.7916 17.0823L30.4304 13.1094C30.3587 12.321 30.7589 11.5645 31.4509 11.1801L33.996 9.7661C34.5483 9.45926 34.497 8.64878 33.9103 8.41413L30.7559 7.15236C30.1284 6.90135 29.6701 6.35039 29.5375 5.68764L28.9408 2.70407C28.8188 2.09379 28.0322 1.91538 27.6588 2.41327L25.9196 4.73217C25.5034 5.28711 24.8294 5.58676 24.1385 5.52396L19.9586 5.14396C19.6134 5.11259 19.3944 5.50507 19.6024 5.78232L21.7631 8.66331C22.1819 9.2217 22.2793 9.95803 22.0201 10.6061L20.3589 14.759C20.2852 14.9433 20.4454 15.1359 20.64 15.097L24.9149 14.242C25.4849 14.128 26.0762 14.2676 26.535 14.6245Z" fill="url(#paint17_linear_878_6440)"/>
<path d="M26.535 14.6245L30.1476 17.4343C30.4238 17.6491 30.8233 17.4308 30.7916 17.0823L30.4304 13.1094C30.3587 12.321 30.7589 11.5645 31.4509 11.1801L33.996 9.7661C34.5483 9.45926 34.497 8.64878 33.9103 8.41413L30.7559 7.15236C30.1284 6.90135 29.6701 6.35039 29.5375 5.68764L28.9408 2.70407C28.8188 2.09379 28.0322 1.91538 27.6588 2.41327L25.9196 4.73217C25.5034 5.28711 24.8294 5.58676 24.1385 5.52396L19.9586 5.14396C19.6134 5.11259 19.3944 5.50507 19.6024 5.78232L21.7631 8.66331C22.1819 9.2217 22.2793 9.95803 22.0201 10.6061L20.3589 14.759C20.2852 14.9433 20.4454 15.1359 20.64 15.097L24.9149 14.242C25.4849 14.128 26.0762 14.2676 26.535 14.6245Z" fill="url(#paint18_radial_878_6440)"/>
<path d="M26.535 14.6245L30.1476 17.4343C30.4238 17.6491 30.8233 17.4308 30.7916 17.0823L30.4304 13.1094C30.3587 12.321 30.7589 11.5645 31.4509 11.1801L33.996 9.7661C34.5483 9.45926 34.497 8.64878 33.9103 8.41413L30.7559 7.15236C30.1284 6.90135 29.6701 6.35039 29.5375 5.68764L28.9408 2.70407C28.8188 2.09379 28.0322 1.91538 27.6588 2.41327L25.9196 4.73217C25.5034 5.28711 24.8294 5.58676 24.1385 5.52396L19.9586 5.14396C19.6134 5.11259 19.3944 5.50507 19.6024 5.78232L21.7631 8.66331C22.1819 9.2217 22.2793 9.95803 22.0201 10.6061L20.3589 14.759C20.2852 14.9433 20.4454 15.1359 20.64 15.097L24.9149 14.242C25.4849 14.128 26.0762 14.2676 26.535 14.6245Z" fill="url(#paint19_radial_878_6440)"/>
<path d="M26.535 14.6245L30.1476 17.4343C30.4238 17.6491 30.8233 17.4308 30.7916 17.0823L30.4304 13.1094C30.3587 12.321 30.7589 11.5645 31.4509 11.1801L33.996 9.7661C34.5483 9.45926 34.497 8.64878 33.9103 8.41413L30.7559 7.15236C30.1284 6.90135 29.6701 6.35039 29.5375 5.68764L28.9408 2.70407C28.8188 2.09379 28.0322 1.91538 27.6588 2.41327L25.9196 4.73217C25.5034 5.28711 24.8294 5.58676 24.1385 5.52396L19.9586 5.14396C19.6134 5.11259 19.3944 5.50507 19.6024 5.78232L21.7631 8.66331C22.1819 9.2217 22.2793 9.95803 22.0201 10.6061L20.3589 14.759C20.2852 14.9433 20.4454 15.1359 20.64 15.097L24.9149 14.242C25.4849 14.128 26.0762 14.2676 26.535 14.6245Z" fill="url(#paint20_radial_878_6440)"/>
<path d="M26.535 14.6245L30.1476 17.4343C30.4238 17.6491 30.8233 17.4308 30.7916 17.0823L30.4304 13.1094C30.3587 12.321 30.7589 11.5645 31.4509 11.1801L33.996 9.7661C34.5483 9.45926 34.497 8.64878 33.9103 8.41413L30.7559 7.15236C30.1284 6.90135 29.6701 6.35039 29.5375 5.68764L28.9408 2.70407C28.8188 2.09379 28.0322 1.91538 27.6588 2.41327L25.9196 4.73217C25.5034 5.28711 24.8294 5.58676 24.1385 5.52396L19.9586 5.14396C19.6134 5.11259 19.3944 5.50507 19.6024 5.78232L21.7631 8.66331C22.1819 9.2217 22.2793 9.95803 22.0201 10.6061L20.3589 14.759C20.2852 14.9433 20.4454 15.1359 20.64 15.097L24.9149 14.242C25.4849 14.128 26.0762 14.2676 26.535 14.6245Z" fill="url(#paint21_radial_878_6440)"/>
<path d="M26.535 14.6245L30.1476 17.4343C30.4238 17.6491 30.8233 17.4308 30.7916 17.0823L30.4304 13.1094C30.3587 12.321 30.7589 11.5645 31.4509 11.1801L33.996 9.7661C34.5483 9.45926 34.497 8.64878 33.9103 8.41413L30.7559 7.15236C30.1284 6.90135 29.6701 6.35039 29.5375 5.68764L28.9408 2.70407C28.8188 2.09379 28.0322 1.91538 27.6588 2.41327L25.9196 4.73217C25.5034 5.28711 24.8294 5.58676 24.1385 5.52396L19.9586 5.14396C19.6134 5.11259 19.3944 5.50507 19.6024 5.78232L21.7631 8.66331C22.1819 9.2217 22.2793 9.95803 22.0201 10.6061L20.3589 14.759C20.2852 14.9433 20.4454 15.1359 20.64 15.097L24.9149 14.242C25.4849 14.128 26.0762 14.2676 26.535 14.6245Z" fill="url(#paint22_radial_878_6440)"/>
<path d="M26.535 14.6245L30.1476 17.4343C30.4238 17.6491 30.8233 17.4308 30.7916 17.0823L30.4304 13.1094C30.3587 12.321 30.7589 11.5645 31.4509 11.1801L33.996 9.7661C34.5483 9.45926 34.497 8.64878 33.9103 8.41413L30.7559 7.15236C30.1284 6.90135 29.6701 6.35039 29.5375 5.68764L28.9408 2.70407C28.8188 2.09379 28.0322 1.91538 27.6588 2.41327L25.9196 4.73217C25.5034 5.28711 24.8294 5.58676 24.1385 5.52396L19.9586 5.14396C19.6134 5.11259 19.3944 5.50507 19.6024 5.78232L21.7631 8.66331C22.1819 9.2217 22.2793 9.95803 22.0201 10.6061L20.3589 14.759C20.2852 14.9433 20.4454 15.1359 20.64 15.097L24.9149 14.242C25.4849 14.128 26.0762 14.2676 26.535 14.6245Z" fill="url(#paint23_radial_878_6440)"/>
<path d="M18.5 29.25C8.375 29.25 8.375 19.125 8.375 19.125H28.625C28.625 19.125 28.625 29.25 18.5 29.25Z" fill="url(#paint24_radial_878_6440)"/>
<path d="M9.5 19.8125V19.125H27.5V19.8125C27.5 20.3648 27.0523 20.8125 26.5 20.8125H10.5C9.94772 20.8125 9.5 20.3648 9.5 19.8125Z" fill="url(#paint25_linear_878_6440)"/>
<defs>
<radialGradient id="paint0_radial_878_6440" cx="0" cy="0" r="1" gradientUnits="userSpaceOnUse" gradientTransform="translate(29.1875 10.125) rotate(132.839) scale(42.1912)">
<stop stop-color="#FFF478"/>
<stop offset="0.474827" stop-color="#FFB02E"/>
<stop offset="1" stop-color="#F70A8D"/>
</radialGradient>
<radialGradient id="paint1_radial_878_6440" cx="0" cy="0" r="1" gradientUnits="userSpaceOnUse" gradientTransform="translate(29.1875 10.125) rotate(131.878) scale(43.8173)">
<stop stop-color="#FFF478"/>
<stop offset="0.474827" stop-color="#FFB02E"/>
<stop offset="1" stop-color="#F70A8D"/>
</radialGradient>
<radialGradient id="paint2_radial_878_6440" cx="0" cy="0" r="1" gradientUnits="userSpaceOnUse" gradientTransform="translate(18.5 14.0625) rotate(101.31) scale(20.0774 25.7153)">
<stop offset="0.787821" stop-color="#F59639" stop-opacity="0"/>
<stop offset="0.972509" stop-color="#FF7DCE"/>
</radialGradient>
<radialGradient id="paint3_radial_878_6440" cx="0" cy="0" r="1" gradientUnits="userSpaceOnUse" gradientTransform="translate(20.75 15.75) rotate(135) scale(46.1387)">
<stop offset="0.314853" stop-opacity="0"/>
<stop offset="1"/>
</radialGradient>
<radialGradient id="paint4_radial_878_6440" cx="0" cy="0" r="1" gradientUnits="userSpaceOnUse" gradientTransform="translate(18.5 19.125) rotate(77.692) scale(31.6653)">
<stop offset="0.507903" stop-color="#7D6133" stop-opacity="0"/>
<stop offset="1" stop-color="#715B32"/>
</radialGradient>
<radialGradient id="paint5_radial_878_6440" cx="0" cy="0" r="1" gradientUnits="userSpaceOnUse" gradientTransform="translate(19.0625 18.5625) rotate(55.7131) scale(14.9777 10.8566)">
<stop stop-color="#FFB849"/>
<stop offset="1" stop-color="#FFB847" stop-opacity="0"/>
</radialGradient>
<radialGradient id="paint6_radial_878_6440" cx="0" cy="0" r="1" gradientUnits="userSpaceOnUse" gradientTransform="translate(23.5625 20.25) rotate(9.86581) scale(13.1317)">
<stop stop-color="#FFA64B"/>
<stop offset="0.900412" stop-color="#FFAE46" stop-opacity="0"/>
</radialGradient>
<radialGradient id="paint7_radial_878_6440" cx="0" cy="0" r="1" gradientUnits="userSpaceOnUse" gradientTransform="translate(20.1875 16.875) rotate(43.9708) scale(66.4346)">
<stop offset="0.185425" stop-opacity="0"/>
<stop offset="1" stop-opacity="0.4"/>
</radialGradient>
<radialGradient id="paint8_radial_878_6440" cx="0" cy="0" r="1" gradientUnits="userSpaceOnUse" gradientTransform="translate(26.5685 14.7185) rotate(136.169) scale(1.39797 4.48262)">
<stop stop-color="#EC812A" stop-opacity="0.76"/>
<stop offset="0.572289" stop-color="#EC812A" stop-opacity="0.260417"/>
<stop offset="0.794087" stop-color="#EC812A" stop-opacity="0.111011"/>
<stop offset="1" stop-color="#EC812A" stop-opacity="0"/>
</radialGradient>
<radialGradient id="paint9_radial_878_6440" cx="0" cy="0" r="1" gradientUnits="userSpaceOnUse" gradientTransform="translate(24.9122 13.79) rotate(103.824) scale(1.87868 3.14061)">
<stop stop-color="#EC812A"/>
<stop offset="0.359734" stop-color="#EC812A" stop-opacity="0.52"/>
<stop offset="0.792681" stop-color="#EC812A" stop-opacity="0.125447"/>
<stop offset="1" stop-color="#EC812A" stop-opacity="0"/>
</radialGradient>
<radialGradient id="paint10_radial_878_6440" cx="0" cy="0" r="1" gradientUnits="userSpaceOnUse" gradientTransform="translate(21.8586 11.6196) rotate(-162.668) scale(2.14685 4.48807)">
<stop stop-color="#EC812A" stop-opacity="0.78"/>
<stop offset="0.451488" stop-color="#EC812A" stop-opacity="0.49"/>
<stop offset="0.747195" stop-color="#EC812A" stop-opacity="0.12266"/>
<stop offset="1" stop-color="#EC812A" stop-opacity="0"/>
</radialGradient>
<radialGradient id="paint11_radial_878_6440" cx="0" cy="0" r="1" gradientUnits="userSpaceOnUse" gradientTransform="translate(21.6752 9.09914) rotate(134.735) scale(1.54418 3.50471)">
<stop stop-color="#EC812A" stop-opacity="0.72"/>
<stop offset="0.65285" stop-color="#EC812A" stop-opacity="0.192708"/>
<stop offset="1" stop-color="#EC812A" stop-opacity="0"/>
</radialGradient>
<radialGradient id="paint12_radial_878_6440" cx="0" cy="0" r="1" gradientUnits="userSpaceOnUse" gradientTransform="translate(12.7293 14.3265) rotate(99.0872) scale(1.67801 4.93578)">
<stop stop-color="#C85F27" stop-opacity="0.65"/>
<stop offset="0.482815" stop-color="#C85F27" stop-opacity="0.260417"/>
<stop offset="0.806099" stop-color="#C85F27" stop-opacity="0.07"/>
<stop offset="1" stop-color="#C85F27" stop-opacity="0"/>
</radialGradient>
<radialGradient id="paint13_radial_878_6440" cx="0" cy="0" r="1" gradientUnits="userSpaceOnUse" gradientTransform="translate(10.665 14.2335) rotate(62.5603) scale(1.44414 4.19157)">
<stop stop-color="#C85F27" stop-opacity="0.65"/>
<stop offset="0.285517" stop-color="#C85F27" stop-opacity="0.260417"/>
<stop offset="0.727885" stop-color="#C85F27" stop-opacity="0.07"/>
<stop offset="1" stop-color="#C85F27" stop-opacity="0"/>
</radialGradient>
<linearGradient id="paint14_linear_878_6440" x1="8.9375" y1="1.125" x2="11.75" y2="16.875" gradientUnits="userSpaceOnUse">
<stop stop-color="#7912B2"/>
<stop offset="1" stop-color="#CF1DA1"/>
</linearGradient>
<radialGradient id="paint15_radial_878_6440" cx="0" cy="0" r="1" gradientUnits="userSpaceOnUse" gradientTransform="translate(10.857 4.34154) rotate(135) scale(0.764507 2.79145)">
<stop stop-color="#A82D9C"/>
<stop offset="1" stop-color="#A82D9C" stop-opacity="0"/>
</radialGradient>
<radialGradient id="paint16_radial_878_6440" cx="0" cy="0" r="1" gradientUnits="userSpaceOnUse" gradientTransform="translate(14.2885 5.42271) rotate(87.6141) scale(0.564581 3.48631)">
<stop stop-color="#A82D9C"/>
<stop offset="1" stop-color="#A82D9C" stop-opacity="0"/>
</radialGradient>
<linearGradient id="paint17_linear_878_6440" x1="25.25" y1="2.8125" x2="25.8125" y2="16.3125" gradientUnits="userSpaceOnUse">
<stop stop-color="#7912B2"/>
<stop offset="1" stop-color="#CF1DA1"/>
</linearGradient>
<radialGradient id="paint18_radial_878_6440" cx="0" cy="0" r="1" gradientUnits="userSpaceOnUse" gradientTransform="translate(33.0951 8.09413) rotate(116.565) scale(0.349729 2.48307)">
<stop stop-color="#B51AA6"/>
<stop offset="0.432292" stop-color="#B51AA6" stop-opacity="0.21875"/>
<stop offset="1" stop-color="#B51AA6" stop-opacity="0"/>
</radialGradient>
<radialGradient id="paint19_radial_878_6440" cx="0" cy="0" r="1" gradientUnits="userSpaceOnUse" gradientTransform="translate(31.5658 7.50327) rotate(116.456) scale(0.576031 2.40819)">
<stop stop-color="#B51AA6"/>
<stop offset="0.600176" stop-color="#B51AA6" stop-opacity="0.21875"/>
<stop offset="1" stop-color="#B51AA6" stop-opacity="0"/>
</radialGradient>
<radialGradient id="paint20_radial_878_6440" cx="0" cy="0" r="1" gradientUnits="userSpaceOnUse" gradientTransform="translate(33.7071 8.20317) rotate(112.521) scale(0.62401 2.60878)">
<stop offset="0.145752" stop-color="#B51AA6"/>
<stop offset="0.761264" stop-color="#B51AA6" stop-opacity="0.21875"/>
<stop offset="1" stop-color="#B51AA6" stop-opacity="0"/>
</radialGradient>
<radialGradient id="paint21_radial_878_6440" cx="0" cy="0" r="1" gradientUnits="userSpaceOnUse" gradientTransform="translate(30.3163 6.81064) rotate(127.504) scale(0.611223 1.43195)">
<stop stop-color="#B51AA6"/>
<stop offset="0.565981" stop-color="#B51AA6" stop-opacity="0.21875"/>
<stop offset="0.841141" stop-color="#B51AA6" stop-opacity="0"/>
</radialGradient>
<radialGradient id="paint22_radial_878_6440" cx="0" cy="0" r="1" gradientUnits="userSpaceOnUse" gradientTransform="translate(29.7289 6.19656) rotate(152.269) scale(0.46816 1.45138)">
<stop stop-color="#B51AA6"/>
<stop offset="0.546247" stop-color="#B51AA6" stop-opacity="0.21875"/>
<stop offset="1" stop-color="#B51AA6" stop-opacity="0"/>
</radialGradient>
<radialGradient id="paint23_radial_878_6440" cx="0" cy="0" r="1" gradientUnits="userSpaceOnUse" gradientTransform="translate(29.3487 4.64622) rotate(168.178) scale(0.617641 3.36183)">
<stop offset="0.00764343" stop-color="#B51AA6"/>
<stop offset="0.704661" stop-color="#B51AA6" stop-opacity="0.21875"/>
<stop offset="1" stop-color="#B51AA6" stop-opacity="0"/>
</radialGradient>
<radialGradient id="paint24_radial_878_6440" cx="0" cy="0" r="1" gradientUnits="userSpaceOnUse" gradientTransform="translate(18.5 31.5) rotate(-90) scale(12.375 24.75)">
<stop stop-color="#F70A8D"/>
<stop offset="1" stop-color="#89029C"/>
</radialGradient>
<linearGradient id="paint25_linear_878_6440" x1="18.5" y1="19.125" x2="18.5" y2="20.8125" gradientUnits="userSpaceOnUse">
<stop stop-color="#D5A8FE"/>
<stop offset="1" stop-color="white"/>
</linearGradient>
</defs>
</svg>
