<svg width="49" height="48" viewBox="0 0 49 48" fill="none" xmlns="http://www.w3.org/2000/svg">
<path d="M25.2275 23.2266C16.1225 23.2266 8.72754 30.6066 8.72754 39.7266V44.9766H41.7125V39.7266C41.7125 30.6066 34.3325 23.2266 25.2275 23.2266Z" fill="#56436B"/>
<path d="M25.2275 23.2266C16.1225 23.2266 8.72754 30.6066 8.72754 39.7266V44.9766H41.7125V39.7266C41.7125 30.6066 34.3325 23.2266 25.2275 23.2266Z" fill="url(#paint0_radial_878_6591)"/>
<path d="M25.2275 23.2266C16.1225 23.2266 8.72754 30.6066 8.72754 39.7266V44.9766H41.7125V39.7266C41.7125 30.6066 34.3325 23.2266 25.2275 23.2266Z" fill="url(#paint1_radial_878_6591)"/>
<path d="M35.792 27.0416C35.8402 26.9424 35.8161 26.8234 35.7331 26.7508C32.942 24.3086 29.176 22.96 25.2314 22.96C21.287 22.96 17.4985 24.323 14.7067 26.7512C14.6235 26.8236 14.5991 26.9425 14.647 27.0419C16.5474 30.9814 20.2858 34.0459 25.2314 34.0459C30.1771 34.0459 33.8787 30.9813 35.792 27.0416Z" fill="url(#paint2_radial_878_6591)"/>
<path d="M35.792 27.0416C35.8402 26.9424 35.8161 26.8234 35.7331 26.7508C32.942 24.3086 29.176 22.96 25.2314 22.96C21.287 22.96 17.4985 24.323 14.7067 26.7512C14.6235 26.8236 14.5991 26.9425 14.647 27.0419C16.5474 30.9814 20.2858 34.0459 25.2314 34.0459C30.1771 34.0459 33.8787 30.9813 35.792 27.0416Z" fill="url(#paint3_radial_878_6591)"/>
<path d="M35.792 27.0416C35.8402 26.9424 35.8161 26.8234 35.7331 26.7508C32.942 24.3086 29.176 22.96 25.2314 22.96C21.287 22.96 17.4985 24.323 14.7067 26.7512C14.6235 26.8236 14.5991 26.9425 14.647 27.0419C16.5474 30.9814 20.2858 34.0459 25.2314 34.0459C30.1771 34.0459 33.8787 30.9813 35.792 27.0416Z" fill="url(#paint4_radial_878_6591)"/>
<path d="M35.792 27.0416C35.8402 26.9424 35.8161 26.8234 35.7331 26.7508C32.942 24.3086 29.176 22.96 25.2314 22.96C21.287 22.96 17.4985 24.323 14.7067 26.7512C14.6235 26.8236 14.5991 26.9425 14.647 27.0419C16.5474 30.9814 20.2858 34.0459 25.2314 34.0459C30.1771 34.0459 33.8787 30.9813 35.792 27.0416Z" fill="url(#paint5_radial_878_6591)"/>
<path d="M35.792 27.0416C35.8402 26.9424 35.8161 26.8234 35.7331 26.7508C32.942 24.3086 29.176 22.96 25.2314 22.96C21.287 22.96 17.4985 24.323 14.7067 26.7512C14.6235 26.8236 14.5991 26.9425 14.647 27.0419C16.5474 30.9814 20.2858 34.0459 25.2314 34.0459C30.1771 34.0459 33.8787 30.9813 35.792 27.0416Z" fill="url(#paint6_radial_878_6591)"/>
<path d="M35.792 27.0416C35.8402 26.9424 35.8161 26.8234 35.7331 26.7508C32.942 24.3086 29.176 22.96 25.2314 22.96C21.287 22.96 17.4985 24.323 14.7067 26.7512C14.6235 26.8236 14.5991 26.9425 14.647 27.0419C16.5474 30.9814 20.2858 34.0459 25.2314 34.0459C30.1771 34.0459 33.8787 30.9813 35.792 27.0416Z" fill="url(#paint7_radial_878_6591)"/>
<g filter="url(#filter0_f_878_6591)">
<path d="M24.7794 28.2813C24.8737 28.3459 25.034 28.4014 25.1994 28.4071C25.3648 28.4014 25.525 28.3459 25.6194 28.2813C27.1447 27.2374 28.2894 26.1975 28.2894 24.4015V18.9513C28.2894 17.2413 26.9094 15.8613 25.1994 15.8613C23.4894 15.8613 22.1094 17.2413 22.1094 18.9513V24.4015C22.1094 26.1975 23.2541 27.2374 24.7794 28.2813Z" stroke="#1F0F21" stroke-width="0.4"/>
</g>
<path d="M24.7794 28.2813C24.8737 28.3459 25.034 28.4014 25.1994 28.4071C25.3648 28.4014 25.525 28.3459 25.6194 28.2813C27.1447 27.2374 28.2894 26.1975 28.2894 24.4015V18.9513C28.2894 17.2413 26.9094 15.8613 25.1994 15.8613C23.4894 15.8613 22.1094 17.2413 22.1094 18.9513V24.4015C22.1094 26.1975 23.2541 27.2374 24.7794 28.2813Z" fill="url(#paint8_radial_878_6591)"/>
<path d="M24.7794 28.2813C24.8737 28.3459 25.034 28.4014 25.1994 28.4071C25.3648 28.4014 25.525 28.3459 25.6194 28.2813C27.1447 27.2374 28.2894 26.1975 28.2894 24.4015V18.9513C28.2894 17.2413 26.9094 15.8613 25.1994 15.8613C23.4894 15.8613 22.1094 17.2413 22.1094 18.9513V24.4015C22.1094 26.1975 23.2541 27.2374 24.7794 28.2813Z" fill="url(#paint9_radial_878_6591)"/>
<path d="M24.7794 28.2813C24.8737 28.3459 25.034 28.4014 25.1994 28.4071C25.3648 28.4014 25.525 28.3459 25.6194 28.2813C27.1447 27.2374 28.2894 26.1975 28.2894 24.4015V18.9513C28.2894 17.2413 26.9094 15.8613 25.1994 15.8613C23.4894 15.8613 22.1094 17.2413 22.1094 18.9513V24.4015C22.1094 26.1975 23.2541 27.2374 24.7794 28.2813Z" fill="url(#paint10_radial_878_6591)"/>
<path d="M38.3191 17.4857V4.19141H37.1191V17.4857H38.3191Z" fill="url(#paint11_linear_878_6591)"/>
<path d="M38.3191 17.4857V4.19141H37.1191V17.4857H38.3191Z" fill="url(#paint12_radial_878_6591)"/>
<path d="M37.1185 17.4502C36.7279 17.6633 36.4629 18.0777 36.4629 18.5539C36.4629 19.2479 37.0254 19.8104 37.7193 19.8104C38.4132 19.8104 38.9758 19.2479 38.9758 18.5539C38.9758 18.0777 38.7107 17.6633 38.3201 17.4502H37.1185Z" fill="url(#paint13_radial_878_6591)"/>
<path d="M37.1185 17.4502C36.7279 17.6633 36.4629 18.0777 36.4629 18.5539C36.4629 19.2479 37.0254 19.8104 37.7193 19.8104C38.4132 19.8104 38.9758 19.2479 38.9758 18.5539C38.9758 18.0777 38.7107 17.6633 38.3201 17.4502H37.1185Z" fill="url(#paint14_radial_878_6591)"/>
<g filter="url(#filter1_f_878_6591)">
<path d="M37.874 5.54688V17.1982" stroke="url(#paint15_linear_878_6591)" stroke-width="0.15"/>
</g>
<path d="M36.4396 20.392L35.665 23.7498C35.5666 24.1763 35.894 24.5822 36.3317 24.5765H39.1264C39.5605 24.5707 39.8764 24.1626 39.7731 23.7409L38.9594 20.3821C38.8772 20.0465 38.5764 19.8105 38.2309 19.8105H37.1704C36.8211 19.8105 36.5181 20.0516 36.4396 20.392Z" fill="url(#paint16_linear_878_6591)"/>
<path d="M36.4396 20.392L35.665 23.7498C35.5666 24.1763 35.894 24.5822 36.3317 24.5765H39.1264C39.5605 24.5707 39.8764 24.1626 39.7731 23.7409L38.9594 20.3821C38.8772 20.0465 38.5764 19.8105 38.2309 19.8105H37.1704C36.8211 19.8105 36.5181 20.0516 36.4396 20.392Z" fill="url(#paint17_radial_878_6591)"/>
<path d="M36.4396 20.392L35.665 23.7498C35.5666 24.1763 35.894 24.5822 36.3317 24.5765H39.1264C39.5605 24.5707 39.8764 24.1626 39.7731 23.7409L38.9594 20.3821C38.8772 20.0465 38.5764 19.8105 38.2309 19.8105H37.1704C36.8211 19.8105 36.5181 20.0516 36.4396 20.392Z" fill="url(#paint18_radial_878_6591)"/>
<path d="M36.4396 20.392L35.665 23.7498C35.5666 24.1763 35.894 24.5822 36.3317 24.5765H39.1264C39.5605 24.5707 39.8764 24.1626 39.7731 23.7409L38.9594 20.3821C38.8772 20.0465 38.5764 19.8105 38.2309 19.8105H37.1704C36.8211 19.8105 36.5181 20.0516 36.4396 20.392Z" fill="url(#paint19_linear_878_6591)"/>
<path d="M36.4396 20.392L35.665 23.7498C35.5666 24.1763 35.894 24.5822 36.3317 24.5765H39.1264C39.5605 24.5707 39.8764 24.1626 39.7731 23.7409L38.9594 20.3821C38.8772 20.0465 38.5764 19.8105 38.2309 19.8105H37.1704C36.8211 19.8105 36.5181 20.0516 36.4396 20.392Z" fill="url(#paint20_radial_878_6591)"/>
<path d="M14.3757 44.9762V27.2969C10.9152 30.3203 8.72754 34.7659 8.72754 39.7262V44.9762H14.3757Z" fill="url(#paint21_radial_878_6591)"/>
<path d="M14.3757 44.9762V27.2969C10.9152 30.3203 8.72754 34.7659 8.72754 39.7262V44.9762H14.3757Z" fill="url(#paint22_radial_878_6591)"/>
<path d="M14.3757 44.9762V27.2969C10.9152 30.3203 8.72754 34.7659 8.72754 39.7262V44.9762H14.3757Z" fill="url(#paint23_linear_878_6591)"/>
<path d="M36.0647 44.9762V27.2969C39.5253 30.3203 41.7129 34.7659 41.7129 39.7262V44.9762H36.0647Z" fill="url(#paint24_radial_878_6591)"/>
<path d="M36.0647 44.9762V27.2969C39.5253 30.3203 41.7129 34.7659 41.7129 39.7262V44.9762H36.0647Z" fill="url(#paint25_radial_878_6591)"/>
<g filter="url(#filter2_f_878_6591)">
<path d="M18.7217 35.6407C18.7217 35.3586 18.9538 35.1299 19.2402 35.1299C19.5266 35.1299 19.7588 35.3586 19.7588 35.6407V44.7803H18.7217V35.6407Z" fill="url(#paint26_linear_878_6591)"/>
<path d="M24.7012 35.6407C24.7012 35.3586 24.9333 35.1299 25.2197 35.1299C25.5061 35.1299 25.7383 35.3586 25.7383 35.6407V44.7803H24.7012V35.6407Z" fill="url(#paint27_linear_878_6591)"/>
<path d="M30.6807 35.6407C30.6807 35.3586 30.9128 35.1299 31.1992 35.1299C31.4856 35.1299 31.7178 35.3586 31.7178 35.6407V44.7803H30.6807V35.6407Z" fill="url(#paint28_linear_878_6591)"/>
</g>
<g filter="url(#filter3_i_878_6591)">
<circle cx="18.0311" cy="15.992" r="2.52328" fill="url(#paint29_radial_878_6591)"/>
</g>
<g filter="url(#filter4_f_878_6591)">
<circle cx="18.0312" cy="15.9921" r="1.50384" fill="url(#paint30_linear_878_6591)"/>
</g>
<g filter="url(#filter5_i_878_6591)">
<ellipse cx="32.41" cy="15.992" rx="2.52328" ry="2.52328" fill="url(#paint31_linear_878_6591)"/>
<ellipse cx="32.41" cy="15.992" rx="2.52328" ry="2.52328" fill="url(#paint32_radial_878_6591)"/>
</g>
<g filter="url(#filter6_f_878_6591)">
<circle cx="32.4091" cy="15.9921" r="1.50384" fill="#E4AF9A"/>
<circle cx="32.4091" cy="15.9921" r="1.50384" fill="url(#paint33_radial_878_6591)"/>
<circle cx="32.4091" cy="15.9921" r="1.50384" fill="url(#paint34_radial_878_6591)"/>
</g>
<g filter="url(#filter7_i_878_6591)">
<path d="M17.4111 12.8921C17.4111 12.4891 17.5733 12.0054 17.8976 11.7636L18.1408 11.5218C18.5461 11.1993 18.7083 10.7156 18.7083 10.232V8.94221C18.7083 8.53915 18.9515 8.21671 19.3569 8.1361C20.3297 7.89427 22.3566 7.49121 25.2752 7.49121C28.1938 7.49121 30.2206 7.89427 31.1935 8.1361C31.5178 8.21671 31.8421 8.53915 31.8421 8.94221V10.232C31.8421 10.7156 32.0853 11.1993 32.4096 11.5218C33.1684 12.0535 33.1212 12.346 33.0582 12.9728C32.9771 13.7789 32.896 15.1492 32.896 15.1492C32.9052 15.1492 32.9143 15.1491 32.9234 15.1489L32.5215 21.1319C32.2789 23.8065 30.1763 25.6706 27.6693 25.6706H22.817C20.2291 25.6706 18.2073 23.8065 17.9647 21.1319C17.754 18.3864 17.6617 15.6329 17.4111 12.8921Z" fill="url(#paint35_linear_878_6591)"/>
<path d="M17.4111 12.8921C17.4111 12.4891 17.5733 12.0054 17.8976 11.7636L18.1408 11.5218C18.5461 11.1993 18.7083 10.7156 18.7083 10.232V8.94221C18.7083 8.53915 18.9515 8.21671 19.3569 8.1361C20.3297 7.89427 22.3566 7.49121 25.2752 7.49121C28.1938 7.49121 30.2206 7.89427 31.1935 8.1361C31.5178 8.21671 31.8421 8.53915 31.8421 8.94221V10.232C31.8421 10.7156 32.0853 11.1993 32.4096 11.5218C33.1684 12.0535 33.1212 12.346 33.0582 12.9728C32.9771 13.7789 32.896 15.1492 32.896 15.1492C32.9052 15.1492 32.9143 15.1491 32.9234 15.1489L32.5215 21.1319C32.2789 23.8065 30.1763 25.6706 27.6693 25.6706H22.817C20.2291 25.6706 18.2073 23.8065 17.9647 21.1319C17.754 18.3864 17.6617 15.6329 17.4111 12.8921Z" fill="url(#paint36_radial_878_6591)"/>
<path d="M17.4111 12.8921C17.4111 12.4891 17.5733 12.0054 17.8976 11.7636L18.1408 11.5218C18.5461 11.1993 18.7083 10.7156 18.7083 10.232V8.94221C18.7083 8.53915 18.9515 8.21671 19.3569 8.1361C20.3297 7.89427 22.3566 7.49121 25.2752 7.49121C28.1938 7.49121 30.2206 7.89427 31.1935 8.1361C31.5178 8.21671 31.8421 8.53915 31.8421 8.94221V10.232C31.8421 10.7156 32.0853 11.1993 32.4096 11.5218C33.1684 12.0535 33.1212 12.346 33.0582 12.9728C32.9771 13.7789 32.896 15.1492 32.896 15.1492C32.9052 15.1492 32.9143 15.1491 32.9234 15.1489L32.5215 21.1319C32.2789 23.8065 30.1763 25.6706 27.6693 25.6706H22.817C20.2291 25.6706 18.2073 23.8065 17.9647 21.1319C17.754 18.3864 17.6617 15.6329 17.4111 12.8921Z" fill="url(#paint37_linear_878_6591)"/>
<path d="M17.4111 12.8921C17.4111 12.4891 17.5733 12.0054 17.8976 11.7636L18.1408 11.5218C18.5461 11.1993 18.7083 10.7156 18.7083 10.232V8.94221C18.7083 8.53915 18.9515 8.21671 19.3569 8.1361C20.3297 7.89427 22.3566 7.49121 25.2752 7.49121C28.1938 7.49121 30.2206 7.89427 31.1935 8.1361C31.5178 8.21671 31.8421 8.53915 31.8421 8.94221V10.232C31.8421 10.7156 32.0853 11.1993 32.4096 11.5218C33.1684 12.0535 33.1212 12.346 33.0582 12.9728C32.9771 13.7789 32.896 15.1492 32.896 15.1492C32.9052 15.1492 32.9143 15.1491 32.9234 15.1489L32.5215 21.1319C32.2789 23.8065 30.1763 25.6706 27.6693 25.6706H22.817C20.2291 25.6706 18.2073 23.8065 17.9647 21.1319C17.754 18.3864 17.6617 15.6329 17.4111 12.8921Z" fill="url(#paint38_linear_878_6591)"/>
<path d="M17.4111 12.8921C17.4111 12.4891 17.5733 12.0054 17.8976 11.7636L18.1408 11.5218C18.5461 11.1993 18.7083 10.7156 18.7083 10.232V8.94221C18.7083 8.53915 18.9515 8.21671 19.3569 8.1361C20.3297 7.89427 22.3566 7.49121 25.2752 7.49121C28.1938 7.49121 30.2206 7.89427 31.1935 8.1361C31.5178 8.21671 31.8421 8.53915 31.8421 8.94221V10.232C31.8421 10.7156 32.0853 11.1993 32.4096 11.5218C33.1684 12.0535 33.1212 12.346 33.0582 12.9728C32.9771 13.7789 32.896 15.1492 32.896 15.1492C32.9052 15.1492 32.9143 15.1491 32.9234 15.1489L32.5215 21.1319C32.2789 23.8065 30.1763 25.6706 27.6693 25.6706H22.817C20.2291 25.6706 18.2073 23.8065 17.9647 21.1319C17.754 18.3864 17.6617 15.6329 17.4111 12.8921Z" fill="url(#paint39_radial_878_6591)"/>
<path d="M17.4111 12.8921C17.4111 12.4891 17.5733 12.0054 17.8976 11.7636L18.1408 11.5218C18.5461 11.1993 18.7083 10.7156 18.7083 10.232V8.94221C18.7083 8.53915 18.9515 8.21671 19.3569 8.1361C20.3297 7.89427 22.3566 7.49121 25.2752 7.49121C28.1938 7.49121 30.2206 7.89427 31.1935 8.1361C31.5178 8.21671 31.8421 8.53915 31.8421 8.94221V10.232C31.8421 10.7156 32.0853 11.1993 32.4096 11.5218C33.1684 12.0535 33.1212 12.346 33.0582 12.9728C32.9771 13.7789 32.896 15.1492 32.896 15.1492C32.9052 15.1492 32.9143 15.1491 32.9234 15.1489L32.5215 21.1319C32.2789 23.8065 30.1763 25.6706 27.6693 25.6706H22.817C20.2291 25.6706 18.2073 23.8065 17.9647 21.1319C17.754 18.3864 17.6617 15.6329 17.4111 12.8921Z" fill="url(#paint40_radial_878_6591)"/>
<path d="M17.4111 12.8921C17.4111 12.4891 17.5733 12.0054 17.8976 11.7636L18.1408 11.5218C18.5461 11.1993 18.7083 10.7156 18.7083 10.232V8.94221C18.7083 8.53915 18.9515 8.21671 19.3569 8.1361C20.3297 7.89427 22.3566 7.49121 25.2752 7.49121C28.1938 7.49121 30.2206 7.89427 31.1935 8.1361C31.5178 8.21671 31.8421 8.53915 31.8421 8.94221V10.232C31.8421 10.7156 32.0853 11.1993 32.4096 11.5218C33.1684 12.0535 33.1212 12.346 33.0582 12.9728C32.9771 13.7789 32.896 15.1492 32.896 15.1492C32.9052 15.1492 32.9143 15.1491 32.9234 15.1489L32.5215 21.1319C32.2789 23.8065 30.1763 25.6706 27.6693 25.6706H22.817C20.2291 25.6706 18.2073 23.8065 17.9647 21.1319C17.754 18.3864 17.6617 15.6329 17.4111 12.8921Z" fill="url(#paint41_radial_878_6591)"/>
</g>
<g filter="url(#filter8_f_878_6591)">
<path d="M31.4942 7.96387L26.8429 9.51463C26.0509 9.77866 25.6002 10.6124 25.813 11.4196C26.0164 12.1912 26.7625 12.6907 27.5535 12.5848L32.1781 11.9657L31.4942 7.96387Z" fill="url(#paint42_linear_878_6591)"/>
</g>
<g filter="url(#filter9_i_878_6591)">
<path d="M32.4903 6.20073L33.1389 6.52317C34.2739 7.08745 34.9225 8.37722 34.6792 9.74761L33.7874 14.3424C33.7079 14.817 33.3942 15.1363 32.923 15.1482C32.9139 15.1484 32.9048 15.1485 32.8957 15.1485C32.8957 15.1485 32.9767 13.7781 33.0578 12.972C33.1236 12.3174 33.0093 12.1177 32.4092 11.521C32.0849 11.1986 31.8417 10.7149 31.8417 10.2312V8.94146C31.8417 8.5384 31.5174 8.21596 31.1931 8.13535C30.2203 7.89351 28.1934 7.49046 25.2748 7.49046C22.3562 7.49046 20.3294 7.89351 19.3565 8.13535C18.9512 8.21596 18.7079 8.5384 18.7079 8.94146V10.2312C18.7079 10.7149 18.5458 11.1986 18.1404 11.521L17.8972 11.7628C17.5729 12.0047 17.4108 12.4883 17.4108 12.8914C17.4919 13.7781 17.5729 15.0679 17.5729 15.0679C17.548 15.0679 17.5233 15.067 17.4988 15.0654C17.0458 15.0344 16.677 14.7207 16.6 14.2618L15.7082 9.667C15.5461 8.37722 16.1947 7.08745 17.3297 6.52317L17.9783 6.20073C18.3836 5.9589 18.789 5.63646 19.1944 5.31401L20.6537 3.7824C21.5455 2.9763 22.8426 2.73446 23.9777 3.29874C24.7884 3.54057 25.6802 3.54057 26.4909 3.29874C27.707 2.89568 29.0852 3.21813 30.0581 4.10485L31.2742 5.31401C31.5985 5.71707 32.0038 5.9589 32.4903 6.20073Z" fill="#242324"/>
<path d="M32.4903 6.20073L33.1389 6.52317C34.2739 7.08745 34.9225 8.37722 34.6792 9.74761L33.7874 14.3424C33.7079 14.817 33.3942 15.1363 32.923 15.1482C32.9139 15.1484 32.9048 15.1485 32.8957 15.1485C32.8957 15.1485 32.9767 13.7781 33.0578 12.972C33.1236 12.3174 33.0093 12.1177 32.4092 11.521C32.0849 11.1986 31.8417 10.7149 31.8417 10.2312V8.94146C31.8417 8.5384 31.5174 8.21596 31.1931 8.13535C30.2203 7.89351 28.1934 7.49046 25.2748 7.49046C22.3562 7.49046 20.3294 7.89351 19.3565 8.13535C18.9512 8.21596 18.7079 8.5384 18.7079 8.94146V10.2312C18.7079 10.7149 18.5458 11.1986 18.1404 11.521L17.8972 11.7628C17.5729 12.0047 17.4108 12.4883 17.4108 12.8914C17.4919 13.7781 17.5729 15.0679 17.5729 15.0679C17.548 15.0679 17.5233 15.067 17.4988 15.0654C17.0458 15.0344 16.677 14.7207 16.6 14.2618L15.7082 9.667C15.5461 8.37722 16.1947 7.08745 17.3297 6.52317L17.9783 6.20073C18.3836 5.9589 18.789 5.63646 19.1944 5.31401L20.6537 3.7824C21.5455 2.9763 22.8426 2.73446 23.9777 3.29874C24.7884 3.54057 25.6802 3.54057 26.4909 3.29874C27.707 2.89568 29.0852 3.21813 30.0581 4.10485L31.2742 5.31401C31.5985 5.71707 32.0038 5.9589 32.4903 6.20073Z" fill="url(#paint43_radial_878_6591)"/>
<path d="M32.4903 6.20073L33.1389 6.52317C34.2739 7.08745 34.9225 8.37722 34.6792 9.74761L33.7874 14.3424C33.7079 14.817 33.3942 15.1363 32.923 15.1482C32.9139 15.1484 32.9048 15.1485 32.8957 15.1485C32.8957 15.1485 32.9767 13.7781 33.0578 12.972C33.1236 12.3174 33.0093 12.1177 32.4092 11.521C32.0849 11.1986 31.8417 10.7149 31.8417 10.2312V8.94146C31.8417 8.5384 31.5174 8.21596 31.1931 8.13535C30.2203 7.89351 28.1934 7.49046 25.2748 7.49046C22.3562 7.49046 20.3294 7.89351 19.3565 8.13535C18.9512 8.21596 18.7079 8.5384 18.7079 8.94146V10.2312C18.7079 10.7149 18.5458 11.1986 18.1404 11.521L17.8972 11.7628C17.5729 12.0047 17.4108 12.4883 17.4108 12.8914C17.4919 13.7781 17.5729 15.0679 17.5729 15.0679C17.548 15.0679 17.5233 15.067 17.4988 15.0654C17.0458 15.0344 16.677 14.7207 16.6 14.2618L15.7082 9.667C15.5461 8.37722 16.1947 7.08745 17.3297 6.52317L17.9783 6.20073C18.3836 5.9589 18.789 5.63646 19.1944 5.31401L20.6537 3.7824C21.5455 2.9763 22.8426 2.73446 23.9777 3.29874C24.7884 3.54057 25.6802 3.54057 26.4909 3.29874C27.707 2.89568 29.0852 3.21813 30.0581 4.10485L31.2742 5.31401C31.5985 5.71707 32.0038 5.9589 32.4903 6.20073Z" fill="url(#paint44_radial_878_6591)"/>
<path d="M32.4903 6.20073L33.1389 6.52317C34.2739 7.08745 34.9225 8.37722 34.6792 9.74761L33.7874 14.3424C33.7079 14.817 33.3942 15.1363 32.923 15.1482C32.9139 15.1484 32.9048 15.1485 32.8957 15.1485C32.8957 15.1485 32.9767 13.7781 33.0578 12.972C33.1236 12.3174 33.0093 12.1177 32.4092 11.521C32.0849 11.1986 31.8417 10.7149 31.8417 10.2312V8.94146C31.8417 8.5384 31.5174 8.21596 31.1931 8.13535C30.2203 7.89351 28.1934 7.49046 25.2748 7.49046C22.3562 7.49046 20.3294 7.89351 19.3565 8.13535C18.9512 8.21596 18.7079 8.5384 18.7079 8.94146V10.2312C18.7079 10.7149 18.5458 11.1986 18.1404 11.521L17.8972 11.7628C17.5729 12.0047 17.4108 12.4883 17.4108 12.8914C17.4919 13.7781 17.5729 15.0679 17.5729 15.0679C17.548 15.0679 17.5233 15.067 17.4988 15.0654C17.0458 15.0344 16.677 14.7207 16.6 14.2618L15.7082 9.667C15.5461 8.37722 16.1947 7.08745 17.3297 6.52317L17.9783 6.20073C18.3836 5.9589 18.789 5.63646 19.1944 5.31401L20.6537 3.7824C21.5455 2.9763 22.8426 2.73446 23.9777 3.29874C24.7884 3.54057 25.6802 3.54057 26.4909 3.29874C27.707 2.89568 29.0852 3.21813 30.0581 4.10485L31.2742 5.31401C31.5985 5.71707 32.0038 5.9589 32.4903 6.20073Z" fill="url(#paint45_radial_878_6591)"/>
<path d="M32.4903 6.20073L33.1389 6.52317C34.2739 7.08745 34.9225 8.37722 34.6792 9.74761L33.7874 14.3424C33.7079 14.817 33.3942 15.1363 32.923 15.1482C32.9139 15.1484 32.9048 15.1485 32.8957 15.1485C32.8957 15.1485 32.9767 13.7781 33.0578 12.972C33.1236 12.3174 33.0093 12.1177 32.4092 11.521C32.0849 11.1986 31.8417 10.7149 31.8417 10.2312V8.94146C31.8417 8.5384 31.5174 8.21596 31.1931 8.13535C30.2203 7.89351 28.1934 7.49046 25.2748 7.49046C22.3562 7.49046 20.3294 7.89351 19.3565 8.13535C18.9512 8.21596 18.7079 8.5384 18.7079 8.94146V10.2312C18.7079 10.7149 18.5458 11.1986 18.1404 11.521L17.8972 11.7628C17.5729 12.0047 17.4108 12.4883 17.4108 12.8914C17.4919 13.7781 17.5729 15.0679 17.5729 15.0679C17.548 15.0679 17.5233 15.067 17.4988 15.0654C17.0458 15.0344 16.677 14.7207 16.6 14.2618L15.7082 9.667C15.5461 8.37722 16.1947 7.08745 17.3297 6.52317L17.9783 6.20073C18.3836 5.9589 18.789 5.63646 19.1944 5.31401L20.6537 3.7824C21.5455 2.9763 22.8426 2.73446 23.9777 3.29874C24.7884 3.54057 25.6802 3.54057 26.4909 3.29874C27.707 2.89568 29.0852 3.21813 30.0581 4.10485L31.2742 5.31401C31.5985 5.71707 32.0038 5.9589 32.4903 6.20073Z" fill="url(#paint46_radial_878_6591)"/>
</g>
<g filter="url(#filter10_f_878_6591)">
<path d="M24.7907 15.8076L23.5508 18.3765C23.3971 18.9049 23.766 19.4333 24.2885 19.4333H25.4028C25.9253 19.4333 26.2942 18.8968 26.1405 18.3765L25.3874 15.8076C25.226 15.2386 24.9598 15.2386 24.7907 15.8076Z" fill="#D89992"/>
</g>
<g filter="url(#filter11_f_878_6591)">
<path d="M24.6287 15.5606L23.8256 18.1294C23.6617 18.6578 24.0551 19.1862 24.6123 19.1862H25.8006C26.3578 19.1862 26.7512 18.6497 26.5873 18.1294L25.7842 15.5606C25.6121 14.9915 24.809 14.9915 24.6287 15.5606Z" fill="#FBC4B1"/>
<path d="M24.6287 15.5606L23.8256 18.1294C23.6617 18.6578 24.0551 19.1862 24.6123 19.1862H25.8006C26.3578 19.1862 26.7512 18.6497 26.5873 18.1294L25.7842 15.5606C25.6121 14.9915 24.809 14.9915 24.6287 15.5606Z" fill="url(#paint47_linear_878_6591)"/>
<path d="M24.6287 15.5606L23.8256 18.1294C23.6617 18.6578 24.0551 19.1862 24.6123 19.1862H25.8006C26.3578 19.1862 26.7512 18.6497 26.5873 18.1294L25.7842 15.5606C25.6121 14.9915 24.809 14.9915 24.6287 15.5606Z" fill="url(#paint48_linear_878_6591)"/>
<path d="M24.6287 15.5606L23.8256 18.1294C23.6617 18.6578 24.0551 19.1862 24.6123 19.1862H25.8006C26.3578 19.1862 26.7512 18.6497 26.5873 18.1294L25.7842 15.5606C25.6121 14.9915 24.809 14.9915 24.6287 15.5606Z" fill="url(#paint49_linear_878_6591)"/>
<path d="M24.6287 15.5606L23.8256 18.1294C23.6617 18.6578 24.0551 19.1862 24.6123 19.1862H25.8006C26.3578 19.1862 26.7512 18.6497 26.5873 18.1294L25.7842 15.5606C25.6121 14.9915 24.809 14.9915 24.6287 15.5606Z" fill="url(#paint50_radial_878_6591)"/>
</g>
<path d="M24.6287 15.5606L23.8256 18.1294C23.6617 18.6578 24.0551 19.1862 24.6123 19.1862H25.8006C26.3578 19.1862 26.7512 18.6497 26.5873 18.1294L25.7842 15.5606C25.6121 14.9915 24.809 14.9915 24.6287 15.5606Z" fill="url(#paint51_linear_878_6591)"/>
<path d="M27.3252 20.1621C27.4349 20.1279 27.5434 20.1649 27.6123 20.2363C27.6917 20.3187 27.7198 20.449 27.6406 20.5684L27.6416 20.5693C27.1265 21.3499 26.2288 21.8701 25.207 21.8701C24.1852 21.8701 23.2876 21.35 22.7725 20.5693L22.7734 20.5684C22.6936 20.452 22.7224 20.3218 22.8008 20.2393C22.8791 20.1568 23.01 20.1178 23.1357 20.1816H23.1367C23.7351 20.4936 24.448 20.6719 25.207 20.6719C25.9737 20.6718 26.6789 20.4936 27.2773 20.1816L27.3252 20.1621Z" fill="#88024E" stroke="url(#paint52_linear_878_6591)" stroke-width="0.1"/>
<g filter="url(#filter12_i_878_6591)">
<path d="M30.8283 11.8804L30.8264 11.8789L30.8236 11.8766L30.8168 11.871L30.7987 11.8566C30.7846 11.8456 30.7664 11.8317 30.7444 11.8155C30.7002 11.7832 30.64 11.7414 30.5646 11.6941C30.4141 11.5999 30.2005 11.4824 29.9302 11.3756C29.3876 11.1611 28.6128 10.9883 27.6741 11.1365C27.2341 11.2059 26.9337 11.619 27.0032 12.059C27.0726 12.4991 27.4857 12.7995 27.9257 12.73C28.527 12.6351 29.0084 12.7459 29.3371 12.8759C29.5025 12.9413 29.6282 13.0112 29.7082 13.0613C29.748 13.0863 29.7759 13.1059 29.7909 13.1169C29.7972 13.1215 29.8012 13.1246 29.8029 13.1259C30.145 13.4048 30.6488 13.3569 30.9321 13.017C31.2173 12.6747 31.1705 12.1656 30.8283 11.8804Z" fill="#1E1E1E"/>
</g>
<g filter="url(#filter13_i_878_6591)">
<path d="M19.5032 11.8809L19.5043 11.8799L19.5056 11.8789L19.5084 11.8766L19.5152 11.871L19.5333 11.8566C19.5474 11.8456 19.5655 11.8317 19.5876 11.8155C19.6318 11.7832 19.692 11.7414 19.7674 11.6941C19.9179 11.5999 20.1315 11.4824 20.4018 11.3756C20.9444 11.1611 21.7192 10.9883 22.6579 11.1365C23.0979 11.2059 23.3983 11.619 23.3288 12.059C23.2594 12.4991 22.8463 12.7995 22.4063 12.73C21.805 12.6351 21.3236 12.7459 20.9949 12.8759C20.8295 12.9413 20.7038 13.0112 20.6238 13.0613C20.584 13.0863 20.5561 13.1059 20.5411 13.1169C20.5348 13.1215 20.5308 13.1246 20.5291 13.1259C20.187 13.4048 19.6832 13.3569 19.3999 13.017C19.1147 12.6747 19.1609 12.1661 19.5032 11.8809Z" fill="#1E1E1E"/>
</g>
<path d="M28.8158 13.8291C29.8027 13.8291 30.6364 14.5095 30.8632 15.429C30.9306 15.6926 30.7283 15.9439 30.4586 15.9439H27.0872C26.8727 15.9439 26.701 15.7477 26.7439 15.5332C26.9339 14.5647 27.786 13.8291 28.8158 13.8291Z" fill="white"/>
<path d="M28.5031 14.2402C29.251 14.2402 29.8517 14.8471 29.8517 15.5888C29.8517 15.7114 29.8333 15.834 29.8027 15.9443H27.1975C27.1668 15.8279 27.1484 15.7114 27.1484 15.5888C27.1484 14.8471 27.7553 14.2402 28.5031 14.2402Z" fill="url(#paint53_radial_878_6591)"/>
<path d="M27.7305 15.5888C27.7305 15.1597 28.0737 14.8164 28.5028 14.8164C28.9319 14.8164 29.2752 15.1597 29.2752 15.5888C29.2752 15.7175 29.2445 15.8401 29.1894 15.9443H27.8224C27.7611 15.8401 27.7305 15.7175 27.7305 15.5888Z" fill="black"/>
<g filter="url(#filter14_f_878_6591)">
<path d="M28.4042 14.5255C28.5003 14.6541 28.2995 14.8107 28.0711 14.9814C27.8428 15.1522 27.6734 15.2723 27.5773 15.1438C27.4812 15.0153 27.5884 14.7727 27.8168 14.602C28.0451 14.4313 28.3081 14.397 28.4042 14.5255Z" fill="#C7A7A3"/>
<path d="M28.4042 14.5255C28.5003 14.6541 28.2995 14.8107 28.0711 14.9814C27.8428 15.1522 27.6734 15.2723 27.5773 15.1438C27.4812 15.0153 27.5884 14.7727 27.8168 14.602C28.0451 14.4313 28.3081 14.397 28.4042 14.5255Z" fill="url(#paint54_radial_878_6591)"/>
</g>
<g filter="url(#filter15_f_878_6591)">
<path d="M29.7042 15.4111C29.6544 15.0625 29.4504 14.7997 29.3546 14.7119L28.9619 15.1429L29.1391 15.4877L29.7042 15.4111Z" fill="url(#paint55_linear_878_6591)"/>
</g>
<path d="M21.5898 13.8291C20.6029 13.8291 19.7692 14.5096 19.5424 15.4291C19.4749 15.6927 19.6772 15.944 19.947 15.944H23.3186C23.5331 15.944 23.7048 15.7478 23.6618 15.5333C23.4718 14.5647 22.6136 13.8291 21.5898 13.8291Z" fill="white"/>
<path d="M21.9023 14.2402C21.1545 14.2402 20.5537 14.8471 20.5537 15.5889C20.5537 15.7115 20.5721 15.8341 20.6028 15.9444H23.2081C23.2387 15.8279 23.2571 15.7115 23.2571 15.5889C23.251 14.8471 22.6502 14.2402 21.9023 14.2402Z" fill="url(#paint56_radial_878_6591)"/>
<path d="M22.6747 15.5888C22.6747 15.1597 22.3314 14.8164 21.9023 14.8164C21.4732 14.8164 21.1299 15.1597 21.1299 15.5888C21.1299 15.7175 21.1605 15.8401 21.2157 15.9444H22.5827C22.6379 15.8401 22.6747 15.7175 22.6747 15.5888Z" fill="black"/>
<g filter="url(#filter16_f_878_6591)">
<path d="M23.134 15.4304C23.134 14.9946 22.7796 14.704 22.6839 14.6162L22.248 15.0377L22.5162 15.5836L23.134 15.4304Z" fill="url(#paint57_linear_878_6591)"/>
</g>
<g filter="url(#filter17_f_878_6591)">
<ellipse cx="21.4957" cy="14.8168" rx="0.588753" ry="0.297963" transform="rotate(-27.914 21.4957 14.8168)" fill="#C7A7A3" fill-opacity="0.9"/>
<ellipse cx="21.4957" cy="14.8168" rx="0.588753" ry="0.297963" transform="rotate(-27.914 21.4957 14.8168)" fill="url(#paint58_radial_878_6591)"/>
</g>
<g filter="url(#filter18_f_878_6591)">
<path d="M27.7168 11.6626C28.3668 11.5488 29.6345 11.5813 30.5121 12.2639" stroke="url(#paint59_linear_878_6591)" stroke-width="0.2" stroke-linecap="round"/>
</g>
<g filter="url(#filter19_f_878_6591)">
<path d="M19.8278 12.4455C20.3223 12.0085 21.4021 11.5483 22.7406 11.7616" stroke="url(#paint60_linear_878_6591)" stroke-width="0.2" stroke-linecap="round"/>
</g>
<g filter="url(#filter20_f_878_6591)">
<path d="M18.356 8.71973V10.0763C18.3441 10.3009 18.2495 10.8034 17.9658 11.0162" stroke="url(#paint61_linear_878_6591)" stroke-width="0.25" stroke-linecap="round"/>
</g>
<g filter="url(#filter21_i_878_6591)">
<path d="M16.1094 7.67722L17.7507 4.86621L32.5169 4.70215L34.3117 7.66251C27.3156 10.0766 19.2441 8.77879 16.1094 7.67722Z" fill="url(#paint62_radial_878_6591)"/>
<path d="M16.1094 7.67722L17.7507 4.86621L32.5169 4.70215L34.3117 7.66251C27.3156 10.0766 19.2441 8.77879 16.1094 7.67722Z" fill="url(#paint63_radial_878_6591)"/>
</g>
<path d="M37.1345 5.39121H13.1795C12.5195 5.39121 11.9795 4.85121 11.9795 4.19121C11.9795 3.53121 12.5195 2.99121 13.1795 2.99121H37.1195C37.7795 2.99121 38.3195 3.53121 38.3195 4.19121C38.3345 4.85121 37.7945 5.39121 37.1345 5.39121Z" fill="url(#paint64_linear_878_6591)"/>
<path d="M37.1345 5.39121H13.1795C12.5195 5.39121 11.9795 4.85121 11.9795 4.19121C11.9795 3.53121 12.5195 2.99121 13.1795 2.99121H37.1195C37.7795 2.99121 38.3195 3.53121 38.3195 4.19121C38.3345 4.85121 37.7945 5.39121 37.1345 5.39121Z" fill="url(#paint65_radial_878_6591)"/>
<path d="M37.1345 5.39121H13.1795C12.5195 5.39121 11.9795 4.85121 11.9795 4.19121C11.9795 3.53121 12.5195 2.99121 13.1795 2.99121H37.1195C37.7795 2.99121 38.3195 3.53121 38.3195 4.19121C38.3345 4.85121 37.7945 5.39121 37.1345 5.39121Z" fill="url(#paint66_radial_878_6591)"/>
<defs>
<filter id="filter0_f_878_6591" x="21.5092" y="15.2611" width="7.38008" height="13.7463" filterUnits="userSpaceOnUse" color-interpolation-filters="sRGB">
<feFlood flood-opacity="0" result="BackgroundImageFix"/>
<feBlend mode="normal" in="SourceGraphic" in2="BackgroundImageFix" result="shape"/>
<feGaussianBlur stdDeviation="0.2" result="effect1_foregroundBlur_878_6591"/>
</filter>
<filter id="filter1_f_878_6591" x="37.5488" y="5.29688" width="0.650391" height="12.1514" filterUnits="userSpaceOnUse" color-interpolation-filters="sRGB">
<feFlood flood-opacity="0" result="BackgroundImageFix"/>
<feBlend mode="normal" in="SourceGraphic" in2="BackgroundImageFix" result="shape"/>
<feGaussianBlur stdDeviation="0.125" result="effect1_foregroundBlur_878_6591"/>
</filter>
<filter id="filter2_f_878_6591" x="18.5717" y="34.9799" width="13.2961" height="9.95039" filterUnits="userSpaceOnUse" color-interpolation-filters="sRGB">
<feFlood flood-opacity="0" result="BackgroundImageFix"/>
<feBlend mode="normal" in="SourceGraphic" in2="BackgroundImageFix" result="shape"/>
<feGaussianBlur stdDeviation="0.075" result="effect1_foregroundBlur_878_6591"/>
</filter>
<filter id="filter3_i_878_6591" x="15.5078" y="13.4688" width="5.24688" height="5.04688" filterUnits="userSpaceOnUse" color-interpolation-filters="sRGB">
<feFlood flood-opacity="0" result="BackgroundImageFix"/>
<feBlend mode="normal" in="SourceGraphic" in2="BackgroundImageFix" result="shape"/>
<feColorMatrix in="SourceAlpha" type="matrix" values="0 0 0 0 0 0 0 0 0 0 0 0 0 0 0 0 0 0 127 0" result="hardAlpha"/>
<feOffset dx="0.2"/>
<feGaussianBlur stdDeviation="0.15"/>
<feComposite in2="hardAlpha" operator="arithmetic" k2="-1" k3="1"/>
<feColorMatrix type="matrix" values="0 0 0 0 0.917647 0 0 0 0 0.694118 0 0 0 0 0.607843 0 0 0 1 0"/>
<feBlend mode="normal" in2="shape" result="effect1_innerShadow_878_6591"/>
</filter>
<filter id="filter4_f_878_6591" x="16.0273" y="13.9883" width="4.00781" height="4.00781" filterUnits="userSpaceOnUse" color-interpolation-filters="sRGB">
<feFlood flood-opacity="0" result="BackgroundImageFix"/>
<feBlend mode="normal" in="SourceGraphic" in2="BackgroundImageFix" result="shape"/>
<feGaussianBlur stdDeviation="0.25" result="effect1_foregroundBlur_878_6591"/>
</filter>
<filter id="filter5_i_878_6591" x="29.8867" y="13.2188" width="5.29688" height="5.29688" filterUnits="userSpaceOnUse" color-interpolation-filters="sRGB">
<feFlood flood-opacity="0" result="BackgroundImageFix"/>
<feBlend mode="normal" in="SourceGraphic" in2="BackgroundImageFix" result="shape"/>
<feColorMatrix in="SourceAlpha" type="matrix" values="0 0 0 0 0 0 0 0 0 0 0 0 0 0 0 0 0 0 127 0" result="hardAlpha"/>
<feOffset dx="0.25" dy="-0.25"/>
<feGaussianBlur stdDeviation="0.25"/>
<feComposite in2="hardAlpha" operator="arithmetic" k2="-1" k3="1"/>
<feColorMatrix type="matrix" values="0 0 0 0 0.843137 0 0 0 0 0.623529 0 0 0 0 0.580392 0 0 0 1 0"/>
<feBlend mode="normal" in2="shape" result="effect1_innerShadow_878_6591"/>
</filter>
<filter id="filter6_f_878_6591" x="30.4053" y="13.9883" width="4.00781" height="4.00781" filterUnits="userSpaceOnUse" color-interpolation-filters="sRGB">
<feFlood flood-opacity="0" result="BackgroundImageFix"/>
<feBlend mode="normal" in="SourceGraphic" in2="BackgroundImageFix" result="shape"/>
<feGaussianBlur stdDeviation="0.25" result="effect1_foregroundBlur_878_6591"/>
</filter>
<filter id="filter7_i_878_6591" x="17.4111" y="7.49121" width="15.6787" height="18.4297" filterUnits="userSpaceOnUse" color-interpolation-filters="sRGB">
<feFlood flood-opacity="0" result="BackgroundImageFix"/>
<feBlend mode="normal" in="SourceGraphic" in2="BackgroundImageFix" result="shape"/>
<feColorMatrix in="SourceAlpha" type="matrix" values="0 0 0 0 0 0 0 0 0 0 0 0 0 0 0 0 0 0 127 0" result="hardAlpha"/>
<feOffset dy="0.25"/>
<feGaussianBlur stdDeviation="0.375"/>
<feComposite in2="hardAlpha" operator="arithmetic" k2="-1" k3="1"/>
<feColorMatrix type="matrix" values="0 0 0 0 0.819608 0 0 0 0 0.615686 0 0 0 0 0.509804 0 0 0 1 0"/>
<feBlend mode="normal" in2="shape" result="effect1_innerShadow_878_6591"/>
</filter>
<filter id="filter8_f_878_6591" x="23.7607" y="5.96387" width="10.417" height="8.63477" filterUnits="userSpaceOnUse" color-interpolation-filters="sRGB">
<feFlood flood-opacity="0" result="BackgroundImageFix"/>
<feBlend mode="normal" in="SourceGraphic" in2="BackgroundImageFix" result="shape"/>
<feGaussianBlur stdDeviation="1" result="effect1_foregroundBlur_878_6591"/>
</filter>
<filter id="filter9_i_878_6591" x="15.6836" y="2.49121" width="19.0469" height="12.6572" filterUnits="userSpaceOnUse" color-interpolation-filters="sRGB">
<feFlood flood-opacity="0" result="BackgroundImageFix"/>
<feBlend mode="normal" in="SourceGraphic" in2="BackgroundImageFix" result="shape"/>
<feColorMatrix in="SourceAlpha" type="matrix" values="0 0 0 0 0 0 0 0 0 0 0 0 0 0 0 0 0 0 127 0" result="hardAlpha"/>
<feOffset dy="-0.5"/>
<feGaussianBlur stdDeviation="0.375"/>
<feComposite in2="hardAlpha" operator="arithmetic" k2="-1" k3="1"/>
<feColorMatrix type="matrix" values="0 0 0 0 0.0392157 0 0 0 0 0.00784314 0 0 0 0 0.0196078 0 0 0 1 0"/>
<feBlend mode="normal" in2="shape" result="effect1_innerShadow_878_6591"/>
</filter>
<filter id="filter10_f_878_6591" x="22.7656" y="14.6309" width="4.16016" height="5.55273" filterUnits="userSpaceOnUse" color-interpolation-filters="sRGB">
<feFlood flood-opacity="0" result="BackgroundImageFix"/>
<feBlend mode="normal" in="SourceGraphic" in2="BackgroundImageFix" result="shape"/>
<feGaussianBlur stdDeviation="0.375" result="effect1_foregroundBlur_878_6591"/>
</filter>
<filter id="filter11_f_878_6591" x="23.5381" y="14.8838" width="3.33691" height="4.55273" filterUnits="userSpaceOnUse" color-interpolation-filters="sRGB">
<feFlood flood-opacity="0" result="BackgroundImageFix"/>
<feBlend mode="normal" in="SourceGraphic" in2="BackgroundImageFix" result="shape"/>
<feGaussianBlur stdDeviation="0.125" result="effect1_foregroundBlur_878_6591"/>
</filter>
<filter id="filter12_i_878_6591" x="26.9932" y="10.6811" width="4.37598" height="2.62656" filterUnits="userSpaceOnUse" color-interpolation-filters="sRGB">
<feFlood flood-opacity="0" result="BackgroundImageFix"/>
<feBlend mode="normal" in="SourceGraphic" in2="BackgroundImageFix" result="shape"/>
<feColorMatrix in="SourceAlpha" type="matrix" values="0 0 0 0 0 0 0 0 0 0 0 0 0 0 0 0 0 0 127 0" result="hardAlpha"/>
<feOffset dx="0.25" dy="-0.4"/>
<feGaussianBlur stdDeviation="0.3"/>
<feComposite in2="hardAlpha" operator="arithmetic" k2="-1" k3="1"/>
<feColorMatrix type="matrix" values="0 0 0 0 0.0431373 0 0 0 0 0.0196078 0 0 0 0 0.027451 0 0 0 1 0"/>
<feBlend mode="normal" in2="shape" result="effect1_innerShadow_878_6591"/>
</filter>
<filter id="filter13_i_878_6591" x="19.2129" y="10.6811" width="4.37598" height="2.62656" filterUnits="userSpaceOnUse" color-interpolation-filters="sRGB">
<feFlood flood-opacity="0" result="BackgroundImageFix"/>
<feBlend mode="normal" in="SourceGraphic" in2="BackgroundImageFix" result="shape"/>
<feColorMatrix in="SourceAlpha" type="matrix" values="0 0 0 0 0 0 0 0 0 0 0 0 0 0 0 0 0 0 127 0" result="hardAlpha"/>
<feOffset dx="0.25" dy="-0.4"/>
<feGaussianBlur stdDeviation="0.3"/>
<feComposite in2="hardAlpha" operator="arithmetic" k2="-1" k3="1"/>
<feColorMatrix type="matrix" values="0 0 0 0 0.0431373 0 0 0 0 0.0196078 0 0 0 0 0.027451 0 0 0 1 0"/>
<feBlend mode="normal" in2="shape" result="effect1_innerShadow_878_6591"/>
</filter>
<filter id="filter14_f_878_6591" x="27.442" y="14.3473" width="1.08672" height="0.95" filterUnits="userSpaceOnUse" color-interpolation-filters="sRGB">
<feFlood flood-opacity="0" result="BackgroundImageFix"/>
<feBlend mode="normal" in="SourceGraphic" in2="BackgroundImageFix" result="shape"/>
<feGaussianBlur stdDeviation="0.05" result="effect1_foregroundBlur_878_6591"/>
</filter>
<filter id="filter15_f_878_6591" x="28.7619" y="14.5119" width="1.14219" height="1.17539" filterUnits="userSpaceOnUse" color-interpolation-filters="sRGB">
<feFlood flood-opacity="0" result="BackgroundImageFix"/>
<feBlend mode="normal" in="SourceGraphic" in2="BackgroundImageFix" result="shape"/>
<feGaussianBlur stdDeviation="0.1" result="effect1_foregroundBlur_878_6591"/>
</filter>
<filter id="filter16_f_878_6591" x="22.048" y="14.4162" width="1.28574" height="1.36777" filterUnits="userSpaceOnUse" color-interpolation-filters="sRGB">
<feFlood flood-opacity="0" result="BackgroundImageFix"/>
<feBlend mode="normal" in="SourceGraphic" in2="BackgroundImageFix" result="shape"/>
<feGaussianBlur stdDeviation="0.1" result="effect1_foregroundBlur_878_6591"/>
</filter>
<filter id="filter17_f_878_6591" x="20.857" y="14.3355" width="1.27715" height="0.962695" filterUnits="userSpaceOnUse" color-interpolation-filters="sRGB">
<feFlood flood-opacity="0" result="BackgroundImageFix"/>
<feBlend mode="normal" in="SourceGraphic" in2="BackgroundImageFix" result="shape"/>
<feGaussianBlur stdDeviation="0.05" result="effect1_foregroundBlur_878_6591"/>
</filter>
<filter id="filter18_f_878_6591" x="27.3672" y="11.2627" width="3.49512" height="1.35156" filterUnits="userSpaceOnUse" color-interpolation-filters="sRGB">
<feFlood flood-opacity="0" result="BackgroundImageFix"/>
<feBlend mode="normal" in="SourceGraphic" in2="BackgroundImageFix" result="shape"/>
<feGaussianBlur stdDeviation="0.125" result="effect1_foregroundBlur_878_6591"/>
</filter>
<filter id="filter19_f_878_6591" x="19.4775" y="11.3574" width="3.61328" height="1.43848" filterUnits="userSpaceOnUse" color-interpolation-filters="sRGB">
<feFlood flood-opacity="0" result="BackgroundImageFix"/>
<feBlend mode="normal" in="SourceGraphic" in2="BackgroundImageFix" result="shape"/>
<feGaussianBlur stdDeviation="0.125" result="effect1_foregroundBlur_878_6591"/>
</filter>
<filter id="filter20_f_878_6591" x="17.5908" y="8.34473" width="1.13965" height="3.04688" filterUnits="userSpaceOnUse" color-interpolation-filters="sRGB">
<feFlood flood-opacity="0" result="BackgroundImageFix"/>
<feBlend mode="normal" in="SourceGraphic" in2="BackgroundImageFix" result="shape"/>
<feGaussianBlur stdDeviation="0.125" result="effect1_foregroundBlur_878_6591"/>
</filter>
<filter id="filter21_i_878_6591" x="16.1094" y="4.65215" width="18.2021" height="4.37715" filterUnits="userSpaceOnUse" color-interpolation-filters="sRGB">
<feFlood flood-opacity="0" result="BackgroundImageFix"/>
<feBlend mode="normal" in="SourceGraphic" in2="BackgroundImageFix" result="shape"/>
<feColorMatrix in="SourceAlpha" type="matrix" values="0 0 0 0 0 0 0 0 0 0 0 0 0 0 0 0 0 0 127 0" result="hardAlpha"/>
<feOffset dy="-0.05"/>
<feGaussianBlur stdDeviation="0.025"/>
<feComposite in2="hardAlpha" operator="arithmetic" k2="-1" k3="1"/>
<feColorMatrix type="matrix" values="0 0 0 0 0.360784 0 0 0 0 0.337255 0 0 0 0 0.372549 0 0 0 1 0"/>
<feBlend mode="normal" in2="shape" result="effect1_innerShadow_878_6591"/>
</filter>
<radialGradient id="paint0_radial_878_6591" cx="0" cy="0" r="1" gradientUnits="userSpaceOnUse" gradientTransform="translate(36.1726 34.6556) rotate(90) scale(16.3125 5.48438)">
<stop stop-color="#70647F"/>
<stop offset="1" stop-color="#70647F" stop-opacity="0"/>
</radialGradient>
<radialGradient id="paint1_radial_878_6591" cx="0" cy="0" r="1" gradientUnits="userSpaceOnUse" gradientTransform="translate(14.282 32.1713) scale(1.96875 10.5937)">
<stop stop-color="#5D516A"/>
<stop offset="1" stop-color="#5D516A" stop-opacity="0"/>
</radialGradient>
<radialGradient id="paint2_radial_878_6591" cx="0" cy="0" r="1" gradientUnits="userSpaceOnUse" gradientTransform="translate(25.2314 32.0068) rotate(-90) scale(7.07812 20.479)">
<stop stop-color="#47404D"/>
<stop offset="1" stop-color="#3B2D3A"/>
</radialGradient>
<radialGradient id="paint3_radial_878_6591" cx="0" cy="0" r="1" gradientUnits="userSpaceOnUse" gradientTransform="translate(25.2197 25.3271) rotate(90) scale(8.90625 11.3131)">
<stop offset="0.931579" stop-color="#342542" stop-opacity="0"/>
<stop offset="0.994737" stop-color="#342542"/>
</radialGradient>
<radialGradient id="paint4_radial_878_6591" cx="0" cy="0" r="1" gradientUnits="userSpaceOnUse" gradientTransform="translate(24.5941 23.3115) rotate(145.631) scale(10.6906 14.7389)">
<stop offset="0.9281" stop-color="#6A656F" stop-opacity="0"/>
<stop offset="1" stop-color="#6A656F"/>
</radialGradient>
<radialGradient id="paint5_radial_878_6591" cx="0" cy="0" r="1" gradientUnits="userSpaceOnUse" gradientTransform="translate(24.2191 22.96) rotate(34.2663) scale(12.2799 16.9299)">
<stop offset="0.933129" stop-color="#6A656F" stop-opacity="0"/>
<stop offset="1" stop-color="#615B67"/>
</radialGradient>
<radialGradient id="paint6_radial_878_6591" cx="0" cy="0" r="1" gradientUnits="userSpaceOnUse" gradientTransform="translate(25.2197 35.4053) rotate(-90) scale(15.0937 15.968)">
<stop offset="0.506211" stop-color="#57525D" stop-opacity="0"/>
<stop offset="1" stop-color="#57525D"/>
</radialGradient>
<radialGradient id="paint7_radial_878_6591" cx="0" cy="0" r="1" gradientUnits="userSpaceOnUse" gradientTransform="translate(24.2684 22.2024) rotate(85.2806) scale(6.32191 11.6328)">
<stop offset="0.316364" stop-color="#1C1026"/>
<stop offset="1" stop-color="#1C1026" stop-opacity="0"/>
</radialGradient>
<radialGradient id="paint8_radial_878_6591" cx="0" cy="0" r="1" gradientUnits="userSpaceOnUse" gradientTransform="translate(27.1755 27.3131) rotate(-154.408) scale(4.93753 4.1572)">
<stop stop-color="#CD9E8E"/>
<stop offset="1" stop-color="#A56D67"/>
<stop offset="1" stop-color="#B78273"/>
</radialGradient>
<radialGradient id="paint9_radial_878_6591" cx="0" cy="0" r="1" gradientUnits="userSpaceOnUse" gradientTransform="translate(25.1994 25.4615) rotate(90) scale(1.40625 3.09)">
<stop stop-color="#B0797E"/>
<stop offset="1" stop-color="#B0797E" stop-opacity="0"/>
</radialGradient>
<radialGradient id="paint10_radial_878_6591" cx="0" cy="0" r="1" gradientUnits="userSpaceOnUse" gradientTransform="translate(25.1994 21.7993) rotate(90) scale(6.81105 6.39273)">
<stop offset="0.809859" stop-color="#B5836A" stop-opacity="0"/>
<stop offset="1" stop-color="#B5836A"/>
</radialGradient>
<linearGradient id="paint11_linear_878_6591" x1="36.7547" y1="13.3964" x2="38.5338" y2="13.3964" gradientUnits="userSpaceOnUse">
<stop stop-color="#33203C"/>
<stop offset="1" stop-color="#61546D"/>
</linearGradient>
<radialGradient id="paint12_radial_878_6591" cx="0" cy="0" r="1" gradientUnits="userSpaceOnUse" gradientTransform="translate(38.0821 17.4857) rotate(-90) scale(3.5021 0.270471)">
<stop stop-color="#70635D"/>
<stop offset="1" stop-color="#70635D" stop-opacity="0"/>
</radialGradient>
<radialGradient id="paint13_radial_878_6591" cx="0" cy="0" r="1" gradientUnits="userSpaceOnUse" gradientTransform="translate(38.4697 18.043) rotate(126.437) scale(2.0522 1.83925)">
<stop stop-color="#686071"/>
<stop offset="0.661286" stop-color="#402A4C"/>
</radialGradient>
<radialGradient id="paint14_radial_878_6591" cx="0" cy="0" r="1" gradientUnits="userSpaceOnUse" gradientTransform="translate(36.4629 18.6303) rotate(-6.43681) scale(1.20211 1.40996)">
<stop offset="0.0866887" stop-color="#685352"/>
<stop offset="1" stop-color="#685352" stop-opacity="0"/>
</radialGradient>
<linearGradient id="paint15_linear_878_6591" x1="38.374" y1="5.54687" x2="38.374" y2="17.1982" gradientUnits="userSpaceOnUse">
<stop stop-color="#60546C"/>
<stop offset="1" stop-color="#504B55"/>
</linearGradient>
<linearGradient id="paint16_linear_878_6591" x1="39.447" y1="22.1935" x2="35.9683" y2="22.1935" gradientUnits="userSpaceOnUse">
<stop stop-color="#F9B72A"/>
<stop offset="0.89726" stop-color="#FAAC28"/>
</linearGradient>
<radialGradient id="paint17_radial_878_6591" cx="0" cy="0" r="1" gradientUnits="userSpaceOnUse" gradientTransform="translate(39.6138 22.0114) rotate(169.33) scale(1.67298 8.34601)">
<stop offset="0.285799" stop-color="#FFD93A"/>
<stop offset="1" stop-color="#FFD93A" stop-opacity="0"/>
</radialGradient>
<radialGradient id="paint18_radial_878_6591" cx="0" cy="0" r="1" gradientUnits="userSpaceOnUse" gradientTransform="translate(37.7201 19.6441) rotate(90) scale(0.597656 2.07265)">
<stop offset="0.16129" stop-color="#845D03"/>
<stop offset="1" stop-color="#EBA429" stop-opacity="0"/>
</radialGradient>
<linearGradient id="paint19_linear_878_6591" x1="36.146" y1="21.7124" x2="37.4585" y2="21.982" gradientUnits="userSpaceOnUse">
<stop stop-color="#C57E10"/>
<stop offset="1" stop-color="#DF8F14" stop-opacity="0"/>
</linearGradient>
<radialGradient id="paint20_radial_878_6591" cx="0" cy="0" r="1" gradientUnits="userSpaceOnUse" gradientTransform="translate(37.7201 25.3277) rotate(-90) scale(1.96875 4.33565)">
<stop offset="0.421677" stop-color="#A16739"/>
<stop offset="1" stop-color="#DB9820" stop-opacity="0"/>
</radialGradient>
<radialGradient id="paint21_radial_878_6591" cx="0" cy="0" r="1" gradientUnits="userSpaceOnUse" gradientTransform="translate(8.72754 44.9762) rotate(-90) scale(24.5601 6.54696)">
<stop stop-color="#766C83"/>
<stop offset="0.441285" stop-color="#58496A"/>
<stop offset="1" stop-color="#4D4159"/>
</radialGradient>
<radialGradient id="paint22_radial_878_6591" cx="0" cy="0" r="1" gradientUnits="userSpaceOnUse" gradientTransform="translate(14.3757 44.9762) rotate(-90) scale(15.7802 1.23619)">
<stop offset="0.285977" stop-color="#4F445B"/>
<stop offset="1" stop-color="#4F445B" stop-opacity="0"/>
</radialGradient>
<linearGradient id="paint23_linear_878_6591" x1="14.592" y1="42.0795" x2="13.9539" y2="42.0795" gradientUnits="userSpaceOnUse">
<stop offset="0.444444" stop-color="#433850"/>
<stop offset="1" stop-color="#433850" stop-opacity="0"/>
</linearGradient>
<radialGradient id="paint24_radial_878_6591" cx="0" cy="0" r="1" gradientUnits="userSpaceOnUse" gradientTransform="translate(38.8888 44.9763) rotate(-100.465) scale(15.5483 4.36694)">
<stop stop-color="#736782"/>
<stop offset="1" stop-color="#5F5070"/>
</radialGradient>
<radialGradient id="paint25_radial_878_6591" cx="0" cy="0" r="1" gradientUnits="userSpaceOnUse" gradientTransform="translate(35.8121 34.7186) rotate(87.4134) scale(18.0686 1.05522)">
<stop offset="0.176695" stop-color="#3F2A51"/>
<stop offset="1" stop-color="#3F2A51" stop-opacity="0"/>
</radialGradient>
<linearGradient id="paint26_linear_878_6591" x1="25.2197" y1="44.7803" x2="25.2197" y2="35.1299" gradientUnits="userSpaceOnUse">
<stop stop-color="#3F3748"/>
<stop offset="1" stop-color="#3F3748" stop-opacity="0"/>
</linearGradient>
<linearGradient id="paint27_linear_878_6591" x1="25.2197" y1="44.7803" x2="25.2197" y2="35.1299" gradientUnits="userSpaceOnUse">
<stop stop-color="#3F3748"/>
<stop offset="1" stop-color="#3F3748" stop-opacity="0"/>
</linearGradient>
<linearGradient id="paint28_linear_878_6591" x1="25.2197" y1="44.7803" x2="25.2197" y2="35.1299" gradientUnits="userSpaceOnUse">
<stop stop-color="#3F3748"/>
<stop offset="1" stop-color="#3F3748" stop-opacity="0"/>
</linearGradient>
<radialGradient id="paint29_radial_878_6591" cx="0" cy="0" r="1" gradientUnits="userSpaceOnUse" gradientTransform="translate(15.5078 15.992) scale(2.65236 4.64166)">
<stop offset="0.350532" stop-color="#CF9888"/>
<stop offset="1" stop-color="#BE8C77"/>
</radialGradient>
<linearGradient id="paint30_linear_878_6591" x1="18.0312" y1="16.4133" x2="17.063" y2="16.4133" gradientUnits="userSpaceOnUse">
<stop stop-color="#BA7C6B"/>
<stop offset="1" stop-color="#BE8474"/>
</linearGradient>
<linearGradient id="paint31_linear_878_6591" x1="34.0521" y1="14.3422" x2="32.8147" y2="18.1757" gradientUnits="userSpaceOnUse">
<stop stop-color="#FBD3BD"/>
<stop offset="1" stop-color="#F0B8A4"/>
</linearGradient>
<radialGradient id="paint32_radial_878_6591" cx="0" cy="0" r="1" gradientUnits="userSpaceOnUse" gradientTransform="translate(32.9724 15.5917) rotate(-36.0604) scale(1.54566 1.76417)">
<stop offset="0.542503" stop-color="#D9AA94"/>
<stop offset="1" stop-color="#D9AA94" stop-opacity="0"/>
</radialGradient>
<radialGradient id="paint33_radial_878_6591" cx="0" cy="0" r="1" gradientUnits="userSpaceOnUse" gradientTransform="translate(32.3466 17.2334) rotate(-61.4675) scale(2.59869 1.52102)">
<stop offset="0.754913" stop-color="#D6A38D" stop-opacity="0"/>
<stop offset="0.915553" stop-color="#D6A38D"/>
</radialGradient>
<radialGradient id="paint34_radial_878_6591" cx="0" cy="0" r="1" gradientUnits="userSpaceOnUse" gradientTransform="translate(32.4091 15.9921) rotate(44.7077) scale(0.551421 0.710858)">
<stop stop-color="#D5A58E"/>
<stop offset="1" stop-color="#D5A58E" stop-opacity="0"/>
</radialGradient>
<linearGradient id="paint35_linear_878_6591" x1="31.3072" y1="16.5809" x2="19.7646" y2="18.3009" gradientUnits="userSpaceOnUse">
<stop stop-color="#FFDAC0"/>
<stop offset="1" stop-color="#DAA594"/>
</linearGradient>
<radialGradient id="paint36_radial_878_6591" cx="0" cy="0" r="1" gradientUnits="userSpaceOnUse" gradientTransform="translate(25.2507 13.0826) rotate(90) scale(13.2482 17.9837)">
<stop offset="0.487013" stop-color="#CD9695" stop-opacity="0"/>
<stop offset="1" stop-color="#AB7277"/>
</radialGradient>
<linearGradient id="paint37_linear_878_6591" x1="16.679" y1="18.8895" x2="21.7546" y2="19.0615" gradientUnits="userSpaceOnUse">
<stop stop-color="#A58787"/>
<stop offset="1" stop-color="#DEAD9D" stop-opacity="0"/>
</linearGradient>
<linearGradient id="paint38_linear_878_6591" x1="17.0516" y1="20.6557" x2="19.8953" y2="20.5544" gradientUnits="userSpaceOnUse">
<stop stop-color="#E8AD97"/>
<stop offset="1" stop-color="#E8AD97" stop-opacity="0"/>
</linearGradient>
<radialGradient id="paint39_radial_878_6591" cx="0" cy="0" r="1" gradientUnits="userSpaceOnUse" gradientTransform="translate(28.7531 14.0705) rotate(-90) scale(1.97557 2.43146)">
<stop stop-color="#F5B7A7"/>
<stop offset="1" stop-color="#F5B7A7" stop-opacity="0"/>
</radialGradient>
<radialGradient id="paint40_radial_878_6591" cx="0" cy="0" r="1" gradientUnits="userSpaceOnUse" gradientTransform="translate(21.8639 14.0198) rotate(-90) scale(2.1022 2.61428)">
<stop stop-color="#D0958D"/>
<stop offset="1" stop-color="#D0958D" stop-opacity="0"/>
</radialGradient>
<radialGradient id="paint41_radial_878_6591" cx="0" cy="0" r="1" gradientUnits="userSpaceOnUse" gradientTransform="translate(25.0161 7.07551) rotate(86.4627) scale(3.8017 10.7967)">
<stop offset="0.514206" stop-color="#C1887B"/>
<stop offset="1" stop-color="#C1887B" stop-opacity="0"/>
</radialGradient>
<linearGradient id="paint42_linear_878_6591" x1="24.7001" y1="12.5422" x2="37.0094" y2="8.13522" gradientUnits="userSpaceOnUse">
<stop stop-color="#FFDEC4"/>
<stop offset="1" stop-color="#FFDEC4" stop-opacity="0"/>
</linearGradient>
<radialGradient id="paint43_radial_878_6591" cx="0" cy="0" r="1" gradientUnits="userSpaceOnUse" gradientTransform="translate(31.7742 9.78511) rotate(-74.8989) scale(4.62857 1.71642)">
<stop stop-color="#464344"/>
<stop offset="1" stop-color="#464344" stop-opacity="0"/>
</radialGradient>
<radialGradient id="paint44_radial_878_6591" cx="0" cy="0" r="1" gradientUnits="userSpaceOnUse" gradientTransform="translate(29.2916 7.12515) rotate(5.25781) scale(5.80541 3.12153)">
<stop offset="0.12243" stop-color="#4A4648"/>
<stop offset="1" stop-color="#4A4648" stop-opacity="0"/>
</radialGradient>
<radialGradient id="paint45_radial_878_6591" cx="0" cy="0" r="1" gradientUnits="userSpaceOnUse" gradientTransform="translate(25.2068 2.99121) rotate(90) scale(2.53796 3.93059)">
<stop stop-color="#423D3F"/>
<stop offset="1" stop-color="#423D3F" stop-opacity="0"/>
</radialGradient>
<radialGradient id="paint46_radial_878_6591" cx="0" cy="0" r="1" gradientUnits="userSpaceOnUse" gradientTransform="translate(15.4598 13.2963) rotate(-36.2349) scale(5.76006 9.02413)">
<stop stop-color="#463C39"/>
<stop offset="1" stop-color="#463C39" stop-opacity="0"/>
</radialGradient>
<linearGradient id="paint47_linear_878_6591" x1="23.9003" y1="17.5768" x2="25.3183" y2="17.5768" gradientUnits="userSpaceOnUse">
<stop stop-color="#DFA790"/>
<stop offset="1" stop-color="#DFA790" stop-opacity="0"/>
</linearGradient>
<linearGradient id="paint48_linear_878_6591" x1="26.6248" y1="18.0643" x2="25.0746" y2="18.0421" gradientUnits="userSpaceOnUse">
<stop stop-color="#FFDFC4"/>
<stop offset="1" stop-color="#FFDFC4" stop-opacity="0"/>
</linearGradient>
<linearGradient id="paint49_linear_878_6591" x1="25.5005" y1="19.1862" x2="25.5005" y2="18.3201" gradientUnits="userSpaceOnUse">
<stop stop-color="#DC9C96"/>
<stop offset="1" stop-color="#DC9C96" stop-opacity="0"/>
</linearGradient>
<radialGradient id="paint50_radial_878_6591" cx="0" cy="0" r="1" gradientUnits="userSpaceOnUse" gradientTransform="translate(25.701 18.4201) rotate(90) scale(0.297601 0.956123)">
<stop stop-color="#FFD7C1"/>
<stop offset="1" stop-color="#FFD7C1" stop-opacity="0"/>
</radialGradient>
<linearGradient id="paint51_linear_878_6591" x1="25.3964" y1="19.2496" x2="25.3964" y2="18.9963" gradientUnits="userSpaceOnUse">
<stop stop-color="#D6938E"/>
<stop offset="1" stop-color="#D6938E" stop-opacity="0"/>
</linearGradient>
<linearGradient id="paint52_linear_878_6591" x1="23.6395" y1="21.6272" x2="24.2969" y2="20.588" gradientUnits="userSpaceOnUse">
<stop stop-color="#D9A4A4"/>
<stop offset="0.663171" stop-color="#D9A4A4" stop-opacity="0"/>
</linearGradient>
<radialGradient id="paint53_radial_878_6591" cx="0" cy="0" r="1" gradientUnits="userSpaceOnUse" gradientTransform="translate(28.5001 14.9611) rotate(90) scale(1.22597 1.95005)">
<stop offset="0.80198" stop-color="#7D574A"/>
<stop offset="1" stop-color="#694B43"/>
<stop offset="1" stop-color="#804D49"/>
<stop offset="1" stop-color="#664944"/>
</radialGradient>
<radialGradient id="paint54_radial_878_6591" cx="0" cy="0" r="1" gradientUnits="userSpaceOnUse" gradientTransform="translate(28.1555 15.0884) rotate(-127.812) scale(0.571624 0.786989)">
<stop offset="0.765532" stop-color="#FFE6E2" stop-opacity="0"/>
<stop offset="0.966159" stop-color="#FFE6E2"/>
</radialGradient>
<linearGradient id="paint55_linear_878_6591" x1="29.6755" y1="15.0424" x2="29.2014" y2="15.3345" gradientUnits="userSpaceOnUse">
<stop stop-color="#B4948D"/>
<stop offset="1" stop-color="#B4948D" stop-opacity="0"/>
</linearGradient>
<radialGradient id="paint56_radial_878_6591" cx="0" cy="0" r="1" gradientUnits="userSpaceOnUse" gradientTransform="translate(21.9054 14.9611) rotate(90) scale(1.22603 1.95015)">
<stop offset="0.80198" stop-color="#7D574A"/>
<stop offset="1" stop-color="#694B43"/>
<stop offset="1" stop-color="#804D49"/>
<stop offset="1" stop-color="#664944"/>
</radialGradient>
<linearGradient id="paint57_linear_878_6591" x1="23.029" y1="15.0424" x2="22.5549" y2="15.3346" gradientUnits="userSpaceOnUse">
<stop stop-color="#B4948D"/>
<stop offset="1" stop-color="#B4948D" stop-opacity="0"/>
</linearGradient>
<radialGradient id="paint58_radial_878_6591" cx="0" cy="0" r="1" gradientUnits="userSpaceOnUse" gradientTransform="translate(21.4729 15.2926) rotate(-90.897) scale(0.746694 0.897557)">
<stop offset="0.765532" stop-color="#FFE6E2" stop-opacity="0"/>
<stop offset="0.966159" stop-color="#FFE6E2"/>
</radialGradient>
<linearGradient id="paint59_linear_878_6591" x1="29.6995" y1="11.8088" x2="29.0644" y2="10.511" gradientUnits="userSpaceOnUse">
<stop stop-color="#353435"/>
<stop offset="1" stop-color="#353435" stop-opacity="0"/>
</linearGradient>
<linearGradient id="paint60_linear_878_6591" x1="21.6817" y1="11.6149" x2="19.8844" y2="10.8611" gradientUnits="userSpaceOnUse">
<stop stop-color="#353435"/>
<stop offset="1" stop-color="#353435" stop-opacity="0"/>
</linearGradient>
<linearGradient id="paint61_linear_878_6591" x1="18.1609" y1="8.57052" x2="18.1609" y2="11.8307" gradientUnits="userSpaceOnUse">
<stop stop-color="#3C393A"/>
<stop offset="1" stop-color="#3C393A" stop-opacity="0"/>
</linearGradient>
<radialGradient id="paint62_radial_878_6591" cx="0" cy="0" r="1" gradientUnits="userSpaceOnUse" gradientTransform="translate(29.0131 8.80249) rotate(-100.585) scale(5.44336 6.08109)">
<stop offset="0.110042" stop-color="#595260"/>
<stop offset="1" stop-color="#372E41"/>
</radialGradient>
<radialGradient id="paint63_radial_878_6591" cx="0" cy="0" r="1" gradientUnits="userSpaceOnUse" gradientTransform="translate(25.1221 4.28744) rotate(90) scale(2.96117 10.6906)">
<stop offset="0.263158" stop-color="#160C20"/>
<stop offset="1" stop-color="#160C20" stop-opacity="0"/>
</radialGradient>
<linearGradient id="paint64_linear_878_6591" x1="27.8758" y1="5.9209" x2="25.9539" y2="-0.641602" gradientUnits="userSpaceOnUse">
<stop stop-color="#3D294B"/>
<stop offset="1" stop-color="#433A4D"/>
</linearGradient>
<radialGradient id="paint65_radial_878_6591" cx="0" cy="0" r="1" gradientUnits="userSpaceOnUse" gradientTransform="translate(33.8289 3.57715) rotate(90) scale(1.40625 19.0313)">
<stop stop-color="#696070"/>
<stop offset="0.866667" stop-color="#696070" stop-opacity="0"/>
</radialGradient>
<radialGradient id="paint66_radial_878_6591" cx="0" cy="0" r="1" gradientUnits="userSpaceOnUse" gradientTransform="translate(11.3758 4.51465) scale(11.625 1.3125)">
<stop stop-color="#75707B"/>
<stop offset="0.935484" stop-color="#75707B" stop-opacity="0"/>
</radialGradient>
</defs>
</svg>
