<svg width="40" height="40" viewBox="0 0 40 40" fill="none" xmlns="http://www.w3.org/2000/svg">
<path opacity="0.2" d="M27.5 20C27.5 21.4834 27.0601 22.9334 26.236 24.1668C25.4119 25.4001 24.2406 26.3614 22.8701 26.9291C21.4997 27.4968 19.9917 27.6453 18.5368 27.3559C17.082 27.0665 15.7456 26.3522 14.6967 25.3033C13.6478 24.2544 12.9335 22.918 12.6441 21.4632C12.3547 20.0083 12.5032 18.5003 13.0709 17.1299C13.6386 15.7594 14.5999 14.5881 15.8332 13.764C17.0666 12.9399 18.5166 12.5 20 12.5C21.9891 12.5 23.8968 13.2902 25.3033 14.6967C26.7098 16.1032 27.5 18.0109 27.5 20Z" fill="#2E7D32"/>
<path d="M34.6667 12.9934C36.4013 16.6212 36.7306 20.763 35.591 24.6193C34.4515 28.4756 31.9238 31.7731 28.496 33.8754C25.0681 35.9777 20.9831 36.7358 17.0292 36.0032C13.0753 35.2707 9.53289 33.0996 7.08566 29.9088C4.63842 26.7181 3.45984 22.7339 3.77738 18.7253C4.09492 14.7167 5.88608 10.9678 8.80514 8.20215C11.7242 5.43649 15.5643 3.85014 19.5842 3.74926C23.6041 3.64839 27.5189 5.04013 30.573 7.6559L34.1152 4.11215C34.3497 3.87759 34.6678 3.74583 34.9995 3.74583C35.3312 3.74583 35.6494 3.87759 35.8839 4.11215C36.1185 4.3467 36.2502 4.66482 36.2502 4.99652C36.2502 5.32823 36.1185 5.64634 35.8839 5.8809L20.8839 20.8809C20.6494 21.1154 20.3312 21.2472 19.9995 21.2472C19.6678 21.2472 19.3497 21.1154 19.1152 20.8809C18.8806 20.6463 18.7488 20.3282 18.7488 19.9965C18.7488 19.6648 18.8806 19.3467 19.1152 19.1121L23.4464 14.7809C22.2726 14.0046 20.8711 13.6471 19.4689 13.7664C18.0666 13.8857 16.7457 14.4748 15.7199 15.4383C14.6941 16.4017 14.0234 17.6832 13.8166 19.0752C13.6097 20.4673 13.8787 21.8884 14.58 23.1085C15.2813 24.3286 16.3739 25.2764 17.6809 25.7983C18.9878 26.3202 20.4327 26.3857 21.7815 25.9843C23.1304 25.5828 24.3042 24.7379 25.1131 23.5863C25.922 22.4347 26.3186 21.0437 26.2386 19.6387C26.2294 19.4746 26.2525 19.3102 26.3068 19.155C26.3611 18.9998 26.4454 18.8568 26.555 18.7342C26.6645 18.6116 26.7972 18.5118 26.9453 18.4405C27.0934 18.3691 27.2541 18.3276 27.4183 18.3184C27.7498 18.2997 28.0752 18.4136 28.3228 18.6348C28.4454 18.7443 28.5452 18.877 28.6165 19.0251C28.6879 19.1732 28.7294 19.3339 28.7386 19.4981C28.8526 21.4868 28.2845 23.4549 27.1284 25.077C25.9723 26.6992 24.2973 27.8783 22.3803 28.4195C20.4632 28.9607 18.4189 28.8316 16.5851 28.0536C14.7514 27.2755 13.238 25.895 12.2952 24.1403C11.3523 22.3856 11.0364 20.3617 11.3996 18.4031C11.7629 16.4445 12.7835 14.6685 14.2929 13.3686C15.8022 12.0687 17.71 11.3227 19.7008 11.2539C21.6915 11.1851 23.6462 11.7976 25.2417 12.9903L28.7964 9.43558C26.1914 7.27276 22.8792 6.14865 19.4959 6.27914C16.1126 6.40963 12.8967 7.78552 10.4661 10.1426C8.0354 12.4996 6.56126 15.6716 6.32678 19.0493C6.09231 22.427 7.11403 25.7722 9.19572 28.4425C11.2774 31.1128 14.2723 32.9198 17.6051 33.5165C20.9379 34.1132 24.3737 33.4575 27.2525 31.6754C30.1314 29.8933 32.2503 27.1103 33.2023 23.8611C34.1544 20.6119 33.8723 17.1255 32.4105 14.0715C32.2675 13.7723 32.2492 13.4286 32.3597 13.1159C32.4702 12.8033 32.7003 12.5473 32.9995 12.4043C33.2987 12.2614 33.6425 12.2431 33.9551 12.3536C34.2678 12.464 34.5237 12.6942 34.6667 12.9934Z" fill="#2E7D32"/>
</svg>
