<svg width="48" height="48" viewBox="0 0 48 48" fill="none" xmlns="http://www.w3.org/2000/svg">
<path fill-rule="evenodd" clip-rule="evenodd" d="M18.6518 12.3281C18.4239 12.3281 18.2393 12.5128 18.2393 12.7406V16.4435H14.8643V12.7406C14.8643 10.6488 16.56 8.95312 18.6518 8.95312H29.0533C31.1451 8.95312 32.8408 10.6488 32.8408 12.7406V16.7578H29.4658V12.7406C29.4658 12.5128 29.2811 12.3281 29.0533 12.3281H18.6518Z" fill="url(#paint0_linear_878_6701)"/>
<path fill-rule="evenodd" clip-rule="evenodd" d="M18.6518 12.3281C18.4239 12.3281 18.2393 12.5128 18.2393 12.7406V16.4435H14.8643V12.7406C14.8643 10.6488 16.56 8.95312 18.6518 8.95312H29.0533C31.1451 8.95312 32.8408 10.6488 32.8408 12.7406V16.7578H29.4658V12.7406C29.4658 12.5128 29.2811 12.3281 29.0533 12.3281H18.6518Z" fill="url(#paint1_radial_878_6701)"/>
<path fill-rule="evenodd" clip-rule="evenodd" d="M18.6518 12.3281C18.4239 12.3281 18.2393 12.5128 18.2393 12.7406V16.4435H14.8643V12.7406C14.8643 10.6488 16.56 8.95312 18.6518 8.95312H29.0533C31.1451 8.95312 32.8408 10.6488 32.8408 12.7406V16.7578H29.4658V12.7406C29.4658 12.5128 29.2811 12.3281 29.0533 12.3281H18.6518Z" fill="url(#paint2_radial_878_6701)"/>
<path fill-rule="evenodd" clip-rule="evenodd" d="M18.6518 12.3281C18.4239 12.3281 18.2393 12.5128 18.2393 12.7406V16.4435H14.8643V12.7406C14.8643 10.6488 16.56 8.95312 18.6518 8.95312H29.0533C31.1451 8.95312 32.8408 10.6488 32.8408 12.7406V16.7578H29.4658V12.7406C29.4658 12.5128 29.2811 12.3281 29.0533 12.3281H18.6518Z" fill="url(#paint3_radial_878_6701)"/>
<path fill-rule="evenodd" clip-rule="evenodd" d="M18.6518 12.3281C18.4239 12.3281 18.2393 12.5128 18.2393 12.7406V16.4435H14.8643V12.7406C14.8643 10.6488 16.56 8.95312 18.6518 8.95312H29.0533C31.1451 8.95312 32.8408 10.6488 32.8408 12.7406V16.7578H29.4658V12.7406C29.4658 12.5128 29.2811 12.3281 29.0533 12.3281H18.6518Z" fill="url(#paint4_radial_878_6701)"/>
<path d="M3.02832 20.2969C3.02832 17.3974 5.37883 15.0469 8.27832 15.0469H39.4502C42.3497 15.0469 44.7002 17.3974 44.7002 20.2969V41.8125C44.7002 43.4694 43.357 44.8125 41.7002 44.8125H6.02832C4.37147 44.8125 3.02832 43.4694 3.02832 41.8125V20.2969Z" fill="url(#paint5_linear_878_6701)"/>
<path d="M3.02832 20.2969C3.02832 17.3974 5.37883 15.0469 8.27832 15.0469H39.4502C42.3497 15.0469 44.7002 17.3974 44.7002 20.2969V41.8125C44.7002 43.4694 43.357 44.8125 41.7002 44.8125H6.02832C4.37147 44.8125 3.02832 43.4694 3.02832 41.8125V20.2969Z" fill="url(#paint6_linear_878_6701)"/>
<path d="M3.02832 20.2969C3.02832 17.3974 5.37883 15.0469 8.27832 15.0469H39.4502C42.3497 15.0469 44.7002 17.3974 44.7002 20.2969V41.8125C44.7002 43.4694 43.357 44.8125 41.7002 44.8125H6.02832C4.37147 44.8125 3.02832 43.4694 3.02832 41.8125V20.2969Z" fill="url(#paint7_linear_878_6701)"/>
<path d="M3.02832 20.2969C3.02832 17.3974 5.37883 15.0469 8.27832 15.0469H39.4502C42.3497 15.0469 44.7002 17.3974 44.7002 20.2969V41.8125C44.7002 43.4694 43.357 44.8125 41.7002 44.8125H6.02832C4.37147 44.8125 3.02832 43.4694 3.02832 41.8125V20.2969Z" fill="url(#paint8_linear_878_6701)"/>
<path d="M3.02832 20.2969C3.02832 17.3974 5.37883 15.0469 8.27832 15.0469H39.4502C42.3497 15.0469 44.7002 17.3974 44.7002 20.2969V41.8125C44.7002 43.4694 43.357 44.8125 41.7002 44.8125H6.02832C4.37147 44.8125 3.02832 43.4694 3.02832 41.8125V20.2969Z" fill="url(#paint9_linear_878_6701)"/>
<path d="M3.02832 20.2969C3.02832 17.3974 5.37883 15.0469 8.27832 15.0469H39.4502C42.3497 15.0469 44.7002 17.3974 44.7002 20.2969V41.8125C44.7002 43.4694 43.357 44.8125 41.7002 44.8125H6.02832C4.37147 44.8125 3.02832 43.4694 3.02832 41.8125V20.2969Z" fill="url(#paint10_linear_878_6701)"/>
<path d="M3.02832 20.2969C3.02832 17.3974 5.37883 15.0469 8.27832 15.0469H39.4502C42.3497 15.0469 44.7002 17.3974 44.7002 20.2969V41.8125C44.7002 43.4694 43.357 44.8125 41.7002 44.8125H6.02832C4.37147 44.8125 3.02832 43.4694 3.02832 41.8125V20.2969Z" fill="url(#paint11_linear_878_6701)"/>
<path d="M3.02832 20.2969C3.02832 17.3974 5.37883 15.0469 8.27832 15.0469H39.4502C42.3497 15.0469 44.7002 17.3974 44.7002 20.2969V41.8125C44.7002 43.4694 43.357 44.8125 41.7002 44.8125H6.02832C4.37147 44.8125 3.02832 43.4694 3.02832 41.8125V20.2969Z" fill="url(#paint12_linear_878_6701)"/>
<path d="M3.02832 20.2969C3.02832 17.3974 5.37883 15.0469 8.27832 15.0469H39.4502C42.3497 15.0469 44.7002 17.3974 44.7002 20.2969V41.8125C44.7002 43.4694 43.357 44.8125 41.7002 44.8125H6.02832C4.37147 44.8125 3.02832 43.4694 3.02832 41.8125V20.2969Z" fill="url(#paint13_radial_878_6701)"/>
<path d="M3.02832 20.2969C3.02832 17.3974 5.37883 15.0469 8.27832 15.0469H39.4502C42.3497 15.0469 44.7002 17.3974 44.7002 20.2969V41.8125C44.7002 43.4694 43.357 44.8125 41.7002 44.8125H6.02832C4.37147 44.8125 3.02832 43.4694 3.02832 41.8125V20.2969Z" fill="url(#paint14_radial_878_6701)"/>
<path d="M3.02832 20.2969C3.02832 17.3974 5.37883 15.0469 8.27832 15.0469H39.4502C42.3497 15.0469 44.7002 17.3974 44.7002 20.2969V41.8125C44.7002 43.4694 43.357 44.8125 41.7002 44.8125H6.02832C4.37147 44.8125 3.02832 43.4694 3.02832 41.8125V20.2969Z" fill="url(#paint15_radial_878_6701)"/>
<rect x="2.67676" y="25.5117" width="42.375" height="1.48828" rx="0.4" fill="#CB236C"/>
<rect x="2.67676" y="25.5117" width="42.375" height="1.48828" rx="0.4" fill="url(#paint16_linear_878_6701)"/>
<rect x="2.67676" y="25.5117" width="42.375" height="1.48828" rx="0.4" fill="url(#paint17_linear_878_6701)"/>
<rect x="2.67676" y="25.5117" width="42.375" height="1.48828" rx="0.4" fill="url(#paint18_radial_878_6701)"/>
<path d="M31.3408 25.125C31.3408 24.5037 31.8445 24 32.4658 24H36.1924C36.8137 24 37.3174 24.5037 37.3174 25.125V26.918C37.3174 28.5684 35.9795 29.9062 34.3291 29.9062C32.6787 29.9062 31.3408 28.5684 31.3408 26.918V25.125Z" fill="#C4B3D4"/>
<path d="M31.3408 25.125C31.3408 24.5037 31.8445 24 32.4658 24H36.1924C36.8137 24 37.3174 24.5037 37.3174 25.125V26.918C37.3174 28.5684 35.9795 29.9062 34.3291 29.9062C32.6787 29.9062 31.3408 28.5684 31.3408 26.918V25.125Z" fill="url(#paint19_radial_878_6701)"/>
<path d="M31.3408 25.125C31.3408 24.5037 31.8445 24 32.4658 24H36.1924C36.8137 24 37.3174 24.5037 37.3174 25.125V26.918C37.3174 28.5684 35.9795 29.9062 34.3291 29.9062C32.6787 29.9062 31.3408 28.5684 31.3408 26.918V25.125Z" fill="url(#paint20_radial_878_6701)"/>
<path d="M31.3408 25.125C31.3408 24.5037 31.8445 24 32.4658 24H36.1924C36.8137 24 37.3174 24.5037 37.3174 25.125V26.918C37.3174 28.5684 35.9795 29.9062 34.3291 29.9062C32.6787 29.9062 31.3408 28.5684 31.3408 26.918V25.125Z" fill="url(#paint21_linear_878_6701)"/>
<path d="M31.3408 25.125C31.3408 24.5037 31.8445 24 32.4658 24H36.1924C36.8137 24 37.3174 24.5037 37.3174 25.125V26.918C37.3174 28.5684 35.9795 29.9062 34.3291 29.9062C32.6787 29.9062 31.3408 28.5684 31.3408 26.918V25.125Z" fill="url(#paint22_linear_878_6701)"/>
<path d="M10.3877 25.125C10.3877 24.5037 10.8914 24 11.5127 24H15.2393C15.8606 24 16.3643 24.5037 16.3643 25.125V26.918C16.3643 28.5684 15.0264 29.9062 13.376 29.9062C11.7256 29.9062 10.3877 28.5684 10.3877 26.918V25.125Z" fill="#C4B3D4"/>
<path d="M10.3877 25.125C10.3877 24.5037 10.8914 24 11.5127 24H15.2393C15.8606 24 16.3643 24.5037 16.3643 25.125V26.918C16.3643 28.5684 15.0264 29.9062 13.376 29.9062C11.7256 29.9062 10.3877 28.5684 10.3877 26.918V25.125Z" fill="url(#paint23_radial_878_6701)"/>
<path d="M10.3877 25.125C10.3877 24.5037 10.8914 24 11.5127 24H15.2393C15.8606 24 16.3643 24.5037 16.3643 25.125V26.918C16.3643 28.5684 15.0264 29.9062 13.376 29.9062C11.7256 29.9062 10.3877 28.5684 10.3877 26.918V25.125Z" fill="url(#paint24_radial_878_6701)"/>
<path d="M10.3877 25.125C10.3877 24.5037 10.8914 24 11.5127 24H15.2393C15.8606 24 16.3643 24.5037 16.3643 25.125V26.918C16.3643 28.5684 15.0264 29.9062 13.376 29.9062C11.7256 29.9062 10.3877 28.5684 10.3877 26.918V25.125Z" fill="url(#paint25_linear_878_6701)"/>
<path d="M10.3877 25.125C10.3877 24.5037 10.8914 24 11.5127 24H15.2393C15.8606 24 16.3643 24.5037 16.3643 25.125V26.918C16.3643 28.5684 15.0264 29.9062 13.376 29.9062C11.7256 29.9062 10.3877 28.5684 10.3877 26.918V25.125Z" fill="url(#paint26_linear_878_6701)"/>
<path fill-rule="evenodd" clip-rule="evenodd" d="M9.03906 35.209C9.03906 34.7948 9.37485 34.459 9.78906 34.459H38.1783C38.5925 34.459 38.9283 34.7948 38.9283 35.209C38.9283 35.6232 38.5925 35.959 38.1783 35.959H9.78906C9.37485 35.959 9.03906 35.6232 9.03906 35.209Z" fill="url(#paint27_radial_878_6701)"/>
<path fill-rule="evenodd" clip-rule="evenodd" d="M9.03906 35.209C9.03906 34.7948 9.37485 34.459 9.78906 34.459H38.1783C38.5925 34.459 38.9283 34.7948 38.9283 35.209C38.9283 35.6232 38.5925 35.959 38.1783 35.959H9.78906C9.37485 35.959 9.03906 35.6232 9.03906 35.209Z" fill="url(#paint28_radial_878_6701)"/>
<path fill-rule="evenodd" clip-rule="evenodd" d="M9.03906 39.6855C9.03906 39.2713 9.37485 38.9355 9.78906 38.9355H38.1783C38.5925 38.9355 38.9283 39.2713 38.9283 39.6855C38.9283 40.0998 38.5925 40.4355 38.1783 40.4355H9.78906C9.37485 40.4355 9.03906 40.0998 9.03906 39.6855Z" fill="url(#paint29_radial_878_6701)"/>
<path fill-rule="evenodd" clip-rule="evenodd" d="M9.03906 39.6855C9.03906 39.2713 9.37485 38.9355 9.78906 38.9355H38.1783C38.5925 38.9355 38.9283 39.2713 38.9283 39.6855C38.9283 40.0998 38.5925 40.4355 38.1783 40.4355H9.78906C9.37485 40.4355 9.03906 40.0998 9.03906 39.6855Z" fill="url(#paint30_radial_878_6701)"/>
<defs>
<linearGradient id="paint0_linear_878_6701" x1="23.8525" y1="10.0312" x2="23.8525" y2="16.7578" gradientUnits="userSpaceOnUse">
<stop stop-color="#5C486E"/>
<stop offset="1" stop-color="#4B3341"/>
</linearGradient>
<radialGradient id="paint1_radial_878_6701" cx="0" cy="0" r="1" gradientUnits="userSpaceOnUse" gradientTransform="translate(27.2524 10.6643) rotate(91.3352) scale(1.14726 4.13124)">
<stop stop-color="#7B6C89" stop-opacity="0.65"/>
<stop offset="1" stop-color="#7B6C89" stop-opacity="0"/>
</radialGradient>
<radialGradient id="paint2_radial_878_6701" cx="0" cy="0" r="1" gradientUnits="userSpaceOnUse" gradientTransform="translate(30.895 13.9881) rotate(180) scale(1.04605 4.01739)">
<stop stop-color="#7B6C89" stop-opacity="0.65"/>
<stop offset="1" stop-color="#7B6C89" stop-opacity="0"/>
</radialGradient>
<radialGradient id="paint3_radial_878_6701" cx="0" cy="0" r="1" gradientUnits="userSpaceOnUse" gradientTransform="translate(30.5877 11.4267) rotate(122.642) scale(1.27826 2.0363)">
<stop stop-color="#7B6C89" stop-opacity="0.65"/>
<stop offset="1" stop-color="#7B6C89" stop-opacity="0"/>
</radialGradient>
<radialGradient id="paint4_radial_878_6701" cx="0" cy="0" r="1" gradientUnits="userSpaceOnUse" gradientTransform="translate(16.5212 16.0284) rotate(-0.577429) scale(1.15291 3.48893)">
<stop stop-color="#7B6C89"/>
<stop offset="1" stop-color="#7B6C89" stop-opacity="0"/>
</radialGradient>
<linearGradient id="paint5_linear_878_6701" x1="23.8643" y1="23.5313" x2="23.8643" y2="44.8125" gradientUnits="userSpaceOnUse">
<stop stop-color="#FF417D"/>
<stop offset="1" stop-color="#F2295E"/>
</linearGradient>
<linearGradient id="paint6_linear_878_6701" x1="3.02832" y1="29.9297" x2="8.12077" y2="29.9297" gradientUnits="userSpaceOnUse">
<stop stop-color="#DA484E"/>
<stop offset="1" stop-color="#DA484E" stop-opacity="0"/>
</linearGradient>
<linearGradient id="paint7_linear_878_6701" x1="25.2667" y1="45.6788" x2="25.1913" y2="42.8776" gradientUnits="userSpaceOnUse">
<stop stop-color="#DA484E"/>
<stop offset="1" stop-color="#DA484E" stop-opacity="0"/>
</linearGradient>
<linearGradient id="paint8_linear_878_6701" x1="25.1913" y1="13.6929" x2="25.1913" y2="16.3931" gradientUnits="userSpaceOnUse">
<stop stop-color="#DA484E"/>
<stop offset="1" stop-color="#DA484E" stop-opacity="0"/>
</linearGradient>
<linearGradient id="paint9_linear_878_6701" x1="23.8643" y1="44.2117" x2="23.8643" y2="42.7625" gradientUnits="userSpaceOnUse">
<stop stop-color="#E12A66"/>
<stop offset="1" stop-color="#E12A66" stop-opacity="0"/>
</linearGradient>
<linearGradient id="paint10_linear_878_6701" x1="45.7305" y1="32.4114" x2="41.797" y2="32.4114" gradientUnits="userSpaceOnUse">
<stop stop-color="#E12A66"/>
<stop offset="1" stop-color="#E12A66" stop-opacity="0"/>
</linearGradient>
<linearGradient id="paint11_linear_878_6701" x1="23.8643" y1="15.0469" x2="23.8643" y2="17.3818" gradientUnits="userSpaceOnUse">
<stop stop-color="#DB3973"/>
<stop offset="1" stop-color="#DB3973" stop-opacity="0"/>
</linearGradient>
<linearGradient id="paint12_linear_878_6701" x1="48.4019" y1="25.3183" x2="41.6212" y2="25.3183" gradientUnits="userSpaceOnUse">
<stop stop-color="#DB3973"/>
<stop offset="1" stop-color="#DB3973" stop-opacity="0"/>
</linearGradient>
<radialGradient id="paint13_radial_878_6701" cx="0" cy="0" r="1" gradientUnits="userSpaceOnUse" gradientTransform="translate(33.7498 27.75) rotate(-90) scale(5.25)">
<stop offset="0.190833" stop-color="#E02359"/>
<stop offset="0.763744" stop-color="#E02359" stop-opacity="0"/>
</radialGradient>
<radialGradient id="paint14_radial_878_6701" cx="0" cy="0" r="1" gradientUnits="userSpaceOnUse" gradientTransform="translate(12.7498 27.75) rotate(-90) scale(6)">
<stop offset="0.190833" stop-color="#E02359"/>
<stop offset="0.763744" stop-color="#E02359" stop-opacity="0"/>
</radialGradient>
<radialGradient id="paint15_radial_878_6701" cx="0" cy="0" r="1" gradientUnits="userSpaceOnUse" gradientTransform="translate(40.5392 18.7941) rotate(135) scale(4.11188 5.75663)">
<stop stop-color="#FF6790"/>
<stop offset="0.778688" stop-color="#FF437F" stop-opacity="0"/>
</radialGradient>
<linearGradient id="paint16_linear_878_6701" x1="3.0752" y1="27" x2="11.0439" y2="27" gradientUnits="userSpaceOnUse">
<stop stop-color="#B14757"/>
<stop offset="1" stop-color="#B14757" stop-opacity="0"/>
</linearGradient>
<linearGradient id="paint17_linear_878_6701" x1="23.8643" y1="25.5117" x2="23.8643" y2="26.2559" gradientUnits="userSpaceOnUse">
<stop stop-color="#CD1A4C"/>
<stop offset="1" stop-color="#CD1A4C" stop-opacity="0"/>
</linearGradient>
<radialGradient id="paint18_radial_878_6701" cx="0" cy="0" r="1" gradientUnits="userSpaceOnUse" gradientTransform="translate(35.9998 26.0213) rotate(-90) scale(0.521304 15.5651)">
<stop stop-color="#E65F7C"/>
<stop offset="1" stop-color="#E65F7C" stop-opacity="0"/>
</radialGradient>
<radialGradient id="paint19_radial_878_6701" cx="0" cy="0" r="1" gradientUnits="userSpaceOnUse" gradientTransform="translate(34.3291 25.3289) rotate(90) scale(4.57739 5.68658)">
<stop offset="0.457457" stop-color="#C5B4D5" stop-opacity="0"/>
<stop offset="1" stop-color="#B474B3"/>
</radialGradient>
<radialGradient id="paint20_radial_878_6701" cx="0" cy="0" r="1" gradientUnits="userSpaceOnUse" gradientTransform="translate(37.3174 24.2013) rotate(135.956) scale(2.43276 0.668158)">
<stop stop-color="#DED3E3"/>
<stop offset="1" stop-color="#DED3E3" stop-opacity="0"/>
</radialGradient>
<linearGradient id="paint21_linear_878_6701" x1="34.3291" y1="24" x2="34.3291" y2="25.7058" gradientUnits="userSpaceOnUse">
<stop stop-color="#AB97B5"/>
<stop offset="1" stop-color="#AB97B5" stop-opacity="0"/>
</linearGradient>
<linearGradient id="paint22_linear_878_6701" x1="30.3147" y1="25.3122" x2="33.5424" y2="25.4696" gradientUnits="userSpaceOnUse">
<stop stop-color="#AB97B5"/>
<stop offset="1" stop-color="#AB97B5" stop-opacity="0"/>
</linearGradient>
<radialGradient id="paint23_radial_878_6701" cx="0" cy="0" r="1" gradientUnits="userSpaceOnUse" gradientTransform="translate(13.376 25.3289) rotate(90) scale(4.57739 5.68658)">
<stop offset="0.457457" stop-color="#C5B4D5" stop-opacity="0"/>
<stop offset="1" stop-color="#B474B3"/>
</radialGradient>
<radialGradient id="paint24_radial_878_6701" cx="0" cy="0" r="1" gradientUnits="userSpaceOnUse" gradientTransform="translate(16.3643 24.2013) rotate(135.956) scale(2.43276 0.668158)">
<stop stop-color="#DED3E3"/>
<stop offset="1" stop-color="#DED3E3" stop-opacity="0"/>
</radialGradient>
<linearGradient id="paint25_linear_878_6701" x1="13.376" y1="24" x2="13.376" y2="25.7058" gradientUnits="userSpaceOnUse">
<stop stop-color="#AB97B5"/>
<stop offset="1" stop-color="#AB97B5" stop-opacity="0"/>
</linearGradient>
<linearGradient id="paint26_linear_878_6701" x1="9.3616" y1="25.3122" x2="12.5893" y2="25.4696" gradientUnits="userSpaceOnUse">
<stop stop-color="#AB97B5"/>
<stop offset="1" stop-color="#AB97B5" stop-opacity="0"/>
</linearGradient>
<radialGradient id="paint27_radial_878_6701" cx="0" cy="0" r="1" gradientUnits="userSpaceOnUse" gradientTransform="translate(23.5764 35.021) rotate(90) scale(0.399364 14.5841)">
<stop stop-color="#D5C7DE"/>
<stop offset="1" stop-color="#C1ADCC"/>
</radialGradient>
<radialGradient id="paint28_radial_878_6701" cx="0" cy="0" r="1" gradientUnits="userSpaceOnUse" gradientTransform="translate(38.2799 34.9952) rotate(90) scale(0.503762)">
<stop stop-color="#D4C4DD"/>
<stop offset="1" stop-color="#D4C4DD" stop-opacity="0"/>
</radialGradient>
<radialGradient id="paint29_radial_878_6701" cx="0" cy="0" r="1" gradientUnits="userSpaceOnUse" gradientTransform="translate(23.5764 39.4976) rotate(90) scale(0.399364 14.5841)">
<stop stop-color="#D5C7DE"/>
<stop offset="1" stop-color="#C1ADCC"/>
</radialGradient>
<radialGradient id="paint30_radial_878_6701" cx="0" cy="0" r="1" gradientUnits="userSpaceOnUse" gradientTransform="translate(38.2799 39.4717) rotate(90) scale(0.503762)">
<stop stop-color="#D4C4DD"/>
<stop offset="1" stop-color="#D4C4DD" stop-opacity="0"/>
</radialGradient>
</defs>
</svg>
