<svg width="25" height="25" viewBox="0 0 25 25" fill="none" xmlns="http://www.w3.org/2000/svg">
<g clip-path="url(#clip0_878_3177)">
<path opacity="0.2" d="M6.21094 11.25V14.25C6.21094 14.4489 6.13192 14.6397 5.99127 14.7803C5.85062 14.921 5.65985 15 5.46094 15H2.46094C2.26203 15 2.07126 14.921 1.93061 14.7803C1.78996 14.6397 1.71094 14.4489 1.71094 14.25V11.25C1.71094 11.0511 1.78996 10.8603 1.93061 10.7197C2.07126 10.579 2.26203 10.5 2.46094 10.5H5.46094C5.65985 10.5 5.85062 10.579 5.99127 10.7197C6.13192 10.8603 6.21094 11.0511 6.21094 11.25ZM19.7109 4.5H15.2109C15.012 4.5 14.8213 4.57902 14.6806 4.71967C14.54 4.86032 14.4609 5.05109 14.4609 5.25V9.75C14.4609 9.94891 14.54 10.1397 14.6806 10.2803C14.8213 10.421 15.012 10.5 15.2109 10.5H19.7109C19.9098 10.5 20.1006 10.421 20.2413 10.2803C20.3819 10.1397 20.4609 9.94891 20.4609 9.75V5.25C20.4609 5.05109 20.3819 4.86032 20.2413 4.71967C20.1006 4.57902 19.9098 4.5 19.7109 4.5ZM19.7109 15H15.2109C15.012 15 14.8213 15.079 14.6806 15.2197C14.54 15.3603 14.4609 15.5511 14.4609 15.75V20.25C14.4609 20.4489 14.54 20.6397 14.6806 20.7803C14.8213 20.921 15.012 21 15.2109 21H19.7109C19.9098 21 20.1006 20.921 20.2413 20.7803C20.3819 20.6397 20.4609 20.4489 20.4609 20.25V15.75C20.4609 15.5511 20.3819 15.3603 20.2413 15.2197C20.1006 15.079 19.9098 15 19.7109 15Z" fill="black"/>
<path d="M15.2109 11.25H19.7109C20.1088 11.25 20.4903 11.092 20.7716 10.8107C21.0529 10.5294 21.2109 10.1478 21.2109 9.75V5.25C21.2109 4.85218 21.0529 4.47064 20.7716 4.18934C20.4903 3.90804 20.1088 3.75 19.7109 3.75H15.2109C14.8131 3.75 14.4316 3.90804 14.1503 4.18934C13.869 4.47064 13.7109 4.85218 13.7109 5.25V6.75H12.2109C11.6142 6.75 11.0419 6.98705 10.6199 7.40901C10.198 7.83097 9.96094 8.40326 9.96094 9V12H6.96094V11.25C6.96094 10.8522 6.8029 10.4706 6.5216 10.1893C6.24029 9.90804 5.85876 9.75 5.46094 9.75H2.46094C2.06311 9.75 1.68158 9.90804 1.40028 10.1893C1.11897 10.4706 0.960938 10.8522 0.960938 11.25V14.25C0.960938 14.6478 1.11897 15.0294 1.40028 15.3107C1.68158 15.592 2.06311 15.75 2.46094 15.75H5.46094C5.85876 15.75 6.24029 15.592 6.5216 15.3107C6.8029 15.0294 6.96094 14.6478 6.96094 14.25V13.5H9.96094V16.5C9.96094 17.0967 10.198 17.669 10.6199 18.091C11.0419 18.5129 11.6142 18.75 12.2109 18.75H13.7109V20.25C13.7109 20.6478 13.869 21.0294 14.1503 21.3107C14.4316 21.592 14.8131 21.75 15.2109 21.75H19.7109C20.1088 21.75 20.4903 21.592 20.7716 21.3107C21.0529 21.0294 21.2109 20.6478 21.2109 20.25V15.75C21.2109 15.3522 21.0529 14.9706 20.7716 14.6893C20.4903 14.408 20.1088 14.25 19.7109 14.25H15.2109C14.8131 14.25 14.4316 14.408 14.1503 14.6893C13.869 14.9706 13.7109 15.3522 13.7109 15.75V17.25H12.2109C12.012 17.25 11.8213 17.171 11.6806 17.0303C11.54 16.8897 11.4609 16.6989 11.4609 16.5V9C11.4609 8.80109 11.54 8.61032 11.6806 8.46967C11.8213 8.32902 12.012 8.25 12.2109 8.25H13.7109V9.75C13.7109 10.1478 13.869 10.5294 14.1503 10.8107C14.4316 11.092 14.8131 11.25 15.2109 11.25ZM5.46094 14.25H2.46094V11.25H5.46094V14.25ZM15.2109 15.75H19.7109V20.25H15.2109V15.75ZM15.2109 5.25H19.7109V9.75H15.2109V5.25Z" fill="#4F4FCB"/>
</g>
<defs>
<clipPath id="clip0_878_3177">
<rect width="24" height="24" fill="white" transform="translate(0.210938 0.75)"/>
</clipPath>
</defs>
</svg>
