<svg width="40" height="40" viewBox="0 0 40 40" fill="none" xmlns="http://www.w3.org/2000/svg">
<path opacity="0.2" d="M21.25 16.875C21.25 18.482 20.7735 20.0529 19.8807 21.389C18.9879 22.7252 17.719 23.7666 16.2343 24.3815C14.7497 24.9965 13.116 25.1574 11.5399 24.8439C9.9638 24.5304 8.51606 23.7565 7.37976 22.6202C6.24346 21.4839 5.46963 20.0362 5.15612 18.4601C4.84262 16.884 5.00352 15.2503 5.61848 13.7657C6.23344 12.281 7.27485 11.0121 8.611 10.1193C9.94714 9.22652 11.518 8.75 13.125 8.75C15.2799 8.75 17.3465 9.60602 18.8702 11.1298C20.394 12.6535 21.25 14.7201 21.25 16.875Z" fill="#D71D11"/>
<path d="M18.3195 24.6749C19.9949 23.5596 21.2668 21.9347 21.9472 20.0406C22.6276 18.1465 22.6804 16.0837 22.0978 14.1572C21.5152 12.2308 20.3281 10.543 18.7121 9.34338C17.096 8.14378 15.1368 7.49609 13.1242 7.49609C11.1116 7.49609 9.15241 8.14378 7.53637 9.34338C5.92032 10.543 4.73322 12.2308 4.15061 14.1572C3.56801 16.0837 3.62082 18.1465 4.30125 20.0406C4.98168 21.9347 6.25359 23.5596 7.92891 24.6749C4.89843 25.7918 2.31033 27.8587 0.550786 30.5671C0.45831 30.7045 0.394077 30.859 0.361819 31.0215C0.329561 31.184 0.329922 31.3512 0.362881 31.5136C0.39584 31.6759 0.46074 31.8301 0.553808 31.9671C0.646876 32.1042 0.766256 32.2214 0.905008 32.3119C1.04376 32.4024 1.19912 32.4644 1.36205 32.4943C1.52498 32.5242 1.69223 32.5215 1.85409 32.4862C2.01595 32.4509 2.16918 32.3838 2.30488 32.2888C2.44057 32.1938 2.55603 32.0727 2.64454 31.9327C3.77952 30.1871 5.33259 28.7526 7.16272 27.7596C8.99284 26.7665 11.042 26.2464 13.1242 26.2464C15.2064 26.2464 17.2556 26.7665 19.0857 27.7596C20.9159 28.7526 22.4689 30.1871 23.6039 31.9327C23.7873 32.2052 24.0705 32.3946 24.3923 32.4599C24.7142 32.5253 25.0488 32.4613 25.3239 32.2819C25.599 32.1025 25.7924 31.822 25.8623 31.5011C25.9323 31.1802 25.8731 30.8447 25.6977 30.5671C23.9381 27.8587 21.35 25.7918 18.3195 24.6749ZM6.24922 16.8749C6.24922 15.5152 6.65243 14.1859 7.40787 13.0554C8.1633 11.9248 9.23703 11.0436 10.4933 10.5232C11.7495 10.0029 13.1318 9.86673 14.4655 10.132C15.7991 10.3973 17.0241 11.0521 17.9856 12.0135C18.9471 12.975 19.6018 14.2 19.8671 15.5337C20.1324 16.8673 19.9962 18.2496 19.4759 19.5058C18.9555 20.7621 18.0744 21.8358 16.9438 22.5912C15.8132 23.3467 14.484 23.7499 13.1242 23.7499C11.3015 23.7478 9.55401 23.0228 8.26515 21.734C6.97628 20.4451 6.25129 18.6976 6.24922 16.8749ZM39.0836 32.2968C38.8059 32.4778 38.4677 32.5412 38.1434 32.4729C37.819 32.4046 37.535 32.2103 37.3539 31.9327C36.2203 30.186 34.6674 28.7509 32.8369 27.7583C31.0064 26.7657 28.9565 26.2471 26.8742 26.2499C26.5427 26.2499 26.2248 26.1182 25.9903 25.8838C25.7559 25.6494 25.6242 25.3314 25.6242 24.9999C25.6242 24.6684 25.7559 24.3504 25.9903 24.116C26.2248 23.8816 26.5427 23.7499 26.8742 23.7499C27.8867 23.7489 28.8864 23.5244 29.802 23.0923C30.7176 22.6601 31.5265 22.0311 32.1708 21.2502C32.8151 20.4692 33.279 19.5556 33.5293 18.5745C33.7796 17.5935 33.8102 16.5693 33.6188 15.5751C33.4273 14.5809 33.0187 13.6413 32.4221 12.8233C31.8254 12.0054 31.0554 11.3293 30.1672 10.8434C29.279 10.3575 28.2944 10.0738 27.2838 10.0125C26.2732 9.95123 25.2615 10.1139 24.3211 10.489C24.1678 10.5552 24.0027 10.5901 23.8357 10.5915C23.6686 10.5929 23.503 10.5609 23.3486 10.4972C23.1941 10.4335 23.054 10.3395 22.9365 10.2208C22.819 10.102 22.7265 9.96092 22.6645 9.80582C22.6025 9.65072 22.5721 9.48476 22.5753 9.31774C22.5785 9.15072 22.6151 8.98604 22.6831 8.83342C22.751 8.6808 22.8488 8.54333 22.9707 8.42915C23.0926 8.31498 23.2362 8.2264 23.393 8.16865C25.5453 7.31029 27.9392 7.2794 30.1129 8.08194C32.2866 8.88448 34.0861 10.4636 35.1642 12.5146C36.2424 14.5656 36.5227 16.9433 35.9513 19.1888C35.3798 21.4344 33.997 23.3888 32.0695 24.6749C35.1 25.7918 37.6881 27.8587 39.4477 30.5671C39.6287 30.8447 39.6921 31.1829 39.6238 31.5073C39.5555 31.8317 39.3612 32.1157 39.0836 32.2968Z" fill="#D71D11"/>
</svg>
