<svg width="16" height="16" viewBox="0 0 16 16" fill="none" xmlns="http://www.w3.org/2000/svg">
<path d="M14.1726 4.31241C14.1423 4.23745 14.0942 4.17096 14.0326 4.11865C13.9709 4.06634 13.8975 4.02976 13.8186 4.01207C13.7396 3.99437 13.6576 3.99607 13.5795 4.01703C13.5014 4.03799 13.4296 4.07759 13.3701 4.13241L10.8514 6.45679L9.7745 6.22554L9.54325 5.14866L11.8676 2.62991C11.9224 2.57047 11.962 2.49862 11.983 2.42051C12.004 2.34241 12.0057 2.26039 11.988 2.18148C11.9703 2.10258 11.9337 2.02914 11.8814 1.96747C11.8291 1.9058 11.7626 1.85774 11.6876 1.82741C11.0045 1.55106 10.2639 1.44672 9.53095 1.52355C8.79802 1.60038 8.09518 1.85605 7.48418 2.26807C6.87317 2.68009 6.37271 3.23587 6.02677 3.88657C5.68082 4.53727 5.49998 5.26297 5.50012 5.99991C5.49931 6.62221 5.62698 7.23798 5.87512 7.80866L2.112 11.0624C2.10262 11.0699 2.09387 11.0787 2.08512 11.0868C1.71001 11.4619 1.49927 11.9707 1.49927 12.5012C1.49927 12.7638 1.551 13.0239 1.65153 13.2666C1.75205 13.5093 1.89938 13.7298 2.08512 13.9155C2.27086 14.1013 2.49136 14.2486 2.73404 14.3491C2.97672 14.4497 3.23682 14.5014 3.4995 14.5014C4.02999 14.5014 4.53876 14.2907 4.91387 13.9155C4.922 13.9074 4.93075 13.898 4.93825 13.8893L8.19137 10.1249C8.87664 10.4257 9.62611 10.5509 10.3719 10.489C11.1178 10.4272 11.8364 10.1803 12.4628 9.77078C13.0891 9.36122 13.6035 8.80191 13.9592 8.14348C14.315 7.48505 14.5009 6.7483 14.5001 5.99991C14.5011 5.42153 14.3899 4.84845 14.1726 4.31241ZM10.0001 9.49991C9.40829 9.4991 8.82628 9.3486 8.30825 9.06241C8.20788 9.00697 8.09152 8.9877 7.97864 9.00784C7.86576 9.02798 7.76324 9.08631 7.68825 9.17304L4.1945 13.2193C4.00543 13.3989 3.75368 13.4976 3.49292 13.4942C3.23216 13.4909 2.98302 13.3858 2.79862 13.2014C2.61422 13.017 2.50914 12.7679 2.50581 12.5071C2.50247 12.2464 2.60113 11.9946 2.78075 11.8055L6.82387 8.31241C6.91075 8.23738 6.96917 8.13474 6.98932 8.02173C7.00946 7.90872 6.9901 7.79222 6.9345 7.69179C6.61576 7.11531 6.46618 6.46059 6.50295 5.8029C6.53972 5.14521 6.76134 4.51124 7.14234 3.97388C7.52334 3.43653 8.04825 3.0176 8.65672 2.76526C9.2652 2.51291 9.93253 2.43741 10.582 2.54741L8.632 4.66054C8.57774 4.7194 8.53841 4.79042 8.51731 4.86764C8.49621 4.94486 8.49396 5.02602 8.51075 5.10429L8.8645 6.74991C8.88473 6.84403 8.9317 6.93031 8.99978 6.99838C9.06785 7.06646 9.15413 7.11343 9.24825 7.13366L10.8951 7.48741C10.9734 7.5042 11.0545 7.50195 11.1318 7.48085C11.209 7.45975 11.28 7.42042 11.3389 7.36616L13.452 5.41616C13.5362 5.91804 13.5101 6.43225 13.3755 6.92302C13.2409 7.41379 13.001 7.86935 12.6725 8.25801C12.3439 8.64667 11.9347 8.95909 11.4732 9.17356C11.0117 9.38803 10.509 9.4994 10.0001 9.49991Z" fill="black"/>
</svg>
