<svg width="48" height="48" viewBox="0 0 48 48" fill="none" xmlns="http://www.w3.org/2000/svg">
<path fill-rule="evenodd" clip-rule="evenodd" d="M10.1393 34.3909C10.1393 34.8051 9.80348 35.1409 9.38927 35.1409C8.44156 35.1409 7.50379 34.8514 7.13817 34.7385C7.11656 34.7319 7.09694 34.7258 7.07944 34.7205C6.68327 34.5996 6.46014 34.1804 6.58106 33.7842C6.70197 33.388 7.12116 33.1649 7.51733 33.2858C7.53131 33.2901 7.54597 33.2946 7.56128 33.2993C7.93083 33.4125 8.67643 33.6409 9.38927 33.6409C9.80348 33.6409 10.1393 33.9766 10.1393 34.3909Z" fill="url(#paint0_radial_878_6870)"/>
<path fill-rule="evenodd" clip-rule="evenodd" d="M37.9735 34.3909C37.9735 34.8051 38.3093 35.1409 38.7235 35.1409C39.6712 35.1409 40.609 34.8514 40.9746 34.7385C40.9962 34.7319 41.0158 34.7258 41.0333 34.7205C41.4295 34.5996 41.6527 34.1804 41.5317 33.7842C41.4108 33.388 40.9916 33.1649 40.5955 33.2858C40.5815 33.2901 40.5668 33.2946 40.5515 33.2993C40.182 33.4125 39.4364 33.6409 38.7235 33.6409C38.3093 33.6409 37.9735 33.9766 37.9735 34.3909Z" fill="url(#paint1_radial_878_6870)"/>
<g filter="url(#filter0_ii_878_6870)">
<path d="M26.4397 41.8623H32.8059C37.2004 41.8623 39.2278 38.9873 39.5325 37.6201L35.7356 34.1279L30.3069 36.2607L26.4397 36.4248V41.8623Z" fill="url(#paint2_radial_878_6870)"/>
<path d="M26.4397 41.8623H32.8059C37.2004 41.8623 39.2278 38.9873 39.5325 37.6201L35.7356 34.1279L30.3069 36.2607L26.4397 36.4248V41.8623Z" fill="url(#paint3_radial_878_6870)"/>
</g>
<path d="M19.8301 36.4248H17.6873C17.0494 36.4248 16.4815 36.8275 16.2717 37.43C15.6605 39.1857 14.832 41.5768 14.7237 41.9326C14.5596 42.4717 14.3487 44.1123 16.0362 44.5811C17.1714 44.8964 18.2558 43.2746 19.1222 41.9789C19.1484 41.9397 19.1744 41.9008 19.2002 41.8623H19.8301V36.4248Z" fill="url(#paint4_radial_878_6870)"/>
<path d="M19.8301 36.4248H17.6873C17.0494 36.4248 16.4815 36.8275 16.2717 37.43C15.6605 39.1857 14.832 41.5768 14.7237 41.9326C14.5596 42.4717 14.3487 44.1123 16.0362 44.5811C17.1714 44.8964 18.2558 43.2746 19.1222 41.9789C19.1484 41.9397 19.1744 41.9008 19.2002 41.8623H19.8301V36.4248Z" fill="url(#paint5_radial_878_6870)"/>
<g filter="url(#filter1_ii_878_6870)">
<path d="M15.3538 41.8623C10.9592 41.8623 8.93188 38.9873 8.6272 37.6201L12.4241 34.1279L17.6038 36.2959L29.8745 36.4248C30.5124 36.4248 31.0803 36.8275 31.2901 37.43C31.9013 39.1857 32.7298 41.5768 32.8381 41.9326C33.0022 42.4717 33.2131 44.1123 31.5256 44.5811C30.3561 44.9059 29.2405 43.1748 28.3616 41.8623H15.3538Z" fill="#FDCAB1"/>
</g>
<path d="M15.3538 41.8623C10.9592 41.8623 8.93188 38.9873 8.6272 37.6201L12.4241 34.1279L17.6038 36.2959L29.8745 36.4248C30.5124 36.4248 31.0803 36.8275 31.2901 37.43C31.9013 39.1857 32.7298 41.5768 32.8381 41.9326C33.0022 42.4717 33.2131 44.1123 31.5256 44.5811C30.3561 44.9059 29.2405 43.1748 28.3616 41.8623H15.3538Z" fill="url(#paint6_radial_878_6870)"/>
<path d="M15.3538 41.8623C10.9592 41.8623 8.93188 38.9873 8.6272 37.6201L12.4241 34.1279L17.6038 36.2959L29.8745 36.4248C30.5124 36.4248 31.0803 36.8275 31.2901 37.43C31.9013 39.1857 32.7298 41.5768 32.8381 41.9326C33.0022 42.4717 33.2131 44.1123 31.5256 44.5811C30.3561 44.9059 29.2405 43.1748 28.3616 41.8623H15.3538Z" fill="url(#paint7_radial_878_6870)"/>
<path d="M15.3538 41.8623C10.9592 41.8623 8.93188 38.9873 8.6272 37.6201L12.4241 34.1279L17.6038 36.2959L29.8745 36.4248C30.5124 36.4248 31.0803 36.8275 31.2901 37.43C31.9013 39.1857 32.7298 41.5768 32.8381 41.9326C33.0022 42.4717 33.2131 44.1123 31.5256 44.5811C30.3561 44.9059 29.2405 43.1748 28.3616 41.8623H15.3538Z" fill="url(#paint8_radial_878_6870)"/>
<path d="M27.7756 31.9404H36.7991V35.9794C33.0022 36.5067 27.7756 36.4247 27.7756 36.4247V31.9404Z" fill="url(#paint9_radial_878_6870)"/>
<path d="M27.7756 31.9404H36.7991V35.9794C33.0022 36.5067 27.7756 36.4247 27.7756 36.4247V31.9404Z" fill="url(#paint10_linear_878_6870)"/>
<path d="M27.7756 31.9404H36.7991V35.9794C33.0022 36.5067 27.7756 36.4247 27.7756 36.4247V31.9404Z" fill="url(#paint11_linear_878_6870)"/>
<path d="M20.7444 31.9404H11.7209V35.9794C15.5178 36.5067 20.7444 36.4247 20.7444 36.4247V31.9404Z" fill="url(#paint12_radial_878_6870)"/>
<path d="M20.7444 31.9404H11.7209V35.9794C15.5178 36.5067 20.7444 36.4247 20.7444 36.4247V31.9404Z" fill="url(#paint13_linear_878_6870)"/>
<path d="M20.7444 31.9404H11.7209V35.9794C15.5178 36.5067 20.7444 36.4247 20.7444 36.4247V31.9404Z" fill="url(#paint14_linear_878_6870)"/>
<path d="M14.6323 24.0768C14.9623 21.2893 17.0404 18.7061 17.8608 18.0146L18.3589 18.4872V29.4013C17.9839 30.3787 17.2807 31.3952 16.6714 31.8792C16.6714 31.8792 15.3709 33.1009 10.414 36.835C8.42645 36.5584 7.27173 35.1946 7.30298 34.2803C8.61532 33.5311 12.3595 29.8278 13.3201 28.8712C14.1258 28.0689 14.2804 27.0489 14.6323 24.0768Z" fill="#FABC9F"/>
<path d="M14.6323 24.0768C14.9623 21.2893 17.0404 18.7061 17.8608 18.0146L18.3589 18.4872V29.4013C17.9839 30.3787 17.2807 31.3952 16.6714 31.8792C16.6714 31.8792 15.3709 33.1009 10.414 36.835C8.42645 36.5584 7.27173 35.1946 7.30298 34.2803C8.61532 33.5311 12.3595 29.8278 13.3201 28.8712C14.1258 28.0689 14.2804 27.0489 14.6323 24.0768Z" fill="url(#paint15_radial_878_6870)"/>
<path d="M14.6323 24.0768C14.9623 21.2893 17.0404 18.7061 17.8608 18.0146L18.3589 18.4872V29.4013C17.9839 30.3787 17.2807 31.3952 16.6714 31.8792C16.6714 31.8792 15.3709 33.1009 10.414 36.835C8.42645 36.5584 7.27173 35.1946 7.30298 34.2803C8.61532 33.5311 12.3595 29.8278 13.3201 28.8712C14.1258 28.0689 14.2804 27.0489 14.6323 24.0768Z" fill="url(#paint16_linear_878_6870)"/>
<path d="M14.6323 24.0768C14.9623 21.2893 17.0404 18.7061 17.8608 18.0146L18.3589 18.4872V29.4013C17.9839 30.3787 17.2807 31.3952 16.6714 31.8792C16.6714 31.8792 15.3709 33.1009 10.414 36.835C8.42645 36.5584 7.27173 35.1946 7.30298 34.2803C8.61532 33.5311 12.3595 29.8278 13.3201 28.8712C14.1258 28.0689 14.2804 27.0489 14.6323 24.0768Z" fill="url(#paint17_radial_878_6870)"/>
<g filter="url(#filter2_i_878_6870)">
<path d="M33.4805 24.0768C33.1505 21.2893 31.0724 18.7061 30.252 18.0146L29.7539 18.4872V29.4013C30.1289 30.3787 30.8321 31.3952 31.4414 31.8792C31.4414 31.8792 32.7419 33.1009 37.6988 36.835C39.6863 36.5584 40.8411 35.1946 40.8098 34.2803C39.4975 33.5311 35.7533 29.8278 34.7927 28.8712C33.987 28.0689 33.8324 27.0489 33.4805 24.0768Z" fill="#F0B99E"/>
<path d="M33.4805 24.0768C33.1505 21.2893 31.0724 18.7061 30.252 18.0146L29.7539 18.4872V29.4013C30.1289 30.3787 30.8321 31.3952 31.4414 31.8792C31.4414 31.8792 32.7419 33.1009 37.6988 36.835C39.6863 36.5584 40.8411 35.1946 40.8098 34.2803C39.4975 33.5311 35.7533 29.8278 34.7927 28.8712C33.987 28.0689 33.8324 27.0489 33.4805 24.0768Z" fill="url(#paint18_linear_878_6870)"/>
<path d="M33.4805 24.0768C33.1505 21.2893 31.0724 18.7061 30.252 18.0146L29.7539 18.4872V29.4013C30.1289 30.3787 30.8321 31.3952 31.4414 31.8792C31.4414 31.8792 32.7419 33.1009 37.6988 36.835C39.6863 36.5584 40.8411 35.1946 40.8098 34.2803C39.4975 33.5311 35.7533 29.8278 34.7927 28.8712C33.987 28.0689 33.8324 27.0489 33.4805 24.0768Z" fill="url(#paint19_radial_878_6870)"/>
<path d="M33.4805 24.0768C33.1505 21.2893 31.0724 18.7061 30.252 18.0146L29.7539 18.4872V29.4013C30.1289 30.3787 30.8321 31.3952 31.4414 31.8792C31.4414 31.8792 32.7419 33.1009 37.6988 36.835C39.6863 36.5584 40.8411 35.1946 40.8098 34.2803C39.4975 33.5311 35.7533 29.8278 34.7927 28.8712C33.987 28.0689 33.8324 27.0489 33.4805 24.0768Z" fill="url(#paint20_radial_878_6870)"/>
</g>
<g filter="url(#filter3_i_878_6870)">
<path d="M20.1702 36.4247L17.803 31.9404H30.2555L27.928 36.4247H20.1702Z" fill="url(#paint21_radial_878_6870)"/>
</g>
<g filter="url(#filter4_i_878_6870)">
<path d="M28.3381 16.6856V17.7686C28.3381 19.8396 26.6592 21.5186 24.5881 21.5186H23.4866C21.4155 21.5186 19.7366 19.8396 19.7366 17.7686V16.6833C20.8812 16.058 22.3919 15.5068 24.1077 15.5068C25.6831 15.5068 27.191 16.0689 28.3381 16.6856Z" fill="url(#paint22_radial_878_6870)"/>
<path d="M28.3381 16.6856V17.7686C28.3381 19.8396 26.6592 21.5186 24.5881 21.5186H23.4866C21.4155 21.5186 19.7366 19.8396 19.7366 17.7686V16.6833C20.8812 16.058 22.3919 15.5068 24.1077 15.5068C25.6831 15.5068 27.191 16.0689 28.3381 16.6856Z" fill="url(#paint23_radial_878_6870)"/>
</g>
<g filter="url(#filter5_i_878_6870)">
<path d="M28.3381 16.685V17.7679C28.3381 19.839 26.6592 21.5179 24.5881 21.5179H23.4866C21.4155 21.5179 19.7366 19.839 19.7366 17.7679V16.6826C18.867 17.1576 18.2087 17.6755 17.8323 18.0269V31.9399H30.2654V18.0269C29.9683 17.7264 29.273 17.1876 28.3381 16.685Z" fill="url(#paint24_radial_878_6870)"/>
<path d="M28.3381 16.685V17.7679C28.3381 19.839 26.6592 21.5179 24.5881 21.5179H23.4866C21.4155 21.5179 19.7366 19.839 19.7366 17.7679V16.6826C18.867 17.1576 18.2087 17.6755 17.8323 18.0269V31.9399H30.2654V18.0269C29.9683 17.7264 29.273 17.1876 28.3381 16.685Z" fill="url(#paint25_radial_878_6870)"/>
</g>
<path d="M28.3381 16.685V17.7679C28.3381 19.839 26.6592 21.5179 24.5881 21.5179H23.4866C21.4155 21.5179 19.7366 19.839 19.7366 17.7679V16.6826C18.867 17.1576 18.2087 17.6755 17.8323 18.0269V31.9399H30.2654V18.0269C29.9683 17.7264 29.273 17.1876 28.3381 16.685Z" fill="url(#paint26_radial_878_6870)"/>
<path fill-rule="evenodd" clip-rule="evenodd" d="M8.54482 34.5261C8.64181 34.843 8.46358 35.1784 8.14673 35.2754C7.34269 35.5216 6.49873 35.4942 6.09647 35.4811C6.01496 35.4785 5.95159 35.4764 5.91036 35.4774C5.57907 35.4848 5.30447 35.2223 5.29703 34.891C5.28958 34.5597 5.55211 34.2851 5.8834 34.2777C5.98579 34.2754 6.10135 34.2783 6.22768 34.2816C6.65732 34.2926 7.21148 34.3068 7.79547 34.128C8.11232 34.031 8.44782 34.2092 8.54482 34.5261Z" fill="#FCC0A6"/>
<path fill-rule="evenodd" clip-rule="evenodd" d="M8.54482 34.5261C8.64181 34.843 8.46358 35.1784 8.14673 35.2754C7.34269 35.5216 6.49873 35.4942 6.09647 35.4811C6.01496 35.4785 5.95159 35.4764 5.91036 35.4774C5.57907 35.4848 5.30447 35.2223 5.29703 34.891C5.28958 34.5597 5.55211 34.2851 5.8834 34.2777C5.98579 34.2754 6.10135 34.2783 6.22768 34.2816C6.65732 34.2926 7.21148 34.3068 7.79547 34.128C8.11232 34.031 8.44782 34.2092 8.54482 34.5261Z" fill="url(#paint27_radial_878_6870)"/>
<path fill-rule="evenodd" clip-rule="evenodd" d="M39.4552 34.5261C39.3582 34.843 39.5364 35.1784 39.8533 35.2754C40.6573 35.5216 41.5013 35.4942 41.9035 35.4811C41.985 35.4785 42.0484 35.4764 42.0896 35.4774C42.4209 35.4848 42.6955 35.2223 42.703 34.891C42.7104 34.5597 42.4479 34.2851 42.1166 34.2777C42.0142 34.2754 41.8986 34.2783 41.7723 34.2816C41.3427 34.2926 40.7885 34.3068 40.2045 34.128C39.8877 34.031 39.5522 34.2092 39.4552 34.5261Z" fill="#E2AF9A"/>
<path fill-rule="evenodd" clip-rule="evenodd" d="M39.4552 34.5261C39.3582 34.843 39.5364 35.1784 39.8533 35.2754C40.6573 35.5216 41.5013 35.4942 41.9035 35.4811C41.985 35.4785 42.0484 35.4764 42.0896 35.4774C42.4209 35.4848 42.6955 35.2223 42.703 34.891C42.7104 34.5597 42.4479 34.2851 42.1166 34.2777C42.0142 34.2754 41.8986 34.2783 41.7723 34.2816C41.3427 34.2926 40.7885 34.3068 40.2045 34.128C39.8877 34.031 39.5522 34.2092 39.4552 34.5261Z" fill="url(#paint28_radial_878_6870)"/>
<path fill-rule="evenodd" clip-rule="evenodd" d="M8.73688 35.2432C8.88439 35.5399 8.76343 35.9 8.46671 36.0476C7.337 36.6092 6.20261 36.7197 5.73281 36.7197C5.40144 36.7197 5.13281 36.451 5.13281 36.1197C5.13281 35.7883 5.40144 35.5197 5.73281 35.5197C6.07161 35.5197 7.01144 35.4309 7.93251 34.973C8.22924 34.8255 8.58936 34.9465 8.73688 35.2432Z" fill="#FCC0A6"/>
<path fill-rule="evenodd" clip-rule="evenodd" d="M8.73688 35.2432C8.88439 35.5399 8.76343 35.9 8.46671 36.0476C7.337 36.6092 6.20261 36.7197 5.73281 36.7197C5.40144 36.7197 5.13281 36.451 5.13281 36.1197C5.13281 35.7883 5.40144 35.5197 5.73281 35.5197C6.07161 35.5197 7.01144 35.4309 7.93251 34.973C8.22924 34.8255 8.58936 34.9465 8.73688 35.2432Z" fill="url(#paint29_radial_878_6870)"/>
<path fill-rule="evenodd" clip-rule="evenodd" d="M39.2631 35.2432C39.1156 35.5399 39.2366 35.9 39.5333 36.0476C40.663 36.6092 41.7974 36.7197 42.2672 36.7197C42.5986 36.7197 42.8672 36.451 42.8672 36.1197C42.8672 35.7883 42.5986 35.5197 42.2672 35.5197C41.9284 35.5197 40.9886 35.4309 40.0675 34.973C39.7708 34.8255 39.4106 34.9465 39.2631 35.2432Z" fill="#E2AF9A"/>
<path fill-rule="evenodd" clip-rule="evenodd" d="M39.2631 35.2432C39.1156 35.5399 39.2366 35.9 39.5333 36.0476C40.663 36.6092 41.7974 36.7197 42.2672 36.7197C42.5986 36.7197 42.8672 36.451 42.8672 36.1197C42.8672 35.7883 42.5986 35.5197 42.2672 35.5197C41.9284 35.5197 40.9886 35.4309 40.0675 34.973C39.7708 34.8255 39.4106 34.9465 39.2631 35.2432Z" fill="url(#paint30_radial_878_6870)"/>
<path fill-rule="evenodd" clip-rule="evenodd" d="M9.14778 35.876C9.36317 36.1278 9.33364 36.5066 9.08183 36.722C8.57348 37.1568 8.14021 37.4062 7.72738 37.5456C7.34656 37.6743 7.01123 37.6976 6.74484 37.7161C6.7261 37.7174 6.7077 37.7187 6.68965 37.72C6.35912 37.7436 6.07203 37.4948 6.04843 37.1642C6.02482 36.8337 6.27362 36.5466 6.60415 36.523C6.61339 36.5224 6.62252 36.5217 6.63157 36.5211C6.91619 36.5008 7.11224 36.4868 7.34327 36.4088C7.57644 36.33 7.87852 36.1721 8.30182 35.8101C8.55364 35.5947 8.93239 35.6242 9.14778 35.876Z" fill="#FCC0A6"/>
<path fill-rule="evenodd" clip-rule="evenodd" d="M9.14778 35.876C9.36317 36.1278 9.33364 36.5066 9.08183 36.722C8.57348 37.1568 8.14021 37.4062 7.72738 37.5456C7.34656 37.6743 7.01123 37.6976 6.74484 37.7161C6.7261 37.7174 6.7077 37.7187 6.68965 37.72C6.35912 37.7436 6.07203 37.4948 6.04843 37.1642C6.02482 36.8337 6.27362 36.5466 6.60415 36.523C6.61339 36.5224 6.62252 36.5217 6.63157 36.5211C6.91619 36.5008 7.11224 36.4868 7.34327 36.4088C7.57644 36.33 7.87852 36.1721 8.30182 35.8101C8.55364 35.5947 8.93239 35.6242 9.14778 35.876Z" fill="url(#paint31_radial_878_6870)"/>
<path fill-rule="evenodd" clip-rule="evenodd" d="M38.8522 35.876C38.6368 36.1278 38.6664 36.5066 38.9182 36.722C39.4265 37.1568 39.8598 37.4062 40.2726 37.5456C40.6534 37.6743 40.9888 37.6976 41.2552 37.7161C41.2739 37.7174 41.2923 37.7187 41.3104 37.72C41.6409 37.7436 41.928 37.4948 41.9516 37.1642C41.9752 36.8337 41.7264 36.5466 41.3958 36.523C41.3866 36.5224 41.3775 36.5217 41.3684 36.5211C41.0838 36.5008 40.8878 36.4868 40.6567 36.4088C40.4236 36.33 40.1215 36.1721 39.6982 35.8101C39.4464 35.5947 39.0676 35.6242 38.8522 35.876Z" fill="#E2AF9A"/>
<path fill-rule="evenodd" clip-rule="evenodd" d="M38.8522 35.876C38.6368 36.1278 38.6664 36.5066 38.9182 36.722C39.4265 37.1568 39.8598 37.4062 40.2726 37.5456C40.6534 37.6743 40.9888 37.6976 41.2552 37.7161C41.2739 37.7174 41.2923 37.7187 41.3104 37.72C41.6409 37.7436 41.928 37.4948 41.9516 37.1642C41.9752 36.8337 41.7264 36.5466 41.3958 36.523C41.3866 36.5224 41.3775 36.5217 41.3684 36.5211C41.0838 36.5008 40.8878 36.4868 40.6567 36.4088C40.4236 36.33 40.1215 36.1721 39.6982 35.8101C39.4464 35.5947 39.0676 35.6242 38.8522 35.876Z" fill="url(#paint32_radial_878_6870)"/>
<path fill-rule="evenodd" clip-rule="evenodd" d="M10.2268 36.2134C10.4369 36.4696 10.6352 36.6687 10.379 36.8788C9.53061 37.5745 8.9774 37.8556 8.58926 38.0528C8.55143 38.072 8.51518 38.0905 8.48037 38.1084C8.18579 38.2602 7.82396 38.1444 7.67221 37.8498C7.52046 37.5552 7.63624 37.1934 7.93082 37.0416C7.9669 37.023 8.00386 37.0043 8.0419 36.985C8.406 36.8001 8.86959 36.5647 9.61812 35.9509C9.87435 35.7408 10.0167 35.9571 10.2268 36.2134Z" fill="#FCC0A6"/>
<path fill-rule="evenodd" clip-rule="evenodd" d="M10.2268 36.2134C10.4369 36.4696 10.6352 36.6687 10.379 36.8788C9.53061 37.5745 8.9774 37.8556 8.58926 38.0528C8.55143 38.072 8.51518 38.0905 8.48037 38.1084C8.18579 38.2602 7.82396 38.1444 7.67221 37.8498C7.52046 37.5552 7.63624 37.1934 7.93082 37.0416C7.9669 37.023 8.00386 37.0043 8.0419 36.985C8.406 36.8001 8.86959 36.5647 9.61812 35.9509C9.87435 35.7408 10.0167 35.9571 10.2268 36.2134Z" fill="url(#paint33_radial_878_6870)"/>
<path fill-rule="evenodd" clip-rule="evenodd" d="M37.9137 36.2144C37.7036 36.4706 37.5052 36.6697 37.7615 36.8799C38.6099 37.5756 39.0358 37.8221 39.4239 38.0193C39.4618 38.0385 39.498 38.057 39.5328 38.0749C39.8274 38.2266 40.1892 38.1109 40.341 37.8163C40.4927 37.5217 40.3769 37.1599 40.0824 37.0081C40.0463 36.9895 40.0093 36.9708 39.9713 36.9515C39.6072 36.7666 39.4006 36.7671 38.6521 36.1533C38.3959 35.9432 38.1238 35.9582 37.9137 36.2144Z" fill="url(#paint34_linear_878_6870)"/>
<path fill-rule="evenodd" clip-rule="evenodd" d="M37.9137 36.2144C37.7036 36.4706 37.5052 36.6697 37.7615 36.8799C38.6099 37.5756 39.0358 37.8221 39.4239 38.0193C39.4618 38.0385 39.498 38.057 39.5328 38.0749C39.8274 38.2266 40.1892 38.1109 40.341 37.8163C40.4927 37.5217 40.3769 37.1599 40.0824 37.0081C40.0463 36.9895 40.0093 36.9708 39.9713 36.9515C39.6072 36.7666 39.4006 36.7671 38.6521 36.1533C38.3959 35.9432 38.1238 35.9582 37.9137 36.2144Z" fill="url(#paint35_radial_878_6870)"/>
<g filter="url(#filter6_f_878_6870)">
<path d="M8.36353 37.5381C8.73853 37.3193 9.63384 36.7717 10.2151 36.3311" stroke="#FFCCB6" stroke-width="0.15" stroke-linecap="round"/>
</g>
<g filter="url(#filter7_f_878_6870)">
<path d="M39.6365 37.5381C39.2615 37.3193 38.3662 36.7717 37.7849 36.3311" stroke="url(#paint36_linear_878_6870)" stroke-width="0.15" stroke-linecap="round"/>
</g>
<g filter="url(#filter8_f_878_6870)">
<path d="M6.6936 37.0752C7.30884 36.9756 8.49829 36.6064 9.07837 36.1084" stroke="#FFCCB6" stroke-width="0.15" stroke-linecap="round"/>
</g>
<g filter="url(#filter9_f_878_6870)">
<path d="M41.3064 37.0752C40.6912 36.9756 39.5017 36.6064 38.9216 36.1084" stroke="url(#paint37_linear_878_6870)" stroke-width="0.15" stroke-linecap="round"/>
</g>
<g filter="url(#filter10_f_878_6870)">
<path d="M5.72681 35.9787C6.32446 35.9787 7.25024 35.8967 8.38682 35.3224" stroke="#FFCCB6" stroke-width="0.15" stroke-linecap="round"/>
</g>
<g filter="url(#filter11_f_878_6870)">
<path d="M42.2732 35.9787C41.6755 35.9787 40.7498 35.8967 39.6132 35.3224" stroke="url(#paint38_linear_878_6870)" stroke-width="0.15" stroke-linecap="round"/>
</g>
<g filter="url(#filter12_f_878_6870)">
<path d="M5.81675 34.8535C6.41441 34.8535 7.15649 34.9244 8.18774 34.69" stroke="#FFCCB6" stroke-width="0.15" stroke-linecap="round"/>
</g>
<g filter="url(#filter13_f_878_6870)">
<path d="M42.1832 34.8535C41.5856 34.8535 40.8435 34.9244 39.8123 34.69" stroke="url(#paint39_linear_878_6870)" stroke-width="0.15" stroke-linecap="round"/>
</g>
<path d="M28.6273 12.8892C28.943 12.879 29.2387 12.772 29.4792 12.5986V13.4754C29.4792 14.3166 28.9781 15.0659 28.2164 15.3769C28.3768 15.0353 28.487 14.6632 28.5421 14.2656L28.6273 12.8892Z" fill="url(#paint40_radial_878_6870)"/>
<path d="M19.4708 12.8892C19.1551 12.879 18.8594 12.772 18.6189 12.5986V13.4754C18.6189 14.3166 19.12 15.0659 19.8817 15.3769C19.7214 15.0353 19.6111 14.6632 19.556 14.2656L19.4708 12.8892Z" fill="url(#paint41_radial_878_6870)"/>
<g filter="url(#filter14_ii_878_6870)">
<path d="M19.5054 14.316C19.7477 16.1547 21.3125 17.5236 23.1649 17.5236H24.9417C26.7941 17.5236 28.3589 16.1547 28.6012 14.316C28.7123 12.542 28.824 10.775 28.9064 9.00194C28.8964 8.27959 28.327 7.68353 27.6077 7.65322H26.289C25.3899 7.65322 24.5757 7.12282 24.2061 6.2944C24.1112 6.05698 23.8814 5.90039 23.6267 5.90039H22.4279C20.6896 5.90039 19.281 7.32488 19.281 9.08276C19.281 10.8352 19.3905 12.5592 19.5054 14.316Z" fill="url(#paint42_radial_878_6870)"/>
</g>
<path d="M19.5054 14.316C19.7477 16.1547 21.3125 17.5236 23.1649 17.5236H24.9417C26.7941 17.5236 28.3589 16.1547 28.6012 14.316C28.7123 12.542 28.824 10.775 28.9064 9.00194C28.8964 8.27959 28.327 7.68353 27.6077 7.65322H26.289C25.3899 7.65322 24.5757 7.12282 24.2061 6.2944C24.1112 6.05698 23.8814 5.90039 23.6267 5.90039H22.4279C20.6896 5.90039 19.281 7.32488 19.281 9.08276C19.281 10.8352 19.3905 12.5592 19.5054 14.316Z" fill="url(#paint43_linear_878_6870)"/>
<path d="M19.5054 14.316C19.7477 16.1547 21.3125 17.5236 23.1649 17.5236H24.9417C26.7941 17.5236 28.3589 16.1547 28.6012 14.316C28.7123 12.542 28.824 10.775 28.9064 9.00194C28.8964 8.27959 28.327 7.68353 27.6077 7.65322H26.289C25.3899 7.65322 24.5757 7.12282 24.2061 6.2944C24.1112 6.05698 23.8814 5.90039 23.6267 5.90039H22.4279C20.6896 5.90039 19.281 7.32488 19.281 9.08276C19.281 10.8352 19.3905 12.5592 19.5054 14.316Z" fill="url(#paint44_radial_878_6870)"/>
<path d="M19.5054 14.316C19.7477 16.1547 21.3125 17.5236 23.1649 17.5236H24.9417C26.7941 17.5236 28.3589 16.1547 28.6012 14.316C28.7123 12.542 28.824 10.775 28.9064 9.00194C28.8964 8.27959 28.327 7.68353 27.6077 7.65322H26.289C25.3899 7.65322 24.5757 7.12282 24.2061 6.2944C24.1112 6.05698 23.8814 5.90039 23.6267 5.90039H22.4279C20.6896 5.90039 19.281 7.32488 19.281 9.08276C19.281 10.8352 19.3905 12.5592 19.5054 14.316Z" fill="url(#paint45_radial_878_6870)"/>
<path d="M19.5054 14.316C19.7477 16.1547 21.3125 17.5236 23.1649 17.5236H24.9417C26.7941 17.5236 28.3589 16.1547 28.6012 14.316C28.7123 12.542 28.824 10.775 28.9064 9.00194C28.8964 8.27959 28.327 7.68353 27.6077 7.65322H26.289C25.3899 7.65322 24.5757 7.12282 24.2061 6.2944C24.1112 6.05698 23.8814 5.90039 23.6267 5.90039H22.4279C20.6896 5.90039 19.281 7.32488 19.281 9.08276C19.281 10.8352 19.3905 12.5592 19.5054 14.316Z" fill="url(#paint46_radial_878_6870)"/>
<path d="M19.5054 14.316C19.7477 16.1547 21.3125 17.5236 23.1649 17.5236H24.9417C26.7941 17.5236 28.3589 16.1547 28.6012 14.316C28.7123 12.542 28.824 10.775 28.9064 9.00194C28.8964 8.27959 28.327 7.68353 27.6077 7.65322H26.289C25.3899 7.65322 24.5757 7.12282 24.2061 6.2944C24.1112 6.05698 23.8814 5.90039 23.6267 5.90039H22.4279C20.6896 5.90039 19.281 7.32488 19.281 9.08276C19.281 10.8352 19.3905 12.5592 19.5054 14.316Z" fill="url(#paint47_radial_878_6870)"/>
<path d="M19.5054 14.316C19.7477 16.1547 21.3125 17.5236 23.1649 17.5236H24.9417C26.7941 17.5236 28.3589 16.1547 28.6012 14.316C28.7123 12.542 28.824 10.775 28.9064 9.00194C28.8964 8.27959 28.327 7.68353 27.6077 7.65322H26.289C25.3899 7.65322 24.5757 7.12282 24.2061 6.2944C24.1112 6.05698 23.8814 5.90039 23.6267 5.90039H22.4279C20.6896 5.90039 19.281 7.32488 19.281 9.08276C19.281 10.8352 19.3905 12.5592 19.5054 14.316Z" fill="url(#paint48_radial_878_6870)"/>
<path d="M19.5054 14.316C19.7477 16.1547 21.3125 17.5236 23.1649 17.5236H24.9417C26.7941 17.5236 28.3589 16.1547 28.6012 14.316C28.7123 12.542 28.824 10.775 28.9064 9.00194C28.8964 8.27959 28.327 7.68353 27.6077 7.65322H26.289C25.3899 7.65322 24.5757 7.12282 24.2061 6.2944C24.1112 6.05698 23.8814 5.90039 23.6267 5.90039H22.4279C20.6896 5.90039 19.281 7.32488 19.281 9.08276C19.281 10.8352 19.3905 12.5592 19.5054 14.316Z" fill="url(#paint49_radial_878_6870)"/>
<g filter="url(#filter15_f_878_6870)">
<path d="M23.6707 11.2183L23.1143 12.9496C23.0192 13.3058 23.2473 13.6619 23.5705 13.6619H24.2596C24.5828 13.6619 24.8109 13.3003 24.7158 12.9496L24.2501 11.2183C24.1503 10.8348 23.7753 10.8348 23.6707 11.2183Z" fill="#D69790"/>
</g>
<g filter="url(#filter16_f_878_6870)">
<path d="M23.6882 11.0386L23.1877 12.77C23.0855 13.1261 23.3307 13.4822 23.678 13.4822H24.4186C24.7659 13.4822 25.0111 13.1206 24.9089 12.77L24.4084 11.0386C24.3011 10.6551 23.8006 10.6551 23.6882 11.0386Z" fill="#F6BFAB"/>
<path d="M23.6882 11.0386L23.1877 12.77C23.0855 13.1261 23.3307 13.4822 23.678 13.4822H24.4186C24.7659 13.4822 25.0111 13.1206 24.9089 12.77L24.4084 11.0386C24.3011 10.6551 23.8006 10.6551 23.6882 11.0386Z" fill="url(#paint50_linear_878_6870)"/>
<path d="M23.6882 11.0386L23.1877 12.77C23.0855 13.1261 23.3307 13.4822 23.678 13.4822H24.4186C24.7659 13.4822 25.0111 13.1206 24.9089 12.77L24.4084 11.0386C24.3011 10.6551 23.8006 10.6551 23.6882 11.0386Z" fill="url(#paint51_radial_878_6870)"/>
<path d="M23.6882 11.0386L23.1877 12.77C23.0855 13.1261 23.3307 13.4822 23.678 13.4822H24.4186C24.7659 13.4822 25.0111 13.1206 24.9089 12.77L24.4084 11.0386C24.3011 10.6551 23.8006 10.6551 23.6882 11.0386Z" fill="url(#paint52_linear_878_6870)"/>
<path d="M23.6882 11.0386L23.1877 12.77C23.0855 13.1261 23.3307 13.4822 23.678 13.4822H24.4186C24.7659 13.4822 25.0111 13.1206 24.9089 12.77L24.4084 11.0386C24.3011 10.6551 23.8006 10.6551 23.6882 11.0386Z" fill="url(#paint53_radial_878_6870)"/>
<path d="M23.6882 11.0386L23.1877 12.77C23.0855 13.1261 23.3307 13.4822 23.678 13.4822H24.4186C24.7659 13.4822 25.0111 13.1206 24.9089 12.77L24.4084 11.0386C24.3011 10.6551 23.8006 10.6551 23.6882 11.0386Z" fill="url(#paint54_linear_878_6870)"/>
</g>
<g filter="url(#filter17_f_878_6870)">
<path d="M25.3191 14.0635C25.4159 14.0142 25.5177 14.0429 25.5789 14.1064C25.6254 14.1548 25.6504 14.2251 25.6335 14.2969L25.6023 14.3682C25.2734 14.8666 24.7005 15.1982 24.0486 15.1982C23.3966 15.1982 22.8238 14.8665 22.4949 14.3682L22.4958 14.3672C22.433 14.275 22.4568 14.1722 22.5173 14.1084C22.5777 14.0449 22.6793 14.0139 22.7771 14.0635H22.7781C23.1446 14.2545 23.5823 14.3643 24.0486 14.3643C24.5194 14.3642 24.9517 14.2544 25.3181 14.0635H25.3191Z" stroke="url(#paint55_linear_878_6870)" stroke-width="0.15"/>
</g>
<path d="M24.0484 14.4393C23.5704 14.4393 23.1212 14.3268 22.7436 14.13C22.6145 14.0644 22.4759 14.2097 22.5572 14.3268C22.8726 14.8049 23.4223 15.1236 24.0484 15.1236C24.6745 15.1236 25.2241 14.8049 25.5396 14.3268C25.6208 14.205 25.4822 14.0644 25.3532 14.13C24.9756 14.3268 24.5311 14.4393 24.0484 14.4393Z" fill="url(#paint56_radial_878_6870)"/>
<g filter="url(#filter18_ii_878_6870)">
<path d="M28.6214 5.456C29.106 5.6227 29.5405 5.96114 29.8153 6.44607C30.2548 7.21893 30.1899 8.14334 29.7154 8.82527C29.5505 9.06774 29.4606 9.35567 29.4606 9.64865V10.7675C29.2844 10.6448 29.0521 10.5538 28.8322 10.515L28.9062 9.00207C28.8962 8.27972 28.3267 7.68366 27.6075 7.65335H26.2888C25.3897 7.65335 24.5755 7.12296 24.2058 6.29453C24.1109 6.05712 23.8812 5.90052 23.6264 5.90052H22.4276C20.6893 5.90052 19.2807 7.32501 19.2807 9.08289L19.3096 10.5307C19.0704 10.5659 18.8205 10.6459 18.6314 10.7791V9.64865C18.6314 9.35567 18.5415 9.06774 18.3766 8.82527C17.9271 8.16354 17.8472 7.2745 18.2418 6.52184C18.5165 6.00155 18.9611 5.63785 19.4656 5.46105C20.005 5.2691 20.4646 4.9054 20.7693 4.41542C21.1589 3.7941 21.8432 3.37988 22.6274 3.37988C22.9321 3.37988 23.2218 3.44555 23.4915 3.55668C23.8512 3.71327 24.2558 3.71327 24.6154 3.55668C24.8802 3.44555 25.1699 3.37988 25.4746 3.37988C26.2688 3.37988 26.9631 3.80925 27.3477 4.44572C27.6374 4.92561 28.092 5.27415 28.6214 5.456Z" fill="url(#paint57_linear_878_6870)"/>
<path d="M28.6214 5.456C29.106 5.6227 29.5405 5.96114 29.8153 6.44607C30.2548 7.21893 30.1899 8.14334 29.7154 8.82527C29.5505 9.06774 29.4606 9.35567 29.4606 9.64865V10.7675C29.2844 10.6448 29.0521 10.5538 28.8322 10.515L28.9062 9.00207C28.8962 8.27972 28.3267 7.68366 27.6075 7.65335H26.2888C25.3897 7.65335 24.5755 7.12296 24.2058 6.29453C24.1109 6.05712 23.8812 5.90052 23.6264 5.90052H22.4276C20.6893 5.90052 19.2807 7.32501 19.2807 9.08289L19.3096 10.5307C19.0704 10.5659 18.8205 10.6459 18.6314 10.7791V9.64865C18.6314 9.35567 18.5415 9.06774 18.3766 8.82527C17.9271 8.16354 17.8472 7.2745 18.2418 6.52184C18.5165 6.00155 18.9611 5.63785 19.4656 5.46105C20.005 5.2691 20.4646 4.9054 20.7693 4.41542C21.1589 3.7941 21.8432 3.37988 22.6274 3.37988C22.9321 3.37988 23.2218 3.44555 23.4915 3.55668C23.8512 3.71327 24.2558 3.71327 24.6154 3.55668C24.8802 3.44555 25.1699 3.37988 25.4746 3.37988C26.2688 3.37988 26.9631 3.80925 27.3477 4.44572C27.6374 4.92561 28.092 5.27415 28.6214 5.456Z" fill="url(#paint58_radial_878_6870)"/>
<path d="M28.6214 5.456C29.106 5.6227 29.5405 5.96114 29.8153 6.44607C30.2548 7.21893 30.1899 8.14334 29.7154 8.82527C29.5505 9.06774 29.4606 9.35567 29.4606 9.64865V10.7675C29.2844 10.6448 29.0521 10.5538 28.8322 10.515L28.9062 9.00207C28.8962 8.27972 28.3267 7.68366 27.6075 7.65335H26.2888C25.3897 7.65335 24.5755 7.12296 24.2058 6.29453C24.1109 6.05712 23.8812 5.90052 23.6264 5.90052H22.4276C20.6893 5.90052 19.2807 7.32501 19.2807 9.08289L19.3096 10.5307C19.0704 10.5659 18.8205 10.6459 18.6314 10.7791V9.64865C18.6314 9.35567 18.5415 9.06774 18.3766 8.82527C17.9271 8.16354 17.8472 7.2745 18.2418 6.52184C18.5165 6.00155 18.9611 5.63785 19.4656 5.46105C20.005 5.2691 20.4646 4.9054 20.7693 4.41542C21.1589 3.7941 21.8432 3.37988 22.6274 3.37988C22.9321 3.37988 23.2218 3.44555 23.4915 3.55668C23.8512 3.71327 24.2558 3.71327 24.6154 3.55668C24.8802 3.44555 25.1699 3.37988 25.4746 3.37988C26.2688 3.37988 26.9631 3.80925 27.3477 4.44572C27.6374 4.92561 28.092 5.27415 28.6214 5.456Z" fill="url(#paint59_radial_878_6870)"/>
<path d="M28.6214 5.456C29.106 5.6227 29.5405 5.96114 29.8153 6.44607C30.2548 7.21893 30.1899 8.14334 29.7154 8.82527C29.5505 9.06774 29.4606 9.35567 29.4606 9.64865V10.7675C29.2844 10.6448 29.0521 10.5538 28.8322 10.515L28.9062 9.00207C28.8962 8.27972 28.3267 7.68366 27.6075 7.65335H26.2888C25.3897 7.65335 24.5755 7.12296 24.2058 6.29453C24.1109 6.05712 23.8812 5.90052 23.6264 5.90052H22.4276C20.6893 5.90052 19.2807 7.32501 19.2807 9.08289L19.3096 10.5307C19.0704 10.5659 18.8205 10.6459 18.6314 10.7791V9.64865C18.6314 9.35567 18.5415 9.06774 18.3766 8.82527C17.9271 8.16354 17.8472 7.2745 18.2418 6.52184C18.5165 6.00155 18.9611 5.63785 19.4656 5.46105C20.005 5.2691 20.4646 4.9054 20.7693 4.41542C21.1589 3.7941 21.8432 3.37988 22.6274 3.37988C22.9321 3.37988 23.2218 3.44555 23.4915 3.55668C23.8512 3.71327 24.2558 3.71327 24.6154 3.55668C24.8802 3.44555 25.1699 3.37988 25.4746 3.37988C26.2688 3.37988 26.9631 3.80925 27.3477 4.44572C27.6374 4.92561 28.092 5.27415 28.6214 5.456Z" fill="url(#paint60_radial_878_6870)"/>
<path d="M28.6214 5.456C29.106 5.6227 29.5405 5.96114 29.8153 6.44607C30.2548 7.21893 30.1899 8.14334 29.7154 8.82527C29.5505 9.06774 29.4606 9.35567 29.4606 9.64865V10.7675C29.2844 10.6448 29.0521 10.5538 28.8322 10.515L28.9062 9.00207C28.8962 8.27972 28.3267 7.68366 27.6075 7.65335H26.2888C25.3897 7.65335 24.5755 7.12296 24.2058 6.29453C24.1109 6.05712 23.8812 5.90052 23.6264 5.90052H22.4276C20.6893 5.90052 19.2807 7.32501 19.2807 9.08289L19.3096 10.5307C19.0704 10.5659 18.8205 10.6459 18.6314 10.7791V9.64865C18.6314 9.35567 18.5415 9.06774 18.3766 8.82527C17.9271 8.16354 17.8472 7.2745 18.2418 6.52184C18.5165 6.00155 18.9611 5.63785 19.4656 5.46105C20.005 5.2691 20.4646 4.9054 20.7693 4.41542C21.1589 3.7941 21.8432 3.37988 22.6274 3.37988C22.9321 3.37988 23.2218 3.44555 23.4915 3.55668C23.8512 3.71327 24.2558 3.71327 24.6154 3.55668C24.8802 3.44555 25.1699 3.37988 25.4746 3.37988C26.2688 3.37988 26.9631 3.80925 27.3477 4.44572C27.6374 4.92561 28.092 5.27415 28.6214 5.456Z" fill="url(#paint61_radial_878_6870)"/>
</g>
<g filter="url(#filter19_i_878_6870)">
<path d="M27.5636 8.90531C27.3986 8.7616 27.2067 8.60933 26.9161 8.51784C26.6295 8.42764 26.2707 8.40341 25.7742 8.46415C25.631 8.48167 25.5291 8.61194 25.5466 8.75512C25.5642 8.8983 25.6944 9.00017 25.8376 8.98265C26.2908 8.92721 26.5684 8.95602 26.7592 9.0161C26.9459 9.07489 27.0723 9.17013 27.2205 9.29921C27.3293 9.39395 27.4942 9.38257 27.589 9.2738C27.6837 9.16503 27.6723 9.00005 27.5636 8.90531Z" fill="#202020"/>
</g>
<g filter="url(#filter20_i_878_6870)">
<path d="M20.8363 8.8024C20.9212 8.7516 21.0433 8.68661 21.1975 8.62598C21.5059 8.50473 21.9467 8.39942 22.474 8.46394C22.6172 8.48146 22.7191 8.61173 22.7015 8.75491C22.684 8.89808 22.5538 8.99995 22.4106 8.98244C21.9883 8.93077 21.6359 9.0149 21.3887 9.11212C21.2651 9.16072 21.1687 9.21223 21.1046 9.25062C21.0726 9.26977 21.0488 9.28554 21.0339 9.29586C21.0264 9.30102 21.0212 9.3048 21.0182 9.30695L21.0156 9.30888C20.9018 9.39663 20.7383 9.37595 20.65 9.26239C20.5614 9.14853 20.582 8.98444 20.6958 8.89588L20.8363 8.8024Z" fill="#202020"/>
</g>
<g filter="url(#filter21_if_878_6870)">
<path d="M24.2677 6.42337C24.2457 6.38127 24.225 6.33831 24.2054 6.29452C24.1105 6.05711 23.8807 5.90051 23.626 5.90051H22.4272C20.6889 5.90051 19.2803 7.325 19.2803 9.08288V9.34203C18.9601 9.09835 18.5574 8.58432 18.5574 7.75248C18.5574 6.74304 19.2936 6.2328 19.7632 5.90733C19.8958 5.81545 20.0071 5.73829 20.0747 5.66878C20.1033 5.63925 20.1346 5.60613 20.1685 5.57011C20.4977 5.22097 21.0842 4.59888 22.1085 4.32701C22.59 4.19919 23.0776 4.16425 23.4811 4.17064C23.9538 4.17813 24.2875 4.58654 24.2875 5.05939V6.4107L24.2677 6.42337Z" fill="#23181C"/>
<path d="M24.2677 6.42337C24.2457 6.38127 24.225 6.33831 24.2054 6.29452C24.1105 6.05711 23.8807 5.90051 23.626 5.90051H22.4272C20.6889 5.90051 19.2803 7.325 19.2803 9.08288V9.34203C18.9601 9.09835 18.5574 8.58432 18.5574 7.75248C18.5574 6.74304 19.2936 6.2328 19.7632 5.90733C19.8958 5.81545 20.0071 5.73829 20.0747 5.66878C20.1033 5.63925 20.1346 5.60613 20.1685 5.57011C20.4977 5.22097 21.0842 4.59888 22.1085 4.32701C22.59 4.19919 23.0776 4.16425 23.4811 4.17064C23.9538 4.17813 24.2875 4.58654 24.2875 5.05939V6.4107L24.2677 6.42337Z" fill="url(#paint62_radial_878_6870)"/>
<path d="M24.2677 6.42337C24.2457 6.38127 24.225 6.33831 24.2054 6.29452C24.1105 6.05711 23.8807 5.90051 23.626 5.90051H22.4272C20.6889 5.90051 19.2803 7.325 19.2803 9.08288V9.34203C18.9601 9.09835 18.5574 8.58432 18.5574 7.75248C18.5574 6.74304 19.2936 6.2328 19.7632 5.90733C19.8958 5.81545 20.0071 5.73829 20.0747 5.66878C20.1033 5.63925 20.1346 5.60613 20.1685 5.57011C20.4977 5.22097 21.0842 4.59888 22.1085 4.32701C22.59 4.19919 23.0776 4.16425 23.4811 4.17064C23.9538 4.17813 24.2875 4.58654 24.2875 5.05939V6.4107L24.2677 6.42337Z" fill="url(#paint63_radial_878_6870)"/>
</g>
<g filter="url(#filter22_f_878_6870)">
<path d="M28.9583 9.49909L28.9308 8.90464C28.9208 8.18563 28.3266 7.59232 27.6073 7.56215H26.2886C25.4515 7.56215 24.688 7.10448 24.2884 6.37583C24.2884 6.37583 24.2495 6.28581 24.2028 6.12746C23.9192 5.16533 24.8518 4.41714 25.8349 4.61622C26.7268 4.79682 27.7237 5.10143 28.4677 5.58674C30.1107 6.65836 29.8231 8.58963 28.9583 9.49909Z" fill="#1F151B"/>
<path d="M28.9583 9.49909L28.9308 8.90464C28.9208 8.18563 28.3266 7.59232 27.6073 7.56215H26.2886C25.4515 7.56215 24.688 7.10448 24.2884 6.37583C24.2884 6.37583 24.2495 6.28581 24.2028 6.12746C23.9192 5.16533 24.8518 4.41714 25.8349 4.61622C26.7268 4.79682 27.7237 5.10143 28.4677 5.58674C30.1107 6.65836 29.8231 8.58963 28.9583 9.49909Z" fill="url(#paint64_radial_878_6870)"/>
<path d="M28.9583 9.49909L28.9308 8.90464C28.9208 8.18563 28.3266 7.59232 27.6073 7.56215H26.2886C25.4515 7.56215 24.688 7.10448 24.2884 6.37583C24.2884 6.37583 24.2495 6.28581 24.2028 6.12746C23.9192 5.16533 24.8518 4.41714 25.8349 4.61622C26.7268 4.79682 27.7237 5.10143 28.4677 5.58674C30.1107 6.65836 29.8231 8.58963 28.9583 9.49909Z" fill="url(#paint65_radial_878_6870)"/>
<path d="M28.9583 9.49909L28.9308 8.90464C28.9208 8.18563 28.3266 7.59232 27.6073 7.56215H26.2886C25.4515 7.56215 24.688 7.10448 24.2884 6.37583C24.2884 6.37583 24.2495 6.28581 24.2028 6.12746C23.9192 5.16533 24.8518 4.41714 25.8349 4.61622C26.7268 4.79682 27.7237 5.10143 28.4677 5.58674C30.1107 6.65836 29.8231 8.58963 28.9583 9.49909Z" fill="url(#paint66_radial_878_6870)"/>
</g>
<path d="M28.6838 12.9743C28.7458 11.972 28.8056 10.971 28.8577 9.96875C29.5693 10.0933 30.1101 10.7142 30.1101 11.4614C30.1101 12.2684 29.4793 12.9281 28.6838 12.9743Z" fill="url(#paint67_linear_878_6870)"/>
<path d="M28.6838 12.9743C28.7458 11.972 28.8056 10.971 28.8577 9.96875C29.5693 10.0933 30.1101 10.7142 30.1101 11.4614C30.1101 12.2684 29.4793 12.9281 28.6838 12.9743Z" fill="url(#paint68_radial_878_6870)"/>
<path d="M28.6838 12.9743C28.7458 11.972 28.8056 10.971 28.8577 9.96875C29.5693 10.0933 30.1101 10.7142 30.1101 11.4614C30.1101 12.2684 29.4793 12.9281 28.6838 12.9743Z" fill="url(#paint69_radial_878_6870)"/>
<path d="M28.6838 12.9743C28.7458 11.972 28.8056 10.971 28.8577 9.96875C29.5693 10.0933 30.1101 10.7142 30.1101 11.4614C30.1101 12.2684 29.4793 12.9281 28.6838 12.9743Z" fill="url(#paint70_radial_878_6870)"/>
<path d="M19.2986 9.96094C18.5627 10.0647 17.9875 10.6975 17.9875 11.462C17.9875 12.271 18.6216 12.932 19.4199 12.9751C19.3591 11.9688 19.3181 10.9676 19.2986 9.96094Z" fill="url(#paint71_linear_878_6870)"/>
<path d="M19.2986 9.96094C18.5627 10.0647 17.9875 10.6975 17.9875 11.462C17.9875 12.271 18.6216 12.932 19.4199 12.9751C19.3591 11.9688 19.3181 10.9676 19.2986 9.96094Z" fill="url(#paint72_radial_878_6870)"/>
<g filter="url(#filter23_f_878_6870)">
<path d="M19.2595 10.583C18.8576 10.6731 18.5574 11.032 18.5574 11.461C18.5574 11.9175 18.8974 12.2947 19.338 12.353C19.3054 11.7626 19.2778 11.1734 19.2595 10.583Z" fill="url(#paint73_radial_878_6870)"/>
</g>
<g filter="url(#filter24_f_878_6870)">
<path d="M28.7629 12.3677C28.7992 11.7701 28.8343 11.1728 28.8671 10.5752C29.3109 10.6306 29.6544 11.0092 29.6544 11.468C29.6544 11.9621 29.256 12.3633 28.7629 12.3677Z" fill="url(#paint74_linear_878_6870)"/>
</g>
<g filter="url(#filter25_f_878_6870)">
<path d="M20.8718 9.06601C21.1139 8.89237 21.7171 8.58692 22.4307 8.70689" stroke="#353535" stroke-width="0.1" stroke-linecap="round"/>
</g>
<g filter="url(#filter26_f_878_6870)">
<path d="M27.4021 9.02304C27.1601 8.8494 26.5568 8.54395 25.8433 8.66392" stroke="#353535" stroke-width="0.1" stroke-linecap="round"/>
</g>
<path d="M20.9553 10.9111C21.0608 11.083 21.41 11.4268 21.9631 11.4268C22.4084 11.4268 22.8499 11.083 22.9475 10.9111" stroke="#4B3833" stroke-width="0.3" stroke-linecap="round"/>
<g filter="url(#filter27_f_878_6870)">
<path d="M20.9553 10.9111C21.0608 11.083 21.41 11.4268 21.9631 11.4268C22.4084 11.4268 22.8499 11.083 22.9475 10.9111" stroke="#2C2C2C" stroke-width="0.1" stroke-linecap="round"/>
</g>
<path d="M25.1389 10.9111C25.2444 11.083 25.5936 11.4268 26.1467 11.4268C26.592 11.4268 27.0334 11.083 27.1311 10.9111" stroke="#4B3833" stroke-width="0.3" stroke-linecap="round"/>
<g filter="url(#filter28_f_878_6870)">
<path d="M25.1389 10.9111C25.2444 11.083 25.5936 11.4268 26.1467 11.4268C26.592 11.4268 27.0334 11.083 27.1311 10.9111" stroke="#2C2C2C" stroke-width="0.1" stroke-linecap="round"/>
</g>
<defs>
<filter id="filter0_ii_878_6870" x="26.4397" y="33.1279" width="14.0928" height="8.73438" filterUnits="userSpaceOnUse" color-interpolation-filters="sRGB">
<feFlood flood-opacity="0" result="BackgroundImageFix"/>
<feBlend mode="normal" in="SourceGraphic" in2="BackgroundImageFix" result="shape"/>
<feColorMatrix in="SourceAlpha" type="matrix" values="0 0 0 0 0 0 0 0 0 0 0 0 0 0 0 0 0 0 127 0" result="hardAlpha"/>
<feOffset dx="1" dy="-1"/>
<feGaussianBlur stdDeviation="0.75"/>
<feComposite in2="hardAlpha" operator="arithmetic" k2="-1" k3="1"/>
<feColorMatrix type="matrix" values="0 0 0 0 0.858824 0 0 0 0 0.635294 0 0 0 0 0.619608 0 0 0 1 0"/>
<feBlend mode="normal" in2="shape" result="effect1_innerShadow_878_6870"/>
<feColorMatrix in="SourceAlpha" type="matrix" values="0 0 0 0 0 0 0 0 0 0 0 0 0 0 0 0 0 0 127 0" result="hardAlpha"/>
<feOffset dy="-0.25"/>
<feGaussianBlur stdDeviation="0.375"/>
<feComposite in2="hardAlpha" operator="arithmetic" k2="-1" k3="1"/>
<feColorMatrix type="matrix" values="0 0 0 0 0.752941 0 0 0 0 0.521569 0 0 0 0 0.592157 0 0 0 1 0"/>
<feBlend mode="normal" in2="effect1_innerShadow_878_6870" result="effect2_innerShadow_878_6870"/>
</filter>
<filter id="filter1_ii_878_6870" x="8.6272" y="32.8779" width="25.3191" height="11.7432" filterUnits="userSpaceOnUse" color-interpolation-filters="sRGB">
<feFlood flood-opacity="0" result="BackgroundImageFix"/>
<feBlend mode="normal" in="SourceGraphic" in2="BackgroundImageFix" result="shape"/>
<feColorMatrix in="SourceAlpha" type="matrix" values="0 0 0 0 0 0 0 0 0 0 0 0 0 0 0 0 0 0 127 0" result="hardAlpha"/>
<feOffset dx="1" dy="-1.25"/>
<feGaussianBlur stdDeviation="0.75"/>
<feComposite in2="hardAlpha" operator="arithmetic" k2="-1" k3="1"/>
<feColorMatrix type="matrix" values="0 0 0 0 0.886275 0 0 0 0 0.658824 0 0 0 0 0.658824 0 0 0 1 0"/>
<feBlend mode="normal" in2="shape" result="effect1_innerShadow_878_6870"/>
<feColorMatrix in="SourceAlpha" type="matrix" values="0 0 0 0 0 0 0 0 0 0 0 0 0 0 0 0 0 0 127 0" result="hardAlpha"/>
<feOffset dy="-0.25"/>
<feGaussianBlur stdDeviation="0.375"/>
<feComposite in2="hardAlpha" operator="arithmetic" k2="-1" k3="1"/>
<feColorMatrix type="matrix" values="0 0 0 0 0.780392 0 0 0 0 0.537255 0 0 0 0 0.607843 0 0 0 1 0"/>
<feBlend mode="normal" in2="effect1_innerShadow_878_6870" result="effect2_innerShadow_878_6870"/>
</filter>
<filter id="filter2_i_878_6870" x="29.7539" y="17.7646" width="11.3066" height="19.0703" filterUnits="userSpaceOnUse" color-interpolation-filters="sRGB">
<feFlood flood-opacity="0" result="BackgroundImageFix"/>
<feBlend mode="normal" in="SourceGraphic" in2="BackgroundImageFix" result="shape"/>
<feColorMatrix in="SourceAlpha" type="matrix" values="0 0 0 0 0 0 0 0 0 0 0 0 0 0 0 0 0 0 127 0" result="hardAlpha"/>
<feOffset dx="0.25" dy="-0.25"/>
<feGaussianBlur stdDeviation="0.5"/>
<feComposite in2="hardAlpha" operator="arithmetic" k2="-1" k3="1"/>
<feColorMatrix type="matrix" values="0 0 0 0 0.819608 0 0 0 0 0.54902 0 0 0 0 0.462745 0 0 0 1 0"/>
<feBlend mode="normal" in2="shape" result="effect1_innerShadow_878_6870"/>
</filter>
<filter id="filter3_i_878_6870" x="17.803" y="31.7404" width="12.6524" height="4.68438" filterUnits="userSpaceOnUse" color-interpolation-filters="sRGB">
<feFlood flood-opacity="0" result="BackgroundImageFix"/>
<feBlend mode="normal" in="SourceGraphic" in2="BackgroundImageFix" result="shape"/>
<feColorMatrix in="SourceAlpha" type="matrix" values="0 0 0 0 0 0 0 0 0 0 0 0 0 0 0 0 0 0 127 0" result="hardAlpha"/>
<feOffset dx="0.2" dy="-0.2"/>
<feGaussianBlur stdDeviation="0.5"/>
<feComposite in2="hardAlpha" operator="arithmetic" k2="-1" k3="1"/>
<feColorMatrix type="matrix" values="0 0 0 0 0.262745 0 0 0 0 0.247059 0 0 0 0 0.262745 0 0 0 1 0"/>
<feBlend mode="normal" in2="shape" result="effect1_innerShadow_878_6870"/>
</filter>
<filter id="filter4_i_878_6870" x="19.7366" y="15.4068" width="8.70156" height="6.11172" filterUnits="userSpaceOnUse" color-interpolation-filters="sRGB">
<feFlood flood-opacity="0" result="BackgroundImageFix"/>
<feBlend mode="normal" in="SourceGraphic" in2="BackgroundImageFix" result="shape"/>
<feColorMatrix in="SourceAlpha" type="matrix" values="0 0 0 0 0 0 0 0 0 0 0 0 0 0 0 0 0 0 127 0" result="hardAlpha"/>
<feOffset dx="0.1" dy="-0.1"/>
<feGaussianBlur stdDeviation="0.25"/>
<feComposite in2="hardAlpha" operator="arithmetic" k2="-1" k3="1"/>
<feColorMatrix type="matrix" values="0 0 0 0 0.839216 0 0 0 0 0.643137 0 0 0 0 0.541176 0 0 0 1 0"/>
<feBlend mode="normal" in2="shape" result="effect1_innerShadow_878_6870"/>
</filter>
<filter id="filter5_i_878_6870" x="17.8323" y="16.6826" width="12.4331" height="15.3568" filterUnits="userSpaceOnUse" color-interpolation-filters="sRGB">
<feFlood flood-opacity="0" result="BackgroundImageFix"/>
<feBlend mode="normal" in="SourceGraphic" in2="BackgroundImageFix" result="shape"/>
<feColorMatrix in="SourceAlpha" type="matrix" values="0 0 0 0 0 0 0 0 0 0 0 0 0 0 0 0 0 0 127 0" result="hardAlpha"/>
<feOffset dy="0.1"/>
<feGaussianBlur stdDeviation="0.15"/>
<feComposite in2="hardAlpha" operator="arithmetic" k2="-1" k3="1"/>
<feColorMatrix type="matrix" values="0 0 0 0 1 0 0 0 0 0.423529 0 0 0 0 0.0941176 0 0 0 1 0"/>
<feBlend mode="normal" in2="shape" result="effect1_innerShadow_878_6870"/>
</filter>
<filter id="filter6_f_878_6870" x="8.13857" y="36.1059" width="2.30146" height="1.65742" filterUnits="userSpaceOnUse" color-interpolation-filters="sRGB">
<feFlood flood-opacity="0" result="BackgroundImageFix"/>
<feBlend mode="normal" in="SourceGraphic" in2="BackgroundImageFix" result="shape"/>
<feGaussianBlur stdDeviation="0.075" result="effect1_foregroundBlur_878_6870"/>
</filter>
<filter id="filter7_f_878_6870" x="37.56" y="36.1059" width="2.30146" height="1.65742" filterUnits="userSpaceOnUse" color-interpolation-filters="sRGB">
<feFlood flood-opacity="0" result="BackgroundImageFix"/>
<feBlend mode="normal" in="SourceGraphic" in2="BackgroundImageFix" result="shape"/>
<feGaussianBlur stdDeviation="0.075" result="effect1_foregroundBlur_878_6870"/>
</filter>
<filter id="filter8_f_878_6870" x="6.46865" y="35.8832" width="2.83467" height="1.41719" filterUnits="userSpaceOnUse" color-interpolation-filters="sRGB">
<feFlood flood-opacity="0" result="BackgroundImageFix"/>
<feBlend mode="normal" in="SourceGraphic" in2="BackgroundImageFix" result="shape"/>
<feGaussianBlur stdDeviation="0.075" result="effect1_foregroundBlur_878_6870"/>
</filter>
<filter id="filter9_f_878_6870" x="38.6967" y="35.8832" width="2.83467" height="1.41719" filterUnits="userSpaceOnUse" color-interpolation-filters="sRGB">
<feFlood flood-opacity="0" result="BackgroundImageFix"/>
<feBlend mode="normal" in="SourceGraphic" in2="BackgroundImageFix" result="shape"/>
<feGaussianBlur stdDeviation="0.075" result="effect1_foregroundBlur_878_6870"/>
</filter>
<filter id="filter10_f_878_6870" x="5.50186" y="35.0971" width="3.11006" height="1.10664" filterUnits="userSpaceOnUse" color-interpolation-filters="sRGB">
<feFlood flood-opacity="0" result="BackgroundImageFix"/>
<feBlend mode="normal" in="SourceGraphic" in2="BackgroundImageFix" result="shape"/>
<feGaussianBlur stdDeviation="0.075" result="effect1_foregroundBlur_878_6870"/>
</filter>
<filter id="filter11_f_878_6870" x="39.3881" y="35.0971" width="3.11006" height="1.10664" filterUnits="userSpaceOnUse" color-interpolation-filters="sRGB">
<feFlood flood-opacity="0" result="BackgroundImageFix"/>
<feBlend mode="normal" in="SourceGraphic" in2="BackgroundImageFix" result="shape"/>
<feGaussianBlur stdDeviation="0.075" result="effect1_foregroundBlur_878_6870"/>
</filter>
<filter id="filter12_f_878_6870" x="5.5917" y="34.4652" width="2.821" height="0.623242" filterUnits="userSpaceOnUse" color-interpolation-filters="sRGB">
<feFlood flood-opacity="0" result="BackgroundImageFix"/>
<feBlend mode="normal" in="SourceGraphic" in2="BackgroundImageFix" result="shape"/>
<feGaussianBlur stdDeviation="0.075" result="effect1_foregroundBlur_878_6870"/>
</filter>
<filter id="filter13_f_878_6870" x="39.5873" y="34.4652" width="2.821" height="0.623242" filterUnits="userSpaceOnUse" color-interpolation-filters="sRGB">
<feFlood flood-opacity="0" result="BackgroundImageFix"/>
<feBlend mode="normal" in="SourceGraphic" in2="BackgroundImageFix" result="shape"/>
<feGaussianBlur stdDeviation="0.075" result="effect1_foregroundBlur_878_6870"/>
</filter>
<filter id="filter14_ii_878_6870" x="19.281" y="5.90039" width="10.6255" height="11.823" filterUnits="userSpaceOnUse" color-interpolation-filters="sRGB">
<feFlood flood-opacity="0" result="BackgroundImageFix"/>
<feBlend mode="normal" in="SourceGraphic" in2="BackgroundImageFix" result="shape"/>
<feColorMatrix in="SourceAlpha" type="matrix" values="0 0 0 0 0 0 0 0 0 0 0 0 0 0 0 0 0 0 127 0" result="hardAlpha"/>
<feOffset dx="1"/>
<feGaussianBlur stdDeviation="0.7"/>
<feComposite in2="hardAlpha" operator="arithmetic" k2="-1" k3="1"/>
<feColorMatrix type="matrix" values="0 0 0 0 0.913725 0 0 0 0 0.686275 0 0 0 0 0.592157 0 0 0 1 0"/>
<feBlend mode="normal" in2="shape" result="effect1_innerShadow_878_6870"/>
<feColorMatrix in="SourceAlpha" type="matrix" values="0 0 0 0 0 0 0 0 0 0 0 0 0 0 0 0 0 0 127 0" result="hardAlpha"/>
<feOffset dy="0.2"/>
<feGaussianBlur stdDeviation="0.375"/>
<feComposite in2="hardAlpha" operator="arithmetic" k2="-1" k3="1"/>
<feColorMatrix type="matrix" values="0 0 0 0 0.780392 0 0 0 0 0.568627 0 0 0 0 0.486275 0 0 0 1 0"/>
<feBlend mode="normal" in2="effect1_innerShadow_878_6870" result="effect2_innerShadow_878_6870"/>
</filter>
<filter id="filter15_f_878_6870" x="22.0925" y="9.93066" width="3.64502" height="4.73145" filterUnits="userSpaceOnUse" color-interpolation-filters="sRGB">
<feFlood flood-opacity="0" result="BackgroundImageFix"/>
<feBlend mode="normal" in="SourceGraphic" in2="BackgroundImageFix" result="shape"/>
<feGaussianBlur stdDeviation="0.5" result="effect1_foregroundBlur_878_6870"/>
</filter>
<filter id="filter16_f_878_6870" x="23.0643" y="10.651" width="1.96807" height="2.93145" filterUnits="userSpaceOnUse" color-interpolation-filters="sRGB">
<feFlood flood-opacity="0" result="BackgroundImageFix"/>
<feBlend mode="normal" in="SourceGraphic" in2="BackgroundImageFix" result="shape"/>
<feGaussianBlur stdDeviation="0.05" result="effect1_foregroundBlur_878_6870"/>
</filter>
<filter id="filter17_f_878_6870" x="22.2828" y="13.8629" width="3.53105" height="1.51055" filterUnits="userSpaceOnUse" color-interpolation-filters="sRGB">
<feFlood flood-opacity="0" result="BackgroundImageFix"/>
<feBlend mode="normal" in="SourceGraphic" in2="BackgroundImageFix" result="shape"/>
<feGaussianBlur stdDeviation="0.05" result="effect1_foregroundBlur_878_6870"/>
</filter>
<filter id="filter18_ii_878_6870" x="17.9875" y="2.87988" width="12.1233" height="7.89941" filterUnits="userSpaceOnUse" color-interpolation-filters="sRGB">
<feFlood flood-opacity="0" result="BackgroundImageFix"/>
<feBlend mode="normal" in="SourceGraphic" in2="BackgroundImageFix" result="shape"/>
<feColorMatrix in="SourceAlpha" type="matrix" values="0 0 0 0 0 0 0 0 0 0 0 0 0 0 0 0 0 0 127 0" result="hardAlpha"/>
<feOffset dy="-0.5"/>
<feGaussianBlur stdDeviation="0.625"/>
<feComposite in2="hardAlpha" operator="arithmetic" k2="-1" k3="1"/>
<feColorMatrix type="matrix" values="0 0 0 0 0.137255 0 0 0 0 0.0901961 0 0 0 0 0.145098 0 0 0 1 0"/>
<feBlend mode="normal" in2="shape" result="effect1_innerShadow_878_6870"/>
<feColorMatrix in="SourceAlpha" type="matrix" values="0 0 0 0 0 0 0 0 0 0 0 0 0 0 0 0 0 0 127 0" result="hardAlpha"/>
<feOffset dy="-0.2"/>
<feGaussianBlur stdDeviation="0.2"/>
<feComposite in2="hardAlpha" operator="arithmetic" k2="-1" k3="1"/>
<feColorMatrix type="matrix" values="0 0 0 0 0.0784314 0 0 0 0 0.0352941 0 0 0 0 0.0470588 0 0 0 1 0"/>
<feBlend mode="normal" in2="effect1_innerShadow_878_6870" result="effect2_innerShadow_878_6870"/>
</filter>
<filter id="filter19_i_878_6870" x="25.5447" y="8.23066" width="2.20864" height="1.13262" filterUnits="userSpaceOnUse" color-interpolation-filters="sRGB">
<feFlood flood-opacity="0" result="BackgroundImageFix"/>
<feBlend mode="normal" in="SourceGraphic" in2="BackgroundImageFix" result="shape"/>
<feColorMatrix in="SourceAlpha" type="matrix" values="0 0 0 0 0 0 0 0 0 0 0 0 0 0 0 0 0 0 127 0" result="hardAlpha"/>
<feOffset dx="0.1" dy="-0.2"/>
<feGaussianBlur stdDeviation="0.125"/>
<feComposite in2="hardAlpha" operator="arithmetic" k2="-1" k3="1"/>
<feColorMatrix type="matrix" values="0 0 0 0 0.0588235 0 0 0 0 0.054902 0 0 0 0 0.0588235 0 0 0 1 0"/>
<feBlend mode="normal" in2="shape" result="effect1_innerShadow_878_6870"/>
</filter>
<filter id="filter20_i_878_6870" x="20.595" y="8.24434" width="2.20864" height="1.11895" filterUnits="userSpaceOnUse" color-interpolation-filters="sRGB">
<feFlood flood-opacity="0" result="BackgroundImageFix"/>
<feBlend mode="normal" in="SourceGraphic" in2="BackgroundImageFix" result="shape"/>
<feColorMatrix in="SourceAlpha" type="matrix" values="0 0 0 0 0 0 0 0 0 0 0 0 0 0 0 0 0 0 127 0" result="hardAlpha"/>
<feOffset dx="0.1" dy="-0.2"/>
<feGaussianBlur stdDeviation="0.125"/>
<feComposite in2="hardAlpha" operator="arithmetic" k2="-1" k3="1"/>
<feColorMatrix type="matrix" values="0 0 0 0 0.0588235 0 0 0 0 0.054902 0 0 0 0 0.0588235 0 0 0 1 0"/>
<feBlend mode="normal" in2="shape" result="effect1_innerShadow_878_6870"/>
</filter>
<filter id="filter21_if_878_6870" x="18.4574" y="4.06992" width="6.23022" height="5.47188" filterUnits="userSpaceOnUse" color-interpolation-filters="sRGB">
<feFlood flood-opacity="0" result="BackgroundImageFix"/>
<feBlend mode="normal" in="SourceGraphic" in2="BackgroundImageFix" result="shape"/>
<feColorMatrix in="SourceAlpha" type="matrix" values="0 0 0 0 0 0 0 0 0 0 0 0 0 0 0 0 0 0 127 0" result="hardAlpha"/>
<feOffset dx="0.4" dy="0.2"/>
<feGaussianBlur stdDeviation="0.2"/>
<feComposite in2="hardAlpha" operator="arithmetic" k2="-1" k3="1"/>
<feColorMatrix type="matrix" values="0 0 0 0 0.286275 0 0 0 0 0.243137 0 0 0 0 0.227451 0 0 0 1 0"/>
<feBlend mode="normal" in2="shape" result="effect1_innerShadow_878_6870"/>
<feGaussianBlur stdDeviation="0.05" result="effect2_foregroundBlur_878_6870"/>
</filter>
<filter id="filter22_f_878_6870" x="24.0011" y="4.43398" width="5.80391" height="5.21504" filterUnits="userSpaceOnUse" color-interpolation-filters="sRGB">
<feFlood flood-opacity="0" result="BackgroundImageFix"/>
<feBlend mode="normal" in="SourceGraphic" in2="BackgroundImageFix" result="shape"/>
<feGaussianBlur stdDeviation="0.075" result="effect1_foregroundBlur_878_6870"/>
</filter>
<filter id="filter23_f_878_6870" x="18.3074" y="10.333" width="1.28076" height="2.26953" filterUnits="userSpaceOnUse" color-interpolation-filters="sRGB">
<feFlood flood-opacity="0" result="BackgroundImageFix"/>
<feBlend mode="normal" in="SourceGraphic" in2="BackgroundImageFix" result="shape"/>
<feGaussianBlur stdDeviation="0.125" result="effect1_foregroundBlur_878_6870"/>
</filter>
<filter id="filter24_f_878_6870" x="28.2629" y="10.0752" width="1.89136" height="2.79297" filterUnits="userSpaceOnUse" color-interpolation-filters="sRGB">
<feFlood flood-opacity="0" result="BackgroundImageFix"/>
<feBlend mode="normal" in="SourceGraphic" in2="BackgroundImageFix" result="shape"/>
<feGaussianBlur stdDeviation="0.25" result="effect1_foregroundBlur_878_6870"/>
</filter>
<filter id="filter25_f_878_6870" x="20.7218" y="8.52988" width="1.85894" height="0.686328" filterUnits="userSpaceOnUse" color-interpolation-filters="sRGB">
<feFlood flood-opacity="0" result="BackgroundImageFix"/>
<feBlend mode="normal" in="SourceGraphic" in2="BackgroundImageFix" result="shape"/>
<feGaussianBlur stdDeviation="0.05" result="effect1_foregroundBlur_878_6870"/>
</filter>
<filter id="filter26_f_878_6870" x="25.6932" y="8.48691" width="1.85894" height="0.686328" filterUnits="userSpaceOnUse" color-interpolation-filters="sRGB">
<feFlood flood-opacity="0" result="BackgroundImageFix"/>
<feBlend mode="normal" in="SourceGraphic" in2="BackgroundImageFix" result="shape"/>
<feGaussianBlur stdDeviation="0.05" result="effect1_foregroundBlur_878_6870"/>
</filter>
<filter id="filter27_f_878_6870" x="20.8053" y="10.7613" width="2.29229" height="0.815234" filterUnits="userSpaceOnUse" color-interpolation-filters="sRGB">
<feFlood flood-opacity="0" result="BackgroundImageFix"/>
<feBlend mode="normal" in="SourceGraphic" in2="BackgroundImageFix" result="shape"/>
<feGaussianBlur stdDeviation="0.05" result="effect1_foregroundBlur_878_6870"/>
</filter>
<filter id="filter28_f_878_6870" x="24.9889" y="10.7613" width="2.29229" height="0.815234" filterUnits="userSpaceOnUse" color-interpolation-filters="sRGB">
<feFlood flood-opacity="0" result="BackgroundImageFix"/>
<feBlend mode="normal" in="SourceGraphic" in2="BackgroundImageFix" result="shape"/>
<feGaussianBlur stdDeviation="0.05" result="effect1_foregroundBlur_878_6870"/>
</filter>
<radialGradient id="paint0_radial_878_6870" cx="0" cy="0" r="1" gradientUnits="userSpaceOnUse" gradientTransform="translate(7.85962 33.635) rotate(109.231) scale(1.06737 2.15442)">
<stop stop-color="#FDC3A2"/>
<stop offset="1" stop-color="#FFC2A4"/>
</radialGradient>
<radialGradient id="paint1_radial_878_6870" cx="0" cy="0" r="1" gradientUnits="userSpaceOnUse" gradientTransform="translate(41.5745 33.8921) rotate(174.452) scale(1.24804 0.503395)">
<stop stop-color="#EFC3AD"/>
<stop offset="1" stop-color="#EABFA6"/>
</radialGradient>
<radialGradient id="paint2_radial_878_6870" cx="0" cy="0" r="1" gradientUnits="userSpaceOnUse" gradientTransform="translate(39.5325 37.7373) rotate(-180) scale(6.15527 10.4197)">
<stop stop-color="#E2B3A5"/>
<stop offset="1" stop-color="#F1B9A0"/>
</radialGradient>
<radialGradient id="paint3_radial_878_6870" cx="0" cy="0" r="1" gradientUnits="userSpaceOnUse" gradientTransform="translate(36.7991 35.6748) rotate(63.7832) scale(2.58638 2.73228)">
<stop stop-color="#D08C76"/>
<stop offset="1" stop-color="#D08C76" stop-opacity="0"/>
</radialGradient>
<radialGradient id="paint4_radial_878_6870" cx="0" cy="0" r="1" gradientUnits="userSpaceOnUse" gradientTransform="translate(14.8147 42.7529) rotate(15.4885) scale(4.03724 2.94883)">
<stop offset="0.270372" stop-color="#DC9FA1"/>
<stop offset="1" stop-color="#C38390"/>
</radialGradient>
<radialGradient id="paint5_radial_878_6870" cx="0" cy="0" r="1" gradientUnits="userSpaceOnUse" gradientTransform="translate(18.0901 43.7139) rotate(-166.139) scale(3.71763 9.43451)">
<stop offset="0.752736" stop-color="#F9BCAE" stop-opacity="0"/>
<stop offset="1" stop-color="#F9BCAE"/>
</radialGradient>
<radialGradient id="paint6_radial_878_6870" cx="0" cy="0" r="1" gradientUnits="userSpaceOnUse" gradientTransform="translate(31.9417 38.7524) rotate(165.964) scale(1.3529 3.76625)">
<stop stop-color="#FFCEBA"/>
<stop offset="1" stop-color="#FFCEBA" stop-opacity="0"/>
</radialGradient>
<radialGradient id="paint7_radial_878_6870" cx="0" cy="0" r="1" gradientUnits="userSpaceOnUse" gradientTransform="translate(8.36353 38.5649) rotate(-18.4277) scale(3.65623 8.36604)">
<stop offset="0.145732" stop-color="#FFCAB4"/>
<stop offset="1" stop-color="#FFCAB4" stop-opacity="0"/>
</radialGradient>
<radialGradient id="paint8_radial_878_6870" cx="0" cy="0" r="1" gradientUnits="userSpaceOnUse" gradientTransform="translate(10.8479 35.7678) rotate(53.4476) scale(1.69221 2.79747)">
<stop offset="0.314908" stop-color="#F3A98C"/>
<stop offset="1" stop-color="#F3A98C" stop-opacity="0"/>
</radialGradient>
<radialGradient id="paint9_radial_878_6870" cx="0" cy="0" r="1" gradientUnits="userSpaceOnUse" gradientTransform="translate(29.2991 34.5966) scale(6.75 2.85938)">
<stop stop-color="#CE9B8A"/>
<stop offset="1" stop-color="#CE8C76"/>
</radialGradient>
<linearGradient id="paint10_linear_878_6870" x1="32.2874" y1="31.5028" x2="32.2874" y2="33.2372" gradientUnits="userSpaceOnUse">
<stop stop-color="#B66C55"/>
<stop offset="1" stop-color="#CD846B" stop-opacity="0"/>
</linearGradient>
<linearGradient id="paint11_linear_878_6870" x1="27.9866" y1="36.4293" x2="29.8381" y2="37.0341" gradientUnits="userSpaceOnUse">
<stop offset="0.106403" stop-color="#AF7875"/>
<stop offset="1" stop-color="#C79383" stop-opacity="0"/>
</linearGradient>
<radialGradient id="paint12_radial_878_6870" cx="0" cy="0" r="1" gradientUnits="userSpaceOnUse" gradientTransform="translate(12.9104 34.1849) scale(5.8125 2.86954)">
<stop stop-color="#F2B59C"/>
<stop offset="1" stop-color="#CE927D"/>
</radialGradient>
<linearGradient id="paint13_linear_878_6870" x1="16.2327" y1="31.5028" x2="16.2327" y2="33.2372" gradientUnits="userSpaceOnUse">
<stop stop-color="#B3715E"/>
<stop offset="1" stop-color="#C5856F" stop-opacity="0"/>
</linearGradient>
<linearGradient id="paint14_linear_878_6870" x1="20.5334" y1="36.4293" x2="18.6819" y2="37.0341" gradientUnits="userSpaceOnUse">
<stop offset="0.106403" stop-color="#B17369"/>
<stop offset="1" stop-color="#C98E79" stop-opacity="0"/>
</linearGradient>
<radialGradient id="paint15_radial_878_6870" cx="0" cy="0" r="1" gradientUnits="userSpaceOnUse" gradientTransform="translate(10.7366 35.1984) rotate(-42.1301) scale(6.97636 2.36542)">
<stop stop-color="#F3BEA3"/>
<stop offset="1" stop-color="#EFBA94" stop-opacity="0"/>
</radialGradient>
<linearGradient id="paint16_linear_878_6870" x1="18.3596" y1="30.9111" x2="15.0499" y2="30.6252" gradientUnits="userSpaceOnUse">
<stop offset="0.184099" stop-color="#DF947D"/>
<stop offset="1" stop-color="#DF947D" stop-opacity="0"/>
</linearGradient>
<radialGradient id="paint17_radial_878_6870" cx="0" cy="0" r="1" gradientUnits="userSpaceOnUse" gradientTransform="translate(18.3596 29.9561) rotate(117.54) scale(5.23368 1.76239)">
<stop stop-color="#AC5D47"/>
<stop offset="1" stop-color="#D2826A" stop-opacity="0"/>
</radialGradient>
<linearGradient id="paint18_linear_878_6870" x1="29.7532" y1="30.9111" x2="33.0629" y2="30.6252" gradientUnits="userSpaceOnUse">
<stop offset="0.184099" stop-color="#DC8368"/>
<stop offset="1" stop-color="#DC8368" stop-opacity="0"/>
</linearGradient>
<radialGradient id="paint19_radial_878_6870" cx="0" cy="0" r="1" gradientUnits="userSpaceOnUse" gradientTransform="translate(39.4885 35.9561) rotate(-142.496) scale(2.54078 3.24646)">
<stop offset="0.0303651" stop-color="#F0C1AE"/>
<stop offset="1" stop-color="#F1C0A6" stop-opacity="0"/>
</radialGradient>
<radialGradient id="paint20_radial_878_6870" cx="0" cy="0" r="1" gradientUnits="userSpaceOnUse" gradientTransform="translate(32.2053 19.5967) rotate(63.0045) scale(16.0451 7.35215)">
<stop stop-color="#FFD3BA"/>
<stop offset="1" stop-color="#FFD3BA" stop-opacity="0"/>
</radialGradient>
<radialGradient id="paint21_radial_878_6870" cx="0" cy="0" r="1" gradientUnits="userSpaceOnUse" gradientTransform="translate(27.6584 31.5966) rotate(99.6783) scale(6.13418 12.7757)">
<stop offset="0.125919" stop-color="#9F96A7"/>
<stop offset="0.925256" stop-color="#6E6773"/>
</radialGradient>
<radialGradient id="paint22_radial_878_6870" cx="0" cy="0" r="1" gradientUnits="userSpaceOnUse" gradientTransform="translate(26.4397 20.0186) rotate(-128.1) scale(5.24183 7.50001)">
<stop stop-color="#FFCEB8"/>
<stop offset="1" stop-color="#F5BCA5"/>
</radialGradient>
<radialGradient id="paint23_radial_878_6870" cx="0" cy="0" r="1" gradientUnits="userSpaceOnUse" gradientTransform="translate(22.8245 15.5068) rotate(118.757) scale(4.5307 5.10979)">
<stop offset="0.362959" stop-color="#DE9B7B"/>
<stop offset="1" stop-color="#E6AB90" stop-opacity="0"/>
</radialGradient>
<radialGradient id="paint24_radial_878_6870" cx="0" cy="0" r="1" gradientUnits="userSpaceOnUse" gradientTransform="translate(26.5334 19.8773) rotate(86.4422) scale(12.0859 11.6249)">
<stop offset="0.296151" stop-color="#FF7D3C"/>
<stop offset="1" stop-color="#F74D05"/>
</radialGradient>
<radialGradient id="paint25_radial_878_6870" cx="0" cy="0" r="1" gradientUnits="userSpaceOnUse" gradientTransform="translate(30.2651 21.7523) rotate(141.869) scale(15.411 19.6128)">
<stop offset="0.406814" stop-color="#EE5422" stop-opacity="0"/>
<stop offset="1" stop-color="#CC3A05"/>
</radialGradient>
<radialGradient id="paint26_radial_878_6870" cx="0" cy="0" r="1" gradientUnits="userSpaceOnUse" gradientTransform="translate(17.4397 17.6742) rotate(28.8108) scale(6.41965 17.5205)">
<stop offset="0.0735765" stop-color="#C56D32"/>
<stop offset="1" stop-color="#D3612E" stop-opacity="0"/>
</radialGradient>
<radialGradient id="paint27_radial_878_6870" cx="0" cy="0" r="1" gradientUnits="userSpaceOnUse" gradientTransform="translate(6.76414 34.5259) rotate(79.9962) scale(0.978175 6.03762)">
<stop offset="0.403329" stop-color="#E0A6A7" stop-opacity="0"/>
<stop offset="1" stop-color="#E0A6A7"/>
</radialGradient>
<radialGradient id="paint28_radial_878_6870" cx="0" cy="0" r="1" gradientUnits="userSpaceOnUse" gradientTransform="translate(41.2359 34.5259) rotate(100.004) scale(0.978175 6.03762)">
<stop offset="0.401096" stop-color="#D69F8F" stop-opacity="0"/>
<stop offset="0.878207" stop-color="#D69F8F"/>
</radialGradient>
<radialGradient id="paint29_radial_878_6870" cx="0" cy="0" r="1" gradientUnits="userSpaceOnUse" gradientTransform="translate(6.77598 35.4635) rotate(81.3861) scale(1.27052 6.78838)">
<stop offset="0.403329" stop-color="#E0A6A7" stop-opacity="0"/>
<stop offset="1" stop-color="#E0A6A7"/>
</radialGradient>
<radialGradient id="paint30_radial_878_6870" cx="0" cy="0" r="1" gradientUnits="userSpaceOnUse" gradientTransform="translate(41.224 35.4635) rotate(98.6139) scale(1.27052 6.78838)">
<stop offset="0.401096" stop-color="#D69F8F" stop-opacity="0"/>
<stop offset="0.878207" stop-color="#D69F8F"/>
</radialGradient>
<radialGradient id="paint31_radial_878_6870" cx="0" cy="0" r="1" gradientUnits="userSpaceOnUse" gradientTransform="translate(7.50096 36.2946) rotate(83.2697) scale(1.43687 6.03387)">
<stop offset="0.403329" stop-color="#E0A6A7" stop-opacity="0"/>
<stop offset="1" stop-color="#E0A6A7"/>
</radialGradient>
<radialGradient id="paint32_radial_878_6870" cx="0" cy="0" r="1" gradientUnits="userSpaceOnUse" gradientTransform="translate(40.499 36.2946) rotate(96.7303) scale(1.43687 6.03387)">
<stop offset="0.401096" stop-color="#D69F8F" stop-opacity="0"/>
<stop offset="0.878207" stop-color="#D69F8F"/>
</radialGradient>
<radialGradient id="paint33_radial_878_6870" cx="0" cy="0" r="1" gradientUnits="userSpaceOnUse" gradientTransform="translate(8.90259 36.5722) rotate(84.6461) scale(1.60992 5.39623)">
<stop offset="0.403329" stop-color="#E0A6A7" stop-opacity="0"/>
<stop offset="1" stop-color="#E0A6A7"/>
</radialGradient>
<linearGradient id="paint34_linear_878_6870" x1="39.7581" y1="37.826" x2="37.7542" y2="36.0916" gradientUnits="userSpaceOnUse">
<stop offset="0.568736" stop-color="#E4B6A0"/>
<stop offset="1" stop-color="#DA9982"/>
</linearGradient>
<radialGradient id="paint35_radial_878_6870" cx="0" cy="0" r="1" gradientUnits="userSpaceOnUse" gradientTransform="translate(39.1676 36.6603) rotate(95.5373) scale(1.48828 5.15734)">
<stop offset="0.401096" stop-color="#D69F8F" stop-opacity="0"/>
<stop offset="0.878207" stop-color="#D69F8F"/>
</radialGradient>
<linearGradient id="paint36_linear_878_6870" x1="39.7743" y1="37.6267" x2="37.9024" y2="37.4356" gradientUnits="userSpaceOnUse">
<stop stop-color="#EEC0AF"/>
<stop offset="1" stop-color="#EEC0AF" stop-opacity="0"/>
</linearGradient>
<linearGradient id="paint37_linear_878_6870" x1="41.4839" y1="37.1462" x2="39.1117" y2="36.7567" gradientUnits="userSpaceOnUse">
<stop stop-color="#EEC0AF"/>
<stop offset="1" stop-color="#EEC0AF" stop-opacity="0"/>
</linearGradient>
<linearGradient id="paint38_linear_878_6870" x1="42.4711" y1="36.0264" x2="39.9676" y2="36.1702" gradientUnits="userSpaceOnUse">
<stop stop-color="#EEC0AF"/>
<stop offset="1" stop-color="#EEC0AF" stop-opacity="0"/>
</linearGradient>
<linearGradient id="paint39_linear_878_6870" x1="42.3596" y1="34.8651" x2="40.0862" y2="34.7718" gradientUnits="userSpaceOnUse">
<stop stop-color="#EEC0AF"/>
<stop offset="1" stop-color="#EEC0AF" stop-opacity="0"/>
</linearGradient>
<radialGradient id="paint40_radial_878_6870" cx="0" cy="0" r="1" gradientUnits="userSpaceOnUse" gradientTransform="translate(28.5257 12.5986) rotate(69.6569) scale(2.02849 2.40969)">
<stop offset="0.214643" stop-color="#313131"/>
<stop offset="1" stop-color="#1A161E"/>
</radialGradient>
<radialGradient id="paint41_radial_878_6870" cx="0" cy="0" r="1" gradientUnits="userSpaceOnUse" gradientTransform="translate(18.3452 13.0604) rotate(17.4472) scale(1.45757 4.4967)">
<stop stop-color="#564943"/>
<stop offset="0.745836" stop-color="#1E191C"/>
</radialGradient>
<radialGradient id="paint42_radial_878_6870" cx="0" cy="0" r="1" gradientUnits="userSpaceOnUse" gradientTransform="translate(26.6937 11.712) rotate(180) scale(4.92352 8.70965)">
<stop stop-color="#FFDCC0"/>
<stop offset="1" stop-color="#D6A195"/>
</radialGradient>
<linearGradient id="paint43_linear_878_6870" x1="28.9064" y1="13.2993" x2="24.8072" y2="13.2993" gradientUnits="userSpaceOnUse">
<stop stop-color="#FFD6BA"/>
<stop offset="1" stop-color="#FFD6BA" stop-opacity="0"/>
</linearGradient>
<radialGradient id="paint44_radial_878_6870" cx="0" cy="0" r="1" gradientUnits="userSpaceOnUse" gradientTransform="translate(24.5989 5.90039) rotate(90) scale(12.2671 10.1586)">
<stop offset="0.749665" stop-color="#EAB1A5" stop-opacity="0"/>
<stop offset="0.959832" stop-color="#DB9789"/>
</radialGradient>
<radialGradient id="paint45_radial_878_6870" cx="0" cy="0" r="1" gradientUnits="userSpaceOnUse" gradientTransform="translate(26.3542 10.4756) rotate(-90) scale(1.0815 1.33836)">
<stop offset="0.325" stop-color="#F6B8A8"/>
<stop offset="1" stop-color="#F6B8A8" stop-opacity="0"/>
</radialGradient>
<radialGradient id="paint46_radial_878_6870" cx="0" cy="0" r="1" gradientUnits="userSpaceOnUse" gradientTransform="translate(21.8832 10.5193) rotate(-89.7942) scale(1.03058 1.12152)">
<stop offset="0.377617" stop-color="#D39991"/>
<stop offset="1" stop-color="#D39991" stop-opacity="0"/>
</radialGradient>
<radialGradient id="paint47_radial_878_6870" cx="0" cy="0" r="1" gradientUnits="userSpaceOnUse" gradientTransform="translate(27.2824 12.6425) rotate(176.388) scale(8.01733 20.4802)">
<stop offset="0.835902" stop-color="#E6AD97" stop-opacity="0"/>
<stop offset="1" stop-color="#E6AD97"/>
</radialGradient>
<radialGradient id="paint48_radial_878_6870" cx="0" cy="0" r="1" gradientUnits="userSpaceOnUse" gradientTransform="translate(18.9003 7.6385) rotate(-46.6112) scale(4.24785 1.55501)">
<stop offset="0.427646" stop-color="#9F6D5C"/>
<stop offset="1" stop-color="#9F6D5C" stop-opacity="0"/>
</radialGradient>
<radialGradient id="paint49_radial_878_6870" cx="0" cy="0" r="1" gradientUnits="userSpaceOnUse" gradientTransform="translate(26.3353 7.02286) rotate(121.159) scale(3.17286 2.61945)">
<stop offset="0.0780198" stop-color="#F6C3B0"/>
<stop offset="1" stop-color="#F6C3B0" stop-opacity="0"/>
</radialGradient>
<linearGradient id="paint50_linear_878_6870" x1="24.8377" y1="12.3472" x2="24.0483" y2="12.3801" gradientUnits="userSpaceOnUse">
<stop offset="0.360477" stop-color="#FFDFC7"/>
<stop offset="1" stop-color="#FFDFC7" stop-opacity="0"/>
</linearGradient>
<radialGradient id="paint51_radial_878_6870" cx="0" cy="0" r="1" gradientUnits="userSpaceOnUse" gradientTransform="translate(24.4874 12.9931) rotate(90) scale(0.229893 0.72252)">
<stop stop-color="#FFDDC7"/>
<stop offset="1" stop-color="#FFDDC7" stop-opacity="0"/>
</radialGradient>
<linearGradient id="paint52_linear_878_6870" x1="24.0483" y1="13.4201" x2="24.0483" y2="12.9822" gradientUnits="userSpaceOnUse">
<stop stop-color="#D89793"/>
<stop offset="1" stop-color="#D89793" stop-opacity="0"/>
</linearGradient>
<radialGradient id="paint53_radial_878_6870" cx="0" cy="0" r="1" gradientUnits="userSpaceOnUse" gradientTransform="translate(24.5969 12.4567) rotate(155.369) scale(1.57599 2.53275)">
<stop offset="0.714105" stop-color="#D3968C" stop-opacity="0"/>
<stop offset="1" stop-color="#D3968C"/>
</radialGradient>
<linearGradient id="paint54_linear_878_6870" x1="24.0483" y1="10.751" x2="24.0483" y2="11.3873" gradientUnits="userSpaceOnUse">
<stop stop-color="#E8BBA8"/>
<stop offset="1" stop-color="#E8BBA8" stop-opacity="0"/>
</linearGradient>
<linearGradient id="paint55_linear_878_6870" x1="22.9166" y1="14.8992" x2="23.2165" y2="14.1133" gradientUnits="userSpaceOnUse">
<stop stop-color="#E1ACA6"/>
<stop offset="1" stop-color="#E1ACA6" stop-opacity="0"/>
</linearGradient>
<radialGradient id="paint56_radial_878_6870" cx="0" cy="0" r="1" gradientUnits="userSpaceOnUse" gradientTransform="translate(24.0484 15.0446) rotate(-90) scale(0.67878 2.7309)">
<stop stop-color="#88014E"/>
<stop offset="1" stop-color="#86004D"/>
</radialGradient>
<linearGradient id="paint57_linear_878_6870" x1="30.5024" y1="6.37914" x2="19.5661" y2="6.37914" gradientUnits="userSpaceOnUse">
<stop stop-color="#443D40"/>
<stop offset="1" stop-color="#272127"/>
</linearGradient>
<radialGradient id="paint58_radial_878_6870" cx="0" cy="0" r="1" gradientUnits="userSpaceOnUse" gradientTransform="translate(19.1241 8.98824) rotate(-90) scale(3.2975 8.33899)">
<stop offset="0.535851" stop-color="#3E3433"/>
<stop offset="1" stop-color="#3E3433" stop-opacity="0"/>
</radialGradient>
<radialGradient id="paint59_radial_878_6870" cx="0" cy="0" r="1" gradientUnits="userSpaceOnUse" gradientTransform="translate(28.627 10.2222) rotate(-87.4012) scale(2.36871 4.19689)">
<stop stop-color="#4F4D4D"/>
<stop offset="1" stop-color="#4F4D4D" stop-opacity="0"/>
</radialGradient>
<radialGradient id="paint60_radial_878_6870" cx="0" cy="0" r="1" gradientUnits="userSpaceOnUse" gradientTransform="translate(27.9167 4.31123) rotate(-146.667) scale(2.65893 1.95179)">
<stop stop-color="#5E5A5B"/>
<stop offset="1" stop-color="#5E5A5B" stop-opacity="0"/>
</radialGradient>
<radialGradient id="paint61_radial_878_6870" cx="0" cy="0" r="1" gradientUnits="userSpaceOnUse" gradientTransform="translate(23.1968 2.8116) rotate(58.4652) scale(1.62982 3.77389)">
<stop offset="0.286771" stop-color="#484646"/>
<stop offset="1" stop-color="#484646" stop-opacity="0"/>
</radialGradient>
<radialGradient id="paint62_radial_878_6870" cx="0" cy="0" r="1" gradientUnits="userSpaceOnUse" gradientTransform="translate(24.2875 4.93929) rotate(180) scale(2.07299 0.769367)">
<stop stop-color="#423C3F"/>
<stop offset="1" stop-color="#423C3F" stop-opacity="0"/>
</radialGradient>
<radialGradient id="paint63_radial_878_6870" cx="0" cy="0" r="1" gradientUnits="userSpaceOnUse" gradientTransform="translate(18.9343 8.65225) rotate(-57.7244) scale(5.67579 6.28819)">
<stop offset="0.0926981" stop-color="#0B0306"/>
<stop offset="0.311222" stop-color="#1C0C20"/>
<stop offset="1" stop-color="#1C0C20" stop-opacity="0"/>
</radialGradient>
<radialGradient id="paint64_radial_878_6870" cx="0" cy="0" r="1" gradientUnits="userSpaceOnUse" gradientTransform="translate(27.2643 5.67001) scale(2.88035 1.12617)">
<stop stop-color="#4E494B"/>
<stop offset="1" stop-color="#4E494B" stop-opacity="0"/>
</radialGradient>
<radialGradient id="paint65_radial_878_6870" cx="0" cy="0" r="1" gradientUnits="userSpaceOnUse" gradientTransform="translate(26.5294 8.53049) rotate(-43.6141) scale(3.4845 6.37923)">
<stop offset="0.856906" stop-color="#545051" stop-opacity="0"/>
<stop offset="1" stop-color="#545051"/>
</radialGradient>
<radialGradient id="paint66_radial_878_6870" cx="0" cy="0" r="1" gradientUnits="userSpaceOnUse" gradientTransform="translate(25.6951 7.13998) rotate(6.66666) scale(3.07995 1.28952)">
<stop stop-color="#200E25"/>
<stop offset="1" stop-color="#200E25" stop-opacity="0"/>
</radialGradient>
<linearGradient id="paint67_linear_878_6870" x1="30.1101" y1="10.9247" x2="28.9735" y2="12.9743" gradientUnits="userSpaceOnUse">
<stop stop-color="#FFD6BD"/>
<stop offset="1" stop-color="#F0B8A6"/>
</linearGradient>
<radialGradient id="paint68_radial_878_6870" cx="0" cy="0" r="1" gradientUnits="userSpaceOnUse" gradientTransform="translate(28.3974 10.8616) rotate(74.3475) scale(2.19405 2.09329)">
<stop offset="0.856273" stop-color="#CE978E" stop-opacity="0"/>
<stop offset="1" stop-color="#CE978E"/>
</radialGradient>
<radialGradient id="paint69_radial_878_6870" cx="0" cy="0" r="1" gradientUnits="userSpaceOnUse" gradientTransform="translate(28.7368 11.3746) rotate(-53.9198) scale(1.25981 1.05597)">
<stop offset="0.663731" stop-color="#F7B99C"/>
<stop offset="1" stop-color="#F7B99C" stop-opacity="0"/>
</radialGradient>
<radialGradient id="paint70_radial_878_6870" cx="0" cy="0" r="1" gradientUnits="userSpaceOnUse" gradientTransform="translate(28.8441 11.537) rotate(-69.2631) scale(1.56131 2.08613)">
<stop offset="0.803247" stop-color="#EBBB9D" stop-opacity="0"/>
<stop offset="1" stop-color="#EBBB9D"/>
</radialGradient>
<linearGradient id="paint71_linear_878_6870" x1="18.54" y1="11.5882" x2="19.9134" y2="11.4683" gradientUnits="userSpaceOnUse">
<stop stop-color="#D19787"/>
<stop offset="1" stop-color="#C9887D"/>
</linearGradient>
<radialGradient id="paint72_radial_878_6870" cx="0" cy="0" r="1" gradientUnits="userSpaceOnUse" gradientTransform="translate(19.4199 11.4683) rotate(-173.034) scale(1.53055 1.64298)">
<stop offset="0.77507" stop-color="#E8AF99" stop-opacity="0"/>
<stop offset="1" stop-color="#E8AF99"/>
</radialGradient>
<radialGradient id="paint73_radial_878_6870" cx="0" cy="0" r="1" gradientUnits="userSpaceOnUse" gradientTransform="translate(19.4205 11.468) rotate(170.26) scale(0.87575 1.07459)">
<stop stop-color="#C18472"/>
<stop offset="1" stop-color="#CA8B7A"/>
</radialGradient>
<linearGradient id="paint74_linear_878_6870" x1="29.2087" y1="10.5752" x2="29.2087" y2="12.3677" gradientUnits="userSpaceOnUse">
<stop stop-color="#F9BB9E"/>
<stop offset="1" stop-color="#F6BBA0"/>
</linearGradient>
</defs>
</svg>
