<svg width="40" height="40" viewBox="0 0 40 40" fill="none" xmlns="http://www.w3.org/2000/svg">
<rect width="40" height="40" rx="8" fill="#F9F9FF"/>
<path d="M20.4874 27.756L15.9738 27.6716C14.5125 27.6422 13.0474 27.7009 11.6147 27.3963C9.43519 26.9413 9.28079 24.7103 9.11922 22.839C8.89659 20.208 8.98278 17.5293 9.4029 14.9204C9.64007 13.4565 10.5734 12.5829 12.0169 12.4879C16.8895 12.1429 21.7945 12.1838 26.6563 12.3447C27.1698 12.3595 27.6868 12.4401 28.1931 12.5319C30.6923 12.9796 30.7533 15.5078 30.9153 17.6361C31.0768 19.7863 31.0086 21.9476 30.6998 24.0832C30.4521 25.8515 29.978 27.3343 27.9776 27.4774C25.4712 27.6646 23.0223 27.8153 20.5089 27.7673C20.509 27.756 20.4946 27.756 20.4874 27.756ZM17.8339 23.2793C19.7226 22.1711 21.5754 21.0813 23.4534 19.9805C21.5611 18.8723 19.7118 17.7825 17.8339 16.6817V23.2793Z" fill="#313189"/>
</svg>
