<svg width="322" height="87" viewBox="0 0 322 87" fill="none" xmlns="http://www.w3.org/2000/svg">
<path d="M8.58896 6.85943C9.66677 3.05131 12.9284 -3.12546 20.8116 2.18853C20.8418 2.20891 20.8614 2.24484 20.8614 2.2813V9.85357C20.8611 10.7822 17.5241 14.2005 16.0479 16.1221C16.0371 16.1363 16.0299 16.1523 16.0274 16.17C15.9885 16.4606 16.0654 16.9799 16.671 16.9249C17.2871 16.8688 19.5187 16.2093 20.6026 15.8731C20.6324 15.864 20.6654 15.868 20.6856 15.8917C20.7791 16.0015 20.8253 16.2888 20.8253 16.5918V40.5313C20.8253 40.5718 20.8044 40.609 20.7686 40.628C17.8844 42.1508 11.6492 43.4529 8.59384 37.0655C8.58136 37.0397 8.56014 37.0188 8.53329 37.0088C5.41592 35.8589 0.196184 32.0992 3.84091 26.0899C3.86689 26.0471 3.86348 25.9916 3.82919 25.9551C1.71374 23.7022 -1.04104 18.367 4.38876 14.4854C4.4272 14.4578 4.4455 14.4089 4.43271 14.3633C3.9393 12.6054 4.09244 8.78692 8.52353 6.93072C8.55474 6.91764 8.57974 6.89199 8.58896 6.85943Z" fill="url(#paint0_linear_916_5156)"/>
<path d="M36.6347 6.85954C35.5569 3.05141 32.2945 -3.1256 24.411 2.18864C24.3809 2.20894 24.3614 2.24414 24.3612 2.28044V9.85368C24.3618 10.7825 27.6986 14.2007 29.1747 16.1222C29.1856 16.1364 29.1928 16.1524 29.1952 16.1701C29.2342 16.4607 29.1574 16.9791 28.5517 16.924C27.9353 16.8679 25.7048 16.2094 24.621 15.8732C24.5911 15.8639 24.5584 15.8679 24.538 15.8918C24.4444 16.0014 24.3974 16.2886 24.3974 16.592V40.5314C24.3974 40.5718 24.4183 40.6091 24.454 40.6281C27.3383 42.1509 33.5735 43.453 36.6288 37.0656C36.6413 37.0396 36.6633 37.0189 36.6903 37.0089C39.8077 35.8589 45.0263 32.0991 41.3817 26.09C41.3558 26.0472 41.3593 25.9918 41.3935 25.9552C43.5089 23.7024 46.2637 18.3671 40.8339 14.4855C40.7955 14.4579 40.7772 14.409 40.7899 14.3634C41.2834 12.6056 41.1305 8.78707 36.6991 6.93083C36.668 6.91778 36.6439 6.89201 36.6347 6.85954Z" fill="url(#paint1_linear_916_5156)"/>
<path d="M61.4687 23.3681L52.805 9.60815H57.8058L64.5265 20.6289H61.6599L68.3806 9.60815H73.3176L64.5584 23.3681H61.4687ZM60.8954 32V21.043H65.2591V32H60.8954ZM78.3241 32.3185C76.774 32.3185 75.3725 31.9681 74.1197 31.2674C72.888 30.5454 71.9006 29.5793 71.1574 28.3689C70.4355 27.1373 70.0745 25.7677 70.0745 24.26C70.0745 22.7523 70.4355 21.404 71.1574 20.2148C71.8794 19.0044 72.8668 18.0489 74.1197 17.3481C75.3725 16.6262 76.7634 16.2652 78.2922 16.2652C79.8636 16.2652 81.2651 16.6262 82.4967 17.3481C83.7495 18.0489 84.7369 19.0044 85.4589 20.2148C86.1809 21.404 86.5419 22.7523 86.5419 24.26C86.5419 25.7677 86.1809 27.1373 85.4589 28.3689C84.7369 29.5793 83.7495 30.5454 82.4967 31.2674C81.2651 31.9681 79.8742 32.3185 78.3241 32.3185ZM78.2922 28.4326C79.0779 28.4326 79.768 28.2627 80.3626 27.923C80.9784 27.562 81.4456 27.0736 81.7641 26.4578C82.1038 25.8207 82.2737 25.0988 82.2737 24.2919C82.2737 23.4849 82.1038 22.7736 81.7641 22.1578C81.4243 21.542 80.9572 21.0642 80.3626 20.7244C79.768 20.3635 79.0779 20.183 78.2922 20.183C77.5278 20.183 76.8483 20.3635 76.2537 20.7244C75.6592 21.0642 75.192 21.542 74.8522 22.1578C74.5125 22.7736 74.3426 23.4849 74.3426 24.2919C74.3426 25.0988 74.5125 25.8207 74.8522 26.4578C75.192 27.0736 75.6592 27.562 76.2537 27.923C76.8483 28.2627 77.5278 28.4326 78.2922 28.4326ZM95.7896 32.3185C94.4306 32.3185 93.2202 32.0319 92.1585 31.4585C91.118 30.8852 90.3005 30.0889 89.7059 29.0696C89.1113 28.0504 88.8141 26.8719 88.8141 25.5341V16.6156H93.0185V25.4385C93.0185 26.0756 93.1247 26.6277 93.337 27.0948C93.5494 27.5407 93.8679 27.8805 94.2926 28.1141C94.7173 28.3477 95.2163 28.4644 95.7896 28.4644C96.6602 28.4644 97.3397 28.199 97.8281 27.6681C98.3165 27.1373 98.5607 26.3941 98.5607 25.4385V16.6156H102.733V25.5341C102.733 26.8931 102.436 28.0822 101.841 29.1015C101.268 30.1207 100.451 30.917 99.3889 31.4904C98.3484 32.0425 97.1486 32.3185 95.7896 32.3185ZM106.056 32V16.6156H110.229V32H106.056ZM110.229 23.4956L108.604 22.4126C108.795 20.5227 109.347 19.0363 110.261 17.9533C111.174 16.8491 112.49 16.297 114.21 16.297C114.953 16.297 115.622 16.4244 116.217 16.6793C116.811 16.9128 117.353 17.3057 117.841 17.8578L115.229 20.8519C114.996 20.597 114.709 20.4059 114.369 20.2785C114.051 20.1511 113.679 20.0874 113.255 20.0874C112.363 20.0874 111.63 20.3741 111.057 20.9474C110.505 21.4995 110.229 22.3489 110.229 23.4956ZM126.811 32.3185C125.006 32.3185 123.456 32.0106 122.16 31.3948C120.886 30.779 119.729 29.8553 118.688 28.6237L121.555 25.757C122.213 26.6277 122.978 27.3072 123.848 27.7956C124.719 28.2627 125.781 28.4963 127.034 28.4963C128.159 28.4963 129.051 28.2733 129.709 27.8274C130.389 27.3815 130.728 26.7657 130.728 25.98C130.728 25.3005 130.537 24.7484 130.155 24.3237C129.773 23.899 129.263 23.538 128.626 23.2407C128.01 22.9435 127.32 22.678 126.556 22.4444C125.813 22.1896 125.059 21.903 124.294 21.5844C123.551 21.2659 122.861 20.8731 122.224 20.4059C121.608 19.9175 121.109 19.3017 120.727 18.5585C120.345 17.7941 120.154 16.8385 120.154 15.6919C120.154 14.3328 120.483 13.1756 121.141 12.22C121.799 11.2644 122.702 10.5319 123.848 10.0222C124.995 9.51259 126.29 9.25778 127.734 9.25778C129.263 9.25778 130.643 9.54444 131.875 10.1178C133.107 10.6911 134.115 11.4343 134.901 12.3474L132.034 15.2141C131.376 14.4921 130.696 13.9612 129.996 13.6215C129.316 13.2817 128.541 13.1119 127.671 13.1119C126.673 13.1119 125.887 13.303 125.314 13.6852C124.74 14.0674 124.454 14.6195 124.454 15.3415C124.454 15.9573 124.645 16.4563 125.027 16.8385C125.409 17.2207 125.908 17.5499 126.524 17.8259C127.161 18.102 127.851 18.3674 128.594 18.6222C129.359 18.877 130.113 19.1637 130.856 19.4822C131.62 19.8007 132.31 20.2148 132.926 20.7244C133.563 21.2341 134.073 21.8923 134.455 22.6993C134.837 23.4849 135.028 24.4617 135.028 25.6296C135.028 27.7106 134.296 29.3457 132.831 30.5348C131.365 31.724 129.359 32.3185 126.811 32.3185ZM147.812 32L141.855 24.0689L147.78 16.6156H152.589L145.646 25.0244L145.805 22.9859L152.908 32H147.812ZM138.001 32V8.97111H142.174V32H138.001ZM154.269 32V16.6156H158.474V32H154.269ZM156.372 14.1311C155.692 14.1311 155.129 13.9081 154.683 13.4622C154.238 12.9951 154.015 12.4217 154.015 11.7422C154.015 11.0839 154.238 10.5212 154.683 10.0541C155.129 9.58691 155.692 9.35333 156.372 9.35333C157.072 9.35333 157.635 9.58691 158.06 10.0541C158.506 10.5212 158.729 11.0839 158.729 11.7422C158.729 12.4217 158.506 12.9951 158.06 13.4622C157.635 13.9081 157.072 14.1311 156.372 14.1311ZM162.17 32V8.97111H166.343V32H162.17ZM170.04 32V8.97111H174.212V32H170.04ZM183.197 32.3504C182.326 32.3504 181.466 32.2336 180.617 32C179.789 31.7664 179.024 31.4479 178.323 31.0444C177.623 30.6198 177.018 30.1101 176.508 29.5156L178.992 26.9993C179.523 27.5938 180.139 28.0398 180.84 28.337C181.541 28.6343 182.316 28.783 183.165 28.783C183.844 28.783 184.354 28.6874 184.694 28.4963C185.055 28.3052 185.235 28.0185 185.235 27.6363C185.235 27.2116 185.044 26.8825 184.662 26.6489C184.301 26.4153 183.823 26.2242 183.229 26.0756C182.634 25.9057 182.008 25.7252 181.349 25.5341C180.712 25.3217 180.097 25.0563 179.502 24.7378C178.907 24.398 178.419 23.9415 178.037 23.3681C177.676 22.7736 177.495 22.0091 177.495 21.0748C177.495 20.098 177.729 19.2486 178.196 18.5267C178.684 17.8047 179.375 17.242 180.266 16.8385C181.158 16.4351 182.209 16.2333 183.42 16.2333C184.694 16.2333 185.841 16.4563 186.86 16.9022C187.9 17.3481 188.76 18.017 189.44 18.9089L186.923 21.4252C186.456 20.8519 185.925 20.4378 185.331 20.183C184.758 19.9281 184.131 19.8007 183.452 19.8007C182.836 19.8007 182.358 19.8963 182.018 20.0874C181.7 20.2785 181.541 20.544 181.541 20.8837C181.541 21.2659 181.721 21.5632 182.082 21.7756C182.464 21.9879 182.953 22.179 183.547 22.3489C184.142 22.4975 184.758 22.678 185.395 22.8904C186.053 23.0815 186.669 23.3575 187.242 23.7185C187.837 24.0795 188.314 24.5573 188.675 25.1519C189.058 25.7464 189.249 26.5109 189.249 27.4452C189.249 28.9528 188.707 30.1526 187.624 31.0444C186.541 31.9151 185.065 32.3504 183.197 32.3504ZM194.929 32.3185C194.165 32.3185 193.538 32.0637 193.05 31.5541C192.561 31.0444 192.317 30.418 192.317 29.6748C192.317 28.9316 192.561 28.3052 193.05 27.7956C193.538 27.2859 194.165 27.0311 194.929 27.0311C195.672 27.0311 196.288 27.2859 196.776 27.7956C197.265 28.3052 197.509 28.9316 197.509 29.6748C197.509 30.418 197.265 31.0444 196.776 31.5541C196.288 32.0637 195.672 32.3185 194.929 32.3185ZM207.424 32.3185C206.022 32.3185 204.759 31.9681 203.633 31.2674C202.508 30.5667 201.627 29.6111 200.99 28.4007C200.353 27.1904 200.034 25.8314 200.034 24.3237C200.034 22.7948 200.353 21.4252 200.99 20.2148C201.627 19.0044 202.508 18.0489 203.633 17.3481C204.759 16.6474 206.022 16.297 207.424 16.297C208.528 16.297 209.515 16.52 210.386 16.9659C211.256 17.4119 211.947 18.0383 212.456 18.8452C212.987 19.6309 213.274 20.5227 213.316 21.5207V27.063C213.274 28.0822 212.987 28.9847 212.456 29.7704C211.947 30.556 211.256 31.1825 210.386 31.6496C209.515 32.0956 208.528 32.3185 207.424 32.3185ZM208.188 28.4644C209.356 28.4644 210.301 28.0822 211.023 27.3178C211.745 26.5321 212.106 25.5235 212.106 24.2919C212.106 23.4849 211.936 22.7736 211.596 22.1578C211.278 21.5207 210.821 21.0323 210.227 20.6926C209.653 20.3316 208.974 20.1511 208.188 20.1511C207.424 20.1511 206.744 20.3316 206.15 20.6926C205.576 21.0323 205.12 21.5207 204.78 22.1578C204.461 22.7736 204.302 23.4849 204.302 24.2919C204.302 25.12 204.461 25.8526 204.78 26.4896C205.12 27.1054 205.576 27.5938 206.15 27.9548C206.744 28.2946 207.424 28.4644 208.188 28.4644ZM211.883 32V27.8593L212.552 24.1007L211.883 20.4059V16.6156H216.024V32H211.883ZM219.715 32V16.6156H223.919V32H219.715ZM221.817 14.1311C221.138 14.1311 220.575 13.9081 220.129 13.4622C219.683 12.9951 219.46 12.4217 219.46 11.7422C219.46 11.0839 219.683 10.5212 220.129 10.0541C220.575 9.58691 221.138 9.35333 221.817 9.35333C222.518 9.35333 223.081 9.58691 223.505 10.0541C223.951 10.5212 224.174 11.0839 224.174 11.7422C224.174 12.4217 223.951 12.9951 223.505 13.4622C223.081 13.9081 222.518 14.1311 221.817 14.1311Z" fill="#292953"/>
<defs>
<linearGradient id="paint0_linear_916_5156" x1="14.22" y1="0.0561844" x2="14.362" y2="41.8183" gradientUnits="userSpaceOnUse">
<stop stop-color="#41DAE1"/>
<stop offset="0.831731" stop-color="#6F6FFB"/>
</linearGradient>
<linearGradient id="paint1_linear_916_5156" x1="30.007" y1="-0.443821" x2="29.7229" y2="41.3186" gradientUnits="userSpaceOnUse">
<stop stop-color="#3FE0E0"/>
<stop offset="0.850962" stop-color="#6F6FFB"/>
</linearGradient>
</defs>
</svg>
